<svg
  width="60"
  height="60"
  viewBox="0 0 60 60"
  fill="none"
  xmlns="http://www.w3.org/2000/svg"
>
  <g clip-path="url(#clip0_1_42)">
    <path
      d="M30 58.2362C45.5945 58.2362 58.2363 45.5945 58.2363 30C58.2363 14.4056 45.5945 1.76382 30 1.76382C14.4056 1.76382 1.76382 14.4056 1.76382 30C1.76382 45.5945 14.4056 58.2362 30 58.2362Z"
      fill="url(#paint0_linear_1_42)"
    />
    <path
      d="M30 50.288C41.2048 50.288 50.288 41.2048 50.288 30.0001C50.288 18.7953 41.2048 9.7121 30 9.7121C18.7953 9.7121 9.71208 18.7953 9.71208 30.0001C9.71208 41.2048 18.7953 50.288 30 50.288Z"
      fill="url(#paint1_radial_1_42)"
    />
    <path
      d="M32.5156 14.7969C35.2109 14.7969 37.3464 15.3763 38.9219 16.5352C40.5104 17.694 41.3047 19.4193 41.3047 21.7109C41.3047 25.0964 39.7096 27.2969 36.5195 28.3125C38.3815 28.8464 39.7943 29.6602 40.7578 30.7539C41.7344 31.8477 42.2227 33.1693 42.2227 34.7188C42.2227 40.2396 38.7591 43 31.832 43H19.1172V39.6016L22.1055 38.3906V19.6016L19.1172 18.3906V14.9922L28.3164 14.7969H32.5156ZM30.6406 26.3203C32.099 26.3203 33.2057 26.0078 33.9609 25.3828C34.7292 24.7578 35.1133 23.8333 35.1133 22.6094C35.1133 21.6198 34.8008 20.8711 34.1758 20.3633C33.5508 19.8555 32.7305 19.6016 31.7148 19.6016H28.3164V26.3203H30.6406ZM31.6367 38.1953C33.0169 38.1953 34.0716 37.8958 34.8008 37.2969C35.543 36.6979 35.9141 35.8385 35.9141 34.7188C35.9141 33.2734 35.4844 32.2122 34.625 31.5352C33.7786 30.8581 32.4505 30.5195 30.6406 30.5195H28.3164V38.1953H31.6367Z"
      fill="white"
    />
  </g>
  <defs>
    <linearGradient
      id="paint0_linear_1_42"
      x1="7.65958"
      y1="6.48937"
      x2="95.9575"
      y2="85.7447"
      gradientUnits="userSpaceOnUse"
    >
      <stop stop-color="#A91B2B" />
      <stop offset="1" stop-color="#430B11" />
    </linearGradient>
    <radialGradient
      id="paint1_radial_1_42"
      cx="0"
      cy="0"
      r="1"
      gradientUnits="userSpaceOnUse"
      gradientTransform="translate(30 27.4468) rotate(24.7972) scale(34.6993 34.7218)"
    >
      <stop stop-color="#A91B2B" />
      <stop offset="1" stop-color="#430B11" />
    </radialGradient>
    <clipPath id="clip0_1_42">
      <rect width="60" height="60" fill="white" />
    </clipPath>
  </defs>
</svg>
