<svg
  xmlns="http://www.w3.org/2000/svg"
  xmlns:xlink="http://www.w3.org/1999/xlink"
  width="163.839"
  height="163.839"
  fill-rule="evenodd"
  clip-rule="evenodd"
  image-rendering="optimizeQuality"
  shape-rendering="geometricPrecision"
  text-rendering="geometricPrecision"
  viewBox="0 0 1707 1707"
  id="war"
>
  <defs>
    <linearGradient
      id="c"
      x1="1196.78"
      x2="1196.78"
      y1="823.319"
      y2="1442.41"
      gradientUnits="userSpaceOnUse"
    >
      <stop offset="0" stop-color="red"></stop>
      <stop offset="1" stop-color="#900"></stop>
    </linearGradient>
    <linearGradient
      id="b"
      x1="1007.55"
      x2="1007.55"
      y1="1206.54"
      y2="63.831"
      gradientUnits="userSpaceOnUse"
    >
      <stop offset="0" stop-color="#e6e6e6"></stop>
      <stop offset="1" stop-color="#ccc"></stop>
    </linearGradient>
    <linearGradient
      id="a"
      x1="1518.22"
      x2="1518.22"
      y1="1265.77"
      y2="1642.84"
      gradientUnits="userSpaceOnUse"
    >
      <stop offset="0" stop-color="#f91"></stop>
      <stop offset="1" stop-color="#f60"></stop>
    </linearGradient>
    <linearGradient
      id="f"
      x1="1364.87"
      x2="1364.87"
      y1="1100.9"
      y2="1501.01"
      gradientUnits="userSpaceOnUse"
      xlink:href="#a"
    ></linearGradient>
    <linearGradient
      id="d"
      x1="699.098"
      x2="699.098"
      y1="1206.54"
      y2="63.839"
      gradientUnits="userSpaceOnUse"
      xlink:href="#b"
    ></linearGradient>
    <linearGradient
      id="g"
      x1="509.858"
      x2="509.858"
      y1="823.303"
      y2="1442.41"
      gradientUnits="userSpaceOnUse"
      xlink:href="#c"
    ></linearGradient>
    <linearGradient
      id="e"
      x1="341.776"
      x2="341.776"
      y1="1100.9"
      y2="1501.01"
      gradientUnits="userSpaceOnUse"
      xlink:href="#a"
    ></linearGradient>
    <linearGradient
      id="h"
      x1="188.453"
      x2="188.453"
      y1="1266.02"
      y2="1642.84"
      gradientUnits="userSpaceOnUse"
      xlink:href="#a"
    ></linearGradient>
    <linearGradient
      id="i"
      x1="882.276"
      x2="882.276"
      y1="981.823"
      y2="539.083"
      gradientUnits="userSpaceOnUse"
    >
      <stop offset="0" stop-color="#d2d2d2"></stop>
      <stop offset="1" stop-color="#bbb"></stop>
    </linearGradient>
  </defs>
  <path
    fill="url(#d)"
    d="M1040 1207c-5,0 -11,-3 -16,-7l-186 -187 -1 0 -452 -452c-2,-2 -3,-4 -4,-6l-250 -458c-5,-8 -4,-19 3,-27 8,-7 19,-8 27,-3l459 250c2,2 3,3 5,4l452 452 0 1 187 186c4,5 6,10 6,16 0,6 -2,12 -6,16l-208 208c-4,4 -10,7 -16,7z"
  ></path>
  <path
    fill="url(#e)"
    d="M288 1501c-5,0 -11,-2 -16,-7l-124 -124c-4,-4 -6,-10 -6,-16 0,-6 2,-11 6,-16l231 -230c9,-9 23,-9 32,0l124 124c4,4 7,10 7,16 0,6 -3,11 -7,16l-231 230c-4,5 -10,7 -16,7z"
  ></path>
  <path
    fill="url(#f)"
    d="M1418 1501c-6,0 -11,-2 -16,-7l-231 -230c-4,-5 -6,-10 -6,-16 0,-6 2,-12 6,-16l124 -124c9,-9 24,-9 33,0l230 230c5,5 7,10 7,16 0,6 -2,12 -7,16l-124 124c-4,5 -10,7 -16,7z"
  ></path>
  <path
    fill="url(#b)"
    d="M666 1207c-5,0 -11,-3 -16,-7l-207 -208c-9,-8 -9,-23 0,-32l639 -639c2,-1 3,-3 5,-4l458 -250c9,-5 20,-4 27,3 7,8 9,19 4,27l-251 459c-1,2 -2,3 -4,5l-639 639c-4,4 -10,7 -16,7z"
  ></path>
  <path
    fill="url(#g)"
    d="M691 1442c-6,0 -12,-2 -16,-6l-468 -468c-4,-5 -7,-10 -7,-16 0,-7 3,-12 7,-17l105 -105c9,-9 24,-9 33,0l468 468c4,4 6,10 6,16 0,6 -2,12 -6,16l-106 106c-4,4 -10,6 -16,6z"
  ></path>
  <path
    fill="url(#h)"
    d="M278 1643c-6,0 -11,-2 -16,-7l-255 -256c-9,-8 -9,-23 0,-32l76 -76c8,-8 23,-8 32,0l255 256c5,4 7,10 7,16 0,6 -2,12 -7,16l-76 76c-4,5 -10,7 -16,7z"
  ></path>
  <path
    fill="url(#c)"
    d="M1015 1442l0 0c-6,0 -11,-2 -16,-6l-105 -106c-9,-9 -9,-23 0,-32l468 -468c9,-9 23,-9 32,0l106 105c4,5 6,10 6,17 0,6 -2,11 -6,16l-469 468c-4,4 -10,6 -16,6z"
  ></path>
  <path
    fill="url(#a)"
    d="M1428 1643l0 0c-6,0 -11,-3 -16,-7l-76 -76c-9,-9 -9,-23 0,-32l256 -256c9,-8 23,-8 32,0l76 76c4,5 7,10 7,16 0,6 -3,12 -7,17l-256 255c-4,4 -10,7 -16,7z"
  ></path>
  <path
    fill="url(#i)"
    d="M684 982c-6,0 -12,-2 -16,-7 -9,-9 -9,-23 0,-32l397 -397c9,-9 23,-9 32,0 9,9 9,23 0,32l-397 397c-5,5 -11,7 -16,7z"
  ></path>
</svg>
