<svg xmlns="http://www.w3.org/2000/svg" viewBox="0 0 512 512" id="irish">
  <path
    fill="#664c3e"
    d="M416 98.25c14.805 0 14.824-22.41 0-22.41H96c-14.805 0-14.824 22.41 0 22.41Z"
  ></path>
  <path
    fill="#e2bb97"
    d="M368.274 425.186a15.11 15.11 0 0 1-12.65 14.988c-21.724 3.466-81.503 10.076-99.35 10.076s-77.627-6.61-99.35-10.076a15.11 15.11 0 0 1-12.65-14.988V77.75a16 16 0 0 1 16-16h8l88 20 88-20h8a16 16 0 0 1 16 16Z"
  ></path>
  <path
    fill="#f3e3ca"
    d="M344.274 401.688c0 7.468-4.019 13.825-9.488 14.988-16.292 3.465-65.127 10.076-78.512 10.076s-62.22-6.61-78.513-10.076c-5.469-1.163-9.487-7.52-9.487-14.989V61.75h176Z"
  ></path>
  <path
    fill="#f79646"
    d="M108.255 99.835v-8.948c0-11.657 16.938-11.436 16.938-.29v9.238c0 11.197-16.938 11.213-16.938 0zm296.043 0v-8.948c0-11.657-16.938-11.436-16.938-.29v9.238c0 11.197 16.938 11.213 16.938 0z"
  ></path>
</svg>
