<svg
  xmlns="http://www.w3.org/2000/svg"
  xmlns:xlink="http://www.w3.org/1999/xlink"
  viewBox="0 0 1000 1000"
  width="1000"
  height="1000"
  preserveAspectRatio="xMidYMid meet"
  style="
    width: 100%;
    height: 100%;
    transform: translate3d(0px, 0px, 0px);
    content-visibility: visible;
  "
  id="Trumpet"
>
  <defs>
    <clipPath id="__lottie_element_2">
      <rect width="1000" height="1000" x="0" y="0" />
    </clipPath>
    <clipPath id="__lottie_element_5">
      <path d="M0,0 L1000,0 L1000,1000 L0,1000z" />
    </clipPath>
  </defs>
  <g clip-path="url(#__lottie_element_2)">
    <g
      transform="matrix(0.9972631335258484,0.07393443584442139,-0.07393443584442139,0.9972631335258484,40.33305740356445,-29.43547248840332)"
      opacity="1"
      style="display: block"
    >
      <g
        opacity="1"
        transform="matrix(1,0,0,1,286.5610046386719,561.56298828125)"
      >
        <path
          fill="rgb(255,196,0)"
          fill-opacity="1"
          d=" M10.291999816894531,14.788000106811523 C10.291999816894531,14.788000106811523 6.074999809265137,16.961999893188477 6.074999809265137,16.961999893188477 C6.074999809265137,16.961999893188477 -10.291999816894531,-14.788000106811523 -10.291999816894531,-14.788000106811523 C-10.291999816894531,-14.788000106811523 -6.074999809265137,-16.961999893188477 -6.074999809265137,-16.961999893188477 C-6.074999809265137,-16.961999893188477 10.291999816894531,14.788000106811523 10.291999816894531,14.788000106811523z"
        />
      </g>
      <g
        opacity="0.3"
        transform="matrix(1,0,0,1,279.4179992675781,547.676025390625)"
      >
        <path
          fill="rgb(128,0,0)"
          fill-opacity="1"
          d=" M1.069000005722046,-3.075000047683716 C1.069000005722046,-3.075000047683716 -3.1489999294281006,-0.9010000228881836 -3.1489999294281006,-0.9010000228881836 C-3.1489999294281006,-0.9010000228881836 -1.100000023841858,3.075000047683716 -1.100000023841858,3.075000047683716 C-1.100000023841858,3.075000047683716 3.1489999294281006,0.9610000252723694 3.1489999294281006,0.9610000252723694 C3.1489999294281006,0.9610000252723694 1.069000005722046,-3.075000047683716 1.069000005722046,-3.075000047683716z"
        />
      </g>
      <g
        opacity="1"
        transform="matrix(1,0,0,1,278.57000732421875,546.0609741210938)"
      >
        <path
          fill="rgb(255,196,0)"
          fill-opacity="1"
          d=" M11.803999900817871,-3.0220000743865967 C11.803999900817871,-3.0220000743865967 -9.529999732971191,7.5920000076293945 -9.529999732971191,7.5920000076293945 C-10.791999816894531,8.220000267028809 -12.324000358581543,7.705999851226807 -12.95199966430664,6.443999767303467 C-12.95199966430664,6.443999767303467 -12.95199966430664,6.443999767303467 -12.95199966430664,6.443999767303467 C-13.579999923706055,5.182000160217285 -13.065999984741211,3.6500000953674316 -11.803999900817871,3.0220000743865967 C-11.803999900817871,3.0220000743865967 9.531000137329102,-7.5920000076293945 9.531000137329102,-7.5920000076293945 C10.793000221252441,-8.220000267028809 12.324000358581543,-7.705999851226807 12.95199966430664,-6.443999767303467 C12.95199966430664,-6.443999767303467 12.95199966430664,-6.443999767303467 12.95199966430664,-6.443999767303467 C13.579999923706055,-5.182000160217285 13.065999984741211,-3.6500000953674316 11.803999900817871,-3.0220000743865967z"
        />
      </g>
    </g>
    <g
      transform="matrix(0.9972631335258484,0.07393443584442139,-0.07393443584442139,0.9972631335258484,40.33586502075195,-29.427949905395508)"
      opacity="1"
      style="display: block"
    >
      <g
        opacity="1"
        transform="matrix(1,0,0,1,362.6260070800781,526.2449951171875)"
      >
        <path
          fill="rgb(255,196,0)"
          fill-opacity="1"
          d=" M10.291999816894531,14.788000106811523 C10.291999816894531,14.788000106811523 6.074999809265137,16.961999893188477 6.074999809265137,16.961999893188477 C6.074999809265137,16.961999893188477 -10.291999816894531,-14.788000106811523 -10.291999816894531,-14.788000106811523 C-10.291999816894531,-14.788000106811523 -6.074999809265137,-16.961999893188477 -6.074999809265137,-16.961999893188477 C-6.074999809265137,-16.961999893188477 10.291999816894531,14.788000106811523 10.291999816894531,14.788000106811523z"
        />
      </g>
      <g
        opacity="0.3"
        transform="matrix(1,0,0,1,355.4830017089844,512.3579711914062)"
      >
        <path
          fill="rgb(128,0,0)"
          fill-opacity="1"
          d=" M1.069000005722046,-3.075000047683716 C1.069000005722046,-3.075000047683716 -3.1489999294281006,-0.9010000228881836 -3.1489999294281006,-0.9010000228881836 C-3.1489999294281006,-0.9010000228881836 -1.100000023841858,3.075000047683716 -1.100000023841858,3.075000047683716 C-1.100000023841858,3.075000047683716 3.1489999294281006,0.9610000252723694 3.1489999294281006,0.9610000252723694 C3.1489999294281006,0.9610000252723694 1.069000005722046,-3.075000047683716 1.069000005722046,-3.075000047683716z"
        />
      </g>
      <g
        opacity="1"
        transform="matrix(1,0,0,1,354.635009765625,510.7439880371094)"
      >
        <path
          fill="rgb(255,196,0)"
          fill-opacity="1"
          d=" M11.803999900817871,-3.0220000743865967 C11.803999900817871,-3.0220000743865967 -9.529999732971191,7.5920000076293945 -9.529999732971191,7.5920000076293945 C-10.791999816894531,8.220000267028809 -12.324000358581543,7.705999851226807 -12.95199966430664,6.443999767303467 C-12.95199966430664,6.443999767303467 -12.95199966430664,6.443999767303467 -12.95199966430664,6.443999767303467 C-13.579999923706055,5.182000160217285 -13.065999984741211,3.6500000953674316 -11.803999900817871,3.0220000743865967 C-11.803999900817871,3.0220000743865967 9.531000137329102,-7.5920000076293945 9.531000137329102,-7.5920000076293945 C10.793000221252441,-8.220000267028809 12.324000358581543,-7.705999851226807 12.95199966430664,-6.443999767303467 C12.95199966430664,-6.443999767303467 12.95199966430664,-6.443999767303467 12.95199966430664,-6.443999767303467 C13.579999923706055,-5.182000160217285 13.065999984741211,-3.6500000953674316 11.803999900817871,-3.0220000743865967z"
        />
      </g>
    </g>
    <g
      transform="matrix(0.9972631335258484,0.07393443584442139,-0.07393443584442139,0.9972631335258484,40.336299896240234,-29.427213668823242)"
      opacity="1"
      style="display: block"
    >
      <g
        opacity="1"
        transform="matrix(1,0,0,1,323.1610107421875,543.8679809570312)"
      >
        <path
          fill="rgb(255,196,0)"
          fill-opacity="1"
          d=" M10.291999816894531,14.788000106811523 C10.291999816894531,14.788000106811523 6.074999809265137,16.961999893188477 6.074999809265137,16.961999893188477 C6.074999809265137,16.961999893188477 -10.291999816894531,-14.788000106811523 -10.291999816894531,-14.788000106811523 C-10.291999816894531,-14.788000106811523 -6.074999809265137,-16.961999893188477 -6.074999809265137,-16.961999893188477 C-6.074999809265137,-16.961999893188477 10.291999816894531,14.788000106811523 10.291999816894531,14.788000106811523z"
        />
      </g>
      <g
        opacity="0.3"
        transform="matrix(1,0,0,1,316.01800537109375,529.97998046875)"
      >
        <path
          fill="rgb(128,0,0)"
          fill-opacity="1"
          d=" M1.069000005722046,-3.075000047683716 C1.069000005722046,-3.075000047683716 -3.1489999294281006,-0.9010000228881836 -3.1489999294281006,-0.9010000228881836 C-3.1489999294281006,-0.9010000228881836 -1.100000023841858,3.075000047683716 -1.100000023841858,3.075000047683716 C-1.100000023841858,3.075000047683716 3.1489999294281006,0.9610000252723694 3.1489999294281006,0.9610000252723694 C3.1489999294281006,0.9610000252723694 1.069000005722046,-3.075000047683716 1.069000005722046,-3.075000047683716z"
        />
      </g>
      <g
        opacity="1"
        transform="matrix(1,0,0,1,315.1700134277344,528.3660278320312)"
      >
        <path
          fill="rgb(255,196,0)"
          fill-opacity="1"
          d=" M11.803999900817871,-3.0220000743865967 C11.803999900817871,-3.0220000743865967 -9.529999732971191,7.5920000076293945 -9.529999732971191,7.5920000076293945 C-10.791999816894531,8.220000267028809 -12.324000358581543,7.705999851226807 -12.95199966430664,6.443999767303467 C-12.95199966430664,6.443999767303467 -12.95199966430664,6.443999767303467 -12.95199966430664,6.443999767303467 C-13.579999923706055,5.182000160217285 -13.065999984741211,3.6500000953674316 -11.803999900817871,3.0220000743865967 C-11.803999900817871,3.0220000743865967 9.531000137329102,-7.5920000076293945 9.531000137329102,-7.5920000076293945 C10.793000221252441,-8.220000267028809 12.324000358581543,-7.705999851226807 12.95199966430664,-6.443999767303467 C12.95199966430664,-6.443999767303467 12.95199966430664,-6.443999767303467 12.95199966430664,-6.443999767303467 C13.579999923706055,-5.182000160217285 13.065999984741211,-3.6500000953674316 11.803999900817871,-3.0220000743865967z"
        />
      </g>
    </g>
    <g
      clip-path="url(#__lottie_element_5)"
      transform="matrix(0.9972631335258484,0.07393443584442139,-0.07393443584442139,0.9972631335258484,48.22692108154297,-10.80084228515625)"
      opacity="1"
      style="display: block"
    >
      <g
        transform="matrix(1,0,0,1,325.6579895019531,649.52099609375)"
        opacity="1"
        style="display: block"
      >
        <g opacity="1" transform="matrix(1,0,0,1,0,0)">
          <path
            fill="rgb(255,196,0)"
            fill-opacity="1"
            d=" M41.189998626708984,96.00700378417969 C41.189998626708984,96.00700378417969 41.189998626708984,96.00700378417969 41.189998626708984,96.00700378417969 C32.957000732421875,99.49800109863281 23.452999114990234,95.65399932861328 19.961000442504883,87.4219970703125 C19.961000442504883,87.4219970703125 -49.775001525878906,-74.77799987792969 -49.775001525878906,-74.77799987792969 C-53.26599884033203,-83.01100158691406 -49.422000885009766,-92.51499938964844 -41.189998626708984,-96.00700378417969 C-41.189998626708984,-96.00700378417969 -41.189998626708984,-96.00700378417969 -41.189998626708984,-96.00700378417969 C-32.95800018310547,-99.4990005493164 -23.452999114990234,-95.65499877929688 -19.961000442504883,-87.4219970703125 C-19.961000442504883,-87.4219970703125 49.775001525878906,74.77899932861328 49.775001525878906,74.77899932861328 C53.26599884033203,83.01200103759766 49.422000885009766,92.51499938964844 41.189998626708984,96.00700378417969z"
          />
        </g>
      </g>
      <g
        transform="matrix(1,0,0,1,310.3059997558594,644.947021484375)"
        opacity="1"
        style="display: block"
      >
        <g opacity="1" transform="matrix(1,0,0,1,0,0)">
          <path
            fill="rgb(255,211,87)"
            fill-opacity="1"
            d=" M-32.07500076293945,-64.94300079345703 C-35.566001892089844,-73.1760025024414 -31.722000122070312,-82.68099975585938 -23.48900032043457,-86.1719970703125 C-15.517000198364258,-89.5530014038086 -6.401000022888184,-86.01499938964844 -2.6589999198913574,-78.31400299072266 C-2.6589999198913574,-78.31400299072266 -4.609000205993652,-82.8479995727539 -4.609000205993652,-82.8479995727539 C-8.10099983215332,-91.08000183105469 -17.604999542236328,-94.92500305175781 -25.836999893188477,-91.43299865722656 C-34.06999969482422,-87.94200134277344 -37.91400146484375,-78.43699645996094 -34.42300033569336,-70.2040023803711 C-34.42300033569336,-70.2040023803711 35.3129997253418,91.99600219726562 35.3129997253418,91.99600219726562 C35.42300033569336,92.25499725341797 35.59000015258789,92.47100067138672 35.71200180053711,92.72200012207031 C35.71200180053711,92.72200012207031 -32.07500076293945,-64.94300079345703 -32.07500076293945,-64.94300079345703z"
          />
        </g>
      </g>
      <g
        transform="matrix(1,0,0,1,354.50201416015625,716.4639892578125)"
        opacity="0.3"
        style="display: block"
      >
        <g opacity="1" transform="matrix(1,0,0,1,0,0)">
          <path
            fill="rgb(99,0,0)"
            fill-opacity="1"
            d=" M-19.89699935913086,-5.492000102996826 C-19.89699935913086,-5.492000102996826 -11.392999649047852,14.5600004196167 -11.392999649047852,14.5600004196167 C-9.6899995803833,14.107999801635742 -8.01200008392334,13.666999816894531 -6.250999927520752,13.187999725341797 C1.86899995803833,10.979999542236328 10.675999641418457,8.345000267028809 19.89699935913086,5.39900016784668 C19.89699935913086,5.39900016784668 11.432999610900879,-14.5600004196167 11.432999610900879,-14.5600004196167 C0.25200000405311584,-11.128000259399414 -10.390000343322754,-8.03600025177002 -19.89699935913086,-5.492000102996826z"
          />
        </g>
      </g>
      <g
        transform="matrix(1,0,0,1,308.37298583984375,609.1329956054688)"
        opacity="0.3"
        style="display: block"
      >
        <g opacity="1" transform="matrix(1,0,0,1,0,0)">
          <path
            fill="rgb(99,0,0)"
            fill-opacity="1"
            d=" M-18.10099983215332,-2.696000099182129 C-18.10099983215332,-2.696000099182129 -12.305999755859375,10.967000007629395 -12.305999755859375,10.967000007629395 C-12.305999755859375,10.967000007629395 18.10099983215332,-0.2770000100135803 18.10099983215332,-0.2770000100135803 C18.10099983215332,-0.2770000100135803 13.567000389099121,-10.967000007629395 13.567000389099121,-10.967000007629395 C13.567000389099121,-10.967000007629395 13.567000389099121,-10.967000007629395 13.567000389099121,-10.967000007629395 C5.256999969482422,-7.644000053405762 -8.25100040435791,-5 -18.10099983215332,-2.696000099182129z"
          />
        </g>
      </g>
      <g
        transform="matrix(1,0,0,1,363.8380126953125,636.208984375)"
        opacity="1"
        style="display: block"
      >
        <g opacity="1" transform="matrix(1,0,0,1,0,0)">
          <path
            fill="rgb(255,196,0)"
            fill-opacity="1"
            d=" M42.31399917602539,98.62899780273438 C42.31399917602539,98.62899780273438 42.31399917602539,98.62899780273438 42.31399917602539,98.62899780273438 C33.85599899291992,102.21600341796875 24.093000411987305,98.26699829101562 20.506000518798828,89.80899810791016 C20.506000518798828,89.80899810791016 -51.13399887084961,-76.82099914550781 -51.13399887084961,-76.82099914550781 C-54.72100067138672,-85.27799987792969 -50.77199935913086,-95.04199981689453 -42.31399917602539,-98.62899780273438 C-42.31399917602539,-98.62899780273438 -42.31399917602539,-98.62899780273438 -42.31399917602539,-98.62899780273438 C-33.856998443603516,-102.21600341796875 -24.0939998626709,-98.26799774169922 -20.506999969482422,-89.80999755859375 C-20.506999969482422,-89.80999755859375 51.13399887084961,76.82099914550781 51.13399887084961,76.82099914550781 C54.72100067138672,85.27899932861328 50.77199935913086,95.04199981689453 42.31399917602539,98.62899780273438z"
          />
        </g>
      </g>
      <g
        transform="matrix(1,0,0,1,348.0669860839844,631.510009765625)"
        opacity="1"
        style="display: block"
      >
        <g opacity="1" transform="matrix(1,0,0,1,0,0)">
          <path
            fill="rgb(255,211,87)"
            fill-opacity="1"
            d=" M-32.95000076293945,-66.71700286865234 C-36.5369987487793,-75.17400360107422 -32.5890007019043,-84.93900299072266 -24.131000518798828,-88.5260009765625 C-15.940999984741211,-91.9990005493164 -6.576000213623047,-88.36499786376953 -2.7320001125335693,-80.4530029296875 C-2.7320001125335693,-80.4530029296875 -4.734000205993652,-85.11100006103516 -4.734000205993652,-85.11100006103516 C-8.321000099182129,-93.56900024414062 -18.084999084472656,-97.51699829101562 -26.542999267578125,-93.93000030517578 C-35,-90.34300231933594 -38.94900131225586,-80.58000183105469 -35.36199951171875,-72.12200164794922 C-35.36199951171875,-72.12200164794922 36.27799987792969,94.50900268554688 36.27799987792969,94.50900268554688 C36.39099884033203,94.7760009765625 36.5620002746582,94.99700164794922 36.6870002746582,95.25499725341797 C36.6870002746582,95.25499725341797 -32.95000076293945,-66.71700286865234 -32.95000076293945,-66.71700286865234z"
          />
        </g>
      </g>
      <g
        transform="matrix(1,0,0,1,393.4700012207031,704.97998046875)"
        opacity="0.3"
        style="display: block"
      >
        <g opacity="1" transform="matrix(1,0,0,1,0,0)">
          <path
            fill="rgb(99,0,0)"
            fill-opacity="1"
            d=" M-20.440000534057617,-5.642000198364258 C-20.440000534057617,-5.642000198364258 -11.704000473022461,14.958000183105469 -11.704000473022461,14.958000183105469 C-9.956000328063965,14.494000434875488 -8.229999542236328,14.039999961853027 -6.421000003814697,13.54800033569336 C1.9210000038146973,11.279999732971191 10.967000007629395,8.572999954223633 20.440000534057617,5.546000003814697 C20.440000534057617,5.546000003814697 11.744999885559082,-14.958000183105469 11.744999885559082,-14.958000183105469 C0.2590000033378601,-11.432000160217285 -10.673999786376953,-8.255999565124512 -20.440000534057617,-5.642000198364258z"
          />
        </g>
      </g>
      <g
        transform="matrix(1,0,0,1,346.08099365234375,594.718017578125)"
        opacity="0.3"
        style="display: block"
      >
        <g opacity="1" transform="matrix(1,0,0,1,0,0)">
          <path
            fill="rgb(99,0,0)"
            fill-opacity="1"
            d=" M-18.594999313354492,-2.7699999809265137 C-18.594999313354492,-2.7699999809265137 -12.642000198364258,11.265999794006348 -12.642000198364258,11.265999794006348 C-12.642000198364258,11.265999794006348 18.594999313354492,-0.2840000092983246 18.594999313354492,-0.2840000092983246 C18.594999313354492,-0.2840000092983246 13.937999725341797,-11.265999794006348 13.937999725341797,-11.265999794006348 C13.937999725341797,-11.265999794006348 13.937999725341797,-11.265999794006348 13.937999725341797,-11.265999794006348 C5.401000022888184,-7.8520002365112305 -8.475000381469727,-5.13700008392334 -18.594999313354492,-2.7699999809265137z"
          />
        </g>
      </g>
      <g
        transform="matrix(1,0,0,1,404.1159973144531,620.7899780273438)"
        opacity="1"
        style="display: block"
      >
        <g opacity="1" transform="matrix(1,0,0,1,0,0)">
          <path
            fill="rgb(255,196,0)"
            fill-opacity="1"
            d=" M42.92100143432617,100.04199981689453 C42.92100143432617,100.04199981689453 42.92100143432617,100.04199981689453 42.92100143432617,100.04199981689453 C34.34199905395508,103.68099975585938 24.437999725341797,99.67400360107422 20.799999237060547,91.09600067138672 C20.799999237060547,91.09600067138672 -51.86600112915039,-77.9209976196289 -51.86600112915039,-77.9209976196289 C-55.50400161743164,-86.4990005493164 -51.499000549316406,-96.40399932861328 -42.92100143432617,-100.04199981689453 C-42.92100143432617,-100.04199981689453 -42.91999816894531,-100.04199981689453 -42.91999816894531,-100.04199981689453 C-34.34199905395508,-103.68000030517578 -24.437999725341797,-99.67500305175781 -20.799999237060547,-91.09600067138672 C-20.799999237060547,-91.09600067138672 51.86600112915039,77.9219970703125 51.86600112915039,77.9219970703125 C55.50400161743164,86.5 51.499000549316406,96.40399932861328 42.92100143432617,100.04199981689453z"
          />
        </g>
      </g>
      <g
        transform="matrix(1,0,0,1,388.1189880371094,616.0239868164062)"
        opacity="1"
        style="display: block"
      >
        <g opacity="1" transform="matrix(1,0,0,1,0,0)">
          <path
            fill="rgb(255,211,87)"
            fill-opacity="1"
            d=" M-33.42300033569336,-67.6729965209961 C-37.06100082397461,-76.2509994506836 -33.05500030517578,-86.15599822998047 -24.476999282836914,-89.79399871826172 C-16.16900062561035,-93.31800079345703 -6.669000148773193,-89.62999725341797 -2.7709999084472656,-81.6050033569336 C-2.7709999084472656,-81.6050033569336 -4.802999973297119,-86.33000183105469 -4.802999973297119,-86.33000183105469 C-8.440999984741211,-94.90799713134766 -18.344999313354492,-98.91300201416016 -26.923999786376953,-95.2750015258789 C-35.50199890136719,-91.63700103759766 -39.50699996948242,-81.73300170898438 -35.86899948120117,-73.15499877929688 C-35.86899948120117,-73.15499877929688 36.797000885009766,95.86199951171875 36.797000885009766,95.86199951171875 C36.9119987487793,96.13300323486328 37.084999084472656,96.35800170898438 37.21200180053711,96.61900329589844 C37.21200180053711,96.61900329589844 -33.42300033569336,-67.6729965209961 -33.42300033569336,-67.6729965209961z"
          />
        </g>
      </g>
      <g
        transform="matrix(1,0,0,1,434.1719970703125,690.5469970703125)"
        opacity="0.3"
        style="display: block"
      >
        <g opacity="1" transform="matrix(1,0,0,1,0,0)">
          <path
            fill="rgb(99,0,0)"
            fill-opacity="1"
            d=" M-20.732999801635742,-5.7230000495910645 C-20.732999801635742,-5.7230000495910645 -11.871999740600586,15.17199993133545 -11.871999740600586,15.17199993133545 C-10.097999572753906,14.701000213623047 -8.347999572753906,14.241000175476074 -6.513000011444092,13.741999626159668 C1.9490000009536743,11.440999984741211 11.125,8.694999694824219 20.732999801635742,5.625 C20.732999801635742,5.625 11.913000106811523,-15.17199993133545 11.913000106811523,-15.17199993133545 C0.2619999945163727,-11.595000267028809 -10.82699966430664,-8.37399959564209 -20.732999801635742,-5.7230000495910645z"
          />
        </g>
      </g>
      <g
        transform="matrix(1,0,0,1,386.10400390625,578.7050170898438)"
        opacity="0.3"
        style="display: block"
      >
        <g opacity="1" transform="matrix(1,0,0,1,0,0)">
          <path
            fill="rgb(99,0,0)"
            fill-opacity="1"
            d=" M-18.86199951171875,-2.809999942779541 C-18.86199951171875,-2.809999942779541 -12.822999954223633,11.428000450134277 -12.822999954223633,11.428000450134277 C-12.822999954223633,11.428000450134277 18.86199951171875,-0.2879999876022339 18.86199951171875,-0.2879999876022339 C18.86199951171875,-0.2879999876022339 14.13700008392334,-11.428000450134277 14.13700008392334,-11.428000450134277 C14.13700008392334,-11.428000450134277 14.13700008392334,-11.428000450134277 14.13700008392334,-11.428000450134277 C5.478000164031982,-7.965000152587891 -8.597000122070312,-5.210000038146973 -18.86199951171875,-2.809999942779541z"
          />
        </g>
      </g>
      <g
        transform="matrix(1,0,0,1,379.1080017089844,618.4539794921875)"
        opacity="1"
        style="display: block"
      >
        <g opacity="1" transform="matrix(1,0,0,1,0,0)">
          <path
            fill="rgb(255,196,0)"
            fill-opacity="1"
            d=" M-32.45000076293945,105.33899688720703 C-54.83300018310547,111.42400360107422 -72.65599822998047,115.39399719238281 -80.7770004272461,115.6510009765625 C-114.66699981689453,116.7249984741211 -155.46600341796875,35.65800094604492 -167.16200256347656,10.788000106811523 C-167.16200256347656,10.788000106811523 -147.4530029296875,1.5169999599456787 -147.4530029296875,1.5169999599456787 C-124.12300109863281,51.09700012207031 -93.28500366210938,94.26000213623047 -81.46499633789062,93.88400268554688 C-51.91299819946289,92.9469985961914 98.13600158691406,42.20600128173828 115.55699920654297,27.638999938964844 C123.66899871826172,20.18199920654297 116.14900207519531,-38.01599884033203 99.77200317382812,-94.46199798583984 C99.77200317382812,-94.46199798583984 147.51600646972656,-115.66200256347656 147.51600646972656,-115.66200256347656 C158.20899963378906,-78.81500244140625 180.47300720214844,9.065999984741211 156.35299682617188,29.224000930786133 C139.11199951171875,43.63199996948242 31.871999740600586,87.85199737548828 -32.45000076293945,105.33899688720703z"
          />
        </g>
      </g>
      <g
        transform="matrix(1,0,0,1,489.72198486328125,578.93798828125)"
        opacity="0.4"
        style="display: block"
      >
        <g opacity="1" transform="matrix(1,0,0,1,0,0)">
          <path
            fill="rgb(227,148,0)"
            fill-opacity="1"
            d=" M7.955999851226807,57.04800033569336 C15.067999839782715,48.42499923706055 8.520999908447266,-4.007999897003174 -6.109000205993652,-57.04800033569336 C-6.109000205993652,-57.04800033569336 -10.840999603271484,-54.94599914550781 -10.840999603271484,-54.94599914550781 C2.2829999923706055,-9.711999893188477 9.694000244140625,36.577999114990234 7.955999851226807,57.04800033569336z"
          />
        </g>
      </g>
      <g
        transform="matrix(1,0,0,1,466.89599609375,464.1409912109375)"
        opacity="1"
        style="display: block"
      >
        <g opacity="1" transform="matrix(1,0,0,1,0,0)">
          <path
            fill="rgb(255,196,0)"
            fill-opacity="1"
            d=" M171.38763427734375,-220.4451904296875 C171.38763427734375,-220.4451904296875 130.71600341796875,-99.23300170898438 57.854000091552734,-25.93899917602539 C-15.008999824523926,47.35499954223633 -300.5459899902344,165.88499450683594 -300.5459899902344,165.88499450683594 C-300.5459899902344,165.88499450683594 -294.44500732421875,194.11500549316406 -282.3280029296875,192.3939971923828 C-270.21099853515625,190.67300415039062 -28.388999938964844,79.30899810791016 83.73999786376953,69.27400207519531 C195.86900329589844,59.23899841308594 307.4904479980469,89.14458465576172 307.4904479980469,89.14458465576172 C307.4904479980469,89.14458465576172 257.8450012207031,-114.91899871826172 229.88299560546875,-149.7899932861328 C201.92100524902344,-184.66099548339844 171.38763427734375,-220.4451904296875 171.38763427734375,-220.4451904296875z"
          />
        </g>
      </g>
      <g
        transform="matrix(1,0,0,1,463.0660095214844,579.68701171875)"
        opacity="0.4"
        style="display: block"
      >
        <g opacity="1" transform="matrix(1,0,0,1,0,0)">
          <path
            fill="rgb(227,148,0)"
            fill-opacity="1"
            d=" M292.0140075683594,-81.53800201416016 C211.83900451660156,-95.8489990234375 119.54299926757812,-101.87000274658203 46.07699966430664,-77.46499633789062 C-85.80400085449219,-33.65599822998047 -244.3509979248047,44.33599853515625 -304.3760070800781,74.76499938964844 C-297.03900146484375,87.81500244140625 -283.50799560546875,97.77300262451172 -268.6910095214844,92.66500091552734 C-256.8080139160156,88.56800079345703 -254.4929962158203,79.00299835205078 -257.35101318359375,68.80899810791016 C-193.9499969482422,42.7869987487793 -7.0320000648498535,-37.80699920654297 87.56999969482422,-46.27299880981445 C199.69900512695312,-56.30799865722656 311.51885986328125,-26.79823875427246 311.51885986328125,-26.79823875427246 C311.51885986328125,-26.79823875427246 299.5150146484375,-49.441001892089844 292.0140075683594,-81.53800201416016z"
          />
        </g>
      </g>
      <g
        transform="matrix(1,0,0,1,745.2769775390625,368.6080017089844)"
        opacity="1"
        style="display: block"
      >
        <g
          opacity="1"
          transform="matrix(0.912507951259613,0,0,1,12.511367797851562,0)"
        >
          <path
            fill="rgb(255,220,105)"
            fill-opacity="1"
            d=" M125.69400024414062,-55.821998596191406 C169.1820068359375,42.0989990234375 148.16099548339844,146.47300720214844 78.74099731445312,177.302001953125 C9.321999549865723,208.1320037841797 -82.20700073242188,153.7429962158203 -125.69499969482422,55.821998596191406 C-169.18299865722656,-42.0989990234375 -148.16000366210938,-146.4720001220703 -78.74099731445312,-177.302001953125 C-9.321999549865723,-208.1320037841797 82.20600128173828,-153.7429962158203 125.69400024414062,-55.821998596191406z"
          />
        </g>
      </g>
      <g
        transform="matrix(1,0,0,1,748.739990234375,367.07000732421875)"
        opacity="1"
        style="display: block"
      >
        <g
          opacity="1"
          transform="matrix(0.9123968482017517,0,0,1,11.47601318359375,0)"
        >
          <path
            fill="rgb(255,196,0)"
            fill-opacity="1"
            d=" M111.51899719238281,-49.527000427246094 C151.58200073242188,40.68199920654297 134.1300048828125,135.98500061035156 72.54000091552734,163.33799743652344 C10.949999809265137,190.6909942626953 -71.45600128173828,139.73500061035156 -111.51899719238281,49.5260009765625 C-151.58200073242188,-40.68299865722656 -134.1300048828125,-135.98599243164062 -72.54000091552734,-163.33799743652344 C-10.949999809265137,-190.6909942626953 71.45600128173828,-139.73599243164062 111.51899719238281,-49.527000427246094z"
          />
        </g>
      </g>
      <g
        transform="matrix(1,0,0,1,748.739990234375,367.07000732421875)"
        opacity="0.2"
        style="display: block"
      >
        <g
          opacity="1"
          transform="matrix(0.8783095479011536,0,0,1,13.264259338378906,0)"
        >
          <path
            fill="rgb(227,148,0)"
            fill-opacity="1"
            d=" M94.83499908447266,-42.117000579833984 C128.90499877929688,34.59600067138672 114.06300354003906,115.64199829101562 61.6879997253418,138.90199279785156 C9.312000274658203,162.16299438476562 -60.76499938964844,118.83000183105469 -94.83499908447266,42.117000579833984 C-128.9040069580078,-34.59600067138672 -114.06400299072266,-115.64099884033203 -61.6879997253418,-138.90199279785156 C-9.312000274658203,-162.16200256347656 60.76599884033203,-118.83000183105469 94.83499908447266,-42.117000579833984z"
          />
        </g>
      </g>
      <g
        transform="matrix(1,0,0,1,748.7429809570312,367.06500244140625)"
        opacity="0.6"
        style="display: block"
      >
        <g
          opacity="1"
          transform="matrix(0.8783095479011536,0,0,1,13.385948181152344,0)"
        >
          <path
            fill="rgb(227,148,0)"
            fill-opacity="1"
            d=" M94.83100128173828,-42.11199951171875 C60.762001037597656,-118.82499694824219 -9.3149995803833,-162.15699768066406 -61.691001892089844,-138.89700317382812 C-105.63700103759766,-119.37999725341797 -123.1510009765625,-59.180999755859375 -107.5270004272461,5.00600004196167 C-107.51399993896484,5.059999942779541 -107.5009994506836,5.113999843597412 -107.48799896240234,5.168000221252441 C-107.21399688720703,6.291999816894531 -106.9280014038086,7.416999816894531 -106.63300323486328,8.543000221252441 C-106.60199737548828,8.661999702453613 -106.5719985961914,8.781999588012695 -106.54100036621094,8.901000022888184 C-106.26100158691406,9.963000297546387 -105.96900177001953,11.026000022888184 -105.6709976196289,12.09000015258789 C-105.62100219726562,12.269000053405762 -105.5739974975586,12.446999549865723 -105.52300262451172,12.62600040435791 C-105.23899841308594,13.630000114440918 -104.94300079345703,14.635000228881836 -104.64199829101562,15.640999794006348 C-104.5719985961914,15.87600040435791 -104.50499725341797,16.110000610351562 -104.43399810791016,16.344999313354492 C-104.14600372314453,17.295000076293945 -103.84700012207031,18.246000289916992 -103.54499816894531,19.19700050354004 C-103.4540023803711,19.483999252319336 -103.36599731445312,19.770000457763672 -103.27400207519531,20.05699920654297 C-102.98300170898438,20.959999084472656 -102.68000030517578,21.863000869750977 -102.3759994506836,22.766000747680664 C-102.26499938964844,23.097000122070312 -102.15699768066406,23.42799949645996 -102.04399871826172,23.759000778198242 C-101.7490005493164,24.621000289916992 -101.44300079345703,25.482999801635742 -101.13600158691406,26.344999313354492 C-101.00399780273438,26.714000701904297 -100.87799835205078,27.083999633789062 -100.74400329589844,27.452999114990234 C-100.5199966430664,28.07200050354004 -100.28500366210938,28.69099998474121 -100.05500030517578,29.309999465942383 C-100.0479965209961,29.32900047302246 -100.04199981689453,29.347000122070312 -100.03500366210938,29.365999221801758 C-99.96299743652344,29.558000564575195 -99.89099884033203,29.750999450683594 -99.81900024414062,29.94300079345703 C-99.66999816894531,30.340999603271484 -99.5250015258789,30.738000869750977 -99.37300109863281,31.13599967956543 C-99.11199951171875,31.819000244140625 -98.83999633789062,32.50199890136719 -98.57099914550781,33.185001373291016 C-98.47100067138672,33.439998626708984 -98.37200164794922,33.69499969482422 -98.27100372314453,33.95000076293945 C-98.15699768066406,34.236000061035156 -98.0479965209961,34.52199935913086 -97.93299865722656,34.80799865722656 C-97.7959976196289,35.14799880981445 -97.65299987792969,35.48699951171875 -97.51399993896484,35.82699966430664 C-97.4739990234375,35.92599868774414 -97.43199920654297,36.02399826049805 -97.39199829101562,36.12200164794922 C-97.21099853515625,36.566001892089844 -97.0270004272461,37.00899887084961 -96.84200286865234,37.45199966430664 C-96.78800201416016,37.582000732421875 -96.73600006103516,37.7130012512207 -96.68099975585938,37.84299850463867 C-96.59300231933594,38.053001403808594 -96.50900268554688,38.26300048828125 -96.41999816894531,38.472999572753906 C-96.35099792480469,38.637001037597656 -96.27799987792969,38.79999923706055 -96.20800018310547,38.9640007019043 C-96.20500183105469,38.970001220703125 -96.2030029296875,38.97700119018555 -96.19999694824219,38.983001708984375 C-95.75499725341797,40.029998779296875 -95.302001953125,41.07600021362305 -94.83799743652344,42.12200164794922 C-94.3489990234375,43.2239990234375 -93.8499984741211,44.31700134277344 -93.34600067138672,45.40399932861328 C-93.33300018310547,45.43299865722656 -93.31999969482422,45.46200180053711 -93.30699920654297,45.49100112915039 C-93.25800323486328,45.59700012207031 -93.20899963378906,45.702999114990234 -93.16000366210938,45.808998107910156 C-93.0270004272461,46.095001220703125 -92.88899993896484,46.375999450683594 -92.75499725341797,46.6609992980957 C-92.73799896240234,46.696998596191406 -92.72100067138672,46.733001708984375 -92.7040023803711,46.76900100708008 C-92.41999816894531,47.37099838256836 -92.13500213623047,47.97200012207031 -91.84700012207031,48.569000244140625 C-91.80599975585938,48.65299987792969 -91.76799774169922,48.73899841308594 -91.72699737548828,48.823001861572266 C-91.6240005493164,49.0359992980957 -91.52100372314453,49.249000549316406 -91.41699981689453,49.46200180053711 C-91.29000091552734,49.72200012207031 -91.16100311279297,49.97999954223633 -91.03299713134766,50.23899841308594 C-91.00299835205078,50.30099868774414 -90.97100067138672,50.36199951171875 -90.94100189208984,50.42399978637695 C-90.75900268554688,50.79199981689453 -90.5770034790039,51.159000396728516 -90.39299774169922,51.525001525878906 C-90.29399871826172,51.72200012207031 -90.1969985961914,51.92100143432617 -90.0979995727539,52.11800003051758 C-89.93499755859375,52.441001892089844 -89.77200317382812,52.763999938964844 -89.60800170898438,53.084999084472656 C-89.51399993896484,53.27000045776367 -89.41899871826172,53.452999114990234 -89.3239974975586,53.637001037597656 C-89.28099822998047,53.72100067138672 -89.23600006103516,53.80500030517578 -89.19300079345703,53.888999938964844 C-89.18299865722656,53.90800094604492 -89.1729965209961,53.926998138427734 -89.16300201416016,53.946998596191406 C-88.91400146484375,54.42900085449219 -88.66400146484375,54.90999984741211 -88.41300201416016,55.388999938964844 C-88.18800354003906,55.81700134277344 -87.96299743652344,56.24399948120117 -87.73600006103516,56.66999816894531 C-87.7300033569336,56.68199920654297 -87.7229995727539,56.694000244140625 -87.71700286865234,56.70600128173828 C-87.67400360107422,56.7859992980957 -87.63200378417969,56.86800003051758 -87.58899688720703,56.948001861572266 C-87.28399658203125,57.518001556396484 -86.9749984741211,58.08300018310547 -86.66600036621094,58.64799880981445 C-86.44599914550781,59.05099868774414 -86.22599792480469,59.45500183105469 -86.00399780273438,59.85599899291992 C-85.61000061035156,60.566001892089844 -85.21099853515625,61.27000045776367 -84.81099700927734,61.972999572753906 C-84.61900329589844,62.310001373291016 -84.43000030517578,62.64899826049805 -84.23699951171875,62.98400115966797 C-83.66600036621094,63.9739990234375 -83.08899688720703,64.95899963378906 -82.50599670410156,65.93499755859375 C-82.48100280761719,65.97699737548828 -82.45700073242188,66.01899719238281 -82.43199920654297,66.06099700927734 C-81.8219985961914,67.08000183105469 -81.20500183105469,68.08899688720703 -80.58200073242188,69.09200286865234 C-80.38700103759766,69.40599822998047 -80.18800354003906,69.71499633789062 -79.99199676513672,70.0270004272461 C-79.56199645996094,70.71199798583984 -79.12999725341797,71.3949966430664 -78.69400024414062,72.0719985961914 C-78.4520034790039,72.4469985961914 -78.20800018310547,72.81800079345703 -77.96499633789062,73.19100189208984 C-77.56700134277344,73.80000305175781 -77.16799926757812,74.40699768066406 -76.76499938964844,75.01000213623047 C-76.50499725341797,75.4000015258789 -76.24199676513672,75.78700256347656 -75.9800033569336,76.17400360107422 C-75.58499908447266,76.75599670410156 -75.18900299072266,77.33599853515625 -74.79000091552734,77.91200256347656 C-74.52300262451172,78.2979965209961 -74.25399780273438,78.68299865722656 -73.98500061035156,79.06600189208984 C-73.5790023803711,79.64399719238281 -73.16999816894531,80.21700286865234 -72.76000213623047,80.78900146484375 C-72.49600219726562,81.15599822998047 -72.23300170898438,81.5250015258789 -71.96700286865234,81.88999938964844 C-71.5260009765625,82.49600219726562 -71.08100128173828,83.09500122070312 -70.63500213623047,83.69400024414062 C-70.39800262451172,84.01200103759766 -70.16300201416016,84.33399963378906 -69.92400360107422,84.6500015258789 C-69.33200073242188,85.43499755859375 -68.73500061035156,86.21199798583984 -68.13500213623047,86.98400115966797 C-68.04000091552734,87.10700225830078 -67.94599914550781,87.23200225830078 -67.8499984741211,87.35399627685547 C-67.15899658203125,88.23799896240234 -66.46299743652344,89.11299896240234 -65.76200103759766,89.9800033569336 C-65.5199966430664,90.27899932861328 -65.2750015258789,90.572998046875 -65.03199768066406,90.87000274658203 C-64.56600189208984,91.44000244140625 -64.0989990234375,92.00800323486328 -63.62900161743164,92.56999969482422 C-63.33700180053711,92.91899871826172 -63.04100036621094,93.26399993896484 -62.74700164794922,93.61000061035156 C-62.31999969482422,94.11299896240234 -61.893001556396484,94.61399841308594 -61.46200180053711,95.11100006103516 C-61.150001525878906,95.47100067138672 -60.83599853515625,95.8290023803711 -60.52199935913086,96.18599700927734 C-60.104000091552734,96.66100311279297 -59.68299865722656,97.13400268554688 -59.262001037597656,97.60299682617188 C-58.939998626708984,97.96199798583984 -58.61800003051758,98.31999969482422 -58.29399871826172,98.67500305175781 C-57.87099838256836,99.13899993896484 -57.44599914550781,99.5979995727539 -57.02000045776367,100.05599975585938 C-56.698001861572266,100.4020004272461 -56.375999450683594,100.7490005493164 -56.051998138427734,101.09200286865234 C-55.608001708984375,101.56199645996094 -55.1609992980957,102.0260009765625 -54.7140007019043,102.48899841308594 C-54.40599822998047,102.80799865722656 -54.099998474121094,103.12999725341797 -53.79100036621094,103.44599914550781 C-53.25899887084961,103.98999786376953 -52.72200012207031,104.5250015258789 -52.185001373291016,105.05999755859375 C-51.9379997253418,105.30599975585938 -51.694000244140625,105.55500030517578 -51.44599914550781,105.79900360107422 C-50.72600173950195,106.50800323486328 -50.00199890136719,107.20999908447266 -49.275001525878906,107.9020004272461 C-48.95399856567383,108.20700073242188 -48.630001068115234,108.50499725341797 -48.30799865722656,108.80699920654297 C-47.858001708984375,109.22899627685547 -47.40800094604492,109.6520004272461 -46.95500183105469,110.06800079345703 C-46.59400177001953,110.4000015258789 -46.23099899291992,110.72599792480469 -45.86800003051758,111.0530014038086 C-45.45100021362305,111.43000030517578 -45.03300094604492,111.80500030517578 -44.61399841308594,112.1760025024414 C-44.23500061035156,112.51100158691406 -43.85599899291992,112.84200286865234 -43.474998474121094,113.1729965209961 C-43.06800079345703,113.5270004272461 -42.65999984741211,113.87899780273438 -42.250999450683594,114.22699737548828 C-41.86199951171875,114.55799865722656 -41.47200012207031,114.88700103759766 -41.082000732421875,115.21399688720703 C-40.678001403808594,115.552001953125 -40.27199935913086,115.88600158691406 -39.86600112915039,116.21900177001953 C-39.470001220703125,116.54399871826172 -39.07500076293945,116.86799621582031 -38.678001403808594,117.18800354003906 C-38.27299880981445,117.51399993896484 -37.86600112915039,117.83399963378906 -37.45899963378906,118.15499877929688 C-37.060001373291016,118.47000122070312 -36.6609992980957,118.78600311279297 -36.26100158691406,119.09600067138672 C-35.84400177001953,119.41899871826172 -35.42499923706055,119.73400115966797 -35.00600051879883,120.0510025024414 C-34.290000915527344,120.59300231933594 -33.571998596191406,121.12699890136719 -32.85200119018555,121.65299987792969 C-32.415000915527344,121.97200012207031 -31.979000091552734,122.29499816894531 -31.541000366210938,122.60800170898438 C-31.106000900268555,122.91899871826172 -30.66900062561035,123.22100067138672 -30.23200035095215,123.5260009765625 C-29.85300064086914,123.79100036621094 -29.472999572753906,124.05799865722656 -29.093000411987305,124.31800079345703 C-28.64699935913086,124.62300109863281 -28.200000762939453,124.9219970703125 -27.753000259399414,125.22100067138672 C-27.381000518798828,125.47000122070312 -27.007999420166016,125.71900177001953 -26.635000228881836,125.96399688720703 C-26.180999755859375,126.26200103759766 -25.725000381469727,126.55500030517578 -25.270000457763672,126.84600067138672 C-24.90399932861328,127.08000183105469 -24.53700065612793,127.31300354003906 -24.170000076293945,127.54299926757812 C-23.707000732421875,127.83300018310547 -23.242000579833984,128.12100219726562 -22.777999877929688,128.40499877929688 C-22.420000076293945,128.62399291992188 -22.06100082397461,128.83900451660156 -21.70199966430664,129.0540008544922 C-21.22800064086914,129.33799743652344 -20.753000259399414,129.6199951171875 -20.277999877929688,129.89700317382812 C-19.93600082397461,130.0959930419922 -19.5939998626709,130.2899932861328 -19.250999450683594,130.48500061035156 C-18.756000518798828,130.76699829101562 -18.26300048828125,131.05099487304688 -17.767000198364258,131.3249969482422 C-17.486000061035156,131.47999572753906 -17.204999923706055,131.62899780273438 -16.923999786376953,131.78199768066406 C-15.052000045776367,132.80099487304688 -13.17199993133545,133.76499938964844 -11.286999702453613,134.67300415039062 C-11.006999969482422,134.80799865722656 -10.727999687194824,134.9459991455078 -10.447999954223633,135.0780029296875 C-9.920000076293945,135.3280029296875 -9.390000343322754,135.5679931640625 -8.861000061035156,135.8090057373047 C-8.550000190734863,135.9510040283203 -8.23900032043457,136.09300231933594 -7.927000045776367,136.23199462890625 C-7.40500020980835,136.46400451660156 -6.881999969482422,136.69000244140625 -6.359000205993652,136.91400146484375 C-6.043000221252441,137.0489959716797 -5.7270002365112305,137.1840057373047 -5.410999774932861,137.3159942626953 C-4.885000228881836,137.53599548339844 -4.359000205993652,137.75100708007812 -3.8320000171661377,137.96200561523438 C-3.5250000953674316,138.0850067138672 -3.2190001010894775,138.20399475097656 -2.9119999408721924,138.32400512695312 C-2.371999979019165,138.53500366210938 -1.8320000171661377,138.74400329589844 -1.2920000553131104,138.94500732421875 C-1.0160000324249268,139.04800415039062 -0.7400000095367432,139.14599609375 -0.46399998664855957,139.24600219726562 C0.10899999737739563,139.45399475097656 0.6830000281333923,139.66200256347656 1.25600004196167,139.86000061035156 C1.4210000038146973,139.91700744628906 1.5850000381469727,139.968994140625 1.75,140.02499389648438 C3.8410000801086426,140.73500061035156 5.933000087738037,141.3730010986328 8.024999618530273,141.94000244140625 C8.208000183105469,141.99000549316406 8.390999794006348,142.04299926757812 8.574000358581543,142.09100341796875 C9.163000106811523,142.2469940185547 9.75100040435791,142.39300537109375 10.33899974822998,142.53700256347656 C10.593999862670898,142.60000610351562 10.848999977111816,142.66400146484375 11.104000091552734,142.7239990234375 C11.67199993133545,142.85899353027344 12.239999771118164,142.98500061035156 12.807999610900879,143.10899353027344 C13.079000473022461,143.16799926757812 13.35099983215332,143.2270050048828 13.621999740600586,143.28399658203125 C14.187000274658203,143.40199279785156 14.75100040435791,143.51499938964844 15.3149995803833,143.6219940185547 C15.581000328063965,143.6719970703125 15.847000122070312,143.72000122070312 16.113000869750977,143.76800537109375 C16.687999725341797,143.8719940185547 17.26300048828125,143.97300720214844 17.836999893188477,144.0659942626953 C18.06999969482422,144.10400390625 18.304000854492188,144.13699340820312 18.53700065612793,144.17300415039062 C19.145999908447266,144.26600646972656 19.756000518798828,144.35800170898438 20.36400032043457,144.43899536132812 C20.475000381469727,144.45399475097656 20.586000442504883,144.46499633789062 20.69700050354004,144.47900390625 C22.865999221801758,144.75799560546875 25.02899932861328,144.9550018310547 27.183000564575195,145.0679931640625 C27.309999465942383,145.0749969482422 27.437999725341797,145.08399963378906 27.565000534057617,145.08999633789062 C28.16900062561035,145.11900329589844 28.770999908447266,145.13600158691406 29.374000549316406,145.15199279785156 C29.601999282836914,145.1580047607422 29.83099937438965,145.16600036621094 30.05900001525879,145.1699981689453 C30.631000518798828,145.17999267578125 31.20199966430664,145.18099975585938 31.773000717163086,145.1790008544922 C32.0260009765625,145.17799377441406 32.27899932861328,145.177001953125 32.53200149536133,145.1739959716797 C33.09400177001953,145.16700744628906 33.65599822998047,145.1529998779297 34.21699905395508,145.13400268554688 C34.470001220703125,145.125 34.72200012207031,145.11399841308594 34.9739990234375,145.10299682617188 C35.54100036621094,145.0780029296875 36.106998443603516,145.0489959716797 36.67300033569336,145.01199340820312 C36.89799880981445,144.9969940185547 37.124000549316406,144.97900390625 37.3489990234375,144.96200561523438 C37.94300079345703,144.91799926757812 38.53499984741211,144.87100219726562 39.12699890136719,144.81300354003906 C39.250999450683594,144.80099487304688 39.375999450683594,144.78599548339844 39.5,144.7729949951172 C47.13100051879883,143.98699951171875 54.571998596191406,142.0659942626953 61.685001373291016,138.90699768066406 C114.05999755859375,115.64700317382812 128.9010009765625,34.60100173950195 94.83100128173828,-42.11199951171875z"
          />
        </g>
      </g>
      <g
        transform="matrix(1,0,0,1,179.89100646972656,644.1190185546875)"
        opacity="1"
        style="display: block"
      >
        <g opacity="1" transform="matrix(1,0,0,1,0,0)">
          <path
            fill="rgb(255,196,0)"
            fill-opacity="1"
            d=" M-12.930000305175781,-29.202999114990234 C-44.198001861572266,-21.277999877929688 -17.878000259399414,39.39099884033203 14.482999801635742,28.232999801635742 C46.84400177001953,17.075000762939453 8.409000396728516,-34.611000061035156 -12.930000305175781,-29.202999114990234z"
          />
        </g>
      </g>
      <g
        transform="matrix(1,0,0,1,182.76199340820312,654.0709838867188)"
        opacity="0.4"
        style="display: block"
      >
        <g opacity="1" transform="matrix(1,0,0,1,0,0)">
          <path
            fill="rgb(227,148,0)"
            fill-opacity="1"
            d=" M4.423999786376953,9.616000175476074 C-13.428999900817871,19.71500015258789 -24.070999145507812,0.38199999928474426 -24.070999145507812,0.38199999928474426 C-24.070999145507812,0.38199999928474426 -24.070999145507812,0.38199999928474426 -24.070999145507812,0.38199999928474426 C-16.733999252319336,13.432000160217285 -3.2039999961853027,23.389999389648438 11.61299991607666,18.281999588012695 C28.996000289916992,12.288000106811523 25.94099998474121,-5.394999980926514 16.091999053955078,-19.645999908447266 C16.128999710083008,-19.5310001373291 22.222999572753906,-0.453000009059906 4.423999786376953,9.616000175476074z"
          />
        </g>
      </g>
    </g>
  </g>
  <line
    x1="250"
    y1="250"
    x2="750"
    y2="750"
    stroke="rgb(227,148,0)"
    stroke-width="20"
    stroke-linecap="round"
  />
</svg>
