<?xml version="1.0" encoding="iso-8859-1"?>
<!-- Uploaded to: SVG Repo, www.svgrepo.com, Generator: SVG Repo Mixer Tools -->
<svg
  height="800px"
  width="800px"
  version="1.1"
  id="Layer_1"
  xmlns="http://www.w3.org/2000/svg"
  xmlns:xlink="http://www.w3.org/1999/xlink"
  viewBox="0 0 503.325 503.325"
  xml:space="preserve"
>
  <g>
    <path
      style="fill: #c69666"
      d="M312.408,17.359V0.003H190.917v17.356H34.713c-19.17,0-34.712,15.542-34.712,34.712v416.542
		c0,19.17,15.542,34.712,34.712,34.712h433.898c19.17,0,34.712-15.542,34.712-34.712V52.07c0-19.17-15.542-34.712-34.712-34.712
		H312.408z"
    />
    <path
      style="fill: #e8d5b2"
      d="M300.427,128.581L251.666,86.78l-48.77,41.802c-4.703,4.035-11.976,0.694-11.976-5.511V0h121.492
		v123.071C312.412,129.276,305.131,132.617,300.427,128.581"
    />
    <path
      style="fill: #ffd479"
      d="M251.662,433.901c-12.67-4.946-24.923-12.028-36.56-21.131
		c-36.881-28.854-58.897-75.524-58.897-124.841v-79.933c44.093-5.597,75.403-20.871,95.458-34.434
		c20.055,13.564,51.365,28.837,95.458,34.434v79.933c0,49.317-22.016,95.987-58.889,124.841
		C276.585,421.873,264.332,428.954,251.662,433.901"
    />
    <path
      style="fill: #ffffff"
      d="M205.108,355.778c-3.15,0-6.179-1.718-7.723-4.703c-9.91-19.239-15.143-41.073-15.143-63.15v-51.018
		c0-4.009,2.751-7.506,6.647-8.435c11.559-2.768,22.858-6.309,33.575-10.518c4.452-1.762,9.502,0.451,11.247,4.912
		c1.753,4.46-0.443,9.494-4.912,11.238c-9.39,3.697-19.187,6.899-29.201,9.563v44.258c0,19.326,4.573,38.409,13.217,55.201
		c2.196,4.261,0.521,9.494-3.74,11.689C207.806,355.466,206.444,355.778,205.108,355.778"
    />
  </g>
</svg>
