  <svg
    id="Layer_1"
    height="400px"
    width="400px"
    version="1.1"
    xmlns="http://www.w3.org/2000/svg"
    xmlns:xlink="http://www.w3.org/1999/xlink"
    viewBox="0 0 512 512"
    xml:space="preserve"
  >
    <g>
      <path
        fill =" transparent"
        d="M445.217,489.739H66.783c-24.588,0-44.522-19.934-44.522-44.522V66.783
	c0-24.588,19.933-44.522,44.522-44.522h378.435c24.588,0,44.522,19.933,44.522,44.522v378.435
	C489.739,469.806,469.806,489.739,445.217,489.739z"
      />
      <g>
        <path
          fill =" #c5ead4"
          d="M512,44.522L512,44.522c0,12.295-9.966,22.261-22.261,22.261h-66.783
	c-12.295,0-22.261-9.966-22.261-22.261h-33.391c-12.295,0-22.261-9.966-22.261-22.261l0,0C345.043,9.966,355.01,0,367.304,0h66.783
	c12.295,0,22.261,9.966,22.261,22.261l0,0h33.391C502.034,22.261,512,32.227,512,44.522z"
        />
        <path
          fill =" #ffd479"
          d="M189.217,94.609c0,52.251-42.358,94.609-94.609,94.609S0,146.859,0,94.609S42.358,0,94.609,0
	S189.217,42.358,189.217,94.609z"
        />
      </g>
      <path
        fill =" #ffd479"
        d="M297.739,8.348V64c0,4.61-3.738,8.348-8.348,8.348s-8.348-3.738-8.348-8.348V8.348
	c0-4.61,3.738-8.348,8.348-8.348S297.739,3.738,297.739,8.348z M166.957,122.435c-4.61,0-8.348,3.738-8.348,8.348v44.522
	c0,4.61,3.738,8.348,8.348,8.348s8.348-3.738,8.348-8.348v-44.522C175.304,126.172,171.567,122.435,166.957,122.435z
	 M411.826,122.435c-4.61,0-8.348,3.738-8.348,8.348v44.522c0,4.61,3.738,8.348,8.348,8.348c4.61,0,8.348-3.738,8.348-8.348v-44.522
	C420.174,126.172,416.436,122.435,411.826,122.435z"
      />
      <path
        fill =" #9fba41"
        d="M500.87,345.043v77.913h-55.652V311.652h22.261C485.92,311.652,500.87,326.601,500.87,345.043z
	 M111.959,144.696L111.959,144.696c-29.29,0-53.033,23.743-53.033,53.033v19.163c-3.767-0.969-7.716-1.485-11.785-1.485l0,0
	C21.106,215.406,0,236.512,0,262.547v35.356c0,26.035,21.106,47.141,47.141,47.141l0,0c19.293,0,35.87-11.596,43.166-28.194
	c6.614,2.963,13.936,4.624,21.652,4.624l0,0c29.29,0,53.033-23.743,53.033-53.033v-70.712
	C164.992,168.439,141.249,144.696,111.959,144.696z"
      />
      <path
        fill =" #7f932a"
        d="M66.783,256h89.043v77.913v77.913H33.391C14.949,411.826,0,396.877,0,378.435v-11.13
	c0-18.442,14.949-33.391,33.391-33.391h15.09c-9.248-8.159-15.09-20.089-15.09-33.391v-11.13C33.391,270.949,48.341,256,66.783,256z
	 M478.609,378.435h-44.522v89.043H512v-55.652C512,393.384,497.051,378.435,478.609,378.435z"
      />
      <path
        fill =" #e8d5b2"
        d="M333.913,166.957c6.147,0,11.13,4.983,11.13,11.13v33.391H233.739v-33.391
	c0-6.147,4.983-11.13,11.13-11.13l0,0v-44.522l0,0c7.127-7.127,16.792-11.13,26.871-11.13h35.301
	c10.079,0,19.744,4.004,26.871,11.13l0,0V166.957L333.913,166.957z"
      />
      <g>
        <path

          fill =" #e6d0a9"
          d="M345.043,178.087v55.652H233.739v-55.652c0-6.147,4.983-11.13,11.13-11.13h89.043
		C340.06,166.957,345.043,171.94,345.043,178.087z"
        />
        <path

          fill =" #e6d0a9"
          d="M456.348,267.13v211.478H122.435V267.13H456.348z"
        />
      </g>
      <path
        fill =" #c69666"
        d="M467.478,256v11.13c0,6.147-4.983,11.13-11.13,11.13H122.435c-6.147,0-11.13-4.983-11.13-11.13V256
	c0-6.147,4.983-11.13,11.13-11.13h16.696l0,0c3.41-6.822,10.382-11.13,18.009-11.13h19.564c7.072,0,13.627,3.711,17.266,9.776
	l0.814,1.355H384l0.813-1.355c3.64-6.065,10.193-9.776,17.266-9.776h19.564c7.627,0,14.599,4.309,18.009,11.13l0,0h16.696
	C462.495,244.87,467.478,249.853,467.478,256z"
      />
      <path
        fill =" #dbcb9c"
        d="M367.304,222.609v256H211.478v-256c0-6.147,4.983-11.13,11.13-11.13h133.565
	C362.321,211.478,367.304,216.461,367.304,222.609z"
      />
      <path
        fill =" #c69666"
        d="M322.783,289.391v189.217H256V289.391C256,270.949,270.949,256,289.391,256l0,0
	C307.833,256,322.783,270.949,322.783,289.391z"
      />
      <path
        fill =" #a9a632"
        d="M332.975,416.56l20.035,66.783c4.284,14.283-6.411,28.658-21.323,28.658H44.522
	C19.933,512,0,492.066,0,467.478v-44.522c0-12.295,9.966-22.261,22.261-22.261h289.391
	C321.483,400.696,330.15,407.143,332.975,416.56z"
      />
      <path
        fill =" #606d11"
        d="M179.561,456.348H500.87c6.147,0,11.13,4.983,11.13,11.13l0,0C512,492.066,492.066,512,467.478,512
	H153.224c-8.652,0-13.995-9.439-9.544-16.857l16.792-27.987C164.494,460.451,171.741,456.348,179.561,456.348z"
      />
      <path
        fill =" #c57b34"
        d="M296.973,27.448l36.94,94.987H244.87l36.94-94.987c1.215-3.127,4.227-5.187,7.582-5.187
	C292.746,22.261,295.758,24.321,296.973,27.448z M166.957,144.696c-4.053,0-7.549,2.843-8.376,6.811l-19.45,93.363h55.652
	l-19.45-93.363C174.505,147.538,171.009,144.696,166.957,144.696z M420.202,151.506c-0.827-3.968-4.323-6.811-8.376-6.811
	s-7.549,2.843-8.376,6.811L384,244.87h55.652L420.202,151.506z"
      />
      <path
        fill =" #c69666"
        d="M175.304,308.87v44.522c0,4.611-3.736,8.348-8.348,8.348s-8.348-3.736-8.348-8.348V308.87
	c0-4.611,3.736-8.348,8.348-8.348S175.304,304.258,175.304,308.87z M411.826,300.522c-4.611,0-8.348,3.736-8.348,8.348v100.174
	c0,4.611,3.736,8.348,8.348,8.348c4.611,0,8.348-3.736,8.348-8.348V308.87C420.174,304.258,416.437,300.522,411.826,300.522z"
      />
    </g>
  </svg>