<?xml version="1.0" encoding="iso-8859-1"?>
<!-- Generator: Adobe Illustrator 19.0.0, SVG Export Plug-In . SVG Version: 6.00 Build 0)  -->
<svg version="1.1" id="Layer_1" xmlns="http://www.w3.org/2000/svg" xmlns:xlink="http://www.w3.org/1999/xlink" x="0px" y="0px"
	 viewBox="0 0 512 512" style="enable-background:new 0 0 512 512;" xml:space="preserve">
<g>
	<g>
		<path d="M424.232,45.447L337.49,234.593h32.408v40.75h-60.602v-72.095h-15.673v87.768h91.948v-56.423h125.401L424.232,45.447z
			 M361.92,218.92l62.311-135.874l35.478,77.362h-22.94v15.673h30.128l5.271,11.494h-56.295v15.673h63.483l7.188,15.673H361.92z"/>
	</g>
</g>
<g>
	<g>
		<path d="M256.009,0.518l-86.741,189.146h32.409v85.679h-61.647v-27.166h-15.673v42.839h92.993V189.664H342.75L256.009,0.518z
			 M193.697,173.991l7.188-15.673h63.483v-15.673h-56.295l5.271-11.493h30.128v-15.673h-22.94l35.478-77.362l62.311,135.874H193.697
			z"/>
	</g>
</g>
<g>
	<g>
		<polygon points="477.52,275.343 477.52,248.177 461.847,248.177 461.847,291.016 496.327,291.016 496.327,410.653 
			454.533,410.653 454.533,426.325 496.327,426.325 496.327,436.774 431.546,436.774 431.546,452.447 496.327,452.447 
			496.327,462.896 452.443,462.896 452.443,478.569 496.327,478.569 496.327,495.809 330.194,495.809 330.194,511.482 512,511.482 
			512,275.343 		"/>
	</g>
</g>
<g>
	<g>
		<path d="M256.009,361.805c-33.56,0-60.863,27.303-60.863,60.863v87.246h42.056v-15.673h-26.383v-71.573
			c0-24.918,20.272-45.19,45.19-45.19c24.918,0,45.19,20.272,45.19,45.19v88.813h15.673v-88.813
			C316.872,389.109,289.569,361.805,256.009,361.805z"/>
	</g>
</g>
<g>
	<g>
		<path d="M15.691,495.809v-17.24h43.884v-15.673H15.691v-10.449h64.781v-15.673H15.691v-10.449h41.794v-15.673H15.691V291.016
			h32.391v-56.423h125.401L86.741,45.447L0,234.593h32.409v40.75H0.018v236.139h181.806v-15.673H15.691z M24.43,218.92
			L86.741,83.047l35.478,77.362H99.28v15.673h30.128l5.27,11.494H78.382v15.673h63.483l7.188,15.673H24.43z"/>
	</g>
</g>
<g>
	<g>
		<path d="M63.232,247.654v80.454h47.019v-80.454H63.232z M94.578,312.436H78.905v-49.109h15.673V312.436z"/>
	</g>
</g>
<g>
	<g>
		<path d="M124.356,328.631v80.454h47.019v-80.454H124.356z M155.702,393.412h-15.673v-49.108h15.673V393.412z"/>
	</g>
</g>
<g>
	<g>
		<path d="M338.553,328.631v80.454h47.019v-80.454H338.553z M369.899,393.412h-15.673v-49.108h15.673V393.412z"/>
	</g>
</g>
<g>
	<g>
		<path d="M232.499,205.86v80.454h47.019V205.86H232.499z M263.845,270.641h-15.673v-49.108h15.673V270.641z"/>
	</g>
</g>
<g>
	<g>
		<path d="M400.722,247.654v80.454h47.019v-80.454H400.722z M432.068,312.436h-15.673v-49.109h15.673V312.436z"/>
	</g>
</g>
<g>
	<g>
		<rect x="253.922" y="115.478" width="26.122" height="15.673"/>
	</g>
</g>
<g>
	<g>
		<rect x="400.203" y="160.407" width="26.122" height="15.673"/>
	</g>
</g>
<g>
	<g>
		<rect x="62.713" y="160.407" width="26.122" height="15.673"/>
	</g>
</g>
<g>
	<g>
		<rect x="417.966" y="410.652" width="26.122" height="15.673"/>
	</g>
</g>
<g>
	<g>
		<rect x="67.937" y="410.652" width="26.122" height="15.673"/>
	</g>
</g>
<g>
</g>
<g>
</g>
<g>
</g>
<g>
</g>
<g>
</g>
<g>
</g>
<g>
</g>
<g>
</g>
<g>
</g>
<g>
</g>
<g>
</g>
<g>
</g>
<g>
</g>
<g>
</g>
<g>
</g>
</svg>
