<?xml version="1.0" encoding="iso-8859-1"?>
<!-- Generator: Adobe Illustrator 19.0.0, SVG Export Plug-In . SVG Version: 6.00 Build 0)  -->
<svg version="1.1" id="Layer_1" xmlns="http://www.w3.org/2000/svg" xmlns:xlink="http://www.w3.org/1999/xlink" x="0px" y="0px"
	 viewBox="0 0 512 512" style="enable-background:new 0 0 512 512;" xml:space="preserve">
<circle style="fill:#E6F3FF;" cx="256" cy="256" r="256"/>
<path style="fill:#CFDBE6;" d="M511.822,265.102l-122.88-122.88l-6.572,13.303l-13.305-13.303l-4.513,16.713l10.8,10.8l-1.788,3.62
	l-31.134-31.134l-7.03,19.606l-19.604-19.606l-3.007,46.735l-4.451,58.846L202.761,142.222l-6.216,13.659l-13.659-13.659
	l-1.517,19.33l8.654,8.654l-1.81,3.977l-31.963-31.961l-3.751,21.769l27.729,27.729l-0.348,0.765l-50.264-50.264l-1.957,13.633
	l47.344,47.344l74.862,82.292L101.71,380.983l129.85,129.85C239.606,511.595,247.755,512,256,512
	C394.337,512,507.026,402.268,511.822,265.102z"/>
<rect x="184.889" y="170.667" style="fill:#935635;" width="142.222" height="56.889"/>
<rect x="256" y="170.667" style="fill:#804000;" width="71.111" height="56.889"/>
<rect x="142.222" y="209.024" style="fill:#F4A200;" width="227.556" height="142.222"/>
<rect x="256" y="209.024" style="fill:#D68900;" width="113.778" height="142.222"/>
<path style="fill:#D88B03;" d="M284.444,369.778h-56.889v-85.333C227.556,268.734,240.29,256,256,256l0,0
	c15.71,0,28.444,12.734,28.444,28.444V369.778z"/>
<path style="fill:#C17700;" d="M284.444,284.444C284.444,268.734,271.71,256,256,256v113.778h28.444V284.444z"/>
<polygon style="fill:#F4A200;" points="393.912,369.778 304.269,369.778 315.797,176.156 382.385,176.156 "/>
<path style="fill:#D88B03;" d="M382.385,142.222v13.126h-13.317v-13.126H355.75v13.126h-13.317v-13.126h-13.317v13.126h-13.317
	v-13.126h-6.558v32.066c0,5.629,3.594,10.192,8.03,10.192h63.643c4.434,0,8.03-4.563,8.03-10.192v-32.066H382.385z"/>
<polygon style="fill:#F9B54C;" points="207.731,369.778 118.088,369.778 129.615,176.156 196.203,176.156 "/>
<path style="fill:#F4A200;" d="M196.203,142.222v13.126h-13.317v-13.126h-13.317v13.126h-13.317v-13.126h-13.317v13.126h-13.317
	v-13.126h-6.558v32.066c0,5.629,3.594,10.192,8.03,10.192h63.643c4.434,0,8.03-4.563,8.03-10.192v-32.066H196.203z"/>
<rect x="101.71" y="344.781" style="fill:#935635;" width="308.579" height="36.202"/>
<rect x="256" y="344.781" style="fill:#804000;" width="154.29" height="36.202"/>
<path style="fill:#D88B03;" d="M179.976,284.444h-34.133v-39.822c0-9.426,7.64-17.067,17.067-17.067l0,0
	c9.426,0,17.067,7.64,17.067,17.067V284.444z"/>
<path style="fill:#C17700;" d="M366.158,284.444h-34.133v-39.822c0-9.426,7.64-17.067,17.067-17.067l0,0
	c9.426,0,17.067,7.64,17.067,17.067L366.158,284.444L366.158,284.444z"/>
<g>
</g>
<g>
</g>
<g>
</g>
<g>
</g>
<g>
</g>
<g>
</g>
<g>
</g>
<g>
</g>
<g>
</g>
<g>
</g>
<g>
</g>
<g>
</g>
<g>
</g>
<g>
</g>
<g>
</g>
</svg>
