<svg
  id="Layer_1"
  height="400px"
  width="400px"
  version="1.1"
  xmlns="http://www.w3.org/2000/svg"
  xmlns:xlink="http://www.w3.org/1999/xlink"
  viewBox="0 0 512 512"
  xml:space="preserve"
>
  <g>
    <path
      fill="transparent"
      d="M445.217,489.739H66.783c-24.588,0-44.522-19.934-44.522-44.522V66.783
	c0-24.588,19.933-44.522,44.522-44.522h378.435c24.588,0,44.522,19.933,44.522,44.522v378.435
	C489.739,469.806,469.806,489.739,445.217,489.739z"
    />
    <g>
      <g style="transform: scale(0.4)">
        <path
          style="fill: #d7b354"
          d="M397.017,370.594c-145.51,0-263.459-117.941-263.459-263.459c0-38.156,8.184-74.382,22.788-107.126
	C64.232,41.07,0.012,133.364,0.012,240.703c0,145.495,117.965,263.444,263.452,263.444c107.339,0,199.625-64.228,240.672-156.325
	C471.406,362.409,435.172,370.594,397.017,370.594z"
        />
        <path
          style="fill: #efc75e"
          d="M305.471,435.877c77.296,0,146.684-33.422,194.851-86.473
	c-31.736,13.556-66.615,21.181-103.306,21.181c-145.51,0-263.459-117.941-263.459-263.459c0-38.156,8.184-74.382,22.788-107.126
	c-36.328,16.211-68.206,40.464-93.633,70.38c-13.233,31.397-20.693,65.827-20.693,102.053
	C42.019,317.921,159.976,435.877,305.471,435.877z"
        />
        <g>
          <circle style="fill: #dfa14f" cx="45.115" cy="336.754" r="5.908" />
          <circle style="fill: #dfa14f" cx="77.284" cy="374.17" r="7.877" />
          <circle style="fill: #dfa14f" cx="41.83" cy="256.016" r="6.561" />
          <circle style="fill: #dfa14f" cx="100.246" cy="264.523" r="16.408" />
          <circle style="fill: #dfa14f" cx="195.438" cy="418.808" r="3.938" />
          <circle style="fill: #dfa14f" cx="237.446" cy="385.985" r="6.561" />
          <circle style="fill: #dfa14f" cx="364.784" cy="460.816" r="6.561" />
          <circle style="fill: #dfa14f" cx="351.008" cy="414.184" r="15.1" />
        </g>
      </g>
      <g>
        <path
          fill="#ffd960"
          transform="translate(260,-120) rotate(0)  scale(0.3)"
          d="M300.467,459c-0.36-1.109-1.32-1.917-2.473-2.085l-27.202-3.952l-12.166-24.648
		c-0.513-1.046-1.58-1.708-2.746-1.708c-1.166,0-2.23,0.662-2.746,1.708l-12.164,24.648l-27.202,3.952
		c-1.153,0.168-2.114,0.977-2.475,2.085c-0.36,1.109-0.059,2.327,0.776,3.141l19.684,19.186l-4.648,27.09
		c-0.196,1.149,0.275,2.311,1.218,2.997c0.944,0.686,2.195,0.775,3.227,0.233l24.328-12.792l24.331,12.792
		c0.447,0.235,0.937,0.35,1.424,0.35c0.633,0,1.27-0.196,1.8-0.584c0.944-0.686,1.416-1.848,1.222-2.997l-4.649-27.09l19.684-19.186
		C300.528,461.326,300.827,460.108,300.467,459z"
        />

        <circle fill="#ffd960" cx="370" cy="30" r="3" />
        <circle fill="#ffd960" cx="490" cy="160" r="2" />
        <circle fill="#ffd960" cx="100" cy="80" r="4" />
        <circle fill="#ffd960" cx="360" cy="110" r="3" />
      </g>
      <g style="opacity: 0.1">
        <path
          fill="#231f20"
          transform="translate(260,-120) rotate(0)  scale(0.3)"
          d="M257.22,499.469l4.648-27.09l-19.684-19.186c-0.349-0.34-0.582-0.76-0.734-1.204l-0.481,0.975
		l-27.202,3.952c-1.153,0.168-2.114,0.977-2.475,2.085c-0.36,1.109-0.059,2.327,0.776,3.141l19.684,19.186l-4.648,27.09
		c-0.196,1.149,0.275,2.311,1.218,2.997c0.944,0.686,2.195,0.775,3.227,0.233l24.328-12.792l1.338,0.704
		C257.222,499.529,257.215,499.499,257.22,499.469z"
        />
      </g>

      <g>
        <path
          fill="#ffd960"
          transform="translate(35,-170) rotate(0)  scale(0.5)"
          d="M300.467,459c-0.36-1.109-1.32-1.917-2.473-2.085l-27.202-3.952l-12.166-24.648
		c-0.513-1.046-1.58-1.708-2.746-1.708c-1.166,0-2.23,0.662-2.746,1.708l-12.164,24.648l-27.202,3.952
		c-1.153,0.168-2.114,0.977-2.475,2.085c-0.36,1.109-0.059,2.327,0.776,3.141l19.684,19.186l-4.648,27.09
		c-0.196,1.149,0.275,2.311,1.218,2.997c0.944,0.686,2.195,0.775,3.227,0.233l24.328-12.792l24.331,12.792
		c0.447,0.235,0.937,0.35,1.424,0.35c0.633,0,1.27-0.196,1.8-0.584c0.944-0.686,1.416-1.848,1.222-2.997l-4.649-27.09l19.684-19.186
		C300.528,461.326,300.827,460.108,300.467,459z"
        />
      </g>

      <g style="opacity: 0.1">
        <path
          fill="#231f20"
          transform="translate(35,-170) rotate(0)  scale(0.5)"
          d="M257.22,499.469l4.648-27.09l-19.684-19.186c-0.349-0.34-0.582-0.76-0.734-1.204l-0.481,0.975
		l-27.202,3.952c-1.153,0.168-2.114,0.977-2.475,2.085c-0.36,1.109-0.059,2.327,0.776,3.141l19.684,19.186l-4.648,27.09
		c-0.196,1.149,0.275,2.311,1.218,2.997c0.944,0.686,2.195,0.775,3.227,0.233l24.328-12.792l1.338,0.704
		C257.222,499.529,257.215,499.499,257.22,499.469z"
        />
      </g>
    </g>
    <path
      filter="brightness(0.7)"
      fill="#ffd479"
      d="M297.739,8.348V64c0,4.61-3.738,8.348-8.348,8.348s-8.348-3.738-8.348-8.348V8.348
	c0-4.61,3.738-8.348,8.348-8.348S297.739,3.738,297.739,8.348z M166.957,122.435c-4.61,0-8.348,3.738-8.348,8.348v44.522
	c0,4.61,3.738,8.348,8.348,8.348s8.348-3.738,8.348-8.348v-44.522C175.304,126.172,171.567,122.435,166.957,122.435z
	 M411.826,122.435c-4.61,0-8.348,3.738-8.348,8.348v44.522c0,4.61,3.738,8.348,8.348,8.348c4.61,0,8.348-3.738,8.348-8.348v-44.522
	C420.174,126.172,416.436,122.435,411.826,122.435z"
    />
    <path
      filter="brightness(0.7)"
      fill="#9fba41"
      d="M500.87,345.043v77.913h-55.652V311.652h22.261C485.92,311.652,500.87,326.601,500.87,345.043z
	 M111.959,144.696L111.959,144.696c-29.29,0-53.033,23.743-53.033,53.033v19.163c-3.767-0.969-7.716-1.485-11.785-1.485l0,0
	C21.106,215.406,0,236.512,0,262.547v35.356c0,26.035,21.106,47.141,47.141,47.141l0,0c19.293,0,35.87-11.596,43.166-28.194
	c6.614,2.963,13.936,4.624,21.652,4.624l0,0c29.29,0,53.033-23.743,53.033-53.033v-70.712
	C164.992,168.439,141.249,144.696,111.959,144.696z"
    />
    <path
      filter="brightness(0.7)"
      fill="#7f932a"
      d="M66.783,256h89.043v77.913v77.913H33.391C14.949,411.826,0,396.877,0,378.435v-11.13
	c0-18.442,14.949-33.391,33.391-33.391h15.09c-9.248-8.159-15.09-20.089-15.09-33.391v-11.13C33.391,270.949,48.341,256,66.783,256z
	 M478.609,378.435h-44.522v89.043H512v-55.652C512,393.384,497.051,378.435,478.609,378.435z"
    />
    <path
      filter="brightness(0.7)"
      fill="#e8d5b2"
      d="M333.913,166.957c6.147,0,11.13,4.983,11.13,11.13v33.391H233.739v-33.391
	c0-6.147,4.983-11.13,11.13-11.13l0,0v-44.522l0,0c7.127-7.127,16.792-11.13,26.871-11.13h35.301
	c10.079,0,19.744,4.004,26.871,11.13l0,0V166.957L333.913,166.957z"
    />
    <g>
      <path
        filter="brightness(0.7)"
        fill="#e6d0a9"
        d="M345.043,178.087v55.652H233.739v-55.652c0-6.147,4.983-11.13,11.13-11.13h89.043
		C340.06,166.957,345.043,171.94,345.043,178.087z"
      />
      <path
        filter="brightness(0.7)"
        fill="#e6d0a9"
        d="M456.348,267.13v211.478H122.435V267.13H456.348z"
      />
    </g>
    <path
      filter="brightness(0.7)"
      fill="#c69666"
      d="M467.478,256v11.13c0,6.147-4.983,11.13-11.13,11.13H122.435c-6.147,0-11.13-4.983-11.13-11.13V256
	c0-6.147,4.983-11.13,11.13-11.13h16.696l0,0c3.41-6.822,10.382-11.13,18.009-11.13h19.564c7.072,0,13.627,3.711,17.266,9.776
	l0.814,1.355H384l0.813-1.355c3.64-6.065,10.193-9.776,17.266-9.776h19.564c7.627,0,14.599,4.309,18.009,11.13l0,0h16.696
	C462.495,244.87,467.478,249.853,467.478,256z"
    />
    <path
      filter="brightness(0.7)"
      fill="#dbcb9c"
      d="M367.304,222.609v256H211.478v-256c0-6.147,4.983-11.13,11.13-11.13h133.565
	C362.321,211.478,367.304,216.461,367.304,222.609z"
    />
    <path
      filter="brightness(0.7)"
      fill="#c69666"
      d="M322.783,289.391v189.217H256V289.391C256,270.949,270.949,256,289.391,256l0,0
	C307.833,256,322.783,270.949,322.783,289.391z"
    />
    <path
      filter="brightness(0.7)"
      fill="#a9a632"
      d="M332.975,416.56l20.035,66.783c4.284,14.283-6.411,28.658-21.323,28.658H44.522
	C19.933,512,0,492.066,0,467.478v-44.522c0-12.295,9.966-22.261,22.261-22.261h289.391
	C321.483,400.696,330.15,407.143,332.975,416.56z"
    />
    <path
      filter="brightness(0.7)"
      fill="#606d11"
      d="M179.561,456.348H500.87c6.147,0,11.13,4.983,11.13,11.13l0,0C512,492.066,492.066,512,467.478,512
	H153.224c-8.652,0-13.995-9.439-9.544-16.857l16.792-27.987C164.494,460.451,171.741,456.348,179.561,456.348z"
    />
    <path
      filter="brightness(0.7)"
      fill="#c57b34"
      d="M296.973,27.448l36.94,94.987H244.87l36.94-94.987c1.215-3.127,4.227-5.187,7.582-5.187
	C292.746,22.261,295.758,24.321,296.973,27.448z M166.957,144.696c-4.053,0-7.549,2.843-8.376,6.811l-19.45,93.363h55.652
	l-19.45-93.363C174.505,147.538,171.009,144.696,166.957,144.696z M420.202,151.506c-0.827-3.968-4.323-6.811-8.376-6.811
	s-7.549,2.843-8.376,6.811L384,244.87h55.652L420.202,151.506z"
    />
    <path
      filter="brightness(0.7)"
      fill="#c69666"
      d="M175.304,308.87v44.522c0,4.611-3.736,8.348-8.348,8.348s-8.348-3.736-8.348-8.348V308.87
	c0-4.611,3.736-8.348,8.348-8.348S175.304,304.258,175.304,308.87z M411.826,300.522c-4.611,0-8.348,3.736-8.348,8.348v100.174
	c0,4.611,3.736,8.348,8.348,8.348c4.611,0,8.348-3.736,8.348-8.348V308.87C420.174,304.258,416.437,300.522,411.826,300.522z"
    />
  </g>
</svg>
