<svg
  id="SvgjsSvg1444"
  width="360"
  height="360"
  xmlns="http://www.w3.org/2000/svg"
  version="1.1"
  xmlns:xlink="http://www.w3.org/1999/xlink"
  xmlns:svgjs="http://svgjs.com/svgjs"
>
  <defs id="SvgjsDefs1445"></defs>
  <g id="SvgjsG1446">
    <svg
      xmlns="http://www.w3.org/2000/svg"
      enable-background="new 0 0 5000 5000"
      viewBox="0 0 5000 5000"
      width="360"
      height="360"
    >
      <path
        fill="#a23838"
        d="M2288.973,493.562c0,0,75.128-136.576-47.513-123.389
  c-122.642,13.188-186.389,148.765-186.389,148.765s-18.185-138.814-85.664-65.4c-67.479,73.414-7.536,237.489-7.536,237.489
  s-99.688,55.988-99.688,158.013c0,102.025,192.887,40.484,192.887,40.484L2288.973,493.562z"
        class="color5656a5 svgShape"
      ></path>
      <path
        fill="#270a54"
        d="M1862.184 858.199c-5.06 0-9.162-4.102-9.162-9.161 0-106.165 100.104-163.607 104.362-166 4.424-2.479 9.989-.908 12.467 3.498s.917 9.989-3.485 12.476c-.953.537-95.022 54.727-95.022 150.026C1871.345 854.097 1867.243 858.199 1862.184 858.199zM1840.963 686.835c-2.031 0-4.075-.671-5.771-2.049-3.927-3.194-4.527-8.964-1.337-12.888 66.948-82.398 180.856-63.861 185.678-63.029 4.983.858 8.32 5.587 7.47 10.57-.854 4.988-5.56 8.316-10.575 7.488-1.069-.174-108.258-17.45-168.349 56.521C1846.268 685.681 1843.624 686.835 1840.963 686.835z"
        class="color270a54 svgShape"
      ></path>
      <path
        fill="#270a54"
        d="M1912.057 936.039c-3.807 0-7.363-2.394-8.669-6.2-34.382-100.443 41.718-187.208 44.975-190.854 3.364-3.758 9.157-4.093 12.923-.729 3.776 3.364 4.106 9.157.747 12.933-.729.814-72.177 82.55-41.307 172.719 1.637 4.787-.917 9.994-5.704 11.635C1914.043 935.878 1913.041 936.039 1912.057 936.039zM2055.069 528.1c-1.306 0-2.635-.278-3.892-.873-4.581-2.152-6.549-7.609-4.393-12.185 2.688-5.726 67.386-140.395 193.694-153.976 4.938-.542 9.546 3.091 10.087 8.128.542 5.033-3.095 9.546-8.128 10.087-116.176 12.494-178.458 142.247-179.075 143.553C2061.806 526.154 2058.509 528.1 2055.069 528.1z"
        class="color270a54 svgShape"
      ></path>
      <path
        fill="#270a54"
        d="M2015.762,556.112c-0.246,0-0.492-0.009-0.743-0.031c-5.046-0.403-8.803-4.822-8.396-9.864
  c0.505-6.308,13.737-155.125,127.212-212.236c4.545-2.277,10.029-0.452,12.302,4.062c2.276,4.522,0.456,10.029-4.062,12.301
  c-104.376,52.535-117.076,195.9-117.192,197.34C2024.498,552.479,2020.49,556.112,2015.762,556.112z"
        class="color270a54 svgShape"
      ></path>
      <path
        fill="#a23838"
        d="M1374.481,4437.671c85.356,139.464,234.17,107.58,265.885,75.865l20.192-144.221
  c0,0,974.865-74.856,1345.556,49.704c-137.442-1063.903-27.831-2325.935-33.051-2932.78l-1318.032-189.67
  c-84.584,375.794-207.174,735.817-215.475,1001.702C1552.677,2917.193,1606.792,3674.796,1374.481,4437.671z"
        class="color5656a5 svgShape"
      ></path>
      <polygon
        fill="#bf9362"
        points="1914.467 1010.93 2779.296 1022.367 2657.148 1173.538 2633.516 1387.83 2020.015 1387.83 2044.228 1122.321"
        class="colorbf9362 svgShape"
      ></polygon>
      <path
        fill="#270a54"
        d="M3469.313,2474.487h-106.507l16.415-591.406c0.555-19.947,16.884-35.83,36.838-35.83l0,0
  c19.955,0,36.285,15.883,36.839,35.83L3469.313,2474.487z"
        class="color270a54 svgShape"
      ></path>
      <path
        fill="#bf9362"
        d="M3007.665,1978.75c77.639,59.41,120.283,176.188,70.188,241.652
    c-50.096,65.464-262.846-15.833-262.846-15.833s-116.334-170.526-66.239-235.99
    C2798.863,1903.114,2930.026,1919.339,3007.665,1978.75z"
        class="colorbf9362 svgShape"
      ></path>
      <path
        fill="#270a54"
        d="M3033.351,2162.925c-129.281,13.439-213.454-100.289-284.083-252.198L2964,1740.79l125.72,234.12
    L3033.351,2162.925z"
        class="color270a54 svgShape"
      ></path>
      <path
        fill="#ceb48e"
        d="M2663.268,1355.921c-67.787-27.787-151.633-48.129-137.934,23.84
      c27.831,146.21,116.912,489.268,248.36,637.712c71.061,74.992,324.256-155.098,307.213-197.266l-164.274-313.148
      C2868.29,1422.055,2753.751,1393.012,2663.268,1355.921L2663.268,1355.921z"
        class="colorceb48e svgShape"
      ></path>
      <path
        fill="#270a54"
        d="M3080.915,1829.368c-3.297,0-6.481-1.785-8.123-4.907l-164.273-313.145
      c-2.349-4.478-0.622-10.016,3.86-12.369c4.482-2.349,10.012-0.617,12.369,3.86l164.273,313.145
      c2.348,4.478,0.621,10.016-3.861,12.369C3083.805,1829.033,3082.347,1829.368,3080.915,1829.368z"
        class="color270a54 svgShape"
      ></path>
      <path
        fill="#270a54"
        d="M2812.347 2041.385c-18.851 0-34.149-5.837-45.306-17.607-3.48-3.672-3.324-9.475.349-12.955 3.673-3.471 9.47-3.324 12.955.349 21.96 23.171 72.069 12.364 137.501-29.699 91.322-58.703 160.582-142.945 154.566-157.836-1.896-4.688.371-10.029 5.063-11.926 4.688-1.879 10.029.372 11.926 5.064 14.181 35.089-86.711 131.94-161.647 180.113C2881.821 2026.413 2842.532 2041.385 2812.347 2041.385zM2736.729 1919.022c-18.846 0-34.145-5.838-45.301-17.607-3.48-3.673-3.323-9.475.349-12.955 3.673-3.467 9.475-3.324 12.955.349 21.964 23.189 72.078 12.355 137.492-29.694 91.326-58.703 160.596-142.949 154.574-157.841-1.896-4.688.371-10.029 5.064-11.926 4.688-1.888 10.033.372 11.926 5.064 14.18 35.088-86.715 131.944-161.656 180.113C2806.2 1904.055 2766.916 1919.022 2736.729 1919.022zM2663.932 1756.14c-18.852 0-34.15-5.837-45.307-17.607-3.479-3.673-3.323-9.475.35-12.955 3.673-3.471 9.475-3.328 12.954.349 21.955 23.172 72.083 12.36 137.51-29.703 91.318-58.703 160.574-142.936 154.558-157.827-1.896-4.688.371-10.029 5.063-11.926 4.688-1.888 10.029.371 11.927 5.063 14.18 35.084-86.707 131.932-161.64 180.1C2733.41 1741.168 2694.117 1756.14 2663.932 1756.14z"
        class="color270a54 svgShape"
      ></path>
      <path
        fill="#e5cba5"
        d="M3023.569,2216.246l308.63,18.975c28.652-52.386,36.085-162.25,26.877-211.703l-270.442-108.376
      C3014.979,1892.242,2917.73,2184.366,3023.569,2216.246z"
        class="colore5cba5 svgShape"
      ></path>
      <path
        fill="#270a54"
        d="M3023.572,2225.413c-0.877,0-1.768-0.13-2.648-0.394c-24.809-7.475-41.768-27.994-49.045-59.343
      c-17.938-77.281,24.729-200.512,70.938-243.446c20.622-19.15,37.772-19.173,48.535-15.836c4.831,1.503,7.528,6.639,6.03,11.47
      c-1.503,4.832-6.675,7.533-11.47,6.03c-8.938-2.8-19.235,1.181-30.624,11.761c-42.38,39.374-81.781,155.984-65.562,225.88
      c5.789,24.934,18.063,40.394,36.484,45.94c4.845,1.458,7.587,6.571,6.129,11.416
      C3031.146,2222.854,3027.509,2225.408,3023.572,2225.413z"
        class="color270a54 svgShape"
      ></path>
      <path
        fill="#ceb48e"
        d="M1985.104,2448.9c-4.412,249.603-51.371,1234.002-51.371,1234.002l-81.678,201.411l37.816,485.659
  l184.065,67.698l136.856-497.653l19.145-254.584l113.675-360.666l94.807,393.382l-75.288,227.142l124.065,549.501
  c88.896,19.626,93.939-18.198,181.05-75.772l95.77-733.586l-66.648-1215.103L1985.104,2448.9z"
        class="colorceb48e svgShape"
      ></path>
      <path
        fill="#bf9362"
        d="M2528.267,2672.098c-94.225,0,20.499,597.889-331.503,597.889
    c-34.244,0-64.256-7.693-90.536-21.582c-58.922-31.141-216.356-101.695-216.356-101.695l87.08-734.004h738.374
    c114.265,729.546,172.946,830.436,12.676,857.281C2464.192,3314.176,2622.492,2672.098,2528.267,2672.098z"
        class="colorbf9362 svgShape"
      ></path>
      <path
        fill="#270a54"
        d="M2206.969,3272.244c-3.055,0-6.115-0.045-9.242-0.139c-5.059-0.148-9.036-4.366-8.888-9.426
    c0.147-5.055,4.438-8.938,9.425-8.889c223.679,6.514,251.006-240.779,270.97-421.39c11.282-102.046,18.735-169.463,59.03-169.463
    c5.06,0,9.161,4.103,9.161,9.161c0,5.06-4.102,9.162-9.161,9.162c-23.888,0-32.109,74.391-40.819,153.152
    C2468.121,3009.218,2439.018,3272.244,2206.969,3272.244z"
        class="color270a54 svgShape"
      ></path>
      <path
        fill="#270a54"
        d="M2219.011 3272.941c-98.869 0-216.115-53.621-333.557-118.202-4.433-2.438-6.052-8.012-3.614-12.445 2.434-4.438 8.021-6.052 12.444-3.614 197.045 108.357 393.034 185.468 492.083 17.473 2.572-4.357 8.19-5.815 12.543-3.238 4.356 2.567 5.811 8.186 3.238 12.543C2356.418 3243.028 2292.834 3272.941 2219.011 3272.941zM2280.197 3008.977c-47.708 0-102.019-10.128-162.797-30.419-4.795-1.606-7.39-6.795-5.789-11.595 1.606-4.791 6.782-7.367 11.595-5.789 165.669 55.326 279.842 32.217 339.314-68.67 2.577-4.352 8.195-5.814 12.543-3.238 4.357 2.568 5.811 8.187 3.239 12.543C2436.222 2973.186 2369.869 3008.977 2280.197 3008.977zM2055.257 2954.424c-1.181 0-2.385-.232-3.539-.72-40.971-17.191-84.895-38.641-130.554-63.745-4.433-2.438-6.052-8.012-3.614-12.444 2.438-4.434 8.012-6.044 12.445-3.614 45.095 24.8 88.433 45.967 128.809 62.912 4.666 1.955 6.862 7.323 4.902 11.988C2062.235 2952.313 2058.835 2954.424 2055.257 2954.424zM2363.114 2772.705c-4.885 0-8.942-3.852-9.147-8.777-.215-5.055 3.713-9.322 8.768-9.537 67.167-2.836 115.143-30.203 146.666-83.678 2.572-4.356 8.187-5.807 12.543-3.238 4.357 2.567 5.812 8.186 3.239 12.543-34.44 58.426-88.835 89.605-161.679 92.678C2363.374 2772.7 2363.244 2772.705 2363.114 2772.705zM2288.49 2767.167c-.514 0-1.042-.045-1.57-.135-88.151-15.231-195.909-59.007-339.126-137.765-4.433-2.438-6.053-8.012-3.615-12.444s8.012-6.044 12.445-3.614c141.383 77.75 247.33 120.891 333.418 135.77 4.983.863 8.329 5.601 7.466 10.588C2296.739 2764.022 2292.865 2767.167 2288.49 2767.167zM2709.631 3282.456c-7.422 0-14.775-.675-22.031-2.044-36.753-6.929-68.559-31.286-91.972-70.433-2.595-4.343-1.181-9.966 3.163-12.565 4.344-2.59 9.971-1.181 12.565 3.163 20.645 34.517 48.182 55.898 79.634 61.825 33.581 6.33 70.123-4.88 105.682-32.418 3.99-3.096 9.743-2.371 12.852 1.633 3.101 3.999 2.367 9.752-1.633 12.852C2775.514 3269.556 2741.95 3282.456 2709.631 3282.456zM2695.62 2971.65c-53.461 0-102.694-25.426-139.661-74.981-3.024-4.058-2.188-9.796 1.865-12.825 4.066-3.028 9.797-2.188 12.825 1.865 56.287 75.47 140.663 88.895 225.688 35.939 4.29-2.671 9.939-1.36 12.619 2.93 2.675 4.295 1.364 9.944-2.931 12.619C2768.942 2960.293 2731.335 2971.65 2695.62 2971.65z"
        class="color270a54 svgShape"
      ></path>
      <path
        fill="#270a54"
        d="M2615.109,2729.287c-33.885,0-66.115-14.078-94.189-51.707c-3.024-4.058-2.188-9.797,1.865-12.825
    c4.066-3.028,9.796-2.188,12.824,1.865c52.646,70.593,121.625,48.388,215.842-10.288c4.295-2.676,9.944-1.36,12.619,2.93
    c2.676,4.294,1.365,9.944-2.93,12.619C2713.902,2701.307,2662.866,2729.287,2615.109,2729.287z"
        class="color270a54 svgShape"
      ></path>
      <path
        fill="#e5cba5"
        d="M2468.607,609.754l29.958-78.949c-284.562-172.387-516.48,93.19-454.337,269.606l80.135,48.628
  L2468.607,609.754z"
        class="colore5cba5 svgShape"
      ></path>
      <path
        fill="#270a54"
        d="M2468.608,618.921c-1.082,0-2.179-0.192-3.252-0.599c-4.729-1.794-7.108-7.086-5.314-11.819
  L2490,527.554c1.798-4.729,7.077-7.108,11.818-5.314c4.729,1.794,7.108,7.086,5.314,11.818l-29.958,78.95
  C2475.784,616.667,2472.304,618.921,2468.608,618.921z"
        class="color270a54 svgShape"
      ></path>
      <path
        fill="#bf9362"
        d="M1819.734,2139.271c3.984,97.681-58.513,205.149-140.877,208.509
  c-82.364,3.359-155.936-212.186-155.936-212.186s56.687-198.493,139.051-201.852S1815.751,2041.591,1819.734,2139.271z"
        class="colorbf9362 svgShape"
      ></path>
      <polygon
        fill="#270a54"
        points="1644.664 2224.179 1659.6 1946.1 1933.075 1960.249 1872.917 2219.09"
        class="color270a54 svgShape"
      ></polygon>
      <path
        fill="#ceb48e"
        d="M1820.917,1512.61c59.63,366.4,72.557,504.752,147.523,733.282
    c124.452,114.797,710.781,136.999,739.315,28.646c98.867-496.084,53.238-789.708-27.932-952.545
    c-124.577-124.577-574.838-183.994-831.168,18.616C1803.692,1376.15,1812.119,1458.549,1820.917,1512.61z"
        class="colorceb48e svgShape"
      ></path>
      <path
        fill="#ceb48e"
        d="M2707.756,2268.309l53.522,180.591c-193.923,152.944-651.802,95.041-828.204-23.077
    l35.366-179.931C2273.381,2313.849,2491.401,2304.737,2707.756,2268.309z"
        class="colorceb48e svgShape"
      ></path>
      <path
        fill="#270a54"
        d="M2370.245 2549.647c-.112 0-.224 0-.34-.005-172.468-6.316-345.935-51.93-441.927-116.207-4.205-2.818-5.332-8.509-2.519-12.709 2.813-4.205 8.517-5.332 12.708-2.519 91.931 61.558 265.706 107.02 432.409 113.121 5.055.188 9.004 4.438 8.821 9.492C2379.214 2545.765 2375.152 2549.647 2370.245 2549.647zM2440.203 2549.934c-4.935 0-9.005-3.923-9.152-8.889-.152-5.059 3.824-9.277 8.884-9.43 95.612-2.85 227.991-20.756 315.673-89.909 3.963-3.123 9.733-2.452 12.865 1.521 3.131 3.972 2.451 9.733-1.521 12.865-91.608 72.248-228.099 90.906-326.471 93.837C2440.386 2549.934 2440.292 2549.934 2440.203 2549.934zM2502.154 2359.813c-47.266 0-204.426-8.347-361.909-46.451-4.916-1.19-7.94-6.142-6.75-11.063 1.195-4.912 6.173-7.914 11.063-6.75 154.969 37.5 314.075 45.941 357.597 45.941 63.042 0 155.161-43.575 200.431-74.517 4.187-2.841 9.882-1.78 12.735 2.393 2.854 4.178 1.781 9.881-2.393 12.736C2668.964 2312.146 2572.868 2359.813 2502.154 2359.813zM2076.666 2295.778c-.881 0-1.78-.13-2.666-.398-40.412-12.274-77.236-26.133-109.439-41.19-4.585-2.143-6.563-7.596-4.42-12.176 2.143-4.585 7.596-6.567 12.177-4.42 31.42 14.686 67.426 28.231 107.006 40.251 4.84 1.472 7.573 6.589 6.105 11.429C2084.226 2293.229 2080.594 2295.778 2076.666 2295.778z"
        class="color270a54 svgShape"
      ></path>
      <path
        fill="#270a54"
        d="M2707.766 2283.7c-.649 0-1.312-.067-1.969-.21-4.943-1.083-8.074-5.968-6.992-10.911 48.585-221.827 65.736-435.741 49.601-618.61-.442-5.042 3.278-9.488 8.32-9.931 5.063-.358 9.487 3.279 9.931 8.32 16.301 184.698-.975 400.522-49.949 624.139C2715.768 2280.779 2711.975 2283.7 2707.766 2283.7zM2746.37 1572.318c-4.411 0-8.298-3.194-9.027-7.689-18.345-112.79-51.573-203.572-96.096-262.539-3.051-4.035-2.25-9.783 1.789-12.829 4.04-3.051 9.788-2.241 12.829 1.789 46.317 61.334 80.744 154.92 99.559 270.636.814 4.997-2.576 9.702-7.568 10.512C2747.354 1572.283 2746.861 1572.318 2746.37 1572.318z"
        class="color270a54 svgShape"
      ></path>
      <path
        fill="#ceb48e"
        d="M1932.022,1461.588c-32.564-65.627-82.104-136.264-119.334-73.167
    c-75.634,128.185-205.934,455.7-205.223,653.978c3.855,103.24,345.934,97.607,360.975,54.685l54.079-354.699
    C2042.337,1646.625,1975.489,1549.187,1932.022,1461.588L1932.022,1461.588z"
        class="colorceb48e svgShape"
      ></path>
      <path
        fill="#270a54"
        d="M1968.452,2106.244c-0.465,0-0.931-0.036-1.4-0.107c-5.001-0.765-8.437-5.439-7.667-10.441
    l56.288-367.353c0.765-5.001,5.493-8.428,10.441-7.667c5.001,0.765,8.437,5.439,7.667,10.44l-56.288,367.353
    C1976.799,2103.001,1972.898,2106.244,1968.452,2106.244z"
        class="color270a54 svgShape"
      ></path>
      <path
        fill="#270a54"
        d="M1830.137 2135.124c-32.517 0-65.512-2.259-93.358-6.464-87.717-13.241-136.897-43.753-138.472-85.919-.188-5.055 3.758-9.304 8.817-9.497 5.086-.349 9.304 3.757 9.497 8.816 1.19 31.908 45.981 56.869 122.891 68.482 107.324 16.188 214.97-1.338 220.279-16.489 1.673-4.782 6.907-7.283 11.675-5.619 4.778 1.673 7.292 6.902 5.619 11.676C1968.528 2124.535 1900.471 2135.124 1830.137 2135.124zM1913.766 1982.311c-4.634 0-8.611-3.498-9.103-8.208-.528-5.033 3.127-9.537 8.16-10.065 53.326-5.583 68.62-16.229 69.77-19.517 1.677-4.778 6.893-7.287 11.675-5.619 4.777 1.673 7.292 6.902 5.619 11.675-5.494 15.684-34.145 26.343-85.159 31.685C1914.405 1982.293 1914.083 1982.311 1913.766 1982.311zM1852.719 1985.335c-91.927 0-236.526-19.396-239.287-93.295-.188-5.055 3.757-9.305 8.817-9.497 5.207-.286 9.305 3.762 9.497 8.817 1.937 51.864 117.219 77.205 230.219 75.581 5.301.116 9.224 3.968 9.3 9.023.076 5.059-3.963 9.224-9.022 9.3C1859.142 1985.308 1855.957 1985.335 1852.719 1985.335zM1888.21 1844.336c-32.624 0-66.277-2.429-94.731-6.728-93.542-14.127-145.96-46.134-147.606-90.124-.188-5.055 3.757-9.305 8.817-9.497 5.261-.349 9.305 3.758 9.497 8.817 1.257 33.71 49.381 60.206 132.029 72.687 105.342 15.92 202.471.635 207.558-13.885 1.677-4.777 6.897-7.287 11.675-5.619 4.777 1.673 7.292 6.902 5.618 11.676C2012.93 1834.875 1952.599 1844.336 1888.21 1844.336z"
        class="color270a54 svgShape"
      ></path>
      <path
        fill="#e5cba5"
        d="M1617.119,2256.987l108.61,500.524c59.483,5.204,163.085-32.107,204.676-60.398l-11.399-501.452
    C1910.402,2119.01,1603.814,2147.254,1617.119,2256.987z"
        class="colore5cba5 svgShape"
      ></path>
      <path
        fill="#270a54"
        d="M1930.402,2706.276c-4.961,0-9.041-3.964-9.153-8.951l-11.398-501.454
    c-0.116-5.06,3.892-9.255,8.947-9.367c4.992-0.51,9.25,3.888,9.367,8.947l11.398,501.454c0.116,5.06-3.892,9.256-8.947,9.367
    C1930.545,2706.276,1930.474,2706.276,1930.402,2706.276z"
        class="color270a54 svgShape"
      ></path>
      <path
        fill="#270a54"
        d="M1617.104,2266.147c-4.567,0-8.517-3.409-9.081-8.061c-3.118-25.722,8.862-49.493,34.65-68.746
    c63.57-47.466,193.56-57.884,251.44-32.793c25.82,11.188,32.74,26.889,33.998,38.09c0.563,5.028-3.051,9.563-8.079,10.127
    c-5.019,0.568-9.563-3.046-10.127-8.079c-1.047-9.3-8.808-17.146-23.073-23.328c-53.085-23.002-175.698-12.262-233.198,30.669
    c-20.51,15.312-29.734,32.758-27.421,51.858c0.608,5.02-2.97,9.587-7.994,10.195
    C1617.847,2266.125,1617.476,2266.147,1617.104,2266.147z"
        class="color270a54 svgShape"
      ></path>
      <path
        fill="#e5cba5"
        d="M1875.358,2738.955l38.383-65.566l51.032,26.609c16.871,8.798,28.404,25.256,30.916,44.116
      l11.523,86.546l-92.267,0.98L1875.358,2738.955z"
        class="colore5cba5 svgShape"
      ></path>
      <path
        fill="#e5cba5"
        d="M1987.876,2868.189c11.138,91.861-263.327,114.65-271.972,43.346
      c-14.164-116.818-25.734-119.391,44.457-193.805l160.895-14.752C1923.461,2830.141,1987.876,2868.189,1987.876,2868.189z"
        class="colore5cba5 svgShape"
      ></path>
      <path
        fill="#270a54"
        d="M1819.025,2962.682c-57.495,0-108.021-15.446-112.217-50.043
      c-0.608-5.023,2.97-9.591,7.989-10.199c5.037-0.595,9.591,2.966,10.199,7.99c3.14,25.913,62.944,40.035,133.291,31.514
      c61.374-7.439,125.257-33.349,120.493-72.646c-0.608-5.023,2.97-9.591,7.99-10.199c5.041-0.568,9.591,2.966,10.199,7.989
      c6.746,55.644-69.3,84.903-136.476,93.045C1846.63,2961.814,1832.629,2962.682,1819.025,2962.682z"
        class="color270a54 svgShape"
      ></path>
      <path
        fill="#270a54"
        d="M1987.875 2877.357c-.998 0-2.008-.165-3.001-.51-50.374-17.481-65.382-108.353-69.498-146.612-.541-5.032 3.096-9.546 8.128-10.088 4.943-.541 9.546 3.091 10.087 8.128 7.676 71.367 29.627 121.661 57.286 131.261 4.782 1.659 7.313 6.88 5.654 11.657C1995.216 2874.982 1991.668 2877.357 1987.875 2877.357zM1710.883 2792.227c-1.056 0-2.134-.188-3.181-.573-4.746-1.758-7.166-7.027-5.413-11.773l3.762-10.275c23.002-63.243 35.219-82.255 160.762-99.75 4.938-.752 9.645 2.791 10.338 7.806.702 5.015-2.796 9.641-7.806 10.338-120.211 16.757-126.206 33.241-146.076 87.869l-3.793 10.374C1718.107 2789.936 1714.605 2792.227 1710.883 2792.227z"
        class="color270a54 svgShape"
      ></path>
      <path
        fill="#bf9362"
        d="M2055.071,1248.814l479.875,208.187l78.572-181.029c-19.212-40.192-69.632-102.44-116.852-98.953
  l-82.666,49.329l-280.732-95.729C2094.361,1154.968,2072.053,1192.024,2055.071,1248.814z"
        class="colorbf9362 svgShape"
      ></path>
      <path
        fill="#270a54"
        d="M2613.513,1285.132c-4.988,0-9.072-3.999-9.157-9.009c-0.349-20.886-10.933-41.879-29.797-59.11
  c-22.146-20.228-53.134-32.597-77.218-30.857c-5.158,0.402-9.439-3.417-9.811-8.459c-0.375-5.046,3.414-9.438,8.459-9.81
  c29.215-2.129,64.889,11.814,90.924,35.594c22.626,20.667,35.326,46.357,35.764,72.338c0.086,5.06-3.949,9.229-9.009,9.313
  C2613.62,1285.132,2613.566,1285.132,2613.513,1285.132z"
        class="color270a54 svgShape"
      ></path>
      <path
        fill="#270a54"
        d="M2534.947,1466.162c-1.274,0-2.545-0.264-3.734-0.796l-490.718-219.031
  c-4.621-2.063-6.692-7.479-4.63-12.101c2.062-4.625,7.475-6.701,12.1-4.63l482.264,215.256l74.883-172.536
  c2.014-4.639,7.408-6.777,12.051-4.76c4.645,2.018,6.773,7.413,4.76,12.051l-78.568,181.03c-0.976,2.246-2.805,4.008-5.087,4.894
  C2537.197,1465.957,2536.07,1466.162,2534.947,1466.162z"
        class="color270a54 svgShape"
      ></path>
      <path
        fill="#ceb48e"
        d="M2657.148,889.523c0,169.342-122.017,306.621-291.358,306.621
  c-169.342,0-343.08-137.279-343.08-306.621s98.331-329.748,267.673-329.748S2657.148,682.822,2657.148,889.523z"
        class="colorceb48e svgShape"
      ></path>
      <path
        fill="#ceb48e"
        d="M2088.57,1127.731l19.907-118.348l421.657,59.174l2.278,97.392
  C2481.528,1258.306,2200.037,1255.675,2088.57,1127.731z"
        class="colorceb48e svgShape"
      ></path>
      <path
        fill="#270a54"
        d="M2355.067,1235.416c-95.984,0-210.657-29.645-273.404-101.669c-3.324-3.816-2.925-9.6,0.89-12.923
  c3.815-3.319,9.6-2.926,12.923,0.89c68.759,78.918,205.378,103.58,303.152,93.139c66.174-7.077,115.742-29.568,132.599-60.162
  c2.438-4.433,8.024-6.043,12.444-3.605c4.433,2.443,6.048,8.016,3.605,12.445c-20.036,36.368-73.506,61.714-146.698,69.542
  C2386.125,1234.615,2370.844,1235.416,2355.067,1235.416z"
        class="color270a54 svgShape"
      ></path>
      <path
        fill="#270a54"
        d="M2358.762 1188.074c-95.917 0-212.008-30.83-277.099-105.543-3.324-3.816-2.925-9.6.89-12.924 3.815-3.328 9.6-2.925 12.923.891 71.037 81.535 207.848 107.476 304.883 97.115 62.438-6.679 107.646-27.564 124.027-57.298 2.441-4.438 8.02-6.035 12.444-3.605 4.433 2.442 6.048 8.016 3.605 12.445-19.312 35.048-69.658 59.352-138.132 66.674C2388.482 1187.31 2373.864 1188.074 2358.762 1188.074zM2151.25 1006.221c-34.7 0-62.931-28.231-62.931-62.931 0-34.699 28.231-62.926 62.931-62.926 5.059 0 9.161 4.102 9.161 9.161 0 5.06-4.102 9.162-9.161 9.162-24.599 0-44.608 20.009-44.608 44.603 0 24.599 20.009 44.608 44.608 44.608 5.059 0 9.161 4.102 9.161 9.162C2160.411 1002.119 2156.309 1006.221 2151.25 1006.221z"
        class="color270a54 svgShape"
      ></path>
      <path
        fill="#e5cba5"
        d="M2149.347,917.382h82.245c0,0-0.714,67.357,40.177,79.68
  c40.891,12.322,77.762-107.538,77.762-107.538h394.459c-44.828,107.538-110.061,195.289-175.153,272.85
  c-191.792,0-294.506-78.772-435.862-201.083c-6.517-5.639-9.648-14.3-8.307-22.813l0,0
  C2126.581,926.331,2137.05,917.382,2149.347,917.382z"
        class="colore5cba5 svgShape"
      ></path>
      <path
        fill="#270a54"
        d="M2231.59,926.542h-82.242c-5.059,0-9.161-4.102-9.161-9.161s4.102-9.161,9.161-9.161h82.242
  c5.06,0,9.162,4.102,9.162,9.161S2236.649,926.542,2231.59,926.542z"
        class="color270a54 svgShape"
      ></path>
      <path
        fill="#270a54"
        d="M2277.809,1007.138c-2.845,0-5.739-0.42-8.683-1.306c-46.938-14.145-46.729-85.516-46.697-88.549
  c0.054-5.055,3.865-8.92,9.246-9.058c5.06,0.049,9.117,4.187,9.077,9.242c-0.004,0.608-0.116,60.645,33.662,70.821
  c21.919,6.639,52.57-56.632,66.361-101.455c1.181-3.847,4.733-6.468,8.755-6.468l394.461-0.004c5.059,0,9.161,4.102,9.161,9.161
  c0,5.06-4.103,9.162-9.161,9.162l-387.765,0.004C2346.787,927.45,2317.08,1007.133,2277.809,1007.138z"
        class="color270a54 svgShape"
      ></path>
      <polygon
        fill="#270a54"
        points="2498.565 856.608 2377.039 856.608 2368.334 815.356 2498.565 824.062"
        class="color270a54 svgShape"
      ></polygon>
      <polygon
        fill="#270a54"
        points="2626.309 856.608 2550.885 856.608 2550.885 824.062 2633.516 815.356"
        class="color270a54 svgShape"
      ></polygon>
      <path
        fill="#dbc7a5"
        d="M3006.114,1534.965c-196.085,28.75-323.58-70.948-382.485-299.096
    C2842.139,1253.843,2954.678,1363.822,3006.114,1534.965z"
        class="colordbc7a5 svgShape"
      ></path>
      <path
        fill="#270a54"
        d="M2943.043,1548.937c-164.688,0-274.961-104.25-328.287-310.779
    c-1.266-4.898,1.682-9.895,6.58-11.161c4.926-1.271,9.9,1.682,11.161,6.581c58.077,224.918,179.841,320.508,372.287,292.326
    c5.019-0.761,9.662,2.724,10.392,7.734c0.733,5.006-2.729,9.658-7.734,10.392
    C2985.137,1547.299,2963.652,1548.937,2943.043,1548.937z"
        class="color270a54 svgShape"
      ></path>
      <path
        fill="#e5cba5"
        d="M2715.525,1434.302c-164.743-198.433-102.007-268.721,63.771-411.935l11.386,21.39
    c-132.34,123.12-109.725,203.323,24.189,242.901L2715.525,1434.302z"
        class="colore5cba5 svgShape"
      ></path>
      <path
        fill="#270a54"
        d="M2715.531 1443.465c-2.631 0-5.243-1.127-7.055-3.311-170.684-205.593-99.344-282.892 64.832-424.719 3.828-3.31 9.612-2.89 12.923.944 3.306 3.829 2.886 9.613-.944 12.923-163.248 141.025-223.102 205.956-62.711 399.149 3.23 3.892 2.693 9.667-1.199 12.901C2719.669 1442.771 2717.593 1443.465 2715.531 1443.465zM2394.835 1018.545c-1.445 0-2.908-.34-4.272-1.061-4.473-2.366-6.182-7.909-3.82-12.382l34.704-65.646c2.371-4.478 7.913-6.182 12.382-3.82 4.474 2.367 6.183 7.909 3.82 12.382l-34.704 65.646C2401.299 1016.773 2398.123 1018.545 2394.835 1018.545zM2458.365 1018.545c-1.441 0-2.908-.34-4.272-1.061-4.474-2.366-6.183-7.909-3.82-12.382l34.699-65.646c2.366-4.478 7.904-6.187 12.382-3.82 4.473 2.367 6.182 7.909 3.82 12.382l-34.699 65.646C2464.829 1016.773 2461.652 1018.545 2458.365 1018.545zM2521.891 1018.545c-1.445 0-2.908-.34-4.272-1.061-4.474-2.366-6.183-7.909-3.82-12.382l34.704-65.646c2.371-4.478 7.908-6.182 12.382-3.82 4.474 2.367 6.183 7.909 3.82 12.382L2530 1013.665C2528.354 1016.773 2525.178 1018.545 2521.891 1018.545zM2585.42 1018.545c-1.445 0-2.907-.34-4.271-1.061-4.474-2.366-6.183-7.909-3.82-12.382l34.703-65.646c2.371-4.478 7.914-6.182 12.383-3.82 4.473 2.367 6.182 7.909 3.82 12.382l-34.704 65.646C2591.884 1016.773 2588.708 1018.545 2585.42 1018.545zM2648.95 1018.545c-1.44 0-2.908-.34-4.272-1.061-4.473-2.366-6.182-7.909-3.82-12.382l34.699-65.646c2.367-4.478 7.905-6.187 12.383-3.82 4.474 2.367 6.182 7.909 3.82 12.382l-34.699 65.646C2655.414 1016.773 2652.238 1018.545 2648.95 1018.545zM2502.154 2359.818c-1.105 0-2.229-.202-3.319-.626-4.72-1.834-7.055-7.144-5.221-11.859 10.731-27.587 20.645-60.448 29.466-97.666 1.163-4.93 6.124-7.94 11.026-6.804 4.925 1.167 7.972 6.106 6.804 11.026-9.018 38.042-19.186 71.717-30.217 100.082C2509.284 2357.6 2505.817 2359.818 2502.154 2359.818zM2548.278 2180.326c-.51 0-1.033-.04-1.552-.129-4.988-.854-8.339-5.591-7.489-10.575 42.407-247.777 36.498-572.691-12.905-709.508-1.718-4.76.747-10.011 5.502-11.729 4.76-1.727 10.007.743 11.729 5.502 50.293 139.285 56.583 468.467 13.737 718.821C2556.536 2177.173 2552.662 2180.326 2548.278 2180.326zM2425.806 2693.133c16.804 0 16.831-26.114 0-26.114C2409.002 2667.019 2408.974 2693.133 2425.806 2693.133L2425.806 2693.133zM2412.748 2905.316c16.804 0 16.832-26.115 0-26.115C2395.944 2879.201 2395.917 2905.316 2412.748 2905.316L2412.748 2905.316zM2312.642 3190.403c16.804 0 16.831-26.115 0-26.115C2295.838 3164.288 2295.81 3190.403 2312.642 3190.403L2312.642 3190.403zM2574.878 2677.165c16.804 0 16.831-26.115 0-26.115C2558.074 2651.05 2558.046 2677.165 2574.878 2677.165L2574.878 2677.165zM2640.165 2914.021c16.804 0 16.831-26.115 0-26.115C2623.361 2887.906 2623.333 2914.021 2640.165 2914.021L2640.165 2914.021zM2656.486 3191.491c16.804 0 16.832-26.114 0-26.114C2639.684 3165.377 2639.655 3191.491 2656.486 3191.491L2656.486 3191.491zM2528.256 2681.262c-4.67 0-8.656-3.548-9.112-8.289l-13.054-136.589c-.479-5.036 3.213-9.51 8.249-9.993 5.023-.487 9.507 3.212 9.993 8.249l13.054 136.588c.479 5.037-3.212 9.511-8.249 9.993C2528.842 2681.248 2528.547 2681.262 2528.256 2681.262z"
        class="color270a54 svgShape"
      ></path>
      <path
        fill="#270a54"
        d="M2546.968,2534.425c-4.657,0-8.638-3.529-9.108-8.258c-8.723-88.155-24.491-151.346-42.188-169.037
  c-3.579-3.574-3.579-9.376,0-12.955c3.579-3.579,9.376-3.579,12.955,0c28.62,28.611,42.021,125.172,47.466,180.185
  c0.497,5.037-3.181,9.524-8.213,10.021C2547.571,2534.411,2547.268,2534.425,2546.968,2534.425z"
        class="color270a54 svgShape"
      ></path>
      <polygon
        fill="#e0e0e0"
        points="3510.823 4524.131 3416.059 4657.099 3321.295 4524.131 3362.806 2474.487 3469.313 2474.487"
        class="colore0e0e0 svgShape"
      ></polygon>
      <path
        fill="#270a54"
        d="M3354.477 2877.354c-.067 0-.135 0-.197 0-5.059-.107-9.072-4.299-8.969-9.354l8.334-393.706c.107-4.992 4.187-8.969 9.156-8.969.067 0 .135 0 .197 0 5.059.107 9.072 4.299 8.969 9.354l-8.334 393.706C3363.525 2873.377 3359.446 2877.354 3354.477 2877.354zM3326.42 4291.465c-.063 0-.125 0-.184 0-5.059-.098-9.081-4.285-8.982-9.34l24.527-1247.369c.103-5.06 4.607-8.759 9.34-8.982 5.06.103 9.081 4.281 8.982 9.34l-24.527 1247.369C3335.479 4287.484 3331.395 4291.465 3326.42 4291.465zM3416.069 4666.258c-2.863 0-5.681-1.334-7.471-3.848l-94.767-132.965c-1.146-1.602-1.74-3.533-1.7-5.511l1.834-86.46c.107-4.992 4.188-8.965 9.157-8.965.066 0 .134 0 .196 0 5.06.107 9.077 4.295 8.97 9.358l-1.771 83.419 93.004 130.494c2.935 4.115 1.978 9.842-2.143 12.776C3419.764 4665.703 3417.908 4666.258 3416.069 4666.258z"
        class="color270a54 svgShape"
      ></path>
      <path
        fill="#bf9362"
        d="M3768.785,2652.24c-4.905,0-8.838-3.377-13.791-5.254c-207.965-78.785-429.706-78.787-677.872,0
    c-10.938,3.474-21.68,6.859-29.301-1.702s-6.858-21.68,1.703-29.301c243.21-216.504,489.857-216.504,733.067,0
    c8.562,7.621,9.324,20.739,1.703,29.301C3780.191,2649.894,3774.5,2652.24,3768.785,2652.24z"
        class="colorbf9362 svgShape"
      ></path>
      <path
        fill="#270a54"
        d="M3077.117 2656.152c-3.883 0-7.488-2.491-8.727-6.393-1.53-4.821 1.136-9.975 5.958-11.505 126.12-40.041 242.856-59.522 356.742-59.522.921 0 1.834 0 2.76.005 5.06.014 9.147 4.129 9.135 9.188-.014 5.051-4.111 9.135-9.161 9.135-.734-.019-1.821-.005-2.733-.005-111.98 0-226.892 19.199-351.195 58.663C3078.975 2656.01 3078.039 2656.152 3077.117 2656.152zM3754.994 2656.152c-1.082 0-2.179-.192-3.248-.6-57.392-21.74-116.695-37.603-176.257-47.148-4.997-.801-8.396-5.498-7.596-10.494.796-4.988 5.476-8.4 10.494-7.596 60.788 9.738 121.298 25.923 179.854 48.105 4.729 1.794 7.112 7.082 5.318 11.814C3762.174 2653.894 3758.689 2656.152 3754.994 2656.152z"
        class="color270a54 svgShape"
      ></path>
      <g fill="#000000" class="color000 svgShape">
        <circle
          cx="3416.059"
          cy="1803.935"
          r="73.391"
          fill="#270a54"
          class="color270a54 svgShape"
        ></circle>
      </g>
      <g fill="#000000" class="color000 svgShape">
        <polygon
          fill="#e5cba5"
          points="3252.758 1991.164 3342.668 1945.043 3438.254 1968.104 3446.721 2032.386 3278.338 2050.877"
          class="colore5cba5 svgShape"
        ></polygon>
      </g>
      <g fill="#000000" class="color000 svgShape">
        <path
          fill="#270a54"
          d="M3252.767,2000.325c-3.328,0-6.536-1.816-8.159-4.979c-2.309-4.505-0.532-10.025,3.968-12.333
  l89.909-46.12c1.959-1.007,4.2-1.262,6.33-0.756l95.585,23.06c4.921,1.186,7.944,6.137,6.759,11.054
  c-1.185,4.916-6.146,7.936-11.053,6.759l-92.28-22.264l-86.885,44.568C3255.603,2000.003,3254.171,2000.325,3252.767,2000.325z"
          class="color270a54 svgShape"
        ></path>
      </g>
      <g fill="#000000" class="color000 svgShape">
        <path
          fill="#e5cba5"
          d="M3489.449,1991.164l-160.492,32.354c-48.874,51.025-49.859,165.433-22.851,222.374l183.343,25.532
    C3521.836,2162.814,3539.962,2060.893,3489.449,1991.164z"
          class="colore5cba5 svgShape"
        ></path>
        <path
          fill="#270a54"
          d="M3489.463,2280.587c-0.425,0-0.85-0.027-1.275-0.09l-183.343-25.533
    c-3.06-0.425-5.694-2.357-7.014-5.145c-29.753-62.72-25.454-180.476,24.509-232.639c1.293-1.351,2.971-2.272,4.805-2.644
    l160.493-32.355c4.975-0.975,9.792,2.214,10.794,7.17c0.998,4.961-2.21,9.792-7.17,10.794l-157.604,31.769
    c-43.999,48.885-43.292,153.413-21.262,205.603l178.315,24.836c5.015,0.698,8.508,5.323,7.811,10.333
    C3497.887,2277.272,3493.959,2280.587,3489.463,2280.587z"
          class="color270a54 svgShape"
        ></path>
      </g>
      <g fill="#000000" class="color000 svgShape">
        <path
          fill="#270a54"
          d="M3243.247,2238.913c-1.409,0-2.836-0.322-4.178-1.011c-47.484-24.389-57.356-81.763-30.177-175.403
  c1.413-4.858,6.486-7.645,11.354-6.245c4.857,1.409,7.653,6.495,6.244,11.353c-24.348,83.879-17.495,134.253,20.953,153.994
  c4.5,2.313,6.275,7.833,3.963,12.338C3249.783,2237.097,3246.575,2238.913,3243.247,2238.913z"
          class="color270a54 svgShape"
        ></path>
      </g>
      <g fill="#000000" class="color000 svgShape">
        <path
          fill="#270a54"
          d="M2029.128,824.52c-0.595,0-1.194-0.059-1.803-0.179c-4.961-0.989-8.182-5.815-7.188-10.776
  c27.336-136.969,97.612-222.986,208.872-255.659c4.867-1.431,9.949,1.355,11.371,6.209c1.427,4.854-1.355,9.944-6.209,11.371
  c-105.673,31.032-169.807,110.08-196.069,241.667C2037.233,821.509,2033.409,824.52,2029.128,824.52z"
          class="color270a54 svgShape"
        ></path>
      </g>
      <g fill="#000000" class="color000 svgShape">
        <path
          fill="#270a54"
          d="M2236.613,3676.031c-0.867,0-1.749-0.125-2.621-0.384c-4.849-1.445-7.609-6.55-6.164-11.398
  l145.588-488.432c1.445-4.854,6.558-7.614,11.398-6.165c4.849,1.445,7.609,6.55,6.164,11.398l-145.588,488.432
  C2244.205,3673.46,2240.559,3676.031,2236.613,3676.031z"
          class="color270a54 svgShape"
        ></path>
      </g>
      <g fill="#000000" class="color000 svgShape">
        <path
          fill="#e5cba5"
          d="M2400.134,3833.65c67.684-67.685,274.1-53.121,343.286,0c0,0,58.86-37.201,58.86-152.529
  s-38.265-168.045-38.265-168.045c-132.117-37.178-270.913,15.52-374.264,119.707L2400.134,3833.65z"
          class="colore5cba5 svgShape"
        ></path>
      </g>
      <g fill="#000000" class="color000 svgShape">
        <path
          fill="#270a54"
          d="M2389.753,3641.945c-2.331,0-4.666-0.886-6.45-2.657c-3.592-3.565-3.619-9.362-0.054-12.955
  c111.649-112.548,254.907-158.185,383.251-122.072c4.871,1.369,7.707,6.429,6.334,11.3c-1.364,4.871-6.41,7.739-11.3,6.334
  c-121.821-34.266-258.387,9.578-365.277,117.34C2394.468,3641.041,2392.11,3641.945,2389.753,3641.945z"
          class="color270a54 svgShape"
        ></path>
      </g>
      <g fill="#000000" class="color000 svgShape">
        <path
          fill="#270a54"
          d="M2743.418,3842.811c-1.951,0-3.91-0.617-5.574-1.896c-63.678-48.881-265.228-66.773-331.231-0.788
  c-3.579,3.579-9.376,3.579-12.955,0c-3.579-3.578-3.579-9.376,0-12.954c72.776-72.781,285.611-54.328,355.342-0.787
  c4.013,3.077,4.769,8.83,1.687,12.842C2748.884,3841.576,2746.164,3842.811,2743.418,3842.811z"
          class="color270a54 svgShape"
        ></path>
      </g>
      <g fill="#000000" class="color000 svgShape">
        <path
          fill="#e5cba5"
          d="M2026.104,3833.65c68.716,13.677,208.647-22.732,208.647-22.732l77.891-185.632
  c0,0-79.182-121.2-217.822-150.823c-138.64-29.622-204.948,88.285-204.948,88.285l-12.873,199.963
  C1876.998,3762.711,1957.387,3819.973,2026.104,3833.65z"
          class="colore5cba5 svgShape"
        ></path>
      </g>
      <g fill="#000000" class="color000 svgShape">
        <path
          fill="#270a54"
          d="M2312.651,3634.448c-2.988,0-5.919-1.463-7.677-4.147c-0.773-1.181-78.909-118.426-212.07-146.877
  c-130.549-27.917-194.424,82.694-195.05,83.816c-2.483,4.407-8.057,5.973-12.477,3.494c-4.411-2.479-5.976-8.065-3.494-12.477
  c0.694-1.238,71.255-123.383,214.849-92.754c140.712,30.065,220.261,149.695,223.58,154.772c2.765,4.231,1.575,9.904-2.657,12.673
  C2316.109,3633.96,2314.369,3634.448,2312.651,3634.448z"
          class="color270a54 svgShape"
        ></path>
      </g>
      <g fill="#000000" class="color000 svgShape">
        <path
          fill="#270a54"
          d="M2063.357,3845.883c-14.243,0-27.542-0.961-39.043-3.247
  c-69.841-13.898-149.283-70.079-152.629-72.463c-4.12-2.935-5.082-8.656-2.147-12.776c2.93-4.129,8.651-5.095,12.776-2.146
  c0.787,0.559,79.625,56.287,145.58,69.412c65.9,13.156,203.173-22.25,204.551-22.613c4.921-1.283,9.899,1.67,11.175,6.559
  c1.274,4.898-1.664,9.899-6.558,11.174C2232.216,3821.043,2135.758,3845.883,2063.357,3845.883z"
          class="color270a54 svgShape"
        ></path>
      </g>
      <g fill="#000000" class="color000 svgShape">
        <path
          fill="#e5cba5"
          d="M3059.124,4655.613l64.891-0.001c2.559-20.583-63.507-99.653-81.685-109.646
    c-52.389-28.796-188.664-12.512-188.664-12.512l-185.42-114.436l-57.868,10.57l-150.321-59.617
    c-64.542,108.492-117.873,202.689-115.191,287.127L3059.124,4655.613L3059.124,4655.613z"
          class="colore5cba5 svgShape"
        ></path>
        <polygon
          fill="#e5cba5"
          points="2389.752 4139.713 2749.797 3993.653 2668.246 4419.02 2591.224 4465.506 2452.724 4382.329"
          class="colore5cba5 svgShape"
        ></polygon>
      </g>
      <g fill="#000000" class="color000 svgShape">
        <polygon
          fill="#e5cba5"
          points="1607.462 4657.099 1889.872 4369.973 2073.937 4437.671 2142.065 4657.842"
          class="colore5cba5 svgShape"
        ></polygon>
      </g>
      <g fill="#000000" class="color000 svgShape">
        <polygon
          fill="#e5cba5"
          points="1860.905 4399.422 1843.299 4077.809 2010.563 4007.706 2167.988 4165.131 2082.55 4465.506"
          class="colore5cba5 svgShape"
        ></polygon>
      </g>
      <g fill="#000000" class="color000 svgShape">
        <path
          fill="#270a54"
          d="M2167.988,4174.291c-2.344,0-4.688-0.895-6.477-2.684l-153.077-153.076l-161.594,67.726
  c-4.684,1.968-10.038-0.241-11.993-4.903c-1.955-4.67,0.241-10.037,4.907-11.988l167.266-70.105
  c3.426-1.44,7.39-0.662,10.02,1.969l157.425,157.424c3.579,3.579,3.579,9.377,0,12.955
  C2172.677,4173.396,2170.333,4174.291,2167.988,4174.291z"
          class="color270a54 svgShape"
        ></path>
      </g>
      <g fill="#000000" class="color000 svgShape">
        <path
          fill="#270a54"
          d="M2142.062,4667c-2.094,0-4.201-0.716-5.923-2.174c-1.834-1.557-184.413-155.636-275.234-155.636
  c-90.401,0-245.428,152.862-246.985,154.409c-3.588,3.562-9.394,3.543-12.955-0.053c-3.565-3.588-3.547-9.385,0.045-12.955
  c6.567-6.521,161.974-159.725,259.895-159.725c97.514,0,279.394,153.453,287.088,159.984c3.86,3.274,4.33,9.063,1.056,12.919
  C2147.236,4665.899,2144.656,4667,2142.062,4667z"
          class="color270a54 svgShape"
        ></path>
      </g>
      <g fill="#000000" class="color000 svgShape">
        <path
          fill="#270a54"
          d="M2082.553,4474.666c-3.471,0-6.791-1.986-8.334-5.342
  c-30.642-66.857-85.364-161.012-111.085-161.012c-27.618,0-72.521,58.734-94.333,95.764c-2.567,4.357-8.182,5.798-12.543,3.239
  c-4.361-2.567-5.815-8.177-3.248-12.544c6.316-10.717,63.051-104.782,110.124-104.782c46.701,0,114.606,143.03,127.744,171.694
  c2.107,4.607,0.085,10.039-4.513,12.15C2085.129,4474.396,2083.832,4474.666,2082.553,4474.666z"
          class="color270a54 svgShape"
        ></path>
      </g>
      <g fill="#000000" class="color000 svgShape">
        <path
          fill="#270a54"
          d="M2424.972,4446.832c-2.004,0-4.021-0.652-5.708-1.994c-3.955-3.158-4.604-8.92-1.454-12.875
  c4.563-5.726,113.014-140.166,226.806-140.166c10.303,0,19.11,4.187,25.471,12.096c23.557,29.309,7.703,105.23,5.815,113.783
  c-1.091,4.938-5.998,8.033-10.915,6.979c-4.938-1.092-8.064-5.977-6.978-10.915c6.379-29.041,11.425-81.423-2.206-98.368
  c-2.921-3.633-6.369-5.252-11.188-5.252c-104.943,0-211.413,131.927-212.478,133.26
  C2430.33,4445.651,2427.664,4446.832,2424.972,4446.832z"
          class="color270a54 svgShape"
        ></path>
      </g>
      <g fill="#000000" class="color000 svgShape">
        <path
          fill="#270a54"
          d="M2690.082,4667c-0.367,0-0.733-0.018-1.101-0.063c-64.219-7.686-140.068-23.727-163.123-79.563
  l-164.144-19.611c-5.024-0.6-8.611-5.162-8.012-10.181c0.604-5.037,5.193-8.606,10.186-8.017l169.682,20.273
  c3.516,0.42,6.473,2.827,7.6,6.191c13.223,39.463,59.481,61.883,149.986,72.709c5.023,0.6,8.61,5.162,8.012,10.189
  C2698.608,4663.582,2694.654,4667,2690.082,4667z"
          class="color270a54 svgShape"
        ></path>
      </g>
      <g fill="#000000" class="color000 svgShape">
        <path
          fill="#270a54"
          d="M2701.887,4665.39c-2.607,0-5.197-1.109-7.01-3.257c-3.261-3.873-2.769-9.653,1.105-12.91
  c10.069-8.49,19.485-16.516,28.374-24.093c93.126-79.437,131.681-112.298,267.481-102.341c5.047,0.367,8.835,4.76,8.469,9.806
  c-0.376,5.037-4.756,8.786-9.811,8.464c-128.313-9.403-162.6,19.834-254.249,98.01c-8.915,7.605-18.358,15.656-28.464,24.165
  C2706.065,4664.683,2703.972,4665.39,2701.887,4665.39z"
          class="color270a54 svgShape"
        ></path>
      </g>
      <g fill="#000000" class="color000 svgShape">
        <path
          fill="#270a54"
          d="M2389.757,4148.874c-3.619,0-7.05-2.155-8.495-5.717c-1.901-4.688,0.357-10.028,5.046-11.935
  l360.043-146.063c4.693-1.893,10.034,0.357,11.936,5.046c1.9,4.688-0.358,10.029-5.047,11.935l-360.043,146.063
  C2392.07,4148.66,2390.902,4148.874,2389.757,4148.874z"
          class="color270a54 svgShape"
        ></path>
      </g>
      <g fill="#000000" class="color000 svgShape">
        <path
          fill="#e5cba5"
          d="M1651.508,1632.767c86.361,86.362,355.866,179.653,504.585,20.253
    c136.284-146.072,52.449-369.061-110.029-437.434C1883.586,1147.213,1682.88,1339.571,1651.508,1632.767z"
          class="colore5cba5 svgShape"
        ></path>
        <path
          fill="#270a54"
          d="M1933.976,1746.769c-12.485,0-25.207-0.541-38.135-1.637
    c-118.726-10.051-221.313-62.398-251.897-107.199c-2.854-4.178-1.78-9.881,2.398-12.73c4.187-2.859,9.886-1.781,12.731,2.397
    c27.564,40.372,126.514,89.811,238.316,99.276c73.617,6.235,177.174-2.617,252.116-80.22c3.516-3.632,9.313-3.735,12.955-0.224
    c3.637,3.516,3.74,9.313,0.224,12.955C2107.661,1716.359,2027.428,1746.769,1933.976,1746.769z"
          class="color270a54 svgShape"
        ></path>
        <path
          fill="#e5cba5"
          d="M1899.075,1035.444l15.392-24.514l209.896,88.341c74.267,74.267,119.965,274.385,98.324,407.788
    l-410.732-230.514C1968.44,1201.754,2023.844,1162.295,1899.075,1035.444z"
          class="colore5cba5 svgShape"
        ></path>
        <path
          fill="#270a54"
          d="M2222.697,1516.219c-0.488,0-0.979-0.036-1.476-0.116c-4.993-0.814-8.388-5.516-7.578-10.513
    c21.687-133.703-24.178-326.534-94.512-398.585l-208.215-87.627c-4.666-1.964-6.853-7.336-4.894-11.998
    c1.968-4.661,7.35-6.844,11.998-4.894l209.897,88.339c1.096,0.46,2.089,1.127,2.925,1.968
    c74.445,74.445,123.478,276.482,100.892,415.731C2231.004,1513.02,2227.112,1516.219,2222.697,1516.219z"
          class="color270a54 svgShape"
        ></path>
      </g>
      <g fill="#000000" class="color000 svgShape">
        <polygon
          fill="#a23838"
          points="2212.384 1293.811 1914.467 1122.321 1889.871 1165.582 1811.955 1165.582 1787.953 1224.755 1620.245 1261.784 1590.624 1582.716 1748.226 1352.519 2149.347 1363.822"
          class="color5656a5 svgShape"
        ></polygon>
      </g>
      <g fill="#000000" class="color000 svgShape">
        <circle
          cx="2166.115"
          cy="1330.421"
          r="68.636"
          fill="#bf9362"
          class="colorbf9362 svgShape"
        ></circle>
      </g>
      <g fill="#000000" class="color000 svgShape">
        <path
          fill="#270a54"
          d="M2166.114,1408.219c-5.059,0-9.161-4.102-9.161-9.161s4.102-9.162,9.161-9.162
  c32.794,0,59.477-26.683,59.477-59.477c0-32.793-26.683-59.473-59.477-59.473c-5.059,0-9.161-4.102-9.161-9.161
  s4.102-9.162,9.161-9.162c42.899,0,77.8,34.901,77.8,77.795C2243.914,1373.318,2209.013,1408.219,2166.114,1408.219z"
          class="color270a54 svgShape"
        ></path>
      </g>
      <g fill="#000000" class="color000 svgShape">
        <path
          fill="#270a54"
          d="M2016.008,1369.226c-0.067,0-0.13,0-0.197,0l-360.974-7.546c-5.059-0.107-9.072-4.294-8.969-9.354
  c0.107-5.059,4.433-8.772,9.354-8.969l360.974,7.546c5.059,0.107,9.072,4.294,8.969,9.354
  C2025.057,1365.249,2020.978,1369.226,2016.008,1369.226z"
          class="color270a54 svgShape"
        ></path>
      </g>
      <g fill="#000000" class="color000 svgShape">
        <path
          fill="#270a54"
          d="M1889.118,1260.618c-0.773,0-1.557-0.103-2.344-0.309l-101.16-26.697
  c-4.889-1.289-7.81-6.303-6.518-11.197c1.288-4.894,6.258-7.815,11.197-6.518l101.16,26.697c4.889,1.288,7.81,6.303,6.518,11.197
  C1896.888,1257.898,1893.18,1260.618,1889.118,1260.618z"
          class="color270a54 svgShape"
        ></path>
      </g>
      <g fill="#000000" class="color000 svgShape">
        <path
          fill="#270a54"
          d="M2033.865,1245.028c-1.347,0-2.715-0.295-4.008-0.93l-144.005-70.285
  c-4.549-2.219-6.438-7.703-4.214-12.248c2.205-4.549,7.694-6.464,12.248-4.214l144.005,70.285
  c4.549,2.219,6.437,7.703,4.214,12.248C2040.521,1243.141,2037.261,1245.028,2033.865,1245.028z"
          class="color270a54 svgShape"
        ></path>
      </g>
      <g fill="#000000" class="color000 svgShape">
        <path
          fill="#270a54"
          d="M1640.379,4522.699c-0.461,0-0.921-0.035-1.391-0.106c-5.001-0.761-8.441-5.431-7.681-10.433
  c43.99-289.584,40.873-881.049,30.951-1477.073c-0.085-5.06,3.95-9.229,9.009-9.313c4.961-0.09,9.229,3.945,9.313,9.01
  c9.935,596.819,13.035,1189.207-31.157,1480.133C1648.735,4519.452,1644.83,4522.699,1640.379,4522.699z"
          class="color270a54 svgShape"
        ></path>
      </g>
      <g fill="#000000" class="color000 svgShape">
        <polygon
          fill="#a23838"
          points="2633.516 1275.973 2711.082 1145.783 2725.713 1199.38 2761.742 1173.538 2806.494 1229.237 2852.098 1211.799 2916.633 1330.421 2979.471 1370.08 2976.238 1457.001 2684.335 1352.519"
          class="color5656a5 svgShape"
        ></polygon>
      </g>
      <g fill="#000000" class="color000 svgShape">
        <ellipse
          cx="2657.148"
          cy="1310.1"
          fill="#bf9362"
          rx="34.318"
          ry="68.636"
          transform="rotate(-20.593 2657.033 1309.866)"
          class="colorbf9362 svgShape"
        ></ellipse>
      </g>
      <g fill="#000000" class="color000 svgShape">
        <path
          fill="#270a54"
          d="M2674.859,1384.667c-9.51,0-19.719-4.737-29.582-13.881c-11.652-10.803-21.893-26.925-28.83-45.395
  c-6.938-18.466-9.851-37.339-8.2-53.139c1.888-18.05,9.533-30.468,21.534-34.977c4.716-1.78,10.012,0.613,11.797,5.354
  c1.78,4.737-0.617,10.016-5.355,11.796c-5.01,1.883-8.655,9.26-9.751,19.732c-1.342,12.838,1.253,29.166,7.126,44.792
  c5.873,15.625,14.668,29.622,24.138,38.398c7.717,7.158,15.317,10.293,20.331,8.424c4.746-1.781,10.021,0.612,11.801,5.35
  s-0.617,10.021-5.35,11.801C2681.413,1384.09,2678.179,1384.667,2674.859,1384.667z"
          class="color270a54 svgShape"
        ></path>
      </g>
      <g fill="#000000" class="color000 svgShape">
        <path
          fill="#270a54"
          d="M2681.852,1252.405c-2.43,0-4.854-0.962-6.656-2.868c-3.477-3.677-3.315-9.474,0.361-12.95
  l54.352-51.385c3.672-3.471,9.475-3.315,12.95,0.362s3.314,9.474-0.362,12.95l-54.352,51.385
  C2686.374,1251.573,2684.11,1252.405,2681.852,1252.405z"
          class="color270a54 svgShape"
        ></path>
      </g>
      <g fill="#000000" class="color000 svgShape">
        <path
          fill="#270a54"
          d="M2715.526,1272.781c-3.695,0-7.175-2.255-8.566-5.918c-1.794-4.728,0.586-10.02,5.319-11.814
  l136.57-51.814c4.723-1.798,10.016,0.582,11.813,5.319c1.794,4.728-0.586,10.02-5.319,11.814l-136.569,51.814
  C2717.705,1272.589,2716.609,1272.781,2715.526,1272.781z"
          class="color270a54 svgShape"
        ></path>
      </g>
      <g fill="#000000" class="color000 svgShape">
        <path
          fill="#270a54"
          d="M2976.24,1466.167c-1.025,0-2.066-0.175-3.087-0.542l-181.567-64.988
  c-4.764-1.705-7.242-6.947-5.538-11.711c1.7-4.759,6.942-7.237,11.712-5.538l181.566,64.988c4.765,1.704,7.242,6.947,5.538,11.711
  C2983.527,1463.832,2980.002,1466.167,2976.24,1466.167z"
          class="color270a54 svgShape"
        ></path>
      </g>
      <g fill="#000000" class="color000 svgShape">
        <path
          fill="#270a54"
          d="M2148.274,539.968c-2.822,0-5.601-1.297-7.398-3.744c-2.988-4.08-2.107-9.815,1.973-12.808
  c66.044-48.423,135.184-67.292,205.473-56.122c4.997,0.796,8.4,5.494,7.609,10.49c-0.8,5.001-5.565,8.352-10.49,7.609
  c-65.288-10.418-129.802,7.376-191.758,52.803C2152.05,539.391,2150.153,539.968,2148.274,539.968z"
          class="color270a54 svgShape"
        ></path>
      </g>
      <g fill="#000000" class="color000 svgShape">
        <path
          fill="#270a54"
          d="M984.498 4666.258H507.263c-5.059 0-9.161-4.098-9.161-9.162 0-5.063 4.102-9.161 9.161-9.161h477.235c5.059 0 9.161 4.098 9.161 9.161C993.659 4662.16 989.557 4666.258 984.498 4666.258zM1195.365 4666.258h-137.134c-5.059 0-9.161-4.098-9.161-9.162 0-5.063 4.102-9.161 9.161-9.161h137.134c5.06 0 9.162 4.098 9.162 9.161C1204.527 4662.16 1200.425 4666.258 1195.365 4666.258zM3699.056 4666.258c-.005 0-.005 0-.009 0l-2376.34-1.915c-5.059 0-9.157-4.106-9.152-9.171.005-5.055 4.106-9.152 9.161-9.152.005 0 .005 0 .009 0l2376.339 1.915c5.059 0 9.156 4.106 9.152 9.171C3708.213 4662.16 3704.11 4666.258 3699.056 4666.258zM3867.557 4666.258h-93.439c-5.059 0-9.161-4.098-9.161-9.162 0-5.063 4.103-9.161 9.161-9.161h93.439c5.059 0 9.16 4.098 9.16 9.161C3876.717 4662.16 3872.615 4666.258 3867.557 4666.258zM4492.737 4666.258H4148.18c-5.059 0-9.16-4.098-9.16-9.162 0-5.063 4.102-9.161 9.16-9.161h344.558c5.06 0 9.161 4.098 9.161 9.161C4501.898 4662.16 4497.797 4666.258 4492.737 4666.258z"
          class="color270a54 svgShape"
        ></path>
        <path
          fill="#270a54"
          d="M4148.189 4666.258c-.166 0-.326 0-.492-.01-5.055-.268-8.934-4.58-8.665-9.635 6.249-118.123 86.389-251.884 163.956-367.152 2.827-4.187 8.518-5.314 12.713-2.486 4.201 2.826 5.314 8.518 2.487 12.722-76.167 113.184-154.843 244.226-160.86 357.883C4157.068 4662.464 4153.025 4666.258 4148.189 4666.258zM4097.887 4666.258c-.116 0-.232 0-.349-.01-5.055-.188-9.001-4.438-8.813-9.492 3.892-103.593 33.12-199.268 86.867-284.377 2.702-4.268 8.356-5.547 12.642-2.854 4.277 2.701 5.556 8.365 2.854 12.641-52.006 82.336-80.282 174.951-84.049 275.27C4106.852 4662.375 4102.789 4666.258 4097.887 4666.258zM4042.328 4666.258c-4.58 0-8.539-3.436-9.085-8.098-7.771-66.32 13.174-162.264 35.079-188.228 3.257-3.864 9.037-4.366 12.91-1.101 3.865 3.266 4.357 9.045 1.092 12.91-17.374 20.604-38.564 108.729-30.884 174.289.591 5.028-3.006 9.573-8.034 10.164C4043.044 4666.239 4042.687 4666.258 4042.328 4666.258zM984.489 4666.258c-4.836 0-8.88-3.794-9.139-8.679-4.156-78.497-58.739-169.368-111.591-247.901-2.827-4.196-1.713-9.896 2.487-12.723 4.191-2.826 9.891-1.718 12.713 2.487 54.248 80.618 110.299 174.208 114.687 257.171.268 5.055-3.61 9.367-8.665 9.635C984.815 4666.258 984.655 4666.258 984.489 4666.258zM1019.533 4666.258c-4.903 0-8.965-3.875-9.153-8.822-2.603-69.381-22.161-133.438-58.126-190.384-2.702-4.276-1.422-9.939 2.854-12.642 4.281-2.711 9.931-1.422 12.642 2.854 37.71 59.72 58.216 126.837 60.944 199.492.188 5.055-3.758 9.305-8.813 9.492C1019.766 4666.258 1019.649 4666.258 1019.533 4666.258zM1058.245 4666.258c-.358 0-.716-.019-1.078-.063-5.028-.591-8.625-5.136-8.034-10.164 5.176-44.214-9.354-105.633-20.886-119.303-3.261-3.865-2.769-9.645 1.101-12.91 3.865-3.266 9.644-2.765 12.91 1.1 15.742 18.672 30.705 85.146 25.073 133.242C1066.784 4662.822 1062.826 4666.258 1058.245 4666.258zM3867.547 4664.781c-4.826 0-8.866-3.775-9.139-8.651-2.832-51.147-23.539-149.901-83.181-195.618-4.018-3.078-4.778-8.83-1.696-12.848 3.082-4.008 8.831-4.759 12.844-1.699 60.697 46.531 86.594 141.75 90.329 209.145.277 5.056-3.588 9.377-8.643 9.654C3867.892 4664.781 3867.717 4664.781 3867.547 4664.781zM3905.924 4664.781c-4.756 0-8.772-3.668-9.126-8.481-5.229-70.669-21.181-124.116-50.204-168.206-2.782-4.223-1.609-9.903 2.617-12.686 4.236-2.773 9.908-1.61 12.691 2.612 30.803 46.8 47.698 103.011 53.165 176.919.376 5.047-3.413 9.439-8.459 9.814C3906.38 4664.772 3906.152 4664.781 3905.924 4664.781zM1262.93 4664.343c-4.827 0-8.866-3.775-9.139-8.651-5.538-100.032-43.319-240.834-131.569-308.479-4.017-3.077-4.777-8.83-1.695-12.847 3.082-4.018 8.826-4.76 12.843-1.701 93.179 71.431 132.96 218.11 138.717 322.008.277 5.055-3.587 9.375-8.642 9.653C1263.275 4664.343 1263.1 4664.343 1262.93 4664.343zM1322.707 4664.343c-4.755 0-8.772-3.668-9.125-8.481-8.213-110.982-33.326-195.01-79.03-264.436-2.783-4.223-1.61-9.904 2.617-12.686 4.232-2.773 9.913-1.611 12.691 2.611 47.489 72.137 73.541 158.938 81.991 273.15.376 5.045-3.413 9.438-8.459 9.814C1323.164 4664.334 1322.936 4664.343 1322.707 4664.343z"
          class="color270a54 svgShape"
        ></path>
      </g>
    </svg>
  </g>
</svg>
