<?xml version="1.0" encoding="iso-8859-1"?>
<!-- Uploaded to: SVG Repo, www.svgrepo.com, Generator: SVG Repo Mixer Tools -->
<svg height="800px" width="800px" version="1.1" id="Layer_1" xmlns="http://www.w3.org/2000/svg" xmlns:xlink="http://www.w3.org/1999/xlink" 
	 viewBox="0 0 433.875 433.875" xml:space="preserve">
<g>
	<path style="fill:#c57b34;" d="M417.253,299.911c22.163-53.506,22.163-112.441,0-165.947
		c-14.501-35.008-37.946-65.673-67.801-88.68c-28.94-22.302-63.329-37.053-99.447-42.658l-6.134,39.527
		c61.603,9.559,112.604,49.604,136.427,107.118c18.074,43.635,18.074,91.697,0,135.332c-9.736,23.505-24.096,44.204-42.087,61.13
		l-66.012-66.012v138.995l69.497-69.498l24.831,24.831C388.179,353.449,405.473,328.352,417.253,299.911z"/>
	<path style="fill:#c57b34;" d="M53.577,284.604c-28.863-69.681-9.699-147.467,42.152-196.397l65.948,65.947L92.179,84.656
		l69.497-69.498H22.682l44.666,44.667c-21.652,20.601-38.945,45.698-50.726,74.139c-22.163,53.506-22.163,112.44,0,165.947
		c14.501,35.008,37.946,65.673,67.801,88.681c28.94,22.301,63.329,37.052,99.447,42.657l6.134-39.527
		C128.402,382.163,77.401,342.118,53.577,284.604z"/>
	<polygon style="fill:#b44e00;" points="92.179,84.656 161.677,154.154 161.677,15.159 	"/>
	<polygon style="fill:#b44e00;" points="272.199,418.717 411.193,418.717 341.696,349.219 	"/>
</g>
</svg>