<?xml version="1.0" ?><!DOCTYPE svg  PUBLIC '-//W3C//DTD SVG 1.1//EN'  'http://www.w3.org/Graphics/SVG/1.1/DTD/svg11.dtd'><!-- Uploaded to: SVG Repo, www.svgrepo.com, Generator: SVG Repo Mixer Tools -->
<svg fill="#c57b34" width="800px" height="800px" viewBox="0 0 32 32" style="fill-rule:evenodd;clip-rule:evenodd;stroke-linejoin:round;stroke-miterlimit:2;" version="1.1" xml:space="preserve" xmlns="http://www.w3.org/2000/svg" xmlns:serif="http://www.serif.com/" xmlns:xlink="http://www.w3.org/1999/xlink"><path d="M9.101,7l8.899,0c1.857,-0 3.637,0.737 4.95,2.05c1.313,1.313 2.05,3.093 2.05,4.95l0,8.899c0.953,-0.195 1.837,-0.665 2.536,-1.363c0.937,-0.938 1.464,-2.21 1.464,-3.536c0,-2.977 0,-7.023 0,-10c0,-1.326 -0.527,-2.598 -1.464,-3.536c-0.938,-0.937 -2.21,-1.464 -3.536,-1.464c-2.977,0 -7.023,0 -10,0c-1.326,-0 -2.598,0.527 -3.536,1.464c-0.698,0.699 -1.168,1.583 -1.363,2.536Z"/><path d="M23,14c0,-1.326 -0.527,-2.598 -1.464,-3.536c-0.938,-0.937 -2.21,-1.464 -3.536,-1.464c-2.977,0 -7.023,0 -10,0c-1.326,-0 -2.598,0.527 -3.536,1.464c-0.937,0.938 -1.464,2.21 -1.464,3.536c0,2.977 0,7.023 0,10c-0,1.326 0.527,2.598 1.464,3.536c0.938,0.937 2.21,1.464 3.536,1.464c2.977,-0 7.023,-0 10,-0c1.326,0 2.598,-0.527 3.536,-1.464c0.937,-0.938 1.464,-2.21 1.464,-3.536l0,-10Zm-15,10l10,0c0.552,0 1,-0.448 1,-1c0,-0.552 -0.448,-1 -1,-1l-10,0c-0.552,0 -1,0.448 -1,1c0,0.552 0.448,1 1,1Zm0,-4l10,0c0.552,0 1,-0.448 1,-1c0,-0.552 -0.448,-1 -1,-1l-10,0c-0.552,0 -1,0.448 -1,1c0,0.552 0.448,1 1,1Zm0,-4l10,0c0.552,0 1,-0.448 1,-1c0,-0.552 -0.448,-1 -1,-1l-10,0c-0.552,0 -1,0.448 -1,1c0,0.552 0.448,1 1,1Z"/><g id="Icon"/></svg>