<svg
  xmlns="http://www.w3.org/2000/svg"
  enable-background="new 0 0 1364 960"
  viewBox="0 0 1364 960"
  id="Castle"
>
  <path
    fill="#fff3e8"
    d="M1005.297 392.858c-1.709 0-3.379.169-4.994.487.127-1.243.193-2.504.193-3.78 0-20.229-16.399-36.627-36.627-36.627-17.26 0-31.729 11.94-35.605 28.009-3.868-3.59-9.047-5.786-14.74-5.786-7.951 0-14.902 4.283-18.673 10.666-3.635-1.566-7.641-2.435-11.85-2.435-16.554 0-29.974 13.42-29.974 29.974s13.42 29.974 29.974 29.974c7.024 0 13.482-2.417 18.592-6.463 9.839 8.218 26.198 13.596 44.717 13.596 17.352 0 32.809-4.722 42.782-12.078 4.418 3.605 10.059 5.768 16.206 5.768 14.167 0 25.653-11.485 25.653-25.653S1019.465 392.858 1005.297 392.858zM598.018 179.671c1.709 0 3.379.169 4.994.487-.127-1.243-.193-2.504-.193-3.78 0-20.229 16.399-36.627 36.627-36.627 17.26 0 31.729 11.939 35.605 28.009 3.868-3.59 9.047-5.786 14.74-5.786 7.951 0 14.901 4.283 18.673 10.666 3.635-1.566 7.641-2.435 11.85-2.435 16.554 0 29.974 13.42 29.974 29.974s-13.42 29.974-29.974 29.974c-7.024 0-13.482-2.417-18.592-6.463-9.839 8.218-26.198 13.596-44.717 13.596-17.352 0-32.809-4.722-42.782-12.078-4.418 3.605-10.059 5.768-16.206 5.768-14.167 0-25.653-11.485-25.653-25.653C572.365 191.156 583.85 179.671 598.018 179.671zM511.56 317.572c-1.709 0-3.379.169-4.994.487.127-1.243.193-2.504.193-3.78 0-20.229-16.399-36.627-36.627-36.627-17.26 0-31.729 11.94-35.605 28.009-3.868-3.59-9.047-5.786-14.74-5.786-7.951 0-14.902 4.283-18.673 10.666-3.635-1.566-7.641-2.435-11.85-2.435-16.554 0-29.974 13.42-29.974 29.974s13.42 29.974 29.974 29.974c7.024 0 13.482-2.417 18.592-6.463 9.839 8.218 26.198 13.596 44.717 13.596 17.352 0 32.809-4.722 42.782-12.078 4.418 3.605 10.059 5.768 16.206 5.768 14.167 0 25.653-11.485 25.653-25.653S525.727 317.572 511.56 317.572z"
    class="colorffe8ee svgShape"
  ></path>
  <path
    fill="#ebbb8c"
    d="M590.203,292.786c-2.929,3.08-6.685,2.4-12.36-0.885c-5.676-3.286-10.367,1.48-10.367,1.48l-0.482,26.065
	c1.048-9.172,12.216-13.504,19.256-11.1c10.202,3.483,10.234-8.162,16.131-10.746c8.904-3.901,12.864,3.193,12.864,3.193
	C611.87,285.586,595.354,287.369,590.203,292.786z"
    class="color8cbbeb svgShape"
  ></path>
  <path
    fill="#dbab7b"
    d="M602.633,295.32c-5.836,1.399-6.343,13.98-15.129,9.104c-3.847-2.135-8.387-2.134-12.267-0.062
	c-3.006,1.606-5.822-0.548-5.66-3.953c0.191-4.011,0.297-7.579,2.339-9.448c-2.674,0.628-4.44,2.419-4.44,2.419l-0.482,26.065
	c1.048-9.172,12.216-13.504,19.256-11.1c10.202,3.483,10.234-8.162,16.131-10.746c8.904-3.901,12.864,3.193,12.864,3.193
	c-0.078-0.352-0.166-0.692-0.258-1.026C613.906,297.865,609.301,293.721,602.633,295.32z"
    class="color7babdb svgShape"
  ></path>
  <rect
    width="1.759"
    height="61.934"
    x="566.702"
    y="290.962"
    fill="#6e5741"
    class="color6e414e svgShape"
  ></rect>
  <path
    fill="#f5c595"
    d="M724.406,71.677c-2.929,3.08-6.685,2.4-12.36-0.885c-5.676-3.286-10.367,1.48-10.367,1.48l-0.482,26.065
	c1.048-9.172,12.216-13.504,19.256-11.1c10.202,3.483,10.234-8.162,16.131-10.746c8.904-3.901,12.864,3.193,12.864,3.193
	C746.072,64.477,729.557,66.261,724.406,71.677z"
    class="colorf595ac svgShape"
  ></path>
  <path
    fill="#e6b07a"
    d="M736.836,74.211c-5.836,1.399-6.343,13.98-15.129,9.104c-3.847-2.135-8.387-2.134-12.267-0.062
	c-3.006,1.606-5.822-0.548-5.66-3.953c0.191-4.011,0.297-7.579,2.339-9.448c-2.674,0.628-4.44,2.419-4.44,2.419l-0.482,26.065
	c1.048-9.172,12.216-13.504,19.256-11.1c10.202,3.483,10.234-8.162,16.131-10.746c8.903-3.901,12.864,3.193,12.864,3.193
	c-0.078-0.352-0.166-0.692-0.258-1.026C748.109,76.757,743.504,72.612,736.836,74.211z"
    class="colore67a93 svgShape"
  ></path>
  <rect
    width="1.759"
    height="61.934"
    x="700.904"
    y="69.853"
    fill="#6e5741"
    class="color6e414e svgShape"
  ></rect>
  <path
    fill="#fbc48d"
    d="M866.985,297.277c-2.929,3.08-6.685,2.4-12.36-0.885c-5.676-3.286-10.367,1.48-10.367,1.48l-0.482,26.065
	c1.048-9.172,12.216-13.504,19.256-11.1c10.202,3.483,10.234-8.162,16.131-10.746c8.904-3.901,12.864,3.193,12.864,3.193
	C888.652,290.077,872.136,291.861,866.985,297.277z"
    class="colorfbd58d svgShape"
  ></path>
  <path
    fill="#f0b173"
    d="M879.415,299.811c-5.836,1.399-6.343,13.98-15.129,9.104c-3.847-2.135-8.387-2.134-12.267-0.062
	c-3.006,1.606-5.822-0.548-5.66-3.953c0.191-4.011,0.297-7.579,2.339-9.448c-2.674,0.628-4.44,2.419-4.44,2.419l-0.482,26.065
	c1.048-9.172,12.216-13.504,19.256-11.1c10.202,3.483,10.234-8.162,16.131-10.746c8.904-3.901,12.864,3.193,12.864,3.193
	c-0.078-0.352-0.166-0.692-0.258-1.026C890.688,302.357,886.083,298.212,879.415,299.811z"
    class="colorf0c573 svgShape"
  ></path>
  <rect
    width="1.759"
    height="61.934"
    x="843.484"
    y="295.453"
    fill="#6e5741"
    class="color6e414e svgShape"
  ></rect>
  <path
    fill="#ffe8d1"
    d="M481.068 681.229c-1.404-12.871-16.618-21.513-28.167-15.134-2.747 1.366-6.375 6.159-9.54 6.006-3.395-1.014-4.134-5.797-6.999-7.861-15.611-17.88-46.823-8.507-51.242 14.406-10.184-10.948-29.276-.069-25.06 14.269-16.266-7.293-25.929 16.872-9.141 22.815-54.209-3.991-32.088 77.948 20.777 51.642 5.973 20.714 36.036 22.074 43.861 1.995 19.13 30.464 64.851 6.896 51.174-26.344 9.674 7.64 23.923-3.368 12.027-11.304C508.66 728.836 510.452 686.789 481.068 681.229zM1023.605 730.59c4.437-12.164-5.382-26.646-18.562-26.036-3.068.009-8.443 2.702-11.213 1.164-2.596-2.412-1.142-7.028-2.798-10.147-6.087-22.942-38.224-28.349-52.327-9.757-4.288-14.324-26.223-13.018-28.788 1.706-11.359-13.738-30.719 3.656-18.293 16.415-46.846-27.567-63.269 55.7-4.221 55.505-3.811 21.219 22.548 35.742 38.449 21.199 3.674 35.784 55.104 34.882 57.549-.978 5.294 11.132 22.944 7.566 15.788-4.814C1027.28 785.493 1047.495 748.579 1023.605 730.59z"
    class="colorffd1dc svgShape"
  ></path>
  <path
    fill="#ffd6ad"
    d="M983.73,457.677l-3.518,35.211c-0.041,0.409-0.115,0.835-0.216,1.226c-0.987,4.6-4.866,8.15-9.166,8.15
	h-43.9c-4.285,0-7.533-3.55-7.709-8.15c-0.027-0.391-0.025-0.817,0.007-1.226l2.732-35.211H983.73z"
    class="colorffadc0 svgShape"
  ></path>
  <path
    fill="#f5c493"
    d="M979.996,494.114c-0.987,4.6-4.866,8.15-9.166,8.15h-43.9c-4.285,0-7.533-3.55-7.709-8.15H979.996z"
    class="colorf593aa svgShape"
  ></path>
  <polygon
    fill="#f5c493"
    points="983.085 464.136 982.625 468.743 921.101 468.743 921.459 464.136"
    class="colorf593aa svgShape"
  ></polygon>
  <polygon
    fill="#ffd6ad"
    points="962.99 589.511 919.458 589.511 920.677 579.18 921.771 569.905 924.303 548.36 926.846 526.741 927.612 520.131 929.714 502.267 968.21 502.267 967.139 520.131 966.749 526.741 965.453 548.36 964.159 569.905 963.606 579.18"
    class="colorffadc0 svgShape"
  ></polygon>
  <path
    fill="#6e5741"
    d="M938.102,474.887c0.007,0.005,0.016,0.009,0.023,0.014c-0.061-0.12-0.123-0.24-0.185-0.35
	c-0.016-0.02-0.024-0.03-0.032-0.05c-0.071-0.11-0.142-0.22-0.215-0.32c-0.07-0.12-0.16-0.23-0.24-0.34
	c-0.023-0.04-0.048-0.07-0.08-0.11s-0.057-0.07-0.09-0.1c-0.065-0.08-0.13-0.16-0.204-0.23c-0.147-0.17-0.304-0.32-0.463-0.45
	c-0.1-0.09-0.209-0.17-0.31-0.25c-0.152-0.11-0.313-0.22-0.474-0.32c-0.119-0.08-0.238-0.15-0.367-0.21
	c-0.188-0.1-0.396-0.19-0.596-0.26c-0.086-0.04-0.173-0.07-0.261-0.09c-0.174-0.06-0.349-0.11-0.525-0.14
	c-0.176-0.04-0.352-0.07-0.529-0.09c-0.044-0.01-0.088-0.02-0.141-0.02c-0.186-0.02-0.382-0.03-0.579-0.03
	c-3.695,0-6.95,3.35-7.277,7.458l-0.966,12.152h13.272l1.025-12.152C939.016,477.477,938.709,476.066,938.102,474.887z
	 M956.956,474.891c-0.029-0.08-0.075-0.16-0.113-0.23c-0.077-0.14-0.154-0.27-0.241-0.4c-0.046-0.08-0.102-0.16-0.158-0.23
	c-0.088-0.12-0.175-0.24-0.263-0.35c-0.104-0.13-0.219-0.25-0.333-0.37c-0.041-0.04-0.082-0.08-0.123-0.12
	c-0.114-0.12-0.239-0.23-0.364-0.33c-0.14-0.13-0.3-0.24-0.46-0.35c-0.303-0.21-0.637-0.38-0.981-0.53
	c-0.017-0.01-0.035-0.01-0.052-0.02c-0.337-0.13-0.685-0.24-1.046-0.31c-0.017-0.01-0.035-0.01-0.053-0.01
	c-0.017-0.01-0.044-0.01-0.062-0.01c-0.088-0.02-0.176-0.03-0.265-0.04c-0.106-0.02-0.212-0.03-0.319-0.03
	c-0.142-0.01-0.285-0.02-0.428-0.02l-1.521,0.2c-0.164,0.03-0.329,0.08-0.495,0.14l-2.899,1.85c-0.333,0.34-0.634,0.709-0.909,1.099
	c-0.276,0.399-0.519,0.829-0.726,1.268c-0.109,0.229-0.201,0.459-0.283,0.688c-0.248,0.698-0.42,1.445-0.486,2.212l-1.05,12.152
	h13.263l1.108-12.152C957.836,477.485,957.554,476.069,956.956,474.891z M975.811,474.901c-0.045-0.09-0.082-0.17-0.128-0.25
	c-0.092-0.16-0.183-0.32-0.285-0.469c-0.093-0.15-0.195-0.29-0.308-0.42c-0.015-0.03-0.04-0.05-0.055-0.08
	c-0.097-0.11-0.192-0.23-0.299-0.33c-0.348-0.38-0.746-0.7-1.185-0.97c-0.117-0.08-0.236-0.15-0.364-0.21
	c-0.069-0.03-0.136-0.07-0.205-0.1c-0.154-0.07-0.309-0.14-0.465-0.19c-0.172-0.07-0.346-0.12-0.53-0.16
	c-0.061-0.02-0.122-0.03-0.175-0.04c-0.175-0.04-0.351-0.07-0.528-0.09c-0.044-0.01-0.088-0.02-0.141-0.02
	c-0.186-0.02-0.382-0.03-0.579-0.03l-1.494,0.19c-0.402,0.09-0.791,0.23-1.165,0.4c-0.205,0.09-0.413,0.2-0.611,0.31
	c-0.397,0.23-0.781,0.5-1.141,0.81c-0.175,0.15-0.351,0.31-0.519,0.48c-0.168,0.17-0.328,0.35-0.479,0.53
	c-0.312,0.37-0.59,0.769-0.835,1.189c-0.372,0.639-0.66,1.327-0.862,2.055c-0.134,0.479-0.225,0.977-0.273,1.494l-1.133,12.152
	h13.272l1.192-12.152C976.665,477.485,976.401,476.079,975.811,474.901z"
    class="color6e414e svgShape"
  ></path>
  <path
    fill="#4f341a"
    d="M927.556 481.309c.33-4.107 3.588-7.446 7.277-7.446 1.235 0 2.356.381 3.293 1.034-1.026-2.019-2.964-3.354-5.294-3.354-3.692 0-6.95 3.344-7.278 7.458l-.966 12.149h2.177L927.556 481.309zM965.155 481.309c.386-4.107 3.69-7.446 7.379-7.446h0c1.235 0 2.351.381 3.279 1.034-.999-2.019-2.918-3.354-5.248-3.354l0 0c-3.692 0-6.996 3.344-7.38 7.458l-1.133 12.149h2.177L965.155 481.309zM946.356 481.309c.358-4.107 3.639-7.446 7.328-7.446l0 0c1.235 0 2.353.381 3.286 1.034-1.013-2.019-2.941-3.354-5.271-3.354l0 0c-3.692 0-6.973 3.344-7.329 7.458l-1.049 12.149h2.177L946.356 481.309z"
    class="color4f301a svgShape"
  ></path>
  <polygon
    fill="#ffd6ad"
    points="986.964 456.968 983.211 464.136 921.459 464.136 918.978 456.968"
    class="colorffadc0 svgShape"
  ></polygon>
  <path
    fill="#999999"
    d="M954.077,456.97l-11.82,132.541h-22.798l1.219-10.331l1.094-9.276l2.533-21.545l2.543-21.618l0.767-6.611
	l2.102-17.863h-2.787c-4.282,0-7.527-3.558-7.711-8.149c-0.023-0.394-0.016-0.817,0.016-1.231l2.231-28.753l-2.484-7.164H954.077z"
    class="color999999 svgShape"
  ></path>
  <path
    fill="#f5b16e"
    d="M987.773,452.312l-34.759-1.161l-2.665,0.085l-32.299,1.076c0,0,4.788-0.184,13.234-12.536
	c6.319-9.268,18.611-36.772,24.555-50.41c2.051-4.714,3.337-7.746,3.337-7.746s11.272,45.694,17.585,58.156
	C983.018,452.129,987.773,452.312,987.773,452.312z"
    class="colorf56e8e svgShape"
  ></path>
  <path
    fill="#c68c52"
    d="M987.773,452.312l-34.759-1.161l-2.665,0.085c10.725-10.276,8.298-41.871,5.49-61.871
	c2.051-4.714,3.337-7.746,3.337-7.746s11.272,45.694,17.585,58.156C983.018,452.129,987.773,452.312,987.773,452.312z"
    class="colordb5a79 svgShape"
  ></path>
  <polygon
    fill="#f5b16e"
    points="989.051 456.968 917.085 456.968 917.557 450.744 989.684 450.744"
    class="colorf56e8e svgShape"
  ></polygon>
  <polygon
    fill="#ebe1d8"
    points="962.99 589.511 919.458 589.511 920.677 579.18 921.771 569.905 964.159 569.905 963.606 579.18"
    class="colorebd8e2 svgShape"
  ></polygon>
  <polygon
    fill="#ffd6ad"
    points="768.706 312.909 719.664 364.553 724.258 425.532 795.593 312.909"
    class="colorffadc0 svgShape"
  ></polygon>
  <path
    fill="#ffd6ad"
    d="M803.093,224.582l-0.744,23.265c-0.009,0.271-0.037,0.554-0.083,0.814c-0.42,3.058-2.646,5.42-5.27,5.42
	h-26.789c-2.615,0-4.719-2.362-4.985-5.42c-0.03-0.26-0.043-0.543-0.038-0.814l0.453-23.265H803.093z"
    class="colorffadc0 svgShape"
  ></path>
  <path
    fill="#f5c493"
    d="M802.267,248.661c-0.42,3.058-2.646,5.42-5.27,5.42h-26.789c-2.615,0-4.719-2.362-4.985-5.42H802.267z"
    class="colorf593aa svgShape"
  ></path>
  <polygon
    fill="#f5c493"
    points="802.957 228.832 802.86 231.869 765.496 231.869 765.555 228.832"
    class="colorf593aa svgShape"
  ></polygon>
  <polygon
    fill="#ffd6ad"
    points="795.593 312.909 768.693 312.909 769.08 305.866 769.427 299.56 770.223 284.978 771.018 270.437 771.254 266.009 771.906 254.084 795.398 254.084 795.436 266.009 795.454 270.437 795.501 284.978 795.547 299.56 795.568 305.866"
    class="colorffadc0 svgShape"
  ></polygon>
  <path
    fill="#6e5741"
    d="M776.041,235.924c0.005,0.003,0.01,0.006,0.015,0.009c-0.042-0.079-0.083-0.158-0.125-0.231
	c-0.011-0.013-0.016-0.02-0.021-0.033c-0.047-0.072-0.094-0.145-0.142-0.211c-0.047-0.079-0.105-0.152-0.158-0.224
	c-0.016-0.026-0.031-0.046-0.053-0.073c-0.021-0.026-0.037-0.046-0.058-0.066c-0.042-0.053-0.085-0.106-0.132-0.152
	c-0.095-0.112-0.196-0.211-0.298-0.297c-0.064-0.059-0.133-0.112-0.197-0.165c-0.096-0.073-0.198-0.145-0.3-0.211
	c-0.075-0.053-0.15-0.099-0.231-0.139c-0.118-0.066-0.247-0.126-0.371-0.172c-0.054-0.026-0.108-0.046-0.162-0.06
	c-0.108-0.04-0.216-0.073-0.324-0.092c-0.108-0.026-0.216-0.046-0.325-0.06c-0.027-0.007-0.054-0.013-0.087-0.013
	c-0.114-0.013-0.233-0.02-0.353-0.02c-2.245,0-4.106,2.212-4.162,4.927l-0.166,8.052h8.086l0.187-8.052
	C776.689,237.636,776.452,236.703,776.041,235.924z M787.501,235.927c-0.02-0.053-0.051-0.106-0.077-0.152
	c-0.052-0.092-0.104-0.178-0.161-0.264c-0.031-0.053-0.068-0.106-0.105-0.152c-0.058-0.079-0.115-0.158-0.173-0.231
	c-0.068-0.086-0.142-0.165-0.216-0.244c-0.026-0.026-0.053-0.053-0.079-0.079c-0.074-0.079-0.154-0.152-0.233-0.218
	c-0.09-0.086-0.191-0.158-0.293-0.231c-0.192-0.139-0.401-0.251-0.616-0.35c-0.011-0.006-0.022-0.006-0.032-0.013
	c-0.21-0.086-0.425-0.158-0.647-0.205c-0.011-0.007-0.022-0.007-0.032-0.007c-0.011-0.007-0.027-0.007-0.038-0.007
	c-0.054-0.013-0.108-0.02-0.162-0.026c-0.065-0.013-0.13-0.02-0.195-0.02c-0.087-0.007-0.174-0.013-0.261-0.013l-0.917,0.132
	c-0.098,0.02-0.197,0.053-0.296,0.092l-1.694,1.222c-0.19,0.224-0.359,0.469-0.512,0.726c-0.153,0.264-0.285,0.548-0.395,0.838
	c-0.058,0.152-0.105,0.303-0.147,0.455c-0.125,0.462-0.203,0.956-0.215,1.463l-0.196,8.052h8.081l0.218-8.052
	C788.133,237.641,787.909,236.705,787.501,235.927z M798.962,235.933c-0.031-0.059-0.056-0.112-0.087-0.165
	c-0.062-0.106-0.124-0.211-0.192-0.31c-0.062-0.099-0.13-0.191-0.203-0.277c-0.01-0.02-0.026-0.033-0.036-0.053
	c-0.063-0.073-0.126-0.152-0.194-0.218c-0.226-0.251-0.481-0.462-0.758-0.64c-0.074-0.053-0.149-0.099-0.229-0.139
	c-0.043-0.02-0.086-0.046-0.128-0.066c-0.096-0.046-0.193-0.092-0.29-0.125c-0.107-0.046-0.215-0.079-0.328-0.106
	c-0.038-0.013-0.076-0.02-0.108-0.026c-0.108-0.026-0.216-0.046-0.324-0.06c-0.027-0.007-0.054-0.013-0.087-0.013
	c-0.114-0.013-0.233-0.02-0.353-0.02l-0.901,0.125c-0.241,0.06-0.472,0.152-0.693,0.264c-0.121,0.06-0.243,0.132-0.359,0.205
	c-0.233,0.152-0.455,0.33-0.662,0.535c-0.101,0.099-0.201,0.205-0.297,0.317c-0.096,0.112-0.186,0.231-0.271,0.35
	c-0.175,0.244-0.33,0.508-0.462,0.785c-0.202,0.422-0.351,0.877-0.446,1.358c-0.063,0.316-0.1,0.646-0.109,0.988l-0.227,8.052h8.086
	l0.249-8.052C799.583,237.641,799.368,236.712,798.962,235.933z"
    class="color6e414e svgShape"
  ></path>
  <path
    fill="#54402c"
    d="M769.855 240.171c.057-2.717 1.921-4.923 4.163-4.923.751 0 1.445.252 2.039.683-.696-1.334-1.921-2.215-3.337-2.215-2.243 0-4.107 2.208-4.163 4.928l-.165 8.05h1.327L769.855 240.171zM792.73 240.171c.078-2.717 1.958-4.923 4.2-4.923h0c.751 0 1.443.252 2.033.683-.686-1.334-1.904-2.215-3.32-2.215l0 0c-2.243 0-4.124 2.208-4.2 4.928l-.227 8.05h1.327L792.73 240.171zM781.292 240.171c.067-2.717 1.94-4.923 4.181-4.923l0 0c.751 0 1.444.252 2.036.683-.691-1.334-1.912-2.215-3.328-2.215l0 0c-2.243 0-4.115 2.208-4.181 4.928l-.196 8.05h1.327L781.292 240.171z"
    class="color542c38 svgShape"
  ></path>
  <polygon
    fill="#ffd6ad"
    points="805.026 224.116 803.034 228.832 765.555 228.832 763.806 224.116"
    class="colorffadc0 svgShape"
  ></polygon>
  <path
    fill="#999999"
    d="M785.086,224.117l-2.305,88.792h-14.088l0.388-7.043l0.346-6.306l0.797-14.582l0.795-14.541l0.235-4.428
	l0.652-11.925h-1.701c-2.613,0-4.716-2.368-4.986-5.419c-0.027-0.262-0.038-0.543-0.033-0.818l0.371-19.016l-1.751-4.714H785.086z"
    class="color999999 svgShape"
  ></path>
  <path
    fill="#f5b16e"
    d="M805.33,221.058l-21.103-0.762l-1.612,0.056l-19.531,0.706c0,0,2.895-0.121,7.58-8.214
	c3.494-6.054,9.922-23.928,13.001-32.739c1.059-3.038,1.72-4.99,1.72-4.99s8.492,29.591,12.785,37.728
	C802.442,220.937,805.33,221.058,805.33,221.058z"
    class="colorf56e8e svgShape"
  ></path>
  <path
    fill="#c68c52"
    d="M805.33,221.058l-21.103-0.762l-1.612,0.056c6.112-6.733,3.473-27.314,1.05-40.247
	c1.059-3.038,1.72-4.99,1.72-4.99s8.492,29.591,12.785,37.728C802.442,220.937,805.33,221.058,805.33,221.058z"
    class="colordb5a79 svgShape"
  ></path>
  <polygon
    fill="#f5b16e"
    points="806.291 224.116 762.658 224.116 762.733 220.029 806.426 220.029"
    class="colorf56e8e svgShape"
  ></polygon>
  <polygon
    fill="#ebe1d8"
    points="795.593 312.909 768.693 312.909 769.08 305.866 769.427 299.56 795.547 299.56 795.568 305.866"
    class="colorebd8e2 svgShape"
  ></polygon>
  <polygon
    fill="#ffd6ad"
    points="530.106 407.951 579.558 456.308 577.484 513.477 504.096 407.951"
    class="colorffadc0 svgShape"
  ></polygon>
  <path
    fill="#ffd6ad"
    d="M493.489,325.376l1.601,21.734c0.019,0.254,0.057,0.518,0.111,0.761c0.522,2.857,2.763,5.065,5.3,5.065
	h25.898c2.528,0,4.472-2.208,4.611-5.065c0.019-0.243,0.021-0.507,0.005-0.761l-1.33-21.734H493.489z"
    class="colorffadc0 svgShape"
  ></path>
  <path
    fill="#f5c493"
    d="M495.201,347.871c0.522,2.857,2.763,5.065,5.3,5.065h25.898c2.528,0,4.472-2.208,4.611-5.065H495.201z"
    class="colorf593aa svgShape"
  ></path>
  <polygon
    fill="#f5c493"
    points="493.781 329.345 493.99 332.182 530.102 332.182 529.929 329.345"
    class="colorf593aa svgShape"
  ></polygon>
  <polygon
    fill="#ffd6ad"
    points="504.096 407.951 530.118 407.951 529.473 401.361 528.897 395.461 527.567 381.821 526.241 368.224 525.844 364.084 524.757 352.938 502.047 352.938 502.463 364.084 502.614 368.224 503.122 381.821 503.633 395.461 503.852 401.361"
    class="colorffadc0 svgShape"
  ></polygon>
  <path
    fill="#6e5741"
    d="M519.565,338.509l0.489,7.523h7.817l-0.468-7.523c-0.158-2.537-2.041-4.603-4.211-4.603
	c-0.116,0-0.231,0.006-0.34,0.019c-0.032,0-0.057,0.006-0.083,0.012c-0.104,0.012-0.208,0.031-0.312,0.056
	c-0.104,0.018-0.207,0.049-0.31,0.086c-0.052,0.012-0.103,0.031-0.154,0.056c-0.118,0.043-0.241,0.099-0.352,0.16
	c-0.076,0.037-0.147,0.08-0.218,0.13c-0.096,0.062-0.191,0.13-0.281,0.197c-0.06,0.049-0.125,0.099-0.184,0.154
	c-0.095,0.08-0.188,0.173-0.276,0.278c-0.044,0.043-0.083,0.092-0.122,0.142c-0.02,0.019-0.034,0.037-0.054,0.062
	s-0.034,0.043-0.048,0.068c-0.048,0.068-0.102,0.136-0.144,0.21c-0.043,0.062-0.086,0.129-0.129,0.197
	c-0.004,0.012-0.009,0.019-0.019,0.031c-0.038,0.068-0.075,0.142-0.112,0.216c0.004-0.003,0.009-0.005,0.014-0.009
	C519.698,336.698,519.504,337.569,519.565,338.509z M508.508,338.509l0.518,7.523h7.811l-0.497-7.523
	c-0.031-0.474-0.125-0.935-0.263-1.366c-0.046-0.142-0.097-0.283-0.159-0.425c-0.118-0.271-0.256-0.536-0.414-0.783
	c-0.158-0.24-0.33-0.469-0.523-0.678l-1.684-1.141c-0.097-0.037-0.194-0.068-0.289-0.086l-0.891-0.124
	c-0.084,0-0.168,0.006-0.251,0.012c-0.063,0-0.126,0.006-0.188,0.019c-0.052,0.006-0.104,0.012-0.156,0.025
	c-0.01,0-0.026,0-0.036,0.006c-0.011,0-0.021,0-0.031,0.006c-0.213,0.043-0.418,0.111-0.618,0.191
	c-0.01,0.006-0.021,0.006-0.031,0.012c-0.204,0.093-0.402,0.198-0.582,0.327c-0.095,0.068-0.19,0.136-0.274,0.216
	c-0.075,0.062-0.149,0.13-0.217,0.203c-0.025,0.025-0.049,0.049-0.074,0.074c-0.068,0.074-0.137,0.148-0.2,0.228
	c-0.053,0.068-0.106,0.142-0.159,0.216c-0.034,0.043-0.067,0.093-0.095,0.142c-0.052,0.08-0.099,0.16-0.146,0.247
	c-0.023,0.043-0.051,0.092-0.069,0.142C508.624,336.7,508.443,337.574,508.508,338.509z M497.444,338.509l0.546,7.523h7.817
	l-0.526-7.523c-0.022-0.32-0.07-0.628-0.143-0.923c-0.11-0.449-0.271-0.874-0.482-1.269c-0.139-0.259-0.298-0.505-0.477-0.734
	c-0.087-0.111-0.178-0.222-0.275-0.327c-0.097-0.105-0.198-0.203-0.299-0.296c-0.208-0.191-0.43-0.358-0.66-0.5
	c-0.115-0.068-0.235-0.136-0.355-0.191c-0.218-0.105-0.444-0.191-0.679-0.247l-0.875-0.117c-0.116,0-0.231,0.006-0.34,0.019
	c-0.031,0-0.057,0.006-0.083,0.012c-0.104,0.012-0.208,0.031-0.311,0.056c-0.031,0.006-0.067,0.012-0.103,0.025
	c-0.109,0.025-0.211,0.055-0.313,0.099c-0.092,0.031-0.184,0.074-0.275,0.117c-0.041,0.019-0.081,0.043-0.122,0.062
	c-0.076,0.037-0.147,0.08-0.217,0.13c-0.261,0.167-0.499,0.364-0.708,0.598c-0.064,0.062-0.121,0.136-0.18,0.204
	c-0.009,0.018-0.024,0.031-0.033,0.049c-0.068,0.08-0.13,0.166-0.186,0.259c-0.062,0.092-0.117,0.191-0.173,0.29
	c-0.028,0.049-0.051,0.099-0.078,0.154C497.55,336.706,497.376,337.574,497.444,338.509z"
    class="color6e414e svgShape"
  ></path>
  <path
    fill="#54402c"
    d="M526.208 339.938c-.159-2.538-2.045-4.599-4.212-4.599-.726 0-1.387.235-1.944.638.622-1.246 1.772-2.069 3.14-2.069 2.168 0 4.054 2.063 4.212 4.604l.468 7.521h-1.282L526.208 339.938zM504.096 339.938c-.179-2.538-2.08-4.599-4.247-4.599h0c-.725 0-1.386.235-1.939.638.612-1.246 1.756-2.069 3.124-2.069l0 0c2.168 0 4.069 2.063 4.247 4.604l.526 7.521h-1.282L504.096 339.938zM515.152 339.938c-.169-2.538-2.063-4.599-4.229-4.599l0 0c-.725 0-1.387.235-1.942.638.617-1.246 1.764-2.069 3.132-2.069l0 0c2.168 0 4.062 2.063 4.229 4.604l.497 7.521h-1.282L515.152 339.938z"
    class="color542c38 svgShape"
  ></path>
  <polygon
    fill="#ffd6ad"
    points="491.603 324.94 493.707 329.345 529.929 329.345 531.439 324.94"
    class="colorffadc0 svgShape"
  ></polygon>
  <path
    fill="#999999"
    d="M510.873,324.941l5.617,83.01h13.628l-0.645-6.59l-0.577-5.9l-1.329-13.64l-1.326-13.597l-0.397-4.14
	l-1.087-11.146h1.644c2.526,0,4.468-2.213,4.612-5.065c0.016-0.244,0.016-0.507,0-0.764l-1.087-17.765l1.512-4.403H510.873z"
    class="color999999 svgShape"
  ></path>
  <path
    fill="#f5b16e"
    d="M491.193,322.085l20.365-0.711l1.559,0.052l18.901,0.659c0,0-2.802-0.113-7.64-7.671
	c-3.607-5.653-10.5-22.336-13.81-30.557c-1.138-2.834-1.851-4.655-1.851-4.655s-7.078,27.615-10.918,35.213
	C493.98,321.972,491.193,322.085,491.193,322.085z"
    class="colorf56e8e svgShape"
  ></path>
  <path
    fill="#c68c52"
    d="M491.193,322.085l20.365-0.711l1.559,0.052c-6.163-6.288-4.396-25.5-2.549-37.569
	c-1.138-2.834-1.851-4.655-1.851-4.655s-7.078,27.615-10.918,35.213C493.98,321.972,491.193,322.085,491.193,322.085z"
    class="colordb5a79 svgShape"
  ></path>
  <polygon
    fill="#f5b16e"
    points="490.381 324.94 532.548 324.94 532.318 321.123 490.096 321.123"
    class="colorf56e8e svgShape"
  ></polygon>
  <polygon
    fill="#ebe1d8"
    points="504.096 407.951 530.118 407.951 529.473 401.361 528.897 395.461 503.633 395.461 503.852 401.361"
    class="colorebd8e2 svgShape"
  ></polygon>
  <path
    fill="#ffd6ad"
    d="M991.376,587.56l-19.008,176.438h-18.876L967.1,628.037c1.256-12.574-7.416-22.868-19.392-22.868
	c-1.996,0-3.951,0.304-5.836,0.851c-4.002,4.103-6.697,9.605-7.234,15.644l-12.432,142.334h-20.852l10.72-135.961
	c0.993-12.574-7.903-22.868-19.869-22.868c-1.996,0-3.941,0.304-5.826,0.851c-3.901,4.103-6.494,9.605-6.9,15.644l-9.412,142.334
	h-61.582l7.265-176.438h15.026c2.29,0,4.256-1.996,4.367-4.458l0.405-8.328c0.121-2.472,2.087-4.488,4.407-4.488h11.986
	c2.31,0,4.073,2.016,3.931,4.488l-0.466,8.328c-0.142,2.462,1.611,4.458,3.901,4.458h10.578c2.3,0,4.286-1.996,4.448-4.458
	l0.516-8.328c0.162-2.472,2.158-4.488,4.468-4.488h11.996c2.31,0,4.043,2.016,3.86,4.488l-0.587,8.328
	c-0.172,2.462,1.54,4.458,3.84,4.458h10.588c2.29,0,4.306-1.996,4.499-4.458l0.648-8.328c0.193-2.472,2.219-4.488,4.529-4.488
	h11.996c2.31,0,4.012,2.016,3.799,4.488l-0.719,8.328c-0.213,2.462,1.479,4.458,3.779,4.458h10.578c2.3,0,4.347-1.996,4.58-4.458
	l0.77-8.328c0.233-2.472,2.29-4.488,4.59-4.488h12.006c2.3,0,3.972,2.016,3.718,4.488l-0.841,8.328
	c-0.243,2.462,1.419,4.458,3.708,4.458H991.376z"
    class="colorffadc0 svgShape"
  ></path>
  <path
    fill="#ffffff"
    d="M977.718,621.664l-14.793,142.334h-9.433L967.1,628.037c1.256-12.574-7.416-22.868-19.392-22.868
	c-1.996,0-3.951,0.304-5.836,0.851c0.274-0.284,0.557-0.557,0.841-0.831c0.051-0.051,0.101-0.091,0.152-0.152
	c0.304-0.263,0.608-0.537,0.922-0.8c0.334-0.284,0.669-0.557,1.023-0.811c0.314-0.253,0.649-0.486,0.983-0.709
	c0.659-0.456,1.327-0.871,2.026-1.246c0.193-0.111,0.395-0.213,0.598-0.314c0.304-0.162,0.608-0.314,0.912-0.446
	c0.354-0.172,0.719-0.334,1.084-0.476c0.03-0.01,0.061-0.02,0.112-0.041c0.334-0.132,0.689-0.253,1.034-0.375
	c0.354-0.132,0.729-0.233,1.094-0.344c0,0,0.01,0,0.02,0c0.355-0.101,0.73-0.193,1.094-0.274c0.385-0.091,0.76-0.162,1.145-0.233
	c0.274-0.041,0.568-0.091,0.851-0.111c0.122-0.03,0.253-0.041,0.385-0.061c0.729-0.081,1.479-0.112,2.229-0.112
	C970.373,598.685,979.035,609.02,977.718,621.664z"
    class="colorffffff svgShape"
  ></path>
  <path
    fill="#f5c493"
    d="M977.718,621.664l-14.793,142.334h-9.433L967.1,628.037c1.256-12.574-7.416-22.868-19.392-22.868
	c-1.996,0-3.951,0.304-5.836,0.851c0.274-0.284,0.557-0.557,0.841-0.831c0.051-0.051,0.101-0.091,0.152-0.152
	c0.304-0.263,0.608-0.537,0.922-0.8c0.334-0.284,0.669-0.557,1.023-0.811c0.314-0.253,0.649-0.486,0.983-0.709
	c0.659-0.456,1.327-0.871,2.026-1.246c0.193-0.111,0.395-0.213,0.598-0.314c0.304-0.162,0.608-0.314,0.912-0.446
	c0.354-0.172,0.719-0.334,1.084-0.476c0.03-0.01,0.061-0.02,0.112-0.041c0.334-0.132,0.689-0.253,1.034-0.375
	c0.354-0.132,0.729-0.233,1.094-0.344c0,0,0.01,0,0.02,0c0.355-0.101,0.73-0.193,1.094-0.274c0.385-0.091,0.76-0.162,1.145-0.233
	c0.274-0.041,0.568-0.091,0.851-0.111c0.122-0.03,0.253-0.041,0.385-0.061c0.729-0.081,1.479-0.112,2.229-0.112
	C970.373,598.685,979.035,609.02,977.718,621.664z"
    class="colorf593aa svgShape"
  ></path>
  <path
    fill="#ffffff"
    d="M922.56,621.664l-11.773,142.334h-9.433l10.72-135.961c0.993-12.574-7.903-22.868-19.869-22.868
	c-1.996,0-3.941,0.304-5.826,0.851c0.02-0.02,0.051-0.051,0.071-0.071c0.213-0.223,0.425-0.436,0.638-0.648
	c0.729-0.709,1.5-1.368,2.3-1.976c0.274-0.213,0.547-0.405,0.821-0.598c0.821-0.578,1.682-1.094,2.574-1.56
	c0.334-0.172,0.679-0.344,1.023-0.496c0.324-0.152,0.659-0.294,0.993-0.436c0.03-0.01,0.071-0.02,0.101-0.041
	c0.334-0.132,0.689-0.253,1.023-0.375c0.365-0.132,0.729-0.233,1.094-0.344h0.02c0.354-0.101,0.729-0.193,1.104-0.274
	c0.365-0.091,0.74-0.162,1.125-0.233c0.304-0.051,0.598-0.091,0.902-0.122c0.466-0.061,0.932-0.101,1.388-0.132
	c0.395-0.02,0.78-0.03,1.175-0.03C914.728,598.685,923.603,609.02,922.56,621.664z"
    class="colorffffff svgShape"
  ></path>
  <path
    fill="#f5c493"
    d="M922.56,621.664l-11.773,142.334h-9.433l10.72-135.961c0.993-12.574-7.903-22.868-19.869-22.868
	c-1.996,0-3.941,0.304-5.826,0.851c0.02-0.02,0.051-0.051,0.071-0.071c0.213-0.223,0.425-0.436,0.638-0.648
	c0.729-0.709,1.5-1.368,2.3-1.976c0.274-0.213,0.547-0.405,0.821-0.598c0.821-0.578,1.682-1.094,2.574-1.56
	c0.334-0.172,0.679-0.344,1.023-0.496c0.324-0.152,0.659-0.294,0.993-0.436c0.03-0.01,0.071-0.02,0.101-0.041
	c0.334-0.132,0.689-0.253,1.023-0.375c0.365-0.132,0.729-0.233,1.094-0.344h0.02c0.354-0.101,0.729-0.193,1.104-0.274
	c0.365-0.091,0.74-0.162,1.125-0.233c0.304-0.051,0.598-0.091,0.902-0.122c0.466-0.061,0.932-0.101,1.388-0.132
	c0.395-0.02,0.78-0.03,1.175-0.03C914.728,598.685,923.603,609.02,922.56,621.664z"
    class="colorf593aa svgShape"
  ></path>
  <path
    fill="#ffffff"
    d="M867.395,621.667l-8.76,142.351h-9.437l0.001-0.024h-31.285l6.404-142.327
	c0.127-2.831,0.741-5.551,1.754-8.061c0.853-2.136,1.99-4.121,3.373-5.902c0.453-0.588,0.938-1.149,1.44-1.683h0.008
	c0.009-0.018,0.027-0.036,0.045-0.054c0.17-0.181,0.35-0.371,0.528-0.543c0.233-0.236,0.473-0.462,0.714-0.689l0.009-0.009
	c0.16-0.145,0.286-0.29,0.446-0.426c1.388-1.234,2.922-2.287,4.55-3.133c0.333-0.173,0.674-0.345,1.014-0.5
	c0.288-0.137,0.585-0.264,0.88-0.382c0.096-0.046,0.192-0.082,0.287-0.118c0.313-0.127,0.618-0.237,0.939-0.346
	c0.321-0.109,0.642-0.209,0.971-0.309c0.061-0.018,0.113-0.036,0.173-0.055c0.346-0.091,0.692-0.182,1.045-0.255
	c0.372-0.091,0.742-0.164,1.121-0.228c0.276-0.046,0.551-0.091,0.834-0.118c0.481-0.064,0.97-0.109,1.458-0.137
	c0.394-0.027,0.779-0.036,1.171-0.036C859.08,598.682,868.173,609.024,867.395,621.667z"
    class="colorffffff svgShape"
  ></path>
  <path
    fill="#f5c493"
    d="M867.395,621.667l-8.76,142.351h-9.437l7.846-135.977c0.726-12.581-8.377-22.872-20.355-22.872
	c-1.396,0-2.774,0.154-4.116,0.435c-0.567,0.118-1.127,0.254-1.679,0.417h-0.008l0.054-0.054c0.17-0.181,0.35-0.371,0.528-0.543
	c0.233-0.236,0.473-0.462,0.714-0.689l0.009-0.009c0.143-0.145,0.294-0.281,0.445-0.408c1.388-1.234,2.922-2.287,4.55-3.151
	c0.333-0.173,0.674-0.345,1.014-0.5c0.288-0.137,0.585-0.264,0.88-0.382c0.096-0.046,0.192-0.082,0.287-0.118
	c0.313-0.127,0.618-0.237,0.939-0.346c0.321-0.109,0.642-0.209,0.971-0.309c0.061-0.018,0.113-0.036,0.173-0.055
	c0.346-0.091,0.692-0.182,1.045-0.255c0.372-0.091,0.742-0.164,1.121-0.228c0.276-0.046,0.551-0.091,0.834-0.118
	c0.481-0.064,0.97-0.109,1.458-0.137c0.394-0.027,0.779-0.036,1.171-0.036C859.08,598.682,868.173,609.024,867.395,621.667z"
    class="colorf593aa svgShape"
  ></path>
  <polygon
    fill="#ffd6ad"
    points="721.256 226.345 720.988 283.419 684.043 283.419 683.594 226.345"
    class="colorffadc0 svgShape"
  ></polygon>
  <path
    fill="#f5c99d"
    d="M720.984,283.422c-5.569-26.118-18.221-42.408-37.326-49.456l37.559,0L720.984,283.422z"
    class="colorf59db1 svgShape"
  ></path>
  <path
    fill="#f5b16e"
    d="M731.424,231.087l-28.995-2.008l-2.211,0.147l-26.778,1.861c0,0,3.966-0.318,9.996-21.741
	c4.53-16.15,12.651-64.463,16.587-88.636c1.363-8.389,2.213-13.794,2.213-13.794s12.938,80.699,19.123,102.43
	C727.456,230.769,731.424,231.087,731.424,231.087z"
    class="colorf56e8e svgShape"
  ></path>
  <path
    fill="#c68c52"
    d="M731.424,231.087l-28.995-2.008l-2.211,0.147c8.149-17.82,3.716-73.117-0.195-108.516
	c1.363-8.389,2.213-13.794,2.213-13.794s12.938,80.699,19.123,102.43C727.456,230.769,731.424,231.087,731.424,231.087z"
    class="colordb5a79 svgShape"
  ></path>
  <polygon
    fill="#ffd6ad"
    points="728.263 332.312 726.47 578.166 679.173 578.166 676.575 332.312"
    class="colorffadc0 svgShape"
  ></polygon>
  <polygon
    fill="#f5c493"
    points="694.246 348.285 679.48 348.285 679.421 342.103 694.218 342.103"
    class="colorf593aa svgShape"
  ></polygon>
  <polygon
    fill="#f5c493"
    points="715.056 360.105 700.351 360.105 700.336 353.974 715.073 353.974"
    class="colorf593aa svgShape"
  ></polygon>
  <polygon
    fill="#f5c493"
    points="727.867 375.067 713.239 375.067 713.252 369 727.911 369"
    class="colorf593aa svgShape"
  ></polygon>
  <polygon
    fill="#f5c493"
    points="694.905 385.3 680.33 385.3 680.273 379.276 694.879 379.276"
    class="colorf593aa svgShape"
  ></polygon>
  <polygon
    fill="#f5c493"
    points="713.184 401.189 698.69 401.189 698.672 395.232 713.196 395.232"
    class="colorf593aa svgShape"
  ></polygon>
  <polygon
    fill="#f5c493"
    points="693.071 418.091 678.664 418.091 678.604 412.206 693.042 412.206"
    class="colorf593aa svgShape"
  ></polygon>
  <polygon
    fill="#f5c493"
    points="723.535 425.21 709.164 425.21 709.169 419.354 723.569 419.354"
    class="colorf593aa svgShape"
  ></polygon>
  <polygon
    fill="#f5c493"
    points="721.048 454.342 706.827 454.342 706.827 448.608 721.077 448.608"
    class="colorf593aa svgShape"
  ></polygon>
  <polygon
    fill="#f5c493"
    points="696.391 469.798 682.249 469.798 682.198 464.128 696.369 464.128"
    class="colorf593aa svgShape"
  ></polygon>
  <polygon
    fill="#f5c493"
    points="724.993 479.221 710.9 479.221 710.908 473.589 725.03 473.589"
    class="colorf593aa svgShape"
  ></polygon>
  <polygon
    fill="#f5c493"
    points="696.291 444.185 682.017 444.185 681.965 438.409 696.268 438.409"
    class="colorf593aa svgShape"
  ></polygon>
  <polygon
    fill="#f5c493"
    points="730.813 324.591 728.272 332.312 676.601 332.312 674.034 324.591"
    class="colorf593aa svgShape"
  ></polygon>
  <path
    fill="#ffd6ad"
    d="M731.267,268.969l-0.454,55.621h-56.779l-0.635-55.621c-0.017-1.522,0.988-2.747,2.247-2.747h7.854
	c0.142,0,0.274,0.011,0.408,0.043c1.065,0.234,1.889,1.353,1.898,2.704l0.057,7.872c0.011,1.502,1.034,2.727,2.288,2.727h5.224
	c1.253,0,2.263-1.226,2.257-2.727l-0.031-7.872c-0.006-1.522,1.018-2.747,2.276-2.747h7.854c1.259,0,2.287,1.225,2.286,2.747
	l-0.002,7.872c0,1.502,1.014,2.727,2.267,2.727h6.257c1.253,0,2.282-1.226,2.288-2.727l0.031-7.872
	c0.006-1.49,0.986-2.694,2.209-2.747h7.934C730.261,266.222,731.279,267.447,731.267,268.969z"
    class="colorffadc0 svgShape"
  ></path>
  <path
    fill="#6e5741"
    d="M696.907,294.34c0.002,0.001,0.004,0.002,0.006,0.004c-0.07-0.125-0.133-0.241-0.203-0.356
	c-0.159-0.261-0.327-0.513-0.495-0.743c-0.115-0.157-0.229-0.303-0.344-0.45c-0.115-0.136-0.221-0.272-0.335-0.398
	c-0.3-0.325-0.609-0.628-0.935-0.911c-0.15-0.126-0.3-0.251-0.459-0.377c-0.159-0.115-0.326-0.22-0.485-0.335
	c-0.167-0.105-0.335-0.21-0.502-0.304c-0.15-0.084-0.309-0.168-0.467-0.252c-0.15-0.063-0.299-0.126-0.458-0.199
	c-0.097-0.042-0.203-0.084-0.308-0.115c-0.308-0.105-0.625-0.199-0.942-0.273c-0.088-0.031-0.168-0.042-0.255-0.063
	c-0.044-0.01-0.079-0.01-0.123-0.021c-0.202-0.031-0.405-0.063-0.607-0.073c-0.247-0.031-0.502-0.042-0.757-0.042
	c-0.642,0-1.275,0.084-5.122,1.866c-0.358,0.293-0.707,0.618-1.029,0.974c-0.104,0.126-0.209,0.241-0.314,0.366
	c-0.208,0.251-0.4,0.502-0.582,0.774c-0.095,0.136-0.182,0.272-0.269,0.408c-0.173,0.282-0.338,0.565-0.493,0.868
	c-0.828,1.651-1.293,3.592-1.274,5.655l0.164,17.729h18.186l-0.053-17.729C698.443,298.119,697.87,296.061,696.907,294.34z
	 M722.78,294.344c-0.078-0.146-0.156-0.282-0.243-0.418c-0.139-0.23-0.279-0.45-0.436-0.659c-0.096-0.147-0.201-0.283-0.305-0.419
	c-0.262-0.325-0.542-0.639-0.821-0.911c-0.114-0.115-0.227-0.22-0.35-0.325c-0.114-0.105-0.236-0.209-0.359-0.314
	c-0.114-0.094-0.245-0.189-0.368-0.283c-0.122-0.084-0.254-0.178-0.386-0.262c-0.131-0.094-0.263-0.168-0.394-0.241
	c-0.132-0.073-0.263-0.147-0.404-0.22c-0.123-0.063-0.254-0.126-0.386-0.189c-0.009,0-0.026-0.01-0.044-0.021
	c-0.141-0.052-0.272-0.105-0.413-0.157c-0.439-0.168-0.896-0.294-1.371-0.378c-0.105-0.01-0.202-0.031-0.307-0.042
	c-0.132-0.021-0.273-0.042-0.413-0.053h-0.044c-0.194-0.01-0.396-0.021-0.59-0.021c-0.642,0-1.275,0.084-5.138,1.866
	c-0.361,0.293-0.712,0.618-1.037,0.974c-0.106,0.126-0.211,0.241-0.317,0.366c-0.211,0.251-0.404,0.502-0.589,0.774
	c-0.096,0.136-0.184,0.272-0.272,0.408c-0.175,0.282-0.343,0.565-0.5,0.868c-0.842,1.651-1.324,3.592-1.324,5.655l0.007,17.729
	h18.186l0.104-17.729C724.277,298.134,723.736,296.068,722.78,294.344z"
    class="color6e414e svgShape"
  ></path>
  <path
    fill="#54402c"
    d="M708.971 303.712c.004-6.002 4.112-10.885 9.177-10.885h0c1.696 0 3.276.558 4.633 1.513-1.626-2.955-4.432-4.909-7.632-4.909l0 0c-5.071 0-9.179 4.895-9.177 10.911l.007 17.725h2.983L708.971 303.712zM683.183 303.712c-.049-6.002 4.016-10.885 9.081-10.885l0 0c1.696 0 3.281.558 4.646 1.513-1.653-2.955-4.475-4.909-7.676-4.909l0 0c-5.071 0-9.136 4.895-9.08 10.911l.164 17.725h2.983L683.183 303.712z"
    class="color542c38 svgShape"
  ></path>
  <polygon
    fill="#6e5741"
    points="694.266 255.858 687.912 255.858 687.846 245.604 694.221 245.604"
    class="color6e414e svgShape"
  ></polygon>
  <polygon
    fill="#6e5741"
    points="706.009 255.858 699.655 255.858 699.629 245.604 706.005 245.604"
    class="color6e414e svgShape"
  ></polygon>
  <polygon
    fill="#6e5741"
    points="717.032 255.858 710.678 255.858 710.69 245.604 717.066 245.604"
    class="color6e414e svgShape"
  ></polygon>
  <polygon
    fill="#f5b16e"
    points="732.753 233.966 672.996 233.966 672.93 228.202 732.802 228.202"
    class="colorf56e8e svgShape"
  ></polygon>
  <path
    fill="#999999"
    d="M702.258,233.967l0.564,344.199h-23.648l-2.599-245.854h0.026l-2.567-7.722l-0.635-55.621
	c-0.017-1.522,0.988-2.747,2.247-2.747h7.854c0.142,0,0.274,0.011,0.408,0.043l-0.254-32.298H702.258z"
    class="color999999 svgShape"
  ></path>
  <polygon
    fill="#f5c493"
    points="732.869 578.164 672.773 578.164 678.183 495.296 678.189 495.187 727.181 495.187 727.336 497.445 727.336 497.49"
    class="colorf593aa svgShape"
  ></polygon>
  <polygon
    fill="#e6ac73"
    points="727.376 491.99 727.336 497.49 678.206 497.49 678.147 491.99"
    class="colore6738d svgShape"
  ></polygon>
  <polygon
    fill="#999999"
    points="702.762 491.99 702.9 578.164 672.773 578.164 678.183 495.296 678.147 491.99"
    class="color999999 svgShape"
  ></polygon>
  <path
    fill="#f5c493"
    d="M725.25,450.138l-0.113,17.276c-0.015,2.279-1.454,4.246-3.449,4.693c-5.271,1.181-10.549,2.707-15.841,4.53
	c-2.745,0.945-5.525-1.381-5.533-4.597l-0.026-10.607c-0.007-2.668-1.939-4.834-4.317-4.834h-12.394
	c-2.378,0-4.283,2.166-4.256,4.834l0.235,23.328c0.019,1.861-0.943,3.538-2.454,4.309c-5.377,2.741-10.775,5.691-16.202,8.8
	c-2.796,1.602-6.194-0.658-6.262-4.181l-0.123-6.394c-0.05-2.618-2.001-4.744-4.356-4.744h-12.277c-2.355,0-4.208,2.126-4.138,4.744
	l0.641,23.893c0.045,1.677-0.727,3.216-2.028,4.039c-4.223,2.673-8.471,5.388-12.746,8.123c-2.742,1.754-6.302-0.464-6.426-4.01l0,0
	c-0.089-2.557-2.048-4.634-4.376-4.634h-12.133c-2.328,0-4.127,2.076-4.019,4.634l0.755,17.848c0.07,1.662-0.689,3.193-1.986,3.994
	c-3.451,2.13-6.924,4.245-10.423,6.335c-2.698,1.611-6.162-0.572-6.331-4.001l-0.312-6.316c-0.125-2.523-2.1-4.573-4.413-4.573
	h-12.053c-2.312,0-4.07,2.049-3.926,4.573l1.248,21.901c0.099,1.746-0.739,3.338-2.158,4.072c-3.403,1.762-6.834,3.478-10.296,5.142
	c-2.653,1.276-5.844-0.878-6.05-4.098l-0.645-10.066c-0.16-2.492-2.152-4.515-4.45-4.515h-11.977c-2.298,0-4.016,2.023-3.837,4.515
	l1.564,21.841c0.136,1.902-0.865,3.6-2.497,4.2c-4.75,1.747-9.563,3.37-14.445,4.851c-2.557,0.776-5.317-1.336-5.551-4.255
	l-1.417-17.654c-0.199-2.475-2.216-4.485-4.506-4.485h-11.937c-2.29,0-3.97,2.01-3.752,4.485l2.133,24.277
	c0.191,2.171-1.13,4-3.099,4.34c-4.101,0.707-8.255,1.302-12.464,1.78c-2.395,0.272-4.701-1.755-4.951-4.363l-1.749-18.277
	c-0.235-2.461-2.278-4.459-4.561-4.459h-11.902c-2.283,0-3.928,1.998-3.674,4.459l2.944,28.508l0,0l16.974,164.367h288.965
	l3.984-282.481l0,0l0.439-31.145c0.038-2.69-1.867-4.874-4.254-4.874h-12.444C727.217,445.264,725.267,447.448,725.25,450.138z"
    class="colorf593aa svgShape"
  ></path>
  <polygon
    fill="#f0e3d6"
    points="722.098 383.273 720.222 610.988 694.41 610.988"
    class="colorf0d6e0 svgShape"
  ></polygon>
  <path
    fill="#ffd6ad"
    d="M811.47,384.985l-7.856,213.925c-0.106,2.876-2.375,5.211-5.075,5.211h-73.25
	c-2.7,0-4.878-2.334-4.863-5.211l0.949-187.847h-0.082l0.131-26.078c0.017-3.38,2.402-6.127,5.334-6.127h20.907
	c2.931,0,5.266,2.748,5.211,6.127l-0.323,20.071c-0.054,3.324,2.248,6.008,5.146,6.008h16.406c2.898,0,5.312-2.683,5.397-6.008
	l0.515-20.071c0.087-3.38,2.536-6.127,5.46-6.127h20.914C809.324,378.857,811.594,381.605,811.47,384.985z"
    class="colorffadc0 svgShape"
  ></path>
  <path
    fill="#6e5741"
    d="M794.8 434.893h-10.078c-1.807 0-3.315 1.659-3.37 3.703l-.302 11.349c-.054 2.025 1.357 3.664 3.152 3.664h10.011c1.794 0 3.302-1.639 3.368-3.664l.37-11.349C798.017 436.553 796.607 434.893 794.8 434.893zM770.445 434.893h-10.078c-1.807 0-3.301 1.659-3.337 3.703l-.203 11.349c-.036 2.025 1.389 3.664 3.184 3.664h10.011c1.794 0 3.288-1.639 3.336-3.664l.271-11.349C773.676 436.553 772.251 434.893 770.445 434.893zM744.472 434.893h-10.078c-1.807 0-3.285 1.659-3.303 3.703l-.097 11.349c-.017 2.025 1.423 3.664 3.218 3.664h10.011c1.794 0 3.273-1.639 3.302-3.664l.165-11.349C747.719 436.553 746.278 434.893 744.472 434.893z"
    class="color6e414e svgShape"
  ></path>
  <path
    fill="#f0e3d6"
    d="M790.903,536.263l-1.309,42.028h-55.896l0.421-42.028c0.179-17.856,13.216-32.557,29.062-32.557
	S791.459,518.407,790.903,536.263z"
    class="colorf0d6e0 svgShape"
  ></path>
  <path
    fill="#ffd6ad"
    d="M763.14,505.676L763.14,505.676c-14.875,0-27.076,13.259-27.248,29.438l-0.434,40.658h52.48l1.239-40.658
	C789.67,518.935,778.015,505.676,763.14,505.676z"
    class="colorffadc0 svgShape"
  ></path>
  <path
    fill="#6e5741"
    d="M737.838,572.778l0.435-37.638c0.169-14.628,11.299-26.646,24.809-26.646s24.145,12.018,23.712,26.646
	l-1.114,37.638H737.838z"
    class="color6e414e svgShape"
  ></path>
  <path
    fill="#d6c9bc"
    d="M742.53,540.102c0.192-14.574,11.32-26.547,24.805-26.547c5.845,0,11.157,2.261,15.26,6.014
	c-4.264-6.693-11.371-11.074-19.513-11.074c-13.51,0-24.64,12.018-24.809,26.646l-0.435,37.638h4.261L742.53,540.102z"
    class="colord6bcca svgShape"
  ></path>
  <path
    fill="#999999"
    d="M770.169,411.063l-4.322,193.058H725.29c-2.7,0-4.878-2.334-4.863-5.211l0.949-187.847h-0.082l0.131-26.078
	c0.017-3.38,2.402-6.127,5.334-6.127h20.907c2.931,0,5.266,2.748,5.211,6.127l-0.323,20.071c-0.054,3.324,2.248,6.008,5.146,6.008
	H770.169z"
    class="color999999 svgShape"
  ></path>
  <path
    fill="#ffd6ad"
    d="M788.689,570.585l-0.647,21.074c-0.069,2.253-1.237,4.076-2.609,4.076h-9.979
	c-1.372,0-2.438-1.823-2.381-4.076l0.527-21.074c0.057-2.293-1.02-4.155-2.407-4.155h-14.497c-1.387,0-2.544,1.862-2.585,4.155
	l-0.373,21.074c-0.04,2.253-1.184,4.076-2.556,4.076h-11.247c-1.372,0-2.462-1.823-2.437-4.076l0.243-21.074
	c0.026-2.293-1.076-4.155-2.463-4.155h-14.497c-1.387,0-2.519,1.862-2.529,4.155l-0.088,21.074c-0.009,2.253-1.129,4.076-2.5,4.076
	h-11.247c-1.372,0-2.487-1.823-2.492-4.076l-0.042-21.074c-0.005-2.293-1.133-4.155-2.519-4.155h-14.497
	c-1.387,0-2.494,1.862-2.472,4.155l0.197,21.074c0.021,2.253-1.074,4.076-2.445,4.076H668.9c-1.372,0-2.512-1.823-2.547-4.076
	l-0.326-21.074c-0.036-2.293-1.189-4.155-2.576-4.155h-14.497c-1.387,0-2.469,1.862-2.416,4.155l0.481,21.074
	c0.051,2.253-1.019,4.076-2.39,4.076h-11.247c-1.372,0-2.536-1.823-2.602-4.076l-0.611-21.074c-0.067-2.293-1.245-4.155-2.632-4.155
	H613.04c-1.387,0-2.444,1.862-2.36,4.155l0.914,25.151l5.985,164.71c0.072,1.974,1.17,3.571,2.454,3.571h178.461
	c1.284,0,2.385-1.598,2.46-3.571l6.267-164.71l0.957-25.151c0.087-2.293-0.966-4.155-2.353-4.155h-14.497
	C789.941,566.43,788.759,568.292,788.689,570.585z"
    class="colorffadc0 svgShape"
  ></path>
  <polygon
    fill="#f0e3d6"
    points="615.614 570.585 647.224 764.017 622.923 764.017"
    class="colorf0d6e0 svgShape"
  ></polygon>
  <polygon
    fill="#f0e3d6"
    points="803.268 482.878 792.782 763.863 768.479 763.863"
    class="colorf0d6e0 svgShape"
  ></polygon>
  <polygon
    fill="#f0e3d6"
    points="542.903 570.585 536.224 764.017 560.525 764.017"
    class="colorf0d6e0 svgShape"
  ></polygon>
  <polygon
    fill="#f0e3d6"
    points="473.262 563.133 481.718 764.017 506.019 764.017"
    class="colorf0d6e0 svgShape"
  ></polygon>
  <path
    fill="#f0e3d6"
    d="M755.738,703.291l-4.859,60.473h-81.525l-4.714-60.473c-2.301-29.514,18.061-55.853,45.616-55.853
	C737.812,647.438,758.11,673.777,755.738,703.291z"
    class="colorf0d6e0 svgShape"
  ></path>
  <path
    fill="#ffd6ad"
    d="M710.251,651.216L710.251,651.216c-25.731,0-44.806,24.435-42.787,52.075l4.424,60.572h76.454l4.57-60.572
	C754.998,675.651,735.982,651.216,710.251,651.216z"
    class="colorffadc0 svgShape"
  ></path>
  <path
    fill="#6e5741"
    d="M675.306,763.863l-3.883-58.47c-1.723-25.938,15.627-48.838,38.821-48.838s40.489,22.9,38.704,48.838
	l-4.023,58.47H675.306z"
    class="color6e414e svgShape"
  ></path>
  <polygon
    fill="#54402c"
    points="710.853 763.863 709.093 763.863 709.009 656.555 711.135 656.555"
    class="color542c38 svgShape"
  ></polygon>
  <path
    fill="#d6c9bc"
    d="M678.783,713.748c-1.368-25.171,15.997-47.366,38.825-47.366c9.896,0,18.798,4.302,25.485,11.328
	c-6.842-12.632-18.87-21.155-32.848-21.155c-23.194,0-40.544,22.9-38.821,48.838l3.883,58.47h6.201L678.783,713.748z"
    class="colord6bcca svgShape"
  ></path>
  <path
    fill="#54402c"
    d="M713.402 721.683c.01-1.496 1.143-2.715 2.528-2.715s2.49 1.219 2.466 2.715c-.024 1.488-1.156 2.689-2.528 2.689C714.496 724.372 713.391 723.172 713.402 721.683zM700.559 721.683c-.024-1.496 1.08-2.715 2.466-2.715s2.518 1.219 2.529 2.715c.011 1.488-1.094 2.689-2.466 2.689S700.583 723.172 700.559 721.683z"
    class="color542c38 svgShape"
  ></path>
  <polygon
    fill="#54402c"
    points="702.505 736.585 680.024 736.585 679.971 735.608 702.493 735.608"
    class="color542c38 svgShape"
  ></polygon>
  <polygon
    fill="#54402c"
    points="740.464 693.996 716.217 693.996 716.23 692.86 740.525 692.86"
    class="color542c38 svgShape"
  ></polygon>
  <polygon
    fill="#54402c"
    points="691.569 742.67 679.382 742.67 679.329 741.716 691.537 741.716"
    class="color542c38 svgShape"
  ></polygon>
  <polygon
    fill="#54402c"
    points="741.468 707.838 728.489 707.838 728.525 706.755 741.529 706.755"
    class="color542c38 svgShape"
  ></polygon>
  <polygon
    fill="#54402c"
    points="737.249 745.574 725.128 745.574 725.156 744.629 737.298 744.629"
    class="color542c38 svgShape"
  ></polygon>
  <polygon
    fill="#54402c"
    points="701.82 683.461 688.287 683.461 688.245 682.283 701.805 682.283"
    class="color542c38 svgShape"
  ></polygon>
  <polygon
    fill="#54402c"
    points="705.29 752.036 693.316 752.036 693.288 751.114 705.283 751.114"
    class="color542c38 svgShape"
  ></polygon>
  <polygon
    fill="#54402c"
    points="732.908 703.309 719.826 703.309 719.846 702.208 732.953 702.208"
    class="color542c38 svgShape"
  ></polygon>
  <path
    fill="#6e5741"
    d="M644.03 615.907h-9.425c-1.689 0-3.017 1.451-2.965 3.239l.288 9.929c.051 1.772 1.454 3.206 3.133 3.206h9.365c1.679 0 3.007-1.435 2.966-3.206l-.229-9.929C647.123 617.358 645.72 615.907 644.03 615.907zM678.091 615.907h-9.425c-1.689 0-3.036 1.451-3.007 3.239l.158 9.929c.028 1.772 1.412 3.206 3.091 3.206h9.365c1.679 0 3.025-1.435 3.008-3.206l-.099-9.929C681.164 617.358 679.78 615.907 678.091 615.907zM751.346 615.907h-9.425c-1.689 0-3.076 1.451-3.098 3.239l-.121 9.929c-.021 1.772 1.322 3.206 3.001 3.206h9.365c1.679 0 3.066-1.435 3.098-3.206l.18-9.929C754.378 617.358 753.035 615.907 751.346 615.907zM714.831 615.907h-9.425c-1.689 0-3.056 1.451-3.053 3.239l.018 9.929c.003 1.772 1.367 3.206 3.046 3.206h9.365c1.679 0 3.046-1.435 3.053-3.206l.041-9.929C717.883 617.358 716.52 615.907 714.831 615.907zM785.406 615.907h-9.425c-1.689 0-3.095 1.451-3.14 3.239l-.25 9.929c-.045 1.772 1.28 3.206 2.959 3.206h9.365c1.679 0 3.084-1.435 3.14-3.206l.309-9.929C788.42 617.358 787.096 615.907 785.406 615.907z"
    class="color6e414e svgShape"
  ></path>
  <polygon
    fill="#f0e3d6"
    points="867.755 439.882 824.768 764.017 849.069 764.017"
    class="colorf0d6e0 svgShape"
  ></polygon>
  <polygon
    fill="#ffd6ad"
    points="612.121 469.273 622.283 764.017 555.612 764.017 537.466 469.273"
    class="colorffadc0 svgShape"
  ></polygon>
  <polygon
    fill="#ffd6ad"
    points="620.034 474.577 621.642 525.339 533.33 525.339 530.063 474.577"
    class="colorffadc0 svgShape"
  ></polygon>
  <path
    fill="#f5b16e"
    d="M623.253,466.777h-98.729l43.558-120.134c0,0,0,0.007,0.008,0.028L623.253,466.777z"
    class="colorf56e8e svgShape"
  ></path>
  <path
    fill="#c68c52"
    d="M623.253,466.777h-98.729c83.447-11.025,51.226-82.227,43.566-120.106L623.253,466.777z"
    class="colordb5a79 svgShape"
  ></path>
  <path
    fill="#6e5741"
    d="M552.924 487.087h-9.89c-1.773 0-3.112 1.598-2.992 3.566l.668 10.93c.119 1.95 1.643 3.529 3.404 3.529h9.825c1.761 0 3.102-1.579 2.994-3.529l-.603-10.93C556.222 488.685 554.697 487.087 552.924 487.087zM580.595 487.087h-9.89c-1.773 0-3.128 1.598-3.028 3.566l.557 10.93c.099 1.95 1.608 3.529 3.369 3.529h9.825c1.761 0 3.118-1.579 3.03-3.529l-.492-10.93C583.876 488.685 582.367 487.087 580.595 487.087zM606.624 487.087h-9.89c-1.773 0-3.144 1.598-3.062 3.566l.453 10.93c.081 1.95 1.574 3.529 3.335 3.529h9.825c1.761 0 3.133-1.579 3.063-3.529l-.388-10.93C609.89 488.685 608.396 487.087 606.624 487.087z"
    class="color6e414e svgShape"
  ></path>
  <polygon
    fill="#f5c493"
    points="621.642 525.339 614.508 538.511 541.729 538.511 533.33 525.339"
    class="colorf593aa svgShape"
  ></polygon>
  <polygon
    fill="#f5b16e"
    points="623.94 476.04 524.731 476.04 519.961 466.08 627.747 466.08"
    class="colorf56e8e svgShape"
  ></polygon>
  <path
    fill="#f5c493"
    d="M587.297 613.61h-12.382c-1.533 0-2.843-1.319-2.928-2.948l0 0c-.084-1.631 1.093-2.955 2.629-2.955h12.41c1.536 0 2.841 1.324 2.914 2.955l0 0C590.013 612.29 588.83 613.61 587.297 613.61zM577.266 715.569h-11.899c-1.473 0-2.737-1.218-2.824-2.722l0 0c-.087-1.506 1.04-2.728 2.516-2.728h11.925c1.476 0 2.735 1.222 2.811 2.728l0 0C579.872 714.351 578.739 715.569 577.266 715.569zM606.427 585.849h-12.514c-1.549 0-2.864-1.347-2.937-3.011l0 0c-.073-1.666 1.126-3.018 2.678-3.018h12.542c1.553 0 2.861 1.352 2.923 3.018l0 0C609.182 584.502 607.976 585.849 606.427 585.849zM609.876 654.886H597.69c-1.509 0-2.787-1.278-2.856-2.856l0 0c-.069-1.58 1.101-2.862 2.613-2.862h12.213c1.512 0 2.785 1.282 2.843 2.862l0 0C612.56 653.608 611.385 654.886 609.876 654.886zM582.739 702.988h-11.958c-1.48 0-2.748-1.23-2.832-2.75l0 0c-.084-1.521 1.051-2.756 2.534-2.756h11.984c1.484 0 2.746 1.235 2.819 2.756l0 0C585.36 701.758 584.219 702.988 582.739 702.988zM568.449 596.257h-12.464c-1.543 0-2.872-1.337-2.969-2.987l0 0c-.097-1.653 1.078-2.994 2.625-2.994h12.493c1.546 0 2.869 1.341 2.955 2.994l0 0C571.174 594.92 569.992 596.257 568.449 596.257zM562.124 552.246h-12.673c-1.569 0-2.923-1.382-3.026-3.088l0 0c-.103-1.709 1.089-3.096 2.661-3.096h12.702c1.572 0 2.921 1.387 3.012 3.096l0 0C564.891 550.865 563.692 552.246 562.124 552.246zM569.463 564.774H556.85c-1.561 0-2.906-1.369-3.003-3.059v0c-.097-1.693 1.092-3.067 2.657-3.067h12.643c1.565 0 2.903 1.374 2.989 3.067v0C572.221 563.406 571.025 564.774 569.463 564.774zM598.164 626.077h-12.323c-1.525 0-2.824-1.307-2.901-2.92l0 0c-.077-1.616 1.1-2.927 2.629-2.927h12.351c1.529 0 2.822 1.311 2.888 2.927l0 0C600.872 624.77 599.689 626.077 598.164 626.077zM607.454 746.131H595.7c-1.455 0-2.689-1.189-2.757-2.656l0 0c-.068-1.47 1.06-2.662 2.518-2.662h11.779c1.458 0 2.687 1.193 2.744 2.662l0 0C610.042 744.942 608.909 746.131 607.454 746.131zM573.904 650.6h-12.207c-1.511 0-2.81-1.282-2.901-2.865l0 0c-.091-1.585 1.062-2.872 2.577-2.872h12.234c1.514 0 2.807 1.286 2.888 2.872l0 0C576.575 649.318 575.415 650.6 573.904 650.6z"
    class="colorf593aa svgShape"
  ></path>
  <polygon
    fill="#999999"
    points="574.584 476.04 588.469 764.017 555.612 764.017 541.729 538.511 533.33 525.339 530.157 476.04"
    class="color999999 svgShape"
  ></polygon>
  <polygon
    fill="#ffd6ad"
    points="876.96 469.272 858.803 764.018 792.13 764.018 802.305 469.272"
    class="colorffadc0 svgShape"
  ></polygon>
  <polygon
    fill="#ffd6ad"
    points="884.366 474.577 881.096 525.339 792.785 525.339 794.395 474.577"
    class="colorffadc0 svgShape"
  ></polygon>
  <path
    fill="#f5b16e"
    d="M888.334,466.777h-98.729l55.101-120.134c0,0,0,0.007,0.006,0.028L888.334,466.777z"
    class="colorf56e8e svgShape"
  ></path>
  <path
    fill="#c68c52"
    d="M888.334,466.777h-98.729c84.507-11.025,59.127-82.227,55.107-120.106L888.334,466.777z"
    class="colordb5a79 svgShape"
  ></path>
  <path
    fill="#6e5741"
    d="M816.054 487.087h-9.89c-1.773 0-3.266 1.598-3.335 3.566l-.382 10.93c-.068 1.95 1.304 3.529 3.065 3.529h9.825c1.761 0 3.253-1.579 3.333-3.529l.447-10.93C819.198 488.685 817.827 487.087 816.054 487.087zM843.725 487.087h-9.89c-1.773 0-3.282 1.598-3.371 3.566l-.493 10.93c-.088 1.95 1.268 3.529 3.03 3.529h9.825c1.761 0 3.269-1.579 3.369-3.529l.558-10.93C846.853 488.685 845.497 487.087 843.725 487.087zM869.754 487.087h-9.89c-1.773 0-3.297 1.598-3.405 3.566l-.597 10.93c-.106 1.95 1.235 3.529 2.996 3.529h9.825c1.761 0 3.284-1.579 3.402-3.529l.662-10.93C872.867 488.685 871.526 487.087 869.754 487.087z"
    class="color6e414e svgShape"
  ></path>
  <polygon
    fill="#f5c493"
    points="881.096 525.339 872.697 538.511 799.918 538.511 792.785 525.339"
    class="colorf593aa svgShape"
  ></polygon>
  <polygon
    fill="#f5b16e"
    points="888.131 476.04 788.922 476.04 785.11 466.08 892.896 466.08"
    class="colorf56e8e svgShape"
  ></polygon>
  <path
    fill="#f5c493"
    d="M838.27 613.61h-12.382c-1.533 0-2.717-1.319-2.644-2.948l0 0c.072-1.631 1.377-2.955 2.913-2.955h12.41c1.536 0 2.714 1.324 2.63 2.955l0 0C841.113 612.29 839.803 613.61 838.27 613.61zM818.443 715.569h-11.899c-1.473 0-2.62-1.218-2.562-2.722l0 0c.058-1.506 1.302-2.728 2.778-2.728h11.925c1.476 0 2.617 1.222 2.549 2.728l0 0C821.165 714.351 819.916 715.569 818.443 715.569zM860.068 585.849h-12.514c-1.549 0-2.734-1.347-2.648-3.011l0 0c.087-1.666 1.416-3.018 2.968-3.018h12.542c1.553 0 2.731 1.352 2.633 3.018l0 0C862.952 584.502 861.617 585.849 860.068 585.849zM856.883 654.886h-12.186c-1.509 0-2.664-1.278-2.582-2.856l0 0c.083-1.58 1.376-2.862 2.888-2.862h12.213c1.512 0 2.661 1.282 2.568 2.862l0 0C859.69 653.608 858.392 654.886 856.883 654.886zM825.124 702.988h-11.958c-1.48 0-2.63-1.23-2.568-2.75l0 0c.062-1.521 1.316-2.756 2.799-2.756h11.984c1.484 0 2.627 1.235 2.554 2.756l0 0C827.864 701.758 826.605 702.988 825.124 702.988zM821.09 596.257h-12.464c-1.543 0-2.744-1.337-2.682-2.987l0 0c.062-1.653 1.366-2.994 2.912-2.994h12.493c1.546 0 2.741 1.341 2.667 2.994l0 0C823.943 594.92 822.633 596.257 821.09 596.257zM818.993 552.246H806.32c-1.569 0-2.791-1.382-2.729-3.088l0 0c.062-1.709 1.386-3.096 2.959-3.096h12.702c1.572 0 2.788 1.387 2.714 3.096l0 0C821.893 550.865 820.562 552.246 818.993 552.246zM825.129 564.774h-12.613c-1.561 0-2.774-1.369-2.709-3.059v0c.065-1.693 1.387-3.067 2.952-3.067H825.4c1.565 0 2.771 1.374 2.694 3.067v0C828.018 563.406 826.69 564.774 825.129 564.774zM847.939 626.077h-12.323c-1.525 0-2.699-1.307-2.621-2.92l0 0c.078-1.616 1.381-2.927 2.91-2.927h12.351c1.529 0 2.696 1.311 2.607 2.927l0 0C850.773 624.77 849.464 626.077 847.939 626.077zM845.694 746.131h-11.754c-1.455 0-2.575-1.189-2.501-2.656l0 0c.074-1.47 1.315-2.662 2.773-2.662h11.779c1.458 0 2.572 1.193 2.489 2.662l0 0C848.397 744.942 847.149 746.131 845.694 746.131zM821.323 650.6h-12.207c-1.511 0-2.687-1.282-2.626-2.865l0 0c.061-1.585 1.338-2.872 2.853-2.872h12.234c1.514 0 2.684 1.286 2.612 2.872l0 0C824.118 649.318 822.835 650.6 821.323 650.6z"
    class="colorf593aa svgShape"
  ></path>
  <polygon
    fill="#999999"
    points="838.776 476.04 824.991 764.017 792.133 764.017 799.918 538.511 792.785 525.339 794.348 476.04"
    class="color999999 svgShape"
  ></polygon>
  <polygon
    fill="#ffd6ad"
    points="458.327 462.35 462.696 510.867 428.607 510.867 423.629 462.35"
    class="colorffadc0 svgShape"
  ></polygon>
  <path
    fill="#f5c99d"
    d="M462.693,510.87c-7.25-22.221-20.225-36.064-38.397-42.051l34.61,0L462.693,510.87z"
    class="colorf59db1 svgShape"
  ></path>
  <path
    fill="#f5b16e"
    d="M468.08,466.375l-26.878-1.705l-2.025,0.125l-24.524,1.58c0,0,3.629-0.27,7.475-18.448
	c2.882-13.69,6.496-54.576,8.184-74.994c0.582-7.08,0.932-11.64,0.932-11.64s18.362,68.215,25.807,86.634
	C464.398,466.105,468.08,466.375,468.08,466.375z"
    class="colorf56e8e svgShape"
  ></path>
  <path
    fill="#c68c52"
    d="M468.08,466.375l-26.878-1.705l-2.025,0.125c6.075-15.122-2.441-61.954-8.865-91.862
	c0.582-7.08,0.932-11.64,0.932-11.64s18.362,68.215,25.807,86.634C464.398,466.105,468.08,466.375,468.08,466.375z"
    class="colordb5a79 svgShape"
  ></path>
  <polygon
    fill="#ffd6ad"
    points="473.384 552.547 491.855 763.764 447.874 763.764 425.63 552.547"
    class="colorffadc0 svgShape"
  ></polygon>
  <polygon
    fill="#f5c493"
    points="443.243 566.186 429.595 566.186 429.044 560.906 442.719 560.906"
    class="colorf593aa svgShape"
  ></polygon>
  <polygon
    fill="#f5c493"
    points="463.436 576.287 449.84 576.287 449.332 571.047 462.954 571.047"
    class="colorf593aa svgShape"
  ></polygon>
  <polygon
    fill="#f5c493"
    points="476.501 589.082 462.971 589.082 462.491 583.892 476.047 583.892"
    class="colorf593aa svgShape"
  ></polygon>
  <polygon
    fill="#f5c493"
    points="446.84 597.838 433.355 597.838 432.818 592.683 446.33 592.683"
    class="colorf593aa svgShape"
  ></polygon>
  <polygon
    fill="#f5c493"
    points="465.042 611.444 451.627 611.444 451.129 606.342 464.57 606.342"
    class="colorf593aa svgShape"
  ></polygon>
  <polygon
    fill="#f5c493"
    points="447.794 625.93 434.453 625.93 433.924 620.885 447.291 620.885"
    class="colorf593aa svgShape"
  ></polygon>
  <polygon
    fill="#f5c493"
    points="476.584 632.035 463.274 632.035 462.802 627.013 476.137 627.013"
    class="colorf593aa svgShape"
  ></polygon>
  <polygon
    fill="#f5c493"
    points="476.66 657.042 463.479 657.042 463.012 652.117 476.218 652.117"
    class="colorf593aa svgShape"
  ></polygon>
  <polygon
    fill="#f5c493"
    points="455.06 670.326 441.948 670.326 441.442 665.451 454.579 665.451"
    class="colorf593aa svgShape"
  ></polygon>
  <polygon
    fill="#f5c493"
    points="482.354 678.429 469.282 678.429 468.83 673.585 481.926 673.585"
    class="colorf593aa svgShape"
  ></polygon>
  <polygon
    fill="#f5c493"
    points="452.889 648.319 439.664 648.319 439.149 643.36 452.4 643.36"
    class="colorf593aa svgShape"
  ></polygon>
  <polygon
    fill="#f5c493"
    points="475.111 545.958 473.391 552.547 425.653 552.547 422.664 545.958"
    class="colorf593aa svgShape"
  ></polygon>
  <path
    fill="#ffd6ad"
    d="M471.007,498.57l4.103,47.387h-52.447l-5.031-47.387c-0.137-1.295,0.692-2.337,1.853-2.337h7.244
	c0.131,0,0.254,0.009,0.38,0.036c1.001,0.199,1.85,1.151,1.968,2.301l0.683,6.698c0.13,1.278,1.173,2.321,2.329,2.321h4.82
	c1.156,0,1.989-1.043,1.863-2.321l-0.661-6.698c-0.128-1.295,0.718-2.337,1.879-2.337h7.244c1.161,0,2.208,1.042,2.33,2.337
	l0.633,6.698c0.121,1.278,1.155,2.321,2.312,2.321h5.773c1.156,0,2.006-1.043,1.89-2.321l-0.608-6.698
	c-0.115-1.268,0.691-2.291,1.815-2.337h7.317C469.857,496.233,470.895,497.275,471.007,498.57z"
    class="colorffadc0 svgShape"
  ></path>
  <path
    fill="#6e5741"
    d="M441.356,520.168c0.002,0.001,0.004,0.002,0.005,0.003c-0.075-0.107-0.142-0.205-0.216-0.303
	c-0.168-0.223-0.343-0.437-0.517-0.633c-0.118-0.134-0.236-0.258-0.354-0.383c-0.117-0.116-0.226-0.232-0.341-0.339
	c-0.303-0.276-0.613-0.535-0.936-0.776c-0.149-0.107-0.297-0.214-0.454-0.321c-0.156-0.098-0.319-0.188-0.475-0.286
	c-0.163-0.089-0.326-0.179-0.488-0.259c-0.145-0.071-0.298-0.143-0.452-0.214c-0.143-0.054-0.286-0.107-0.439-0.17
	c-0.093-0.036-0.194-0.071-0.294-0.098c-0.293-0.089-0.593-0.17-0.891-0.232c-0.084-0.027-0.158-0.036-0.241-0.054
	c-0.042-0.009-0.074-0.009-0.116-0.018c-0.189-0.027-0.379-0.054-0.566-0.063c-0.23-0.027-0.466-0.036-0.702-0.036
	c-0.592,0-1.169,0.071-4.577,1.589c-0.307,0.25-0.603,0.526-0.872,0.83c-0.086,0.107-0.174,0.205-0.26,0.312
	c-0.172,0.214-0.329,0.428-0.475,0.66c-0.077,0.116-0.146,0.232-0.215,0.348c-0.137,0.24-0.266,0.481-0.385,0.739
	c-0.632,1.406-0.906,3.06-0.723,4.818l1.572,15.115h16.795l-1.477-15.115C443.078,523.388,442.383,521.634,441.356,520.168z
	 M465.236,520.171c-0.084-0.125-0.167-0.241-0.259-0.356c-0.147-0.196-0.294-0.383-0.456-0.561c-0.1-0.125-0.208-0.241-0.316-0.357
	c-0.268-0.276-0.552-0.544-0.832-0.776c-0.114-0.098-0.228-0.187-0.349-0.277c-0.113-0.089-0.235-0.178-0.357-0.268
	c-0.113-0.08-0.241-0.161-0.362-0.241c-0.12-0.071-0.249-0.152-0.377-0.223c-0.129-0.08-0.256-0.143-0.383-0.205
	c-0.128-0.063-0.255-0.125-0.391-0.187c-0.118-0.054-0.245-0.107-0.372-0.161c-0.008,0-0.025-0.009-0.042-0.018
	c-0.134-0.045-0.26-0.089-0.394-0.134c-0.419-0.143-0.851-0.25-1.295-0.322c-0.098-0.009-0.189-0.027-0.287-0.036
	c-0.124-0.018-0.255-0.036-0.386-0.045h-0.04c-0.18-0.009-0.367-0.018-0.546-0.018c-0.592,0-1.17,0.071-4.591,1.589
	c-0.309,0.25-0.608,0.526-0.879,0.83c-0.087,0.107-0.175,0.205-0.263,0.312c-0.174,0.214-0.333,0.428-0.481,0.66
	c-0.078,0.116-0.148,0.232-0.219,0.348c-0.139,0.24-0.271,0.481-0.392,0.739c-0.644,1.406-0.933,3.06-0.765,4.818l1.438,15.115
	h16.795l-1.344-15.115C466.925,523.4,466.258,521.64,465.236,520.171z"
    class="color6e414e svgShape"
  ></path>
  <path
    fill="#54402c"
    d="M453.247 528.154c-.481-5.114 2.916-9.275 7.591-9.275h0c1.565 0 3.068.475 4.399 1.289-1.741-2.517-4.488-4.181-7.442-4.181l0 0c-4.679 0-8.076 4.169-7.588 9.294l1.438 15.111h2.755L453.247 528.154zM429.44 528.154c-.527-5.114 2.834-9.275 7.509-9.275l0 0c1.565 0 3.073.475 4.41 1.289-1.763-2.517-4.525-4.181-7.478-4.181l0 0c-4.679 0-8.039 4.169-7.506 9.294l1.571 15.111h2.755L429.44 528.154z"
    class="color542c38 svgShape"
  ></path>
  <polygon
    fill="#6e5741"
    points="435.827 487.42 429.969 487.42 429.087 478.705 434.963 478.705"
    class="color6e414e svgShape"
  ></polygon>
  <polygon
    fill="#6e5741"
    points="446.654 487.42 440.796 487.42 439.948 478.705 445.825 478.705"
    class="color6e414e svgShape"
  ></polygon>
  <polygon
    fill="#6e5741"
    points="456.818 487.42 450.96 487.42 450.144 478.705 456.021 478.705"
    class="color6e414e svgShape"
  ></polygon>
  <polygon
    fill="#f5b16e"
    points="469.537 468.82 414.472 468.82 413.952 463.926 469.115 463.926"
    class="colorf56e8e svgShape"
  ></polygon>
  <path
    fill="#999999"
    d="M441.436,468.82l28.428,294.944h-21.99L425.63,552.547h0.024l-2.989-6.59l-5.031-47.387
	c-0.137-1.295,0.692-2.337,1.853-2.337h7.244c0.131,0,0.254,0.009,0.38,0.036l-2.816-27.45H441.436z"
    class="color999999 svgShape"
  ></path>
  <polygon
    fill="#f5c493"
    points="497.806 763.762 441.923 763.762 440.237 692.263 440.235 692.169 485.692 692.169 486.021 694.112 486.025 694.151"
    class="colorf593aa svgShape"
  ></polygon>
  <polygon
    fill="#e6ac73"
    points="485.611 689.417 486.025 694.151 440.436 694.151 439.938 689.417"
    class="colore6738d svgShape"
  ></polygon>
  <polygon
    fill="#999999"
    points="462.774 689.417 469.938 763.762 441.923 763.762 440.237 692.263 439.938 689.417"
    class="color999999 svgShape"
  ></polygon>
  <path
    fill="#ffeede"
    d="M1084.522,789.797c-3.328-18.68-33.067-29.68-51.602-19.086c5.528-2.943,3.591-13.543-1.865-16.58
	c-7.466-4.157-12.571,1.768-20.598,5.099c25.274-76.81-113.788-83.928-128.938,4.124c-1.854-9.276-17.899-13.693-25.88-7.125
	c0.425-15.366-25.616-19.044-31.152-4.411c23.332-52.141-80.374-54.07-67.838,6.696c-10.172-2.268-20.537,0.743-28.304,6.412
	c-6.694-7.923-19.866-11.905-33.695-3.434c5.992-17.727-21.439-26.547-31.758-12.752c16.508-32.11-20.239-71.63-61.369-56.162
	c-18.215,7.314-28.009,27.496-19.672,42.998c-7.328-4.843-19.785-2.08-23.343,5.177c-6.019-21.005-41.629-23.672-51.947-3.904
	c20.178-59.66-80.652-89.7-90.19-27.21c-18.44-1.283-34.629,16.699-28.222,31.346c-19.343-10.635-46.129,5.1-41.033,24.095
	c-55.774-19.259-77.797,52.111-18.398,58.995c0.458,9.07,15.71,14.586,23.81,8.611c16.455,60.912,118.548,53.347,123.62,1.385
	c0.899,6.581,11.939,10.079,17.355,4.196c-2.725,16.37,23.536,25.856,35.694,12.902c25.511,29.318,82.966,15.259,85.953-21.011
	c2.278,14.191,23.598,23.287,38.165,15.207c-1.152,18.654,31.168,21.814,35.116,3.448c7.741,41.13,67.11,29.68,75.005-4.874
	c3.047,5.764,11.393,9.632,19.169,6.506c-2.149,12.699,18.073,20.252,27.77,10.378c22.409,44.647,103.102,32.962,106.621-15.407
	c2.686,15.424,28.002,20.734,38.937,8.173c6.296,16.876,33.529,22.821,48.735,10.643c31.036,7.362,56.719-20.166,37.183-43.388
	C1063.261,826.37,1087.851,808.477,1084.522,789.797z"
    class="colorffdee6 svgShape"
  ></path>
  <path
    fill="#ffead6"
    d="M664.975 720.37c-.874-2.633-2.022-5.191-3.425-7.632-.422 4.401-1.668 8.819-3.871 13.104C659.618 723.249 662.162 721.456 664.975 720.37zM506.696 707.248c-.772-2.084-1.709-4.082-2.789-5.995-.256 4.056-1.071 8.294-2.56 12.698C502.721 711.317 504.554 709.095 506.696 707.248zM823.031 723.524c-.419-.507-.866-.992-1.33-1.464-.559 2.181-1.358 4.466-2.428 6.86C820.109 726.709 821.42 724.922 823.031 723.524zM1084.522 789.797c-.793-4.451-3.097-8.458-6.38-11.849-5.34 13.909-24.427 24.407-41.503 19.999 6.471 7.692 7.977 15.855 5.975 23.067C1063.838 825.932 1087.812 808.257 1084.522 789.797zM1008.199 721.707c-.294 4.552-1.246 9.427-2.956 14.625 2.699-1.12 5.067-2.533 7.307-3.757C1011.66 728.607 1010.178 724.983 1008.199 721.707zM999.456 841.334c-15.206 12.178-42.439 6.233-48.735-10.643-10.935 12.56-36.251 7.25-38.937-8.173-3.519 48.368-84.212 60.054-106.621 15.407-9.697 9.873-29.919 2.321-27.77-10.378-7.776 3.126-16.122-.741-19.169-6.506-7.896 34.555-67.264 46.004-75.005 4.874-3.947 18.366-36.267 15.206-35.115-3.448-14.568 8.08-35.887-1.016-38.166-15.207-2.987 36.27-60.442 50.328-85.953 21.011-12.158 12.954-38.42 3.468-35.694-12.902-5.416 5.882-16.456 2.385-17.355-4.196-5.073 51.962-107.165 59.528-123.62-1.385-8.1 5.975-23.352.46-23.81-8.611-14.3-1.657-23.868-7.056-29.395-14.024-3.474 15.767 6.343 33.645 34.61 36.921.458 9.07 15.71 14.586 23.81 8.611 16.455 60.912 118.548 53.347 123.62 1.385.899 6.581 11.939 10.079 17.355 4.196-2.725 16.37 23.536 25.856 35.694 12.902 25.511 29.318 82.966 15.259 85.953-21.011 2.278 14.191 23.598 23.287 38.165 15.207-1.152 18.654 31.168 21.814 35.116 3.448 7.741 41.13 67.11 29.68 75.005-4.874 3.047 5.764 11.393 9.632 19.169 6.506-2.149 12.699 18.073 20.252 27.77 10.378 22.409 44.647 103.102 32.962 106.621-15.407 2.686 15.424 28.002 20.734 38.937 8.173 6.296 16.876 33.529 22.821 48.735 10.643 30.709 7.284 56.171-19.59 37.777-42.653C1038.092 835.85 1019.942 846.193 999.456 841.334z"
    class="colorffd6e0 svgShape"
  ></path>
  <path
    fill="#ffe8d1"
    d="M401.372,841.732c-3.369,11.538,6.609,24.355,18.781,22.987c2.842-0.196,7.656-3.017,10.316-1.761
	c2.552,2.076,1.486,6.441,3.21,9.229c7.036,20.881,37.136,23.93,49.066,5.849c4.845,13.007,25.084,10.46,26.563-3.335
	c11.359,12.034,28.233-5.259,15.945-16.32c45.075,22.681,55.213-55.452,0.527-51.672c2.237-19.888-23.065-31.734-36.909-17.294
	c-5.584-32.924-56.702-28.775-53.249,4.414c-1.372-13.185-21.715-5.61-14.331,5.422
	C394.621,791.098,378.146,826.524,401.372,841.732z"
    class="colorffd1dc svgShape"
  ></path>
  <path
    fill="#ffe1c4"
    d="M558.608,820.999c-1.842,15.754-15.521,28.766-37.56,17.677c12.287,11.062-4.586,28.354-15.945,16.32
	c-1.478,13.796-21.717,16.342-26.563,3.335c-11.931,18.081-42.03,15.032-49.066-5.849c-1.724-2.787-0.658-7.152-3.21-9.229
	c-2.66-1.256-7.474,1.566-10.316,1.761c-12.171,1.368-22.149-11.449-18.781-22.987c-2.522-1.651-4.575-3.542-6.198-5.588
	c-2.136,8.832,0.59,18.866,10.403,25.292c-3.369,11.538,6.609,24.355,18.781,22.987c2.842-0.196,7.656-3.017,10.316-1.761
	c2.552,2.076,1.486,6.441,3.21,9.229c7.036,20.881,37.135,23.93,49.066,5.849c4.845,13.007,25.084,10.461,26.563-3.335
	c11.359,12.033,28.233-5.259,15.945-16.321C556.543,874.124,570.988,841.291,558.608,820.999z"
    class="colorffc4d2 svgShape"
  ></path>
  <path
    fill="#ffeede"
    d="M472.908 773.924c-6.865-2.741-14.778-2.821-21.486.435-2.899 1.407-5.573 3.524-7.744 5.891-1.165 1.269-2.231 2.654-3.15 4.111-.879 1.393-1.907 3.048-2.262 4.666-.536 2.445 2.76 3.982 4.109 1.732.751-1.253 1.222-2.674 1.979-3.94.725-1.213 1.545-2.354 2.481-3.413 1.894-2.14 4.094-3.858 6.591-5.239 5.772-3.194 12.588-4.198 18.952-2.32C473.638 776.22 474.071 774.388 472.908 773.924zM413.797 801.919c-.236-.859-1.083-1.245-1.908-1.084-3.975.777-7.915 2.386-10.889 5.209-.798.758-.821 2.215 0 2.969.879.807 2.089.779 2.969 0 .334-.296.656-.606.996-.896.17-.145.343-.285.516-.426.03-.025.047-.038.064-.052.062-.047.123-.093.184-.14.076-.058.639-.487.266-.207.09-.068.179-.136.269-.202.181-.133.363-.264.547-.392.391-.271.791-.529 1.198-.774.761-.457 1.551-.877 2.349-1.265.49-.238.476-.234.993-.412.449-.155.904-.293 1.362-.42C413.521 803.605 414.019 802.727 413.797 801.919zM520.65 799.696c-.404-.86-.87-1.696-1.425-2.468-1.212-1.685-2.607-3.183-4.244-4.461-1.681-1.312-3.426-2.335-5.487-2.931-1.908-.552-3.974-.851-5.959-.899-1.236-.03-1.57 1.992-.299 2.208 1.712.291 3.243.833 4.739 1.717 1.482.876 2.982 1.908 4.136 2.936.655.583 1.271 1.211 1.841 1.878.366.428.373.435.643.81.244.339.476.686.697 1.041.462.743.899 1.502 1.27 2.295.003.006.151.347.174.394.07.176.139.352.203.53.196.545.326 1.121.641 1.612 1.179 1.836 4.244 1.181 4.219-1.143C521.786 802.011 521.153 800.768 520.65 799.696z"
    class="colorffdee6 svgShape"
  ></path>
  <path
    fill="#ffffff"
    d="M497.274 704.93c-3.142-5.964-7.181-11.505-12.727-15.431-6.055-4.286-13.247-6.922-20.624-7.624-4.152-.395-9.137-.55-13.017 1.125-2.207.953-.933 4.238 1.159 4.278 2.225.042 4.456-.504 6.692-.591 2.243-.088 4.504-.002 6.732.285 4.201.542 8.384 1.676 12.192 3.55 3.489 1.717 6.76 3.976 9.733 6.477 3.1 2.608 5.804 5.605 7.839 9.114C496.01 707.422 497.976 706.262 497.274 704.93zM438.538 690.459c-.689.133-1.366.303-2.041.495-.771.218-1.567.396-2.286.76-1.327.67-2.637 1.589-3.768 2.548-1.063.901-2.057 1.883-2.971 2.934-.558.641-1.082 1.312-1.592 1.991-.416.555-.904 1.142-1.19 1.776-.494 1.095-.39 2.296.613 3.071.858.663 2.375.735 3.125-.186.519-.638.927-1.345 1.395-2.019.184-.266.374-.528.567-.787.03-.04.058-.076.082-.108.109-.136.217-.273.328-.407.845-1.026 1.764-1.989 2.749-2.882.478-.434.945-.88 1.433-1.303.267-.232.539-.459.815-.68.024-.019.202-.157.265-.207.09-.066.24-.178.233-.173.598-.453 1.074-1.01 1.626-1.513.475-.432.984-.835 1.494-1.224C440.426 691.77 439.868 690.202 438.538 690.459zM381.514 745.472c-2.417-.555-4.749-.922-7.231-.544-2.415.368-4.811 1.331-6.953 2.483-2.177 1.171-4.196 2.698-5.895 4.495-1.719 1.818-3.382 3.996-4.138 6.406-.702 2.237 2.561 3.538 3.733 1.574 1.078-1.807 1.968-3.639 3.383-5.225 1.398-1.568 3.009-2.93 4.803-4.024 1.783-1.088 3.655-1.816 5.656-2.387 2.086-.595 4.253-1.237 6.435-1.255C382.163 746.989 382.387 745.673 381.514 745.472zM975.907 711.48c-3.132-.739-6.271-1.582-9.465-2-3.122-.408-6.26-.606-9.409-.577-6.466.06-12.888 1.005-19.058 2.947-11.225 3.532-21.492 10.075-29.566 18.624-4.47 4.733-8.317 10.071-11.361 15.825-1.591 3.007 2.984 5.685 4.566 2.669 4.962-9.464 12.149-17.737 20.868-23.931 9.518-6.762 20.786-10.995 32.341-12.568 3.399-.463 6.848-.657 10.278-.631 3.517.027 7.031.114 10.487.803C976.339 712.79 976.666 711.659 975.907 711.48zM817.341 740.561c-.298-3.179-1.232-6.289-2.913-9.018-2.847-4.622-8.266-8.304-13.796-8.468-1.006-.03-1.551 1.574-.543 2.006 2.106.903 4.227 1.863 6.008 3.332 1.749 1.442 3.294 3.244 4.451 5.193 1.213 2.043 1.981 4.388 2.166 6.761.097 1.247.094 2.534-.093 3.773-.22 1.457-.636 2.841.268 4.165.361.53 1.132 1.011 1.806.735 1.875-.769 2.317-2.33 2.554-4.199C817.43 743.417 817.475 741.99 817.341 740.561zM645.843 713.578c-3.156-6.044-8.405-10.331-14.762-12.649-1.134-.413-1.801 1.321-.805 1.91 4.981 2.945 9.144 7.594 11.723 12.76 2.838 5.685 3.313 12.421 1.618 18.509-.827 2.969 3.826 4.247 4.61 1.271C650.148 728.087 649.34 720.273 645.843 713.578zM680.648 749.204c-1.211-.557-2.761-.536-4.084-.501-1.323.035-2.657.199-3.953.464-1.188.242-2.352.598-3.473 1.059-1.287.529-2.345 1.216-3.39 2.132-.891.782.049 2.462 1.186 2.037 2.061-.77 4.174-1.567 6.351-1.933 1.001-.168 2.033-.214 3.052-.188.531.013 1.06.051 1.589.107.475.05 1.205.276 1.802.221.809-.074 1.532-.515 1.758-1.339C681.685 750.539 681.372 749.537 680.648 749.204zM1073.26 772.638c-2.864-4.088-7.379-7.052-12.384-7.668-4.705-.579-9.498.377-13.458 3.048-1.322.891-.116 3.022 1.262 2.16 6.516-4.074 16.399-1.591 20.561 4.809C1070.879 777.506 1074.971 775.081 1073.26 772.638z"
    class="colorffffff svgShape"
  ></path>
  <path
    fill="#ffe8d1"
    d="M964.58,832.657c2.725-3.013,5.438-8.631,3.65-12.279c-1.789-3.648-5.916-6.007-9.966-5.697
	c0.765-10.322-6.724-20.646-16.773-23.123c-10.049-2.478-21.478,3.182-25.599,12.677c0.957-11.06-7.826-21.818-18.715-23.98
	c-10.889-2.162-22.625,3.814-28.135,13.451c-5.51,9.637-4.965,22.171,0.495,31.836c-5.974-3.195-12.926,0.001-18.317,4.103
	c-5.391,4.102-7.425,12.403-3.765,18.103c1.758,2.738,3.987,6.138,6.987,4.877c-7.243,8.268-6.963,21.865,0.108,30.281
	c7.071,8.416,19.851,11.15,30.037,7.017c1.723-0.699,3.293-1.56,4.737-2.542c1.026,0.935,2.151,1.76,3.364,2.443
	c6.297,3.544,14.605,3.152,20.539-0.97c4.591-3.188,7.576-8.488,8.178-14.029c1.074,3.821,4.349,7.104,8.333,7.604
	c4.234,0.531,8.479-2.176,10.312-5.963c3.066,6.508,10.3,10.855,17.609,11.641c14.391,1.549,28.927-9.96,30.72-24.322
	C990.171,849.423,978.91,834.693,964.58,832.657z"
    class="colorffd1dc svgShape"
  ></path>
  <path
    fill="#ffe1c4"
    d="M982.622,843.731c0.295,2.153,0.328,4.342,0.056,6.523c-1.793,14.362-16.329,25.871-30.72,24.322
	c-7.309-0.787-14.543-5.133-17.609-11.641c-1.833,3.787-6.078,6.494-10.312,5.963c-3.984-0.5-7.259-3.784-8.333-7.604
	c-0.602,5.54-3.586,10.84-8.177,14.029c-5.935,4.122-14.242,4.514-20.539,0.97c-1.213-0.683-2.338-1.508-3.364-2.443
	c-1.443,0.982-3.013,1.843-4.737,2.542c-10.01,4.061-22.512,1.477-29.652-6.6c0.437,4.775,2.229,9.438,5.316,13.113
	c7.071,8.416,19.851,11.15,30.037,7.017c1.724-0.699,3.293-1.56,4.736-2.542c1.026,0.935,2.151,1.76,3.364,2.443
	c6.297,3.544,14.605,3.152,20.539-0.97c4.591-3.188,7.576-8.488,8.178-14.029c1.074,3.821,4.349,7.104,8.333,7.604
	c4.234,0.531,8.479-2.176,10.312-5.963c3.066,6.508,10.3,10.855,17.609,11.641c14.391,1.549,28.927-9.96,30.72-24.322
	C989.268,856.658,986.941,849.443,982.622,843.731z"
    class="colorffc4d2 svgShape"
  ></path>
  <path
    fill="#ffeede"
    d="M896.389 787.175c-1.694-.785-3.876-.766-5.721-.64-1.737.119-3.476.416-5.139.931-3.371 1.043-6.427 2.886-8.899 5.407-2.391 2.439-4.276 5.577-5.174 8.884-.907 3.34-.751 6.868-.09 10.239.255 1.299 2.14.722 1.954-.539-.831-5.638 1.831-12.104 5.976-15.918 2.058-1.894 4.68-3.225 7.365-3.968 1.314-.363 2.646-.586 4.008-.638.714-.027 1.431-.016 2.144.036.819.06 1.669.305 2.483.247.961-.068 1.826-.627 2.091-1.592C897.623 788.761 897.249 787.574 896.389 787.175zM950.747 804.151c-.408-.828-1.143-1.537-1.75-2.229-.555-.632-1.125-1.252-1.726-1.841-1.248-1.223-2.634-2.387-4.235-3.113-3.076-1.395-6.803-1.538-9.677.457-.793.551-.334 2.067.708 1.678 2.558-.956 5.23.048 7.362 1.563.981.697 2.036 1.647 2.962 2.651.515.558 1.004 1.139 1.481 1.729.468.579.885 1.267 1.468 1.733.844.675 1.941.892 2.848.17C951.069 806.247 951.238 805.146 950.747 804.151zM911.287 796.915c-.258-1.47-.963-2.914-1.93-4.049-.272-.32-.67-.587-.998-.834-.231-.173-.47-.334-.72-.478-.305-.176-.622-.322-.946-.458-.423-.179-.838-.367-1.31-.335-.494.033-.932.242-1.19.683-.248.423-.251.969 0 1.391.205.345.483.568.758.846.152.154.288.322.424.489.233.33.442.674.622 1.037.177.355.38.691.557 1.045.169.456.296.924.37 1.406.069.55.248 1.011.632 1.43.476.519 1.202.704 1.875.614.606-.081 1.082-.356 1.456-.84C911.348 798.265 911.415 797.642 911.287 796.915z"
    class="colorffdee6 svgShape"
  ></path>
  <circle
    cx="615.614"
    cy="867.983"
    r="14.266"
    fill="#ffeede"
    class="colorffdee6 svgShape"
  ></circle>
  <circle
    cx="293.439"
    cy="746.131"
    r="14.266"
    fill="#ffeede"
    class="colorffdee6 svgShape"
  ></circle>
  <circle
    cx="642.284"
    cy="860.345"
    r="7.17"
    fill="#ffeede"
    class="colorffdee6 svgShape"
  ></circle>
  <circle
    cx="1060.733"
    cy="829.017"
    r="7.17"
    fill="#ffeede"
    class="colorffdee6 svgShape"
  ></circle>
  <circle
    cx="775.649"
    cy="874.685"
    r="7.17"
    fill="#ffeede"
    class="colorffdee6 svgShape"
  ></circle>
  <circle
    cx="1067.903"
    cy="737.263"
    r="7.17"
    fill="#ffeede"
    class="colorffdee6 svgShape"
  ></circle>
  <path
    fill="#f5c595"
    d="M378.04,543.015c0.939-0.9,0.438-2.486-0.848-2.684l-7.06-1.085c-0.511-0.078-0.95-0.403-1.175-0.868
	l-3.109-6.431c-0.566-1.171-2.229-1.185-2.815-0.023l-3.213,6.38c-0.232,0.461-0.677,0.779-1.189,0.849l-7.077,0.97
	c-1.289,0.177-1.816,1.754-0.892,2.67l5.074,5.027c0.367,0.363,0.531,0.884,0.44,1.393l-1.265,7.03
	c-0.23,1.28,1.107,2.269,2.264,1.673l6.349-3.272c0.459-0.237,1.005-0.232,1.461,0.012l6.295,3.375
	c1.146,0.615,2.5-0.352,2.29-1.636l-1.15-7.05c-0.083-0.51,0.09-1.028,0.463-1.385L378.04,543.015z"
    class="colorf595ac svgShape"
  ></path>
  <path
    fill="#ebbb8c"
    d="M887.849,227.206c0.939-0.9,0.438-2.486-0.848-2.684l-7.06-1.085c-0.511-0.078-0.95-0.403-1.175-0.868
	l-3.109-6.431c-0.566-1.171-2.229-1.185-2.815-0.023l-3.213,6.38c-0.232,0.461-0.677,0.779-1.189,0.849l-7.077,0.97
	c-1.289,0.177-1.816,1.754-0.892,2.67l5.074,5.027c0.367,0.363,0.531,0.884,0.44,1.393l-1.265,7.03
	c-0.23,1.28,1.107,2.269,2.264,1.673l6.349-3.272c0.459-0.237,1.005-0.232,1.461,0.012l6.295,3.375
	c1.146,0.615,2.5-0.352,2.29-1.636l-1.15-7.05c-0.083-0.51,0.09-1.028,0.463-1.385L887.849,227.206z"
    class="color8cbbeb svgShape"
  ></path>
  <path
    fill="#ffbc7a"
    d="M332.285,579.078c0.428-0.411,0.2-1.134-0.387-1.224l-3.22-0.495c-0.233-0.036-0.433-0.184-0.536-0.396
	l-1.418-2.933c-0.258-0.534-1.017-0.54-1.284-0.01l-1.466,2.91c-0.106,0.21-0.309,0.355-0.542,0.387l-3.228,0.442
	c-0.588,0.081-0.828,0.8-0.407,1.218l2.314,2.293c0.167,0.166,0.242,0.403,0.201,0.635l-0.577,3.206
	c-0.105,0.584,0.505,1.035,1.032,0.763l2.896-1.493c0.209-0.108,0.458-0.106,0.666,0.005l2.871,1.539
	c0.523,0.28,1.14-0.161,1.045-0.746l-0.525-3.215c-0.038-0.232,0.041-0.469,0.211-0.632L332.285,579.078z"
    class="colorffd27a svgShape"
  ></path>
  <path
    fill="#f5c595"
    d="M852.659,200.026c0.428-0.411,0.2-1.134-0.387-1.224l-3.22-0.495c-0.233-0.036-0.433-0.184-0.536-0.396
	l-1.418-2.933c-0.258-0.534-1.017-0.54-1.284-0.01l-1.466,2.91c-0.106,0.21-0.309,0.355-0.542,0.387l-3.228,0.442
	c-0.588,0.081-0.828,0.8-0.407,1.218l2.314,2.293c0.167,0.166,0.242,0.403,0.201,0.635l-0.577,3.206
	c-0.105,0.584,0.505,1.035,1.032,0.763l2.896-1.493c0.209-0.108,0.458-0.106,0.666,0.005l2.871,1.539
	c0.523,0.28,1.14-0.161,1.045-0.746l-0.525-3.215c-0.038-0.233,0.041-0.469,0.211-0.632L852.659,200.026z"
    class="colorf595ac svgShape"
  ></path>
  <path
    fill="#ebbb8c"
    d="M1018.788,532.357c0.428-0.411,0.2-1.134-0.387-1.224l-3.22-0.495c-0.233-0.036-0.433-0.184-0.536-0.396
	l-1.418-2.933c-0.258-0.534-1.017-0.54-1.284-0.01l-1.466,2.91c-0.106,0.21-0.309,0.355-0.542,0.387l-3.228,0.442
	c-0.588,0.081-0.828,0.8-0.407,1.218l2.314,2.293c0.167,0.166,0.242,0.403,0.201,0.635l-0.577,3.206
	c-0.105,0.584,0.505,1.035,1.032,0.763l2.896-1.493c0.209-0.108,0.458-0.106,0.666,0.005l2.871,1.539
	c0.523,0.28,1.14-0.161,1.045-0.746l-0.525-3.215c-0.038-0.232,0.041-0.469,0.211-0.632L1018.788,532.357z"
    class="color8cbbeb svgShape"
  ></path>
  <path
    fill="#ffbc7a"
    d="M523.115 197.345c.428-.411.2-1.134-.387-1.224l-3.22-.495c-.233-.036-.433-.184-.536-.396l-1.418-2.933c-.258-.534-1.017-.54-1.284-.01l-1.466 2.91c-.106.21-.309.355-.542.387l-3.228.442c-.588.081-.828.8-.407 1.218l2.314 2.293c.167.166.242.403.201.635l-.577 3.206c-.105.584.505 1.035 1.032.763l2.896-1.493c.209-.108.458-.106.666.005l2.871 1.539c.523.28 1.14-.161 1.045-.746l-.525-3.215c-.038-.233.041-.469.211-.632L523.115 197.345zM641.353 394.719c.428-.411.2-1.134-.387-1.224l-3.22-.495c-.233-.036-.433-.184-.536-.396l-1.418-2.933c-.258-.534-1.017-.54-1.284-.01l-1.466 2.91c-.106.21-.309.355-.542.387l-3.228.442c-.588.081-.828.8-.407 1.218l2.314 2.293c.167.166.242.403.201.635l-.577 3.206c-.105.584.505 1.035 1.032.763l2.896-1.493c.209-.108.458-.106.666.005l2.871 1.539c.523.28 1.14-.161 1.045-.746l-.525-3.215c-.038-.233.041-.469.211-.632L641.353 394.719z"
    class="colorffd27a svgShape"
  ></path>
  <circle
    cx="387.731"
    cy="398.211"
    r="7.51"
    fill="#ffeede"
    class="colorffdee6 svgShape"
  ></circle>
  <circle
    cx="808.486"
    cy="357.387"
    r="7.51"
    fill="#ffeede"
    class="colorffdee6 svgShape"
  ></circle>
  <circle
    cx="952.093"
    cy="273.732"
    r="7.51"
    fill="#ffeede"
    class="colorffdee6 svgShape"
  ></circle>
  <circle
    cx="1012.549"
    cy="656.555"
    r="7.51"
    fill="#ffeede"
    class="colorffdee6 svgShape"
  ></circle>
  <circle
    cx="495.201"
    cy="515.987"
    r="7.51"
    fill="#ffeede"
    class="colorffdee6 svgShape"
  ></circle>
  <circle
    cx="374.627"
    cy="434.893"
    r="3.898"
    fill="#ffeede"
    class="colorffdee6 svgShape"
  ></circle>
  <circle
    cx="357.2"
    cy="636.179"
    r="3.898"
    fill="#ffeede"
    class="colorffdee6 svgShape"
  ></circle>
  <circle
    cx="881.096"
    cy="357.039"
    r="3.898"
    fill="#ffeede"
    class="colorffdee6 svgShape"
  ></circle>
  <circle
    cx="899.93"
    cy="521.095"
    r="3.898"
    fill="#ffeede"
    class="colorffdee6 svgShape"
  ></circle>
  <circle
    cx="594.831"
    cy="254.081"
    r="3.898"
    fill="#ffeede"
    class="colorffdee6 svgShape"
  ></circle>
  <circle
    cx="762.309"
    cy="143.649"
    r="3.898"
    fill="#ffeede"
    class="colorffdee6 svgShape"
  ></circle>
</svg>
