<svg xmlns="http://www.w3.org/2000/svg" width="64" height="64" id="moon">
  <g color="#000" transform="translate(0 -988.362)">
    <g transform="translate(183.946 -16)">
      <circle
        cx="-151.946"
        cy="1036.362"
        r="16"
        fill="#e9eded"
        overflow="visible"
      ></circle>
      <circle
        cx="-164.946"
        cy="1034.362"
        r="1"
        fill="#e4e8e8"
        overflow="visible"
      ></circle>
      <circle
        cx="-162.946"
        cy="1043.362"
        r="1"
        fill="#e4e8e8"
        overflow="visible"
      ></circle>
      <circle
        cx="-155.446"
        cy="1024.862"
        r="1.5"
        fill="#e4e8e8"
        overflow="visible"
      ></circle>
      <circle
        cx="-151.946"
        cy="1036.362"
        r="2"
        fill="#e4e8e8"
        overflow="visible"
      ></circle>
      <circle
        cx="-152.446"
        cy="1046.862"
        r="1.5"
        fill="#e4e8e8"
        overflow="visible"
      ></circle>
      <circle
        cx="-156.946"
        cy="1032.362"
        r="1"
        fill="#e4e8e8"
        overflow="visible"
      ></circle>
      <circle
        cx="-144.946"
        cy="1031.362"
        r="1"
        fill="#e4e8e8"
        overflow="visible"
      ></circle>
      <circle
        cx="-143.946"
        cy="1044.362"
        r="1"
        fill="#e4e8e8"
        overflow="visible"
      ></circle>
      <circle
        cx="-141.446"
        cy="1037.862"
        r="1.5"
        fill="#e4e8e8"
        overflow="visible"
      ></circle>
      <circle
        cx="-139.446"
        cy="1043.862"
        r=".5"
        fill="#e4e8e8"
        overflow="visible"
      ></circle>
      <circle
        cx="-137.446"
        cy="1034.862"
        r=".5"
        fill="#e4e8e8"
        overflow="visible"
      ></circle>
      <circle
        cx="-161.446"
        cy="1046.862"
        r=".5"
        fill="#e4e8e8"
        overflow="visible"
      ></circle>
      <circle
        cx="-165.446"
        cy="1031.862"
        r=".5"
        fill="#e4e8e8"
        overflow="visible"
      ></circle>
      <circle
        cx="-149.446"
        cy="1049.862"
        r=".5"
        fill="#e4e8e8"
        overflow="visible"
      ></circle>
      <circle
        cx="-145.446"
        cy="1023.862"
        r=".5"
        fill="#e4e8e8"
        overflow="visible"
      ></circle>
      <circle
        cx="-143.446"
        cy="1028.862"
        r=".5"
        fill="#e4e8e8"
        overflow="visible"
      ></circle>
      <path
        fill="#c8d2d2"
        d="M-151.946 1034.362a2 2 0 0 0-.503.064 2 2 0 0 1 1.503 1.936 2 2 0 0 1-1.496 1.935 2 2 0 0 0 .496.064 2 2 0 0 0 2-2 2 2 0 0 0-2-2zm-3.5-10.999a1.5 1.5 0 0 0-.378.048 1.5 1.5 0 0 1 1.128 1.452 1.5 1.5 0 0 1-1.122 1.451 1.5 1.5 0 0 0 .372.048 1.5 1.5 0 0 0 1.5-1.5 1.5 1.5 0 0 0-1.5-1.5zm-1.5 8a1 1 0 0 0-.252.032 1 1 0 0 1 .752.967 1 1 0 0 1-.748.968 1 1 0 0 0 .248.032 1 1 0 0 0 1-1 1 1 0 0 0-1-1zm-8.5 0a.5.5 0 0 0-.126.015.5.5 0 0 1 .376.484.5.5 0 0 1-.374.484.5.5 0 0 0 .124.016.5.5 0 0 0 .5-.5.5.5 0 0 0-.5-.5zm.5 2a1 1 0 0 0-.252.032 1 1 0 0 1 .752.967 1 1 0 0 1-.748.968 1 1 0 0 0 .248.032 1 1 0 0 0 1-1 1 1 0 0 0-1-1zm2 9a1 1 0 0 0-.252.032 1 1 0 0 1 .752.967 1 1 0 0 1-.748.968 1 1 0 0 0 .248.032 1 1 0 0 0 1-1 1 1 0 0 0-1-1zm19 1a1 1 0 0 0-.252.032 1 1 0 0 1 .752.967 1 1 0 0 1-.748.968 1 1 0 0 0 .248.032 1 1 0 0 0 1-1 1 1 0 0 0-1-1zm-1-13a1 1 0 0 0-.251.032 1 1 0 0 1 .751.967 1 1 0 0 1-.748.968 1 1 0 0 0 .248.032 1 1 0 0 0 1-1 1 1 0 0 0-1-1zm-7.5 15a1.5 1.5 0 0 0-.378.048 1.5 1.5 0 0 1 1.128 1.452 1.5 1.5 0 0 1-1.122 1.451 1.5 1.5 0 0 0 .372.048 1.5 1.5 0 0 0 1.5-1.5 1.5 1.5 0 0 0-1.5-1.5zm11-9a1.5 1.5 0 0 0-.377.048 1.5 1.5 0 0 1 1.127 1.452 1.5 1.5 0 0 1-1.122 1.451 1.5 1.5 0 0 0 .372.048 1.5 1.5 0 0 0 1.5-1.5 1.5 1.5 0 0 0-1.5-1.5zm-20 10a.5.5 0 0 0-.126.015.5.5 0 0 1 .376.484.5.5 0 0 1-.374.484.5.5 0 0 0 .124.016.5.5 0 0 0 .5-.5.5.5 0 0 0-.5-.5zm12 3a.5.5 0 0 0-.126.015.5.5 0 0 1 .376.484.5.5 0 0 1-.374.484.5.5 0 0 0 .124.016.5.5 0 0 0 .5-.5.5.5 0 0 0-.5-.5zm10-6a.5.5 0 0 0-.126.015.5.5 0 0 1 .376.484.5.5 0 0 1-.374.484.5.5 0 0 0 .124.016.5.5 0 0 0 .5-.5.5.5 0 0 0-.5-.5zm2-9a.5.5 0 0 0-.126.015.5.5 0 0 1 .376.484.5.5 0 0 1-.374.484.5.5 0 0 0 .124.016.5.5 0 0 0 .5-.5.5.5 0 0 0-.5-.5zm-6-6a.5.5 0 0 0-.126.015.5.5 0 0 1 .376.484.5.5 0 0 1-.374.484.5.5 0 0 0 .124.016.5.5 0 0 0 .5-.5.5.5 0 0 0-.5-.5zm-2-5a.5.5 0 0 0-.126.015.5.5 0 0 1 .376.484.5.5 0 0 1-.374.484.5.5 0 0 0 .124.016.5.5 0 0 0 .5-.5.5.5 0 0 0-.5-.5z"
        overflow="visible"
      ></path>
      <path
        fill="#aab4b2"
        fill-opacity=".243"
        d="M-151.946 1020.362a16 16 0 0 0-1.982.143 16 16 0 0 1 13.982 15.857 16 16 0 0 1-14.017 15.858 16 16 0 0 0 2.017.142 16 16 0 0 0 16-16 16 16 0 0 0-16-16z"
        overflow="visible"
      ></path>
    </g>
    <path
      fill="#fff"
      d="m40.13 998.242-.621-2.38-2.38-.62 2.38-.62.62-2.38.62 2.38 2.38.62-2.38.62zM15 1007.355l-.413-1.586-1.587-.414 1.587-.413.413-1.587.413 1.587 1.587.413-1.587.414zM11.87 1035.242l-.568-2.182-2.182-.568 2.182-.568.568-2.182.569 2.182 2.181.568-2.181.568zM49.62 1009.862l-.517-1.983-1.983-.517 1.983-.517.517-1.983.517 1.983 1.983.517-1.983.517zM16.502 1001.363l-.31-1.19-1.19-.31 1.19-.31.31-1.19.31 1.19 1.19.31-1.19.31zM53.125 1039.23l-.388-1.488-1.487-.387 1.487-.388.388-1.487.387 1.487 1.488.388-1.488.387z"
      overflow="visible"
    ></path>
  </g>
</svg>
