<?xml version="1.0" encoding="utf-8"?><svg
  version="1.1"
  id="Layer_1"
  xmlns="http://www.w3.org/2000/svg"
  xmlns:xlink="http://www.w3.org/1999/xlink"
  x="0px"
  y="0px"
  viewBox="0 0 122.88 122.87"
  style="enable-background: new 0 0 122.88 122.87"
  xml:space="preserve"
  fill="#96501b"
>
  <g>
    <path
      class="st0"
      d="M33.04,38.05c19.9,19.19,34.44,39.39,49.12,64.97c7.72-8.39,9.65-11.22,3.66-23.28 c-8.88-17.88-33.44-43.55-47.9-48.9c-1.73-0.64-3.32-0.96-4.67-0.92c-0.79,0.03-1.86,0.8-2.58,1.81 C29.06,33.99,30.79,35.88,33.04,38.05L33.04,38.05z"
    />
    <path
      class="st0"
      d="M88.74,15.17c-20.9,28.84-42.87,56.96-70.18,82.96c9.9,8.8,13.67,8.41,23.79-0.31 C59.72,82.84,85.39,46.96,94.31,26.7c1.49-3.38,3.02-8.87-0.81-11.05C91.94,14.76,89.89,14.33,88.74,15.17L88.74,15.17z"
    />
  </g>
</svg>
