<?xml version="1.0" encoding="iso-8859-1"?>
<!-- Uploaded to: SVG Repo, www.svgrepo.com, Generator: SVG Repo Mixer Tools -->
<svg
  height="800px"
  width="800px"
  version="1.1"
  id="Layer_1"
  xmlns="http://www.w3.org/2000/svg"
  xmlns:xlink="http://www.w3.org/1999/xlink"
  viewBox="0 0 512.001 512.001"
  xml:space="preserve"
>
  <polygon
    style="fill: #f58e42"
    points="351.649,0 340.396,67.516 256.001,101.275 171.605,67.516 160.352,0 "
  />
  <path
    style="fill: #6cdfb4"
    d="M419.165,236.308v33.759l-33.758,87.209l33.758,87.209v33.758c0,18.567-15.191,33.758-33.758,33.758
	H126.594c-18.567,0-33.758-15.191-33.758-33.758V236.308c0-37.134,30.382-67.516,67.516-67.516V90.022h191.297v78.769
	C388.783,168.791,419.165,199.174,419.165,236.308z"
  />
  <path
    style="fill: #2b5b48"
    d="M351.649,202.549H160.352c-18.614,0-33.758,15.144-33.758,33.758l-0.027,241.835
	c0.018,0.035,0.074,0.093,0.041,0.099H385.35c0.057-0.015,0.057-241.934,0.057-241.934
	C385.407,217.693,370.263,202.549,351.649,202.549z"
  />
  <path
    style="fill: #428e71"
    d="M351.649,67.516c9.317,0,16.879,7.562,16.879,16.879s-7.562,16.879-16.879,16.879H160.352
	c-9.317,0-16.879-7.562-16.879-16.879c0-4.659,1.89-8.878,4.951-11.928c3.049-3.061,7.269-4.951,11.928-4.951h11.253h168.791
	H351.649z"
  />
  <polygon
    style="fill: #f1ecde"
    points="419.165,444.484 194.11,444.484 194.11,270.066 227.869,270.066 244.748,281.319 
	261.627,270.066 419.165,270.066 "
  />
  <g>
    <circle style="fill: #a59d8c" cx="376.54" cy="365.714" r="8.44" />
    <circle style="fill: #a59d8c" cx="348.408" cy="388.22" r="8.44" />
    <circle style="fill: #a59d8c" cx="247.977" cy="326.33" r="8.44" />
  </g>
  <path
    style="fill: #428e71"
    d="M317.891,177.231H194.11c-4.661,0-8.44-3.778-8.44-8.44s3.779-8.44,8.44-8.44h123.78
	c4.661,0,8.44,3.778,8.44,8.44S322.552,177.231,317.891,177.231z"
  />
</svg>
