<!-- Uploaded to: SVGRepo, www.svgrepo.com, Transformed by: SVGRepo Tools -->
<svg
  width="800px"
  height="800px"
  viewBox="0 0 64 64"
  xmlns="http://www.w3.org/2000/svg"
>
  <defs>
    <style>
      .cls-1 {
        fill: #ff927d;
      }
      .cls-1,
      .cls-2,
      .cls-3,
      .cls-4,
      .cls-5,
      .cls-6 {
        stroke: #54596e;
        stroke-linecap: round;
        stroke-linejoin: round;
        stroke-width: 2px;
      }
      .cls-2 {
        fill: #d8d8d8;
      }
      .cls-3 {
        fill: #ffd578;
      }
      .cls-4 {
        fill: #a1b7ff;
      }
      .cls-5 {
        fill: none;
      }
      .cls-6 {
        fill: #55a6ff;
      }
    </style>
  </defs>
  <title>knight</title>
  <g id="knight">
    <polygon class="cls-1" points="13 27 7 27 7 13 13 9 13 27" />
    <path
      class="cls-2"
      d="M45.43,50H21.29C17.82,50,15,52.51,15,55.62L5,62H61L51,55C51,52.23,48.51,50,45.43,50Z"
    />
    <path
      class="cls-1"
      d="M19.91,1A12.91,12.91,0,0,0,7,13.91v7A12.91,12.91,0,0,1,19.91,8H32V21h6V1Z"
    />
    <path
      class="cls-3"
      d="M23,41H43a0,0,0,0,1,0,0v8.3A3.7,3.7,0,0,1,39.3,53H26.7A3.7,3.7,0,0,1,23,49.3V41A0,0,0,0,1,23,41Z"
    />
    <path
      class="cls-3"
      d="M33,49h0A17,17,0,0,0,50,32S45.12,9,39.09,9H26.91C20.88,9,16,32,16,32A17,17,0,0,0,33,49Z"
    />
    <path
      class="cls-4"
      d="M33,7h0A17,17,0,0,1,50,24v5a0,0,0,0,1,0,0H16a0,0,0,0,1,0,0V24A17,17,0,0,1,33,7Z"
    />
    <polygon class="cls-2" points="33 17.23 13 29 33 37.23 53 29 33 17.23" />
    <line class="cls-5" x1="27" y1="25" x2="27" y2="30" />
    <line class="cls-5" x1="39" y1="25" x2="39" y2="30" />
    <line class="cls-5" x1="24" y1="27" x2="24" y2="29" />
    <line class="cls-5" x1="42" y1="27" x2="42" y2="29" />
    <line class="cls-5" x1="30" y1="24" x2="30" y2="31" />
    <line class="cls-5" x1="36" y1="24" x2="36" y2="31" />
    <line class="cls-5" x1="33" y1="22" x2="33" y2="33" />
    <line class="cls-5" x1="29" y1="41" x2="37" y2="41" />
    <path class="cls-4" d="M43,62a10,10,0,0,0-20,0Z" />
    <path class="cls-6" d="M39,62a6,6,0,0,0-12,0Z" />
    <path
      class="cls-4"
      d="M18.5,45.5h0a0,0,0,0,1,0,0v2a14,14,0,0,1-14,14h0a0,0,0,0,1,0,0v-2A14,14,0,0,1,18.5,45.5Z"
    />
    <path
      class="cls-4"
      d="M47,46h0A14,14,0,0,1,61,60v2a0,0,0,0,1,0,0h0A14,14,0,0,1,47,48V46A0,0,0,0,1,47,46Z"
      transform="translate(108 108) rotate(180)"
    />
    <line class="cls-5" x1="27" y1="4" x2="27" y2="8" />
  </g>
</svg>
