<svg
  xmlns="http://www.w3.org/2000/svg"
  enable-background="new 0 0 128 128"
  viewBox="0 0 128 128"
  id="sun"
>
  <g>
    <g>
      <g>
        <g>
          <polygon
            fill="#FFD05B"
            points="68.8 42.6 64 24.4 59.2 42.6"
          ></polygon>
          <polygon
            fill="#FFD05B"
            points="59.2 85.5 64 103.7 68.8 85.5"
          ></polygon>
        </g>
        <g>
          <polygon
            fill="#FFD05B"
            points="85.4 68.9 103.6 64 85.4 59.2"
          ></polygon>
          <polygon
            fill="#FFD05B"
            points="42.6 59.2 24.4 64 42.6 68.9"
          ></polygon>
        </g>
      </g>
      <g>
        <g>
          <polygon fill="#FFD05B" points="82.6 52.3 92 36 75.7 45.5"></polygon>
          <polygon
            fill="#FFD05B"
            points="45.4 75.8 36 92.1 52.3 82.6"
          ></polygon>
        </g>
        <g>
          <polygon
            fill="#FFD05B"
            points="75.7 82.6 92 92.1 82.6 75.8"
          ></polygon>
          <polygon fill="#FFD05B" points="52.3 45.5 36 36 45.4 52.3"></polygon>
        </g>
      </g>
    </g>
    <g>
      <g>
        <g>
          <polygon
            fill="#FFD05B"
            points="85.6 60.6 108.1 46.1 82 51.7"
          ></polygon>
          <polygon fill="#FFD05B" points="42.4 68.1 19.9 82.7 46 77"></polygon>
        </g>
        <g>
          <polygon
            fill="#FFD05B"
            points="67.7 86 82.3 108.5 76.7 82.3"
          ></polygon>
          <polygon
            fill="#FFD05B"
            points="60.3 42.7 45.7 20.3 51.3 46.4"
          ></polygon>
        </g>
      </g>
      <g>
        <g>
          <polygon fill="#FFD05B" points="82 77 111.2 83.9 85.6 68.1"></polygon>
          <polygon
            fill="#FFD05B"
            points="46 51.7 16.8 44.8 42.4 60.6"
          ></polygon>
        </g>
        <g>
          <polygon
            fill="#FFD05B"
            points="51.3 82.3 44.4 111.6 60.3 86"
          ></polygon>
          <polygon
            fill="#FFD05B"
            points="76.7 46.4 83.6 17.2 67.7 42.7"
          ></polygon>
        </g>
      </g>
    </g>
    <circle cx="64" cy="64.4" r="26.2" fill="#F9B54C"></circle>
    <ellipse
      cx="51.6"
      cy="51.7"
      fill="#FFF"
      rx="2.4"
      ry="4.3"
      transform="rotate(45.001 51.645 51.692)"
    ></ellipse>
  </g>
</svg>
