<svg
  xmlns="http://www.w3.org/2000/svg"
  enable-background="new 0 0 50 50"
  viewBox="0 0 50 50"
  id="pirate-map"
>
  <path
    fill="#452607"
    d="M45.0119,9.7393c0.5958-0.4859,1.2827-0.8598,2.0142-1.0963c0.3176-0.1027,0.6817-0.2103,0.8264-0.5111
  c0.172-0.3576-0.0636-0.7979,0.0592-1.1752c0.1317-0.4047,0.6351-0.6179,0.7195-1.035c0.0415-0.2051-0.0301-0.4139-0.0905-0.6142
  c-0.2916-0.9657-0.3396-2.0038-0.1384-2.9923c-0.7427,0.434-1.6647,0.4386-2.5093,0.2759c-0.4222-0.0813-0.837-0.201-1.2375-0.3573
  c-1.52-0.7056-3.325-0.7716-4.8925-0.179c-0.6719,0.254-1.3446,0.6302-2.0586,0.5516c-0.5147-0.0567-0.9697-0.3442-1.4467-0.5458
  c-0.9122-0.3856-1.953-0.459-2.9103-0.2053c0.0415,0.7042-0.116,1.4192-0.4497,2.0407c0.0334-0.7185-0.3149-1.4439-0.8966-1.867
  c-0.5817-0.4231-1.3791-0.5311-2.0524-0.278c-1.3274,0.499-2.7935,0.8669-4.1232,0.3739c-0.5425-0.2011-1.0525-0.556-1.6311-0.5542
  c-0.4552,0.0014-0.877,0.2263-1.267,0.461c-0.3732,0.2246-0.7503,0.4766-0.975,0.8498c-0.1122,0.1864-0.1819,0.3965-0.3018,0.5781
  c-0.1199,0.1815-0.3115,0.3388-0.5289,0.3316c-0.245-0.0081-0.4301-0.2127-0.637-0.3441c-0.419-0.2661-0.951-0.2362-1.4461-0.2726
  c-0.8929-0.0656-1.7479-0.3733-2.5897-0.678c-0.8235-0.2981-1.6469-0.5962-2.4704-0.8942c0.0117,0.2104-0.202,0.3998-0.3909,0.4933
  c-0.2073,0.1027-0.4535,0.0635-0.681,0.0221c-0.9612-0.1751-1.9224-0.3502-2.8836-0.5254c-0.2344-0.0427-0.4873-0.0832-0.7021,0.02
  C9.2133,1.6639,9.1245,1.748,9.0193,1.8043C8.8508,1.8944,8.6532,1.9072,8.4625,1.9182C7.8562,1.9529,7.2499,1.9876,6.6436,2.0224
  C6.2665,2.044,5.8799,2.0678,5.5345,2.2208C5.2905,2.3289,5.0736,2.499,4.8172,2.573C4.4529,2.6781,4.0646,2.5756,3.6995,2.4733
  c-0.771-0.216-1.5419-0.432-2.3129-0.648c0.2109,0.991,0.0693,1.9826-0.027,2.9911S1.223,6.8801,1.6212,7.8118
  c0.1483,0.3471,0.3557,0.6715,0.4512,1.0366C2.1447,9.1251,2.1399,9.4475,1.953,9.664c-0.0773,0.0895-0.1795,0.1536-0.2643,0.236
  c-0.0848,0.0823-0.1549,0.1952-0.1383,0.3122c0.1457,1.0324-0.0627,2.0712-0.1082,3.1128
  c-0.0542,1.2418-0.0985,2.5373,0.4152,3.6692c0.0548,0.1208,0.1169,0.2436,0.121,0.3762c0.0041,0.1326-0.0705,0.279-0.2002,0.3072
  c0.0662,0.2044,0.0283,0.4223-0.0516,0.6217c-0.0429,0.1069-0.107,0.2207-0.0707,0.33c0.0622,0.1879,0.36,0.1971,0.4381,0.379
  c0.0352,0.0819,0.0151,0.18,0.0521,0.2611c0.0533,0.1167,0.2049,0.1597,0.2669,0.272c0.0786,0.1424-0.0191,0.3121-0.0653,0.4681
  c-0.1054,0.356,0.0708,0.7283,0.2421,1.0577c0.1261,0.2426,0.2522,0.4851,0.3783,0.7277c0.101,0.1943,0.2093,0.397,0.3915,0.5186
  c0.2328,0.1553,0.5343,0.146,0.8138,0.1309c-0.2381,0.3478-0.7045,0.5112-1.1144,0.4128
  c-0.1231-0.0296-0.2467-0.0819-0.3717-0.0618c-0.1047,0.0168-0.1941,0.0822-0.2914,0.1244
  c-0.1529,0.0664-0.3237,0.0747-0.4867,0.1098c-0.163,0.0351-0.3327,0.1085-0.4114,0.2554
  C1.3899,23.4867,1.4933,23.7313,1.497,23.96c0.0041,0.254-0.1184,0.495-0.1316,0.7487c-0.0151,0.291,0.1135,0.568,0.2392,0.8309
  c0.1434,0.2999-0.124,0.6348-0.2149,0.9545c-0.141,0.496,0.0738,1.0459,0.4454,1.4035c0.3716,0.3576,0.8758,0.5471,1.3816,0.6476
  c0.414,0.0823,0.8473,0.1102,1.2553,0.0021c0.3965-0.1051,0.7508-0.3332,1.144-0.4501c0.0669-0.0199,0.1446-0.035,0.2021,0.0045
  c0.0637,0.0438,0.0726,0.1327,0.0754,0.21c0.0065,0.1787,0.001,0.3853-0.1385,0.4972c-0.089,0.0714-0.21,0.0836-0.3237,0.093
  c-0.4004,0.0331-0.8009,0.0663-1.2013,0.0994c-0.275,0.0228-0.5552,0.0452-0.8243-0.0157c-0.1934-0.0438-0.3946-0.13-0.5822-0.0656
  c-0.2903,0.0997-0.3812,0.5024-0.6671,0.614c-0.1046,0.0408-0.2205,0.0357-0.3328,0.0347s-0.2302,0.004-0.3268,0.0613
  s-0.1612,0.1835-0.1137,0.2853c0.6993,1.4965-0.3304,3.2566-0.1843,4.902c0.0279,0.314,0.0673,0.6316,0.188,0.9228
  s0.3327,0.5567,0.6233,0.6789c0.2122,0.0892,0.4868,0.1243,0.5809,0.3343c0.0643,0.1436,0.0112,0.3091,0.006,0.4663
  c-0.0094,0.2811,0.1361,0.5401,0.247,0.7986s0.1866,0.5676,0.0466,0.8115c-0.1696,0.2955-0.5605,0.3525-0.8713,0.4921
  c-0.6949,0.312-1.0485,1.1354-1.0175,1.8965c0.031,0.7611,0.3733,1.4725,0.7443,2.1378c-0.009-0.0565-0.018-0.113-0.027-0.1695
  c0.464,0.1024,0.591,0.861,0.4903,1.3253c-0.1007,0.4644-0.3726,0.8825-0.4396,1.3529c-0.1152,0.8088,0.422,1.6035,1.1273,2.0158
  s1.5469,0.5131,2.3629,0.5508c0.6622,0.0305,1.3256,0.0254,1.988,0.0024c1.083-0.0376,2.1638-0.123,3.2441-0.2083
  c0.9174-0.0724,1.8348-0.1449,2.7521-0.2173c0.6255-0.0494,1.2739-0.1056,1.8195-0.4155c0.4886-0.2776,0.8548-0.7381,1.3484-1.0067
  c0.9309-0.5065,2.0752-0.2291,3.0948,0.0599c0.3584,0.1016,0.7197,0.2043,1.0501,0.3764c0.4026,0.2097,0.7457,0.5154,1.0842,0.8178
  c1.7297,0.0118,3.4163,0.0906,5.146,0.1024c2.4576,0.0168,4.9176,0.0337,7.3681,0.2203c0.464,0.0353,0.9798,0.0617,1.3405-0.2324
  c0.3033-0.2473,0.4113-0.6539,0.5462-1.0212c0.1349-0.3673,0.36-0.7585,0.7417-0.8448s0.8135,0.4012,0.5512,0.6916
  c2.7518,1.3792,5.9722,1.3345,9.0494,1.2596c0.6387-0.0156,1.4332-0.142,1.6208-0.7527c0.2552-0.8302-0.9263-1.601-0.6731-2.4319
  c0.1363-0.4474,0.6403-0.6849,0.8431-1.1064c0.2521-0.524-0.028-1.1312-0.2211-1.6797c-0.4043-1.1491-0.4131-2.4333-0.0246-3.5878
  c0.3207-0.9528-0.0419-1.9736,0.2352-2.94c0.2066-0.7209,0.8289-1.3178,0.8352-2.0677c0.0078-0.9255-0.9305-1.6532-0.9342-2.5787
  c-0.0033-0.8194,0.7363-1.5849,0.4931-2.3674c-0.1407-0.4528-0.5949-0.8006-0.5915-1.2748
  c0.0019-0.2675,0.1532-0.507,0.2786-0.7433c0.2921-0.5502,0.4655-1.163,0.505-1.7846c0.037-0.5831-0.0945-1.2554-0.5978-1.5522
  c-0.4139-0.2441-1.0353-0.2128-1.2494-0.643c-0.166-0.3336,0.0421-0.7328,0.2933-1.008c0.2512-0.2752,0.5645-0.5264,0.6587-0.8869
  c0.0511-0.1954,0.0306-0.4031,0.0712-0.601c0.0452-0.2202,0.1636-0.4181,0.2304-0.6327c0.2442-0.7844-0.2269-1.5949-0.678-2.2816
  c-0.0389-0.7579-0.0109-1.5064-0.0498-2.2643c-0.0083-0.1611-0.0126-0.3364,0.082-0.4671
  c0.0687-0.0949,0.1802-0.1515,0.2503-0.2452c0.1379-0.1843,0.0775-0.4434,0.1143-0.6706c0.0651-0.4022,0.4292-0.68,0.6251-1.0372
  c0.2901-0.529,0.1761-1.2189-0.1834-1.7034c-0.3595-0.4845-0.9261-0.7824-1.5109-0.9307
  C46.2225,9.6283,45.6151,9.7516,45.0119,9.7393z"
  ></path>
</svg>
