<svg
  xmlns="http://www.w3.org/2000/svg"
  id="rip"
  x="0"
  y="0"
  version="1.1"
  viewBox="0 0 64 65"
  xml:space="preserve"
>
  <path
    fill="#989899"
    d="M54.5 54.7H9.1V25.2c0-12.5 10.2-22.7 22.7-22.7s22.7 10.2 22.7 22.7v29.5z"
  ></path>
  <path
    fill="#cbcbca"
    d="M46.7 54.7H9.1l.1-29.5C9 22.3 10.9 5.8 29.7 2.5H28c2.2 0 0 .2 2 .8C39.4 6 46.7 14.9 46.7 25.2v29.5z"
  ></path>
  <path
    fill="none"
    stroke="#4d4d4f"
    stroke-linecap="round"
    stroke-linejoin="round"
    stroke-miterlimit="10"
    stroke-width="1.5"
    d="M44.4 50.1c-1.4 0-2.5-1.1-2.5-2.5M44.4 44.8c-1.4 0-2.5-1.1-2.5-2.5M44.4 50.1c1.4 0 2.5-1.1 2.5-2.5M44.4 46.7c1.4 0 2.5-1.1 2.5-2.5"
  ></path>
  <path
    fill="none"
    stroke="#4d4d4f"
    stroke-linecap="round"
    stroke-linejoin="round"
    stroke-miterlimit="10"
    stroke-width="1.5"
    d="M54.5 54.7H9.1V25.2c0-12.5 10.2-22.7 22.7-22.7s22.7 10.2 22.7 22.7v29.5z"
  ></path>
  <path
    fill="#986422"
    d="M15.5 52.1h33c5.7 0 10.4 4.6 10.4 10.4H5.2c0-5.7 4.6-10.4 10.3-10.4z"
  ></path>
  <path
    fill="#b1742b"
    d="M15.5 52.1h25.2c5.7 0 10.4 4.6 10.4 10.4H5.2c0-5.7 4.6-10.4 10.3-10.4z"
  ></path>
  <path
    fill="none"
    stroke="#4d4d4f"
    stroke-linecap="round"
    stroke-linejoin="round"
    stroke-miterlimit="10"
    stroke-width="1.5"
    d="M15.5 52.1h33c5.7 0 10.4 4.6 10.4 10.4H5.2c0-5.7 4.6-10.4 10.3-10.4z"
  ></path>
  <path
    fill="#4d4d4f"
    d="M27.6 28.5c0 .1 0 .1-.1.1s-.1.1-.2.1H27c-.1 0-.2.1-.4.1-.1 0-.2.1-.2.2v.4l.1 1.1v.2c0 .1-.1.1-.2.1h-.1l-.1-.1v-.1-.1l.1-1c0-.1 0-.2-.1-.3-.1-.2-.2-.2-.3-.3-.1-.1-.2-.3-.3-.4-.1-.1-.2-.3-.3-.4 0 0-.1-.1-.1-.2s-.1-.1-.1-.2c-.1-.1-.2-.3-.3-.4-.1-.2-.2-.3-.3-.4-.1-.1-.1-.2-.1-.3 0-.1-.1-.2-.2-.3h-1.2v2.6s0 .1-.1.1l-.1.1c0 .1-.1.1-.1.2V29.6l.1 1v.3c0 .1-.1.1-.2.1h-.1l-.1-.1v-.1-.1l.1-1.2v-.2c0-.1 0-.1-.1-.2 0-.1-.1-.1-.1-.2s-.1-.1-.2-.1-.1 0-.2.1-.1.1-.1.2v.2c0 .1 0 .2-.1.2h-.1-.1-.1s-.1 0-.1-.1v-.3-.3c0-.1 0-.2-.1-.3v-6.7-.2-.2-.1c0-.2 0-.2.1-.3h.4c0-.1.1-.2.1-.4v-.4c.1.1.2.2.2.3.1.1.1.2.2.3v-.2-.2-.4c0-.2 0-.3-.1-.6l.8 1.2s0-.1.1-.2c0-.1.1-.2.1-.3.1-.1.1-.2.2-.3.1-.1.1-.2.1-.2v.4c0 .1 0 .1.1.2V20.5c0 .1 0 .1.1.1v-.1-.1l.3.3c0-.1.1-.2.1-.3v-.3c.1 0 .1.1.2.2s.1.2.1.3c.1 0 .1-.1.1-.2s.1-.1.1-.2l.2.2c.1.1.2.2.2.3 0 .1 0 .1.1.1h.2v.1c.1 0 .1 0 .1.1h.5c.1 0 .2.1.3.1.1.1.2.1.4.2 0 0 .1.1.2.1s.2.1.2.1l.1.1c0 .1.1.1.1.2.1.1.1.1.1.2s.1.1.1.2c.1.1.1.2.1.3 0 .1 0 .2.1.2v1c0 .2-.1.4-.2.6l-.3.6c-.1.2-.3.3-.5.5 0 0-.1.1-.2.1-.1.1-.1.1-.2.1s-.1.1-.2.1-.1.1-.2.1c.1.1.1.2.2.3.1.1.1.2.2.2.2.3.4.5.6.8l.6.9.2.2c.2.2.2.2.2.3zm-2-5.2c0-.1 0-.1 0 0v-.2c0-.1-.1-.2-.2-.4-.1-.1-.2-.2-.3-.2H22.8v.6l.1.6v1h1.6c.1 0 .2 0 .3-.1.1 0 .2-.1.3-.2l.3-.3c.1-.1.1-.2.1-.3 0 0 0-.1.1-.1v-.1-.2-.1zM29.7 28c0 .1 0 .1-.1.2 0 .1-.1.1-.2.2s-.1.1-.2.1-.1.1-.2.1h-.1-.1-.2c-.1 0-.2-.1-.2-.1-.1-.1-.2-.1-.3-.3-.1-.1-.1-.3-.1-.3v-.2c0-.1 0-.2.1-.3l.2-.2c.1-.1.1-.1.2-.1h.4c.2 0 .3.1.4.3.1.2.1.3.2.4l.2.2zM33.5 24.7v2.2c0 .2-.1.4-.1.7-.1.2-.1.4-.2.7 0 0 0 .1-.1.1V28.7c0 .1 0 .2-.1.2h-.1-.1l-.1-.1v-.1-.1s0-.1-.1-.1c-.1.1-.1.1-.1.2s0 .1-.1.2c0 .1-.1.2 0 .3v.7s0 .1-.1.1l-.1.1c-.1 0-.1 0-.1-.1s-.1-.1-.1-.2v-.2-.2-.1-.2-.2s0-.1-.1-.1-.1 0-.2-.1-.1-.2-.1-.3v-.3c0-.1-.1-.1-.1-.2-.1-.1-.1-.2-.1-.3 0-.2-.1-.4-.1-.6 0-.2-.1-.4-.1-.6v-.1-.2-.2V24v-.4c0-.2.1-.4.1-.6 0 0 0-.1.1-.1 0 0 .1 0 .1-.1v-.1-1.1l.1-.4s-.1 0-.1.1l-.1.1h-.1v-.1s0-.1.1-.1c0-.1.1-.1.1-.2l.2-.2c.1 0 .1-.1.1-.1h.8c.1.1.2.1.3.3.1.1.2.2.2.4V23l.1.1c0 .1.1.1.1.2s.1.2.1.3c.1.2.1.4.1.5v.6zm-.9-2.7s0-.1 0 0c0-.1 0-.1-.1-.1h-.1-.1-.1l-.1-.1c0-.1 0-.1.1-.2H32.5v-.1s0-.1-.1-.1-.1-.1-.2-.1h-.1H31.8c-.1 0-.1.1-.2.1v.1c.1 0 .1 0 .2.1.1 0 .1.1.1.2 0 0 0 .1-.1.1l-.1.1h-.1-.1V22.6l.2.2.2.2h.2l.1-.1s.1 0 .1-.1l.1-.1c0-.1.1-.1.1-.2.1-.4.1-.5.1-.5zm-.2.4h-.5v-.1h.5v.1zm-.2-.3h-.1V22c0 .1 0 .1.1.1zM35.8 28c0 .1 0 .1-.1.2 0 .1-.1.1-.2.2s-.1.1-.2.1-.1.1-.2.1H35h-.1-.2c-.1 0-.2-.1-.2-.1-.1-.1-.2-.1-.3-.3-.1-.1-.1-.3-.1-.3v-.2c0-.1 0-.2.1-.3l.2-.2c.1 0 .1-.1.2-.1h.4c.2 0 .3.1.4.3.1.2.1.3.2.4l.2.2zM43.1 23.6v.2c0 .1 0 .2-.1.3-.1.1-.1.2-.1.3 0 .1-.1.2-.1.3 0 .1-.1.2-.1.3-.1.1-.1.2-.2.4l-.3.3c-.1.1-.2.1-.3.2v.2s0 .1-.1.1c0 0 0 .1-.1.1v.2c0 .1 0 .2-.1.2h-.1-.1s-.1 0-.1-.1v-.1-.1-.1l-.1-.1h-.1s0 .1-.1.1v.4l.1.6v.2c-.1.1-.1.1-.2.1s-.1 0-.2-.1c0-.1-.1-.1-.1-.2v-.2-.1-.1-.2c0-.1 0-.1-.1-.2 0-.1-.1-.1-.1-.1h-.1-.1-.1s0-.1-.1-.1 0-.1-.1-.1l-.1-.1c-.1.1-.2.1-.3.2v.2c0 .1-.1.1-.1.1-.1 0-.1 0-.1-.1s0-.1-.1-.2v-.2c0-.1-.1-.1-.1-.1h-.3v2c0 .1 0 .1-.1.2l-.2.2c-.1.1-.1.1-.2.1h-.2c-.1 0-.2 0-.3-.1 0 0-.1 0-.1.1v.5l.1.9v.2c0 .1-.1.1-.2.1h-.1l-.1-.1V30v-.1-.2-.3-.3-.2-.2c0-.1-.1-.1-.2-.2v-.1-.1h-.4c-.1-.1-.1-.3-.1-.4v-.4-.1-.3-.3-.2-.2V24l.1-1.1v-1.6-.1-.1-.3-.3-.1h3.8c.1 0 .2 0 .3.1.1 0 .1 0 .2.1.1 0 .2.1.3.1.1.1.2.1.4.2.1.1.2.1.3.2 0 0 .1.1.2.1s.1.1.2.1c.1.1.1.1.2.3.1.1.1.2.2.3v.4c0 .1.1.3.1.4.1.6.1.7.1.9zm-2 0v-.3c0-.2 0-.2-.1-.3 0-.1-.1-.2-.2-.3-.1-.1-.2-.1-.2-.1h-.1-.1-.1-.6H38.8l-.1.7v1.6H40s.1 0 .2-.1.3-.1.3-.2l.2-.2c.1-.1.1-.1.1-.2 0 0 0-.1.1-.1 0 0 0-.1.1-.1 0 0 0-.1.1-.2v-.2z"
  ></path>
  <path
    fill="none"
    stroke="#4d4d4f"
    stroke-linecap="round"
    stroke-linejoin="round"
    stroke-miterlimit="10"
    stroke-width="1.5"
    d="M44.4 52.1v-7.3M18 50.1c-1.4 0-2.5-1.1-2.5-2.5M18 44.8c-1.4 0-2.5-1.1-2.5-2.5M18 44.8c1.4 0 2.5-1.1 2.5-2.5M18 40.5c1.4 0 2.5-1.1 2.5-2.5M18 52.1V38M25.8 50.1c-1.4 0-2.5-1.1-2.5-2.5M25.8 50.1c1.4 0 2.5-1.1 2.5-2.5M25.8 46.7c1.4 0 2.5-1.1 2.5-2.5M25.8 52.1v-5.4M39.1 32.5H24.9M35 35.4h-6"
  ></path>
</svg>
