<svg
  xmlns="http://www.w3.org/2000/svg"
  xmlns:xlink="http://www.w3.org/1999/xlink"
  viewBox="0 0 350 350"
  width="350"
  height="350"
  preserveAspectRatio="xMidYMid meet"
  style="
    width: 100%;
    height: 100%;
    transform: translate3d(0px, 0px, 0px);
    content-visibility: visible;
  "
  id="Magnifier"
>
  <defs>
    <clipPath id="__lottie_element_21513">
      <rect width="350" height="350" x="0" y="0" />
    </clipPath>
  </defs>
  <g clip-path="url(#__lottie_element_21513)">
    <g
      transform="matrix(0.9335803985595703,0.3583679497241974,-0.3583679497241974,0.9335803985595703,165.20663452148438,200.99398803710938)"
      opacity="1"
      style="display: block"
    >
      <g opacity="1" transform="matrix(1,0,0,1,0,0)">
        <g opacity="1" transform="matrix(1,0,0,1,0,0)">
          <path
            fill="rgb(170,98,86)"
            fill-opacity="1"
            d=" M69.08499908447266,85.8270034790039 C69.08499908447266,85.8270034790039 79.13500213623047,95.87699890136719 79.13500213623047,95.87699890136719 C91.11100006103516,107.85299682617188 107.8550033569336,91.10900115966797 95.87899780273438,79.13300323486328 C95.87899780273438,79.13300323486328 85.8290023803711,69.08300018310547 85.8290023803711,69.08300018310547 C85.8290023803711,69.08300018310547 69.08499908447266,85.8270034790039 69.08499908447266,85.8270034790039z"
          />
        </g>
      </g>
      <g opacity="1" transform="matrix(1,0,0,1,0,0)">
        <path
          fill="rgb(243,162,80)"
          fill-opacity="1"
          d=" M91.4469985961914,72.69000244140625 C91.4469985961914,72.71700286865234 91.4469985961914,72.74299621582031 91.4469985961914,72.7699966430664 C91.59300231933594,76.41699981689453 86.15499877929688,82.197998046875 84.23200225830078,84.12100219726562 C81.68599700927734,86.66699981689453 76.02400207519531,91.85299682617188 72.53600311279297,91.44200134277344 C70.38800048828125,91.38899993896484 67.64099884033203,88.27100372314453 67.00399780273438,86.25499725341797 C67.90599822998047,86.36100006103516 68.72799682617188,86.5999984741211 69.44400024414062,86.97100067138672 C70.13300323486328,83.49700164794922 74.43099975585938,78.8280029296875 76.68499755859375,76.5739974975586 C78.43599700927734,74.822998046875 83.36799621582031,70.18199920654297 86.98899841308594,69.4530029296875 C86.60399627685547,68.75 86.36599731445312,67.9010009765625 86.26000213623047,66.9990005493164 C88.3290023803711,67.66200256347656 91.5,70.46199798583984 91.4469985961914,72.69000244140625z"
        />
      </g>
      <g opacity="1" transform="matrix(1,0,0,1,0,0)">
        <path
          fill="rgb(255,185,97)"
          fill-opacity="1"
          d=" M70.53900146484375,84.1969985961914 C71.10800170898438,83.19000244140625 71.83100128173828,82.16100311279297 72.57499694824219,81.15399932861328 C72.57499694824219,81.15399932861328 79.61699676513672,88.19599914550781 79.61699676513672,88.19599914550781 C78.63200378417969,88.96199798583984 77.60299682617188,89.68499755859375 76.5739974975586,90.23200225830078 C76.5739974975586,90.23200225830078 70.53900146484375,84.1969985961914 70.53900146484375,84.1969985961914z"
        />
      </g>
      <g opacity="1" transform="matrix(1,0,0,1,0,0)">
        <path
          fill="rgb(255,185,97)"
          fill-opacity="1"
          d=" M77.74299621582031,75.5479965209961 C77.74299621582031,75.5479965209961 85.24500274658203,83.05000305175781 85.24500274658203,83.05000305175781 C84.85099792480469,83.48799896240234 84.5,83.83799743652344 84.21499633789062,84.12300109863281 C83.90899658203125,84.42900085449219 83.53600311279297,84.802001953125 83.12000274658203,85.17400360107422 C83.12000274658203,85.17400360107422 75.61799621582031,77.6719970703125 75.61799621582031,77.6719970703125 C75.98999786376953,77.25599670410156 76.36299896240234,76.88300323486328 76.66899871826172,76.5770034790039 C76.9540023803711,76.29199981689453 77.30500030517578,75.94200134277344 77.74299621582031,75.5479965209961z"
        />
      </g>
      <g opacity="1" transform="matrix(1,0,0,1,0,0)">
        <path
          fill="rgb(255,185,97)"
          fill-opacity="1"
          d=" M84.0270004272461,70.66500091552734 C84.0270004272461,70.66500091552734 90.12699890136719,76.76599884033203 90.12699890136719,76.76599884033203 C89.40499877929688,78.05799865722656 88.41999816894531,79.3499984741211 87.45600128173828,80.53199768066406 C87.45600128173828,80.53199768066406 80.26100158691406,73.33699798583984 80.26100158691406,73.33699798583984 C81.44300079345703,72.3740005493164 82.73500061035156,71.38700103759766 84.0270004272461,70.66500091552734z"
        />
      </g>
      <g opacity="1" transform="matrix(1,0,0,1,0,0)">
        <path
          fill="rgb(255,212,117)"
          fill-opacity="1"
          d=" M80.94499969482422,80.84600067138672 C77.96499633789062,83.82599639892578 70.70500183105469,90.43099975585938 67.6729965209961,87.39900207519531 C64.64099884033203,84.36699676513672 71.24600219726562,77.10800170898438 74.22599792480469,74.12799835205078 C76.52999877929688,71.8239974975586 84.28700256347656,64.5510025024414 87.40399932861328,67.66799926757812 C90.52100372314453,70.78500366210938 83.2490005493164,78.54199981689453 80.94499969482422,80.84600067138672z"
        />
      </g>
      <g opacity="1" transform="matrix(1,0,0,1,0,0)">
        <path
          fill="rgb(170,98,86)"
          fill-opacity="1"
          d=" M75.39299774169922,46.14099884033203 C79.29900360107422,50.047000885009766 80.62799835205078,53.54999923706055 80.7490005493164,56.731998443603516 C80.87000274658203,61.20100021362305 82.36000061035156,65.58999633789062 85.5,68.7300033569336 C85.5,68.7300033569336 85.90299987792969,69.13300323486328 85.90299987792969,69.13300323486328 C88.96299743652344,72.19300079345703 72.21199798583984,88.94400024414062 69.1520004272461,85.88400268554688 C69.1520004272461,85.88400268554688 68.8290023803711,85.56199645996094 68.8290023803711,85.56199645996094 C65.64800262451172,82.38099670410156 61.25899887084961,80.89099884033203 56.709999084472656,80.77100372314453 C55.0989990234375,80.69000244140625 53.448001861572266,80.40799713134766 51.63600158691406,79.56300354003906 C51.63600158691406,79.56300354003906 51.59600067138672,79.52200317382812 51.59600067138672,79.52200317382812 C49.86399841308594,78.6760025024414 48.051998138427734,77.4280014038086 46.07899856567383,75.45500183105469 C35.52899932861328,64.90499877929688 40.68299865722656,57.49599838256836 24.496000289916992,41.308998107910156 C24.496000289916992,41.308998107910156 24.535999298095703,41.26900100708008 24.535999298095703,41.26900100708008 C24.535999298095703,41.26900100708008 15.395000457763672,32.12799835205078 15.395000457763672,32.12799835205078 C15.234000205993652,31.966999053955078 15.154000282287598,31.805999755859375 15.154000282287598,31.565000534057617 C15.032999992370605,30.798999786376953 15.515999794006348,29.590999603271484 16.36199951171875,28.18199920654297 C17.56999969482422,26.32900047302246 19.422000885009766,23.9950008392334 21.79800033569336,21.618999481201172 C24.093000411987305,19.323999404907227 26.388999938964844,17.51099967956543 28.201000213623047,16.3439998626709 C29.610000610351562,15.498000144958496 30.816999435424805,15.015000343322754 31.58300018310547,15.13599967956543 C31.823999404907227,15.13599967956543 31.985000610351562,15.215999603271484 32.145999908447266,15.376999855041504 C32.145999908447266,15.376999855041504 41.2869987487793,24.51799964904785 41.2869987487793,24.51799964904785 C47.72999954223633,30.961000442504883 52.803001403808594,34.020999908447266 57.19200134277344,36.07400131225586 C63.83599853515625,39.09400177001953 69.03099822998047,39.77899932861328 75.39299774169922,46.14099884033203z"
        />
      </g>
      <g opacity="1" transform="matrix(1,0,0,1,0,0)">
        <path
          fill="rgb(138,72,82)"
          fill-opacity="1"
          d=" M75.39299774169922,46.14099884033203 C79.29900360107422,50.047000885009766 80.62799835205078,53.54999923706055 80.7490005493164,56.731998443603516 C80.87000274658203,61.20100021362305 82.36000061035156,65.58999633789062 85.5,68.7300033569336 C85.5,68.7300033569336 85.90299987792969,69.13300323486328 85.90299987792969,69.13300323486328 C88.96299743652344,72.19300079345703 72.21199798583984,88.94400024414062 69.1520004272461,85.88400268554688 C69.1520004272461,85.88400268554688 68.8290023803711,85.56199645996094 68.8290023803711,85.56199645996094 C65.64800262451172,82.38099670410156 61.25899887084961,80.89099884033203 56.709999084472656,80.77100372314453 C55.0989990234375,80.69000244140625 53.448001861572266,80.40799713134766 51.63600158691406,79.56300354003906 C53.89099884033203,78.83799743652344 56.0260009765625,77.3479995727539 57.75699996948242,75.6969985961914 C63.67599868774414,70.0999984741211 66.89700317382812,61.80500030517578 66.21199798583984,53.79100036621094 C65.64800262451172,47.027000427246094 62.305999755859375,40.54399871826172 57.19200134277344,36.07400131225586 C63.83599853515625,39.09400177001953 69.03099822998047,39.77899932861328 75.39299774169922,46.14099884033203z"
        />
      </g>
      <g opacity="1" transform="matrix(1,0,0,1,0,0)">
        <path
          fill="rgb(29,41,67)"
          fill-opacity="1"
          d=" M-93.94300079345703,-10.850000381469727 C-93.94300079345703,-10.850000381469727 -84.12000274658203,18.76300048828125 -47.63600158691406,31.309999465942383 C-11.152000427246094,43.856998443603516 -73.31400299072266,-2.0929999351501465 -73.31400299072266,-2.0929999351501465 C-73.31400299072266,-2.0929999351501465 -93.94300079345703,-10.850000381469727 -93.94300079345703,-10.850000381469727z"
        />
      </g>
      <g opacity="1" transform="matrix(1,0,0,1,0,0)">
        <path
          fill="rgb(29,41,67)"
          fill-opacity="1"
          d=" M-2.312999963760376,-88.96700286865234 C-2.312999963760376,-88.96700286865234 13.312000274658203,-78.91100311279297 24.448999404907227,-61.79800033569336 C33.858001708984375,-47.3390007019043 4.5320000648498535,-66.97899627685547 2.734999895095825,-69.28900146484375 C0.9380000233650208,-71.5989990234375 -2.312999963760376,-88.96700286865234 -2.312999963760376,-88.96700286865234z"
        />
      </g>
      <g opacity="1" transform="matrix(1,0,0,1,0,0)">
        <path
          fill="rgb(81,56,60)"
          fill-opacity="1"
          d=" M-71.83100128173828,-71.78600311279297 C-96.14299774169922,-47.4739990234375 -96.14399719238281,-8.027000427246094 -71.83200073242188,16.28499984741211 C-47.47100067138672,40.645999908447266 -8.02299976348877,40.64500045776367 16.288999557495117,16.33300018310547 C40.650001525878906,-8.027999877929688 40.650001525878906,-47.4739990234375 16.288999557495117,-71.83499908447266 C-8.02299976348877,-96.14700317382812 -47.470001220703125,-96.14700317382812 -71.83100128173828,-71.78600311279297z M3.8529999256134033,3.8959999084472656 C-13.592000007629395,21.340999603271484 -41.900001525878906,21.340999603271484 -59.393001556396484,3.8480000495910645 C-76.83799743652344,-13.597000122070312 -76.83799743652344,-41.904998779296875 -59.393001556396484,-59.349998474121094 C-41.9010009765625,-76.84200286865234 -13.593000411987305,-76.84200286865234 3.8519999980926514,-59.39699935913086 C21.344999313354492,-41.90399932861328 21.344999313354492,-13.595999717712402 3.8529999256134033,3.8959999084472656z"
        />
      </g>
      <g opacity="1" transform="matrix(1,0,0,1,0,0)">
        <g opacity="1" transform="matrix(1,0,0,1,0,0)">
          <path
            fill="rgb(227,231,240)"
            fill-opacity="1"
            d=" M-33.319000244140625,12.92300033569336 C-33.327999114990234,12.92300033569336 -33.33700180053711,12.92300033569336 -33.34600067138672,12.92300033569336 C-45.70899963378906,12.916999816894531 -57.33300018310547,8.095000267028809 -66.0790023803711,-0.6510000228881836 C-74.80400085449219,-9.378999710083008 -79.60800170898438,-20.988000869750977 -79.60800170898438,-33.34199905395508 C-79.60800170898438,-45.70199966430664 -74.80400085449219,-57.310001373291016 -66.0790023803711,-66.03199768066406 C-57.33300018310547,-74.77799987792969 -45.70600128173828,-79.5999984741211 -33.34299850463867,-79.60600280761719 C-33.33700180053711,-79.60600280761719 -33.327999114990234,-79.60600280761719 -33.319000244140625,-79.60600280761719 C-20.972000122070312,-79.60600280761719 -9.369000434875488,-74.8030014038086 -0.6470000147819519,-66.08100128173828 C-0.6470000147819519,-66.08100128173828 -0.6470000147819519,-66.08100128173828 -0.6470000147819519,-66.08100128173828 C8.10200023651123,-57.334999084472656 12.918000221252441,-45.70800018310547 12.918000221252441,-33.34199905395508 C12.918000221252441,-20.98200035095215 8.10200023651123,-9.354000091552734 -0.6470000147819519,-0.6019999980926514 C-9.369000434875488,8.119999885559082 -20.972000122070312,12.92300033569336 -33.319000244140625,12.92300033569336z M-33.319000244140625,-76.48100280761719 C-33.327999114990234,-76.48100280761719 -33.33399963378906,-76.48100280761719 -33.34299850463867,-76.48100280761719 C-44.87300109863281,-76.4749984741211 -55.7130012512207,-71.97699737548828 -63.869998931884766,-63.823001861572266 C-72.00299835205078,-55.69300079345703 -76.48300170898438,-44.8650016784668 -76.48300170898438,-33.34199905395508 C-76.48300170898438,-21.825000762939453 -72.00299835205078,-10.996999740600586 -63.869998931884766,-2.8610000610351562 C-55.715999603271484,5.293000221252441 -44.87300109863281,9.791999816894531 -33.34299850463867,9.79800033569336 C-33.33700180053711,9.79800033569336 -33.327999114990234,9.79800033569336 -33.319000244140625,9.79800033569336 C-21.80500030517578,9.79800033569336 -10.986000061035156,5.317999839782715 -2.8559999465942383,-2.812000036239624 C5.301000118255615,-10.972000122070312 9.793000221252441,-21.812000274658203 9.793000221252441,-33.34199905395508 C9.793000221252441,-44.87200164794922 5.301000118255615,-55.71699905395508 -2.8559999465942383,-63.87099838256836 C-2.8559999465942383,-63.87099838256836 -2.8559999465942383,-63.87099838256836 -2.8559999465942383,-63.87099838256836 C-10.986000061035156,-72.0009994506836 -21.80500030517578,-76.48100280761719 -33.319000244140625,-76.48100280761719z"
          />
        </g>
      </g>
      <g opacity="0.3" transform="matrix(1,0,0,1,0,0)">
        <path
          fill="rgb(87,179,254)"
          fill-opacity="1"
          d=" M-1.7239999771118164,-64.9489974975586 C-2.7239999771118164,-65.947998046875 -3.7230000495910645,-66.88500213623047 -4.785999774932861,-67.697998046875 C-22.347999572753906,-82.3239974975586 -48.4739990234375,-81.38600158691406 -64.9739990234375,-64.9489974975586 C-75.78700256347656,-54.137001037597656 -79.91100311279297,-39.198001861572266 -77.28600311279297,-25.197999954223633 C-75.7229995727539,-16.63599967956543 -71.5989990234375,-8.38599967956543 -64.9739990234375,-1.7610000371932983 C-47.4739990234375,15.73900032043457 -19.16200065612793,15.73900032043457 -1.7239999771118164,-1.6979999542236328 C15.713000297546387,-19.197999954223633 15.713000297546387,-47.51100158691406 -1.7239999771118164,-64.9489974975586z"
        />
      </g>
      <g opacity="0.3" transform="matrix(1,0,0,1,0,0)">
        <path
          fill="rgb(87,179,254)"
          fill-opacity="1"
          d=" M-1.7239999771118164,-1.6979999542236328 C-19.16200065612793,15.73900032043457 -47.4739990234375,15.73900032043457 -64.9739990234375,-1.7610000371932983 C-71.5989990234375,-8.38599967956543 -75.7229995727539,-16.63599967956543 -77.28600311279297,-25.197999954223633 C-68.16100311279297,-14.51099967956543 -54.0989990234375,-7.947999954223633 -40.0359992980957,-8.76099967956543 C-24.474000930786133,-9.635000228881836 -9.66100025177002,-19.886999130249023 -4.035999774932861,-34.448001861572266 C0.08900000154972076,-45.01100158691406 -0.7860000133514404,-57.01100158691406 -4.785999774932861,-67.697998046875 C-3.7230000495910645,-66.88500213623047 -2.7239999771118164,-65.947998046875 -1.7239999771118164,-64.9489974975586 C15.713000297546387,-47.51100158691406 15.713000297546387,-19.197999954223633 -1.7239999771118164,-1.6979999542236328z"
        />
      </g>
      <g opacity="1" transform="matrix(1,0,0,1,0,0)">
        <path
          fill="rgb(81,56,60)"
          fill-opacity="1"
          d=" M-9.663999557495117,17.992000579833984 C-9.663999557495117,17.992000579833984 0.28200000524520874,27.937999725341797 0.28200000524520874,27.937999725341797 C5.960000038146973,24.77400016784668 9.145999908447266,22.152000427246094 15.064000129699707,26.065000534057617 C15.064000129699707,26.065000534057617 7.735000133514404,9.583000183105469 7.735000133514404,9.583000183105469 C7.735000133514404,9.583000183105469 -6.578999996185303,14.32699966430664 -6.578999996185303,14.32699966430664 C-6.578999996185303,14.32699966430664 -9.663999557495117,17.992000579833984 -9.663999557495117,17.992000579833984z"
        />
      </g>
      <g opacity="1" transform="matrix(1,0,0,1,0,0)">
        <path
          fill="rgb(81,56,60)"
          fill-opacity="1"
          d=" M17.996000289916992,-9.668000221252441 C17.996000289916992,-9.668000221252441 27.94300079345703,0.27799999713897705 27.94300079345703,0.27799999713897705 C24.77899932861328,5.955999851226807 22.1560001373291,9.142000198364258 26.069000244140625,15.0600004196167 C26.069000244140625,15.0600004196167 9.588000297546387,7.730999946594238 9.588000297546387,7.730999946594238 C9.588000297546387,7.730999946594238 14.331000328063965,-6.583000183105469 14.331000328063965,-6.583000183105469 C14.331000328063965,-6.583000183105469 17.996000289916992,-9.668000221252441 17.996000289916992,-9.668000221252441z"
        />
      </g>
      <g opacity="1" transform="matrix(1,0,0,1,0,0)">
        <path
          fill="rgb(170,98,86)"
          fill-opacity="1"
          d=" M18.312999725341797,-10.251999855041504 C18.312999725341797,-10.251999855041504 15.628000259399414,-2.2939999103546143 21.291000366210938,8.25100040435791 C21.780000686645508,9.130999565124512 22.266000747680664,10.008999824523926 22.900999069213867,10.937000274658203 C23.827999114990234,12.255000114440918 24.854000091552734,13.670000076293945 26.075000762939453,15.086000442504883 C26.075000762939453,15.086000442504883 15.09000015258789,26.070999145507812 15.09000015258789,26.070999145507812 C13.675000190734863,24.850000381469727 12.258999824523926,23.823999404907227 10.940999984741211,22.89699935913086 C10.062000274658203,22.31100082397461 9.133999824523926,21.774999618530273 8.303999900817871,21.334999084472656 C-2.2899999618530273,15.623000144958496 -10.246999740600586,18.308000564575195 -10.246999740600586,18.308000564575195 C-10.197999954223633,18.259000778198242 -10.197999954223633,18.259000778198242 -10.14900016784668,18.209999084472656 C-4.144000053405762,5.2729997634887695 5.2779998779296875,-4.14900016784668 18.21500015258789,-10.154000282287598 C18.263999938964844,-10.20300006866455 18.263999938964844,-10.20300006866455 18.312999725341797,-10.251999855041504z"
        />
      </g>
      <g opacity="1" transform="matrix(1,0,0,1,0,0)">
        <path
          fill="rgb(170,98,86)"
          fill-opacity="1"
          d=" M6.3520002365112305,-81.77200317382812 C-17.959999084472656,-106.08399963378906 -57.40700149536133,-106.08399963378906 -81.76799774169922,-81.7229995727539 C-106.08000183105469,-57.4109992980957 -106.08100128173828,-17.96500015258789 -81.76899719238281,6.3470001220703125 C-62.387001037597656,25.729000091552734 -33.43600082397461,29.683000564575195 -10.14900016784668,18.209999084472656 C-4.192999839782715,15.281999588012695 1.371000051498413,11.37600040435791 6.35099983215332,6.395999908447266 C11.331000328063965,1.4160000085830688 15.28600025177002,-4.197999954223633 18.21500015258789,-10.154000282287598 C29.687999725341797,-33.439998626708984 25.733999252319336,-62.38999938964844 6.3520002365112305,-81.77200317382812z M-6.0970001220703125,-6.052000045776367 C-23.525999069213867,11.37600040435791 -51.84199905395508,11.37600040435791 -69.31999969482422,-6.1020002365112305 C-86.74800109863281,-23.530000686645508 -86.74800109863281,-51.84600067138672 -69.31900024414062,-69.27400207519531 C-51.840999603271484,-86.75199890136719 -23.525999069213867,-86.7509994506836 -6.0980000495910645,-69.322998046875 C11.380000114440918,-51.845001220703125 11.380999565124512,-23.530000686645508 -6.0970001220703125,-6.052000045776367z"
        />
      </g>
      <g opacity="0.4" transform="matrix(1,0,0,1,0,0)">
        <g opacity="1" transform="matrix(1,0,0,1,0,0)">
          <path
            fill="rgb(255,255,255)"
            fill-opacity="1"
            d=" M-23.093000411987305,-86.70600128173828 C-61.303001403808594,-95.81700134277344 -95.81300354003906,-61.36600112915039 -86.4739990234375,-23.155000686645508 C-85.96199798583984,-21.2189998626709 -88.9219970703125,-20.194000244140625 -89.71900177001953,-22.07200050354004 C-109.13800048828125,-63.52899932861328 -63.525001525878906,-108.97200012207031 -22.125,-89.61100006103516 C-20.474000930786133,-88.87100219726562 -21.384000778198242,-86.30699920654297 -23.093000411987305,-86.70600128173828z"
          />
        </g>
      </g>
      <g opacity="1" transform="matrix(1,0,0,1,0,0)">
        <path
          fill="rgb(138,72,82)"
          fill-opacity="1"
          d=" M18.21500015258789,-10.154000282287598 C18.263999938964844,-10.20300006866455 18.263999938964844,-10.20300006866455 18.312999725341797,-10.251999855041504 C18.312999725341797,-10.251999855041504 15.138999938964844,-0.9259999990463257 22.900999069213867,10.937000274658203 C23.827999114990234,12.255000114440918 24.854000091552734,13.670000076293945 26.075000762939453,15.086000442504883 C26.075000762939453,15.086000442504883 15.09000015258789,26.070999145507812 15.09000015258789,26.070999145507812 C13.675000190734863,24.850000381469727 12.258999824523926,23.823999404907227 10.940999984741211,22.89699935913086 C10.696999549865723,22.750999450683594 10.45199966430664,22.604999542236328 10.256999969482422,22.506999969482422 C10.256999969482422,22.506999969482422 17.67799949645996,15.086000442504883 17.67799949645996,15.086000442504883 C16.457000732421875,13.670000076293945 15.432000160217285,12.253999710083008 14.505000114440918,10.935999870300293 C12.404999732971191,7.763000011444092 11.13599967956543,4.736999988555908 10.354999542236328,2.002000093460083 C9.524999618530273,-0.7799999713897705 9.281000137329102,-3.2699999809265137 9.329999923706055,-5.172999858856201 C9.281000137329102,-8.347000122070312 9.866999626159668,-10.20300006866455 9.817999839782715,-10.154000282287598 C21.291000366210938,-33.441001892089844 17.336000442504883,-62.39099884033203 -2.0450000762939453,-81.77200317382812 C-13.126999855041504,-92.85399627685547 -27.382999420166016,-98.90799713134766 -41.882999420166016,-99.83499908447266 C-24.600000381469727,-101.00700378417969 -6.877999782562256,-95.00199890136719 6.3520002365112305,-81.77200317382812 C25.733999252319336,-62.38999938964844 29.687999725341797,-33.439998626708984 18.21500015258789,-10.154000282287598z"
        />
      </g>
      <g opacity="1" transform="matrix(1,0,0,1,0,0)">
        <g opacity="1" transform="matrix(1,0,0,1,0,0)">
          <path
            fill="rgb(243,162,80)"
            fill-opacity="1"
            d=" M42.2239990234375,23.468000411987305 C42.2239990234375,23.4950008392334 42.2239990234375,23.520000457763672 42.2239990234375,23.547000885009766 C42.369998931884766,27.194000244140625 36.93299865722656,32.97600173950195 35.0099983215332,34.89899826049805 C32.4640007019043,37.44499969482422 26.801000595092773,42.630001068115234 23.312999725341797,42.21900177001953 C21.165000915527344,42.16600036621094 18.41900062561035,39.04899978637695 17.781999588012695,37.03300094604492 C18.68400001525879,37.138999938964844 19.506000518798828,37.37799835205078 20.222000122070312,37.749000549316406 C20.910999298095703,34.275001525878906 25.20800018310547,29.606000900268555 27.461999893188477,27.351999282836914 C29.21299934387207,25.60099983215332 34.145999908447266,20.958999633789062 37.766998291015625,20.229999542236328 C37.38199996948242,19.527000427246094 37.143001556396484,18.679000854492188 37.0369987487793,17.777000427246094 C39.10599899291992,18.440000534057617 42.277000427246094,21.239999771118164 42.2239990234375,23.468000411987305z"
          />
        </g>
        <g opacity="1" transform="matrix(1,0,0,1,0,0)">
          <path
            fill="rgb(255,185,97)"
            fill-opacity="1"
            d=" M21.31599998474121,34.974998474121094 C21.885000228881836,33.96799850463867 22.607999801635742,32.9379997253418 23.351999282836914,31.930999755859375 C23.351999282836914,31.930999755859375 30.393999099731445,38.972999572753906 30.393999099731445,38.972999572753906 C29.409000396728516,39.73899841308594 28.3799991607666,40.46200180053711 27.35099983215332,41.00899887084961 C27.35099983215332,41.00899887084961 21.31599998474121,34.974998474121094 21.31599998474121,34.974998474121094z"
          />
        </g>
        <g opacity="1" transform="matrix(1,0,0,1,0,0)">
          <path
            fill="rgb(255,185,97)"
            fill-opacity="1"
            d=" M28.520000457763672,26.326000213623047 C28.520000457763672,26.326000213623047 36.02199935913086,33.827999114990234 36.02199935913086,33.827999114990234 C35.62799835205078,34.26599884033203 35.27799987792969,34.61600112915039 34.99300003051758,34.9010009765625 C34.6870002746582,35.207000732421875 34.31399917602539,35.58000183105469 33.89799880981445,35.95199966430664 C33.89799880981445,35.95199966430664 26.395999908447266,28.450000762939453 26.395999908447266,28.450000762939453 C26.76799964904785,28.034000396728516 27.141000747680664,27.660999298095703 27.44700050354004,27.354999542236328 C27.73200035095215,27.06999969482422 28.082000732421875,26.719999313354492 28.520000457763672,26.326000213623047z"
          />
        </g>
        <g opacity="1" transform="matrix(1,0,0,1,0,0)">
          <path
            fill="rgb(255,185,97)"
            fill-opacity="1"
            d=" M34.81100082397461,21.450000762939453 C34.81100082397461,21.450000762939453 40.9109992980957,27.549999237060547 40.9109992980957,27.549999237060547 C40.18899917602539,28.841999053955078 39.20399856567383,30.134000778198242 38.2400016784668,31.31599998474121 C38.2400016784668,31.31599998474121 31.045000076293945,24.121000289916992 31.045000076293945,24.121000289916992 C32.22700119018555,23.158000946044922 33.51900100708008,22.172000885009766 34.81100082397461,21.450000762939453z"
          />
        </g>
        <g opacity="1" transform="matrix(1,0,0,1,0,0)">
          <path
            fill="rgb(255,212,117)"
            fill-opacity="1"
            d=" M31.722000122070312,31.624000549316406 C28.742000579833984,34.604000091552734 21.48200035095215,41.20899963378906 18.450000762939453,38.176998138427734 C15.418000221252441,35.14500045776367 22.023000717163086,27.885000228881836 25.003000259399414,24.905000686645508 C27.30699920654297,22.60099983215332 35.06399917602539,15.329000473022461 38.180999755859375,18.445999145507812 C41.29800033569336,21.562999725341797 34.0260009765625,29.31999969482422 31.722000122070312,31.624000549316406z"
          />
        </g>
        <g opacity="1" transform="matrix(1,0,0,1,0,0)">
          <g opacity="1" transform="matrix(1,0,0,1,0,0)">
            <path
              fill="rgb(170,98,86)"
              fill-opacity="1"
              d=" M29.893999099731445,13.147000312805176 C29.893999099731445,13.147000312805176 36.68299865722656,19.93600082397461 36.68299865722656,19.93600082397461 C36.83000183105469,20.08300018310547 36.87799835205078,20.22800064086914 36.926998138427734,20.472000122070312 C37.025001525878906,21.253000259399414 36.5359992980957,22.426000595092773 35.70600128173828,23.840999603271484 C34.534000396728516,25.695999145507812 32.72800064086914,27.990999221801758 30.43400001525879,30.28499984741211 C28.090999603271484,32.62799835205078 25.746000289916992,34.48400115966797 23.843000411987305,35.70399856567383 C22.42799949645996,36.534000396728516 21.2549991607666,37.02299880981445 20.474000930786133,36.92499923706055 C20.229999542236328,36.875999450683594 20.084999084472656,36.82699966430664 19.937999725341797,36.68000030517578 C19.937999725341797,36.68000030517578 13.14900016784668,29.892000198364258 13.14900016784668,29.892000198364258 C8.51099967956543,25.253999710083008 8.5600004196167,17.78499984741211 13.197999954223633,13.147000312805176 C14.5649995803833,11.779999732971191 16.177000045776367,10.852999687194824 17.885000228881836,10.3149995803833 C21.937000274658203,8.899999618530273 26.62299919128418,9.87600040435791 29.893999099731445,13.147000312805176z"
            />
          </g>
        </g>
        <g opacity="1" transform="matrix(1,0,0,1,0,0)">
          <g opacity="1" transform="matrix(1,0,0,1,0,0)">
            <path
              fill="rgb(138,72,82)"
              fill-opacity="1"
              d=" M29.893999099731445,13.147000312805176 C29.893999099731445,13.147000312805176 36.68299865722656,19.93600082397461 36.68299865722656,19.93600082397461 C36.83000183105469,20.08300018310547 36.87799835205078,20.22800064086914 36.926998138427734,20.472000122070312 C37.073001861572266,21.20400047302246 36.584999084472656,22.37700080871582 35.70600128173828,23.840999603271484 C34.534000396728516,25.695999145507812 32.72800064086914,27.990999221801758 30.43400001525879,30.28499984741211 C28.090999603271484,32.62799835205078 25.746000289916992,34.48400115966797 23.843000411987305,35.70399856567383 C22.378999710083008,36.58300018310547 21.20599937438965,37.071998596191406 20.474000930786133,36.92499923706055 C20.229999542236328,36.875999450683594 20.084999084472656,36.82699966430664 19.937999725341797,36.68000030517578 C19.937999725341797,36.68000030517578 18.94300079345703,35.685001373291016 18.94300079345703,35.685001373291016 C18.94300079345703,35.685001373291016 19.089000701904297,35.53900146484375 19.089000701904297,35.53900146484375 C26.31399917602539,29.972999572753906 23.843000411987305,20.486000061035156 17.39900016784668,14.041999816894531 C17.39900016784668,14.041999816894531 15.02299976348877,11.666000366210938 15.02299976348877,11.666000366210938 C20.53499984741211,8.133000373840332 26.365999221801758,9.619000434875488 29.893999099731445,13.147000312805176z"
            />
          </g>
        </g>
      </g>
    </g>
    <g
      transform="matrix(0.19294846057891846,0.001980211352929473,-0.001980211352929473,0.19294846057891846,203.73001098632812,164.01382446289062)"
      opacity="1"
      style="display: none"
    >
      <g opacity="1" transform="matrix(0,0,0,0,0,0)">
        <path
          fill="rgb(255,255,255)"
          fill-opacity="1"
          d=" M2.0206671876515188e-15,-33 C2.0206671876515188e-15,-33 0.8600272536277771,-20.35317611694336 10.60660171508789,-10.60660171508789 C20.35317611694336,-0.8600272536277771 33,0 33,0 C33,0 20.35317611694336,0.8600272536277771 10.60660171508789,10.60660171508789 C0.8600272536277771,20.35317611694336 2.0206671876515188e-15,33 2.0206671876515188e-15,33 C2.0206671876515188e-15,33 -0.8600272536277771,20.35317611694336 -10.60660171508789,10.60660171508789 C-20.35317611694336,0.8600272536277771 -33,4.0413343753030375e-15 -33,4.0413343753030375e-15 C-33,4.0413343753030375e-15 -20.35317611694336,-0.8600272536277771 -10.60660171508789,-10.60660171508789 C-0.8600272536277771,-20.35317611694336 2.0206671876515188e-15,-33 2.0206671876515188e-15,-33z"
        />
      </g>
    </g>
    <g
      transform="matrix(0.18703153729438782,0.0019194865599274635,-0.0019194865599274635,0.18703153729438782,205.4266357421875,94.21896362304688)"
      opacity="1"
      style="display: none"
    >
      <g opacity="1" transform="matrix(0,0,0,0,0,0)">
        <path
          fill="rgb(255,255,255)"
          fill-opacity="1"
          d=" M2.0206671876515188e-15,-33 C2.0206671876515188e-15,-33 0.8600272536277771,-20.35317611694336 10.60660171508789,-10.60660171508789 C20.35317611694336,-0.8600272536277771 33,0 33,0 C33,0 20.35317611694336,0.8600272536277771 10.60660171508789,10.60660171508789 C0.8600272536277771,20.35317611694336 2.0206671876515188e-15,33 2.0206671876515188e-15,33 C2.0206671876515188e-15,33 -0.8600272536277771,20.35317611694336 -10.60660171508789,10.60660171508789 C-20.35317611694336,0.8600272536277771 -33,4.0413343753030375e-15 -33,4.0413343753030375e-15 C-33,4.0413343753030375e-15 -20.35317611694336,-0.8600272536277771 -10.60660171508789,-10.60660171508789 C-0.8600272536277771,-20.35317611694336 2.0206671876515188e-15,-33 2.0206671876515188e-15,-33z"
        />
      </g>
    </g>
    <g
      transform="matrix(0.1999894678592682,0.002052473835647106,-0.002052473835647106,0.1999894678592682,145.34825134277344,142.53485107421875)"
      opacity="1"
      style="display: none"
    >
      <g opacity="1" transform="matrix(0,0,0,0,0,0)">
        <path
          fill="rgb(255,255,255)"
          fill-opacity="1"
          d=" M2.0206671876515188e-15,-33 C2.0206671876515188e-15,-33 0.8600272536277771,-20.35317611694336 10.60660171508789,-10.60660171508789 C20.35317611694336,-0.8600272536277771 33,0 33,0 C33,0 20.35317611694336,0.8600272536277771 10.60660171508789,10.60660171508789 C0.8600272536277771,20.35317611694336 2.0206671876515188e-15,33 2.0206671876515188e-15,33 C2.0206671876515188e-15,33 -0.8600272536277771,20.35317611694336 -10.60660171508789,10.60660171508789 C-20.35317611694336,0.8600272536277771 -33,4.0413343753030375e-15 -33,4.0413343753030375e-15 C-33,4.0413343753030375e-15 -20.35317611694336,-0.8600272536277771 -10.60660171508789,-10.60660171508789 C-0.8600272536277771,-20.35317611694336 2.0206671876515188e-15,-33 2.0206671876515188e-15,-33z"
        />
      </g>
    </g>
    <g
      transform="matrix(0.19999781250953674,0.0020525590516626835,-0.0020525590516626835,0.19999781250953674,114.08462524414062,121.35599517822266)"
      opacity="1"
      style="display: none"
    >
      <g opacity="1" transform="matrix(0,0,0,0,0,0)">
        <path
          fill="rgb(255,255,255)"
          fill-opacity="1"
          d=" M1.2246467572939613e-14,-200 C1.2246467572939613e-14,-200 0.5733515024185181,-13.5687837600708 7.071067810058594,-7.071067810058594 C13.5687837600708,-0.5733515024185181 200,0 200,0 C200,0 13.5687837600708,0.5733515024185181 7.071067810058594,7.071067810058594 C0.5733515024185181,13.5687837600708 1.2246467572939613e-14,200 1.2246467572939613e-14,200 C1.2246467572939613e-14,200 -0.5733515024185181,13.5687837600708 -7.071067810058594,7.071067810058594 C-13.5687837600708,0.5733515024185181 -200,2.4492935145879226e-14 -200,2.4492935145879226e-14 C-200,2.4492935145879226e-14 -13.5687837600708,-0.5733515024185181 -7.071067810058594,-7.071067810058594 C-0.5733515024185181,-13.5687837600708 1.2246467572939613e-14,-200 1.2246467572939613e-14,-200z"
        />
      </g>
    </g>
    <g
      transform="matrix(0.20294952392578125,0.0020828519482165575,-0.0020828519482165575,0.20294952392578125,217.98568725585938,247.96221923828125)"
      opacity="1"
      style="display: none"
    >
      <g opacity="1" transform="matrix(0,0,0,0,0,0)">
        <path
          fill="rgb(255,255,255)"
          fill-opacity="1"
          d=" M2.0206671876515188e-15,-33 C2.0206671876515188e-15,-33 0.8600272536277771,-20.35317611694336 10.60660171508789,-10.60660171508789 C20.35317611694336,-0.8600272536277771 33,0 33,0 C33,0 20.35317611694336,0.8600272536277771 10.60660171508789,10.60660171508789 C0.8600272536277771,20.35317611694336 2.0206671876515188e-15,33 2.0206671876515188e-15,33 C2.0206671876515188e-15,33 -0.8600272536277771,20.35317611694336 -10.60660171508789,10.60660171508789 C-20.35317611694336,0.8600272536277771 -33,4.0413343753030375e-15 -33,4.0413343753030375e-15 C-33,4.0413343753030375e-15 -20.35317611694336,-0.8600272536277771 -10.60660171508789,-10.60660171508789 C-0.8600272536277771,-20.35317611694336 2.0206671876515188e-15,-33 2.0206671876515188e-15,-33z"
        />
      </g>
    </g>
  </g>
</svg>
