<svg width="64px" height="64px" viewBox="0 0 64 64" xmlns="http://www.w3.org/2000/svg"><title>soldier</title><g id="soldier"><circle cx="39.5" cy="24.5" r="21.5" style="fill:#eaeaea"/><circle cx="55" cy="26" r="2" style="fill:none;stroke:#4c241d;stroke-linecap:round;stroke-linejoin:round;stroke-width:2px"/><line x1="10.129" y1="55" x2="7.181" y2="57.948" style="fill:none;stroke:#4c241d;stroke-linecap:round;stroke-linejoin:round;stroke-width:2px"/><line x1="7.181" y1="55" x2="10.129" y2="57.948" style="fill:none;stroke:#4c241d;stroke-linecap:round;stroke-linejoin:round;stroke-width:2px"/><circle cx="53" cy="11" r="1" style="fill:#4c241d"/><polyline points="22 63 22 54 34 54 34 63" style="fill:#ffded5;stroke:#4c241d;stroke-linecap:round;stroke-linejoin:round;stroke-width:2px"/><path d="M44,35h1.071A4.028,4.028,0,0,1,49.1,39.028v0a4.028,4.028,0,0,1-4.028,4.028H44a0,0,0,0,1,0,0V35a0,0,0,0,1,0,0Z" style="fill:#ffded5;stroke:#4c241d;stroke-linecap:round;stroke-linejoin:round;stroke-width:2px"/><path d="M7,35H8.071A4.028,4.028,0,0,1,12.1,39.028v0a4.028,4.028,0,0,1-4.028,4.028H7a0,0,0,0,1,0,0V35a0,0,0,0,1,0,0Z" transform="translate(19.099 78.056) rotate(180)" style="fill:#ffded5;stroke:#4c241d;stroke-linecap:round;stroke-linejoin:round;stroke-width:2px"/><path d="M13,26H43a0,0,0,0,1,0,0V41.9A14.1,14.1,0,0,1,28.9,56H27.1A14.1,14.1,0,0,1,13,41.9V26A0,0,0,0,1,13,26Z" style="fill:#ffded5;stroke:#4c241d;stroke-linecap:round;stroke-linejoin:round;stroke-width:2px"/><path d="M28.9,58H27.1A16.119,16.119,0,0,1,11,41.9V26h3V41.9C14,48.572,20.428,54,27.1,54h1.8C35.572,54,42,48.572,42,41.9V26h3V41.9A16.119,16.119,0,0,1,28.9,58Z" style="fill:#ffce56;stroke:#4c241d;stroke-linecap:round;stroke-linejoin:round;stroke-width:2px"/><path d="M29.933,44.213a2.814,2.814,0,0,1-4.342.032" style="fill:none;stroke:#4c241d;stroke-linecap:round;stroke-linejoin:round;stroke-width:2px"/><path d="M21.933,38.213a2.814,2.814,0,0,1-4.342.032" style="fill:none;stroke:#4c241d;stroke-linecap:round;stroke-linejoin:round;stroke-width:2px"/><path d="M37.933,38.213a2.814,2.814,0,0,1-4.342.032" style="fill:none;stroke:#4c241d;stroke-linecap:round;stroke-linejoin:round;stroke-width:2px"/><path d="M22,3A11.994,11.994,0,0,0,10.007,15l.01,15L10,32a2.555,2.555,0,0,0,2.5-2h.551a2.5,2.5,0,0,0,4.9,0h.1a2.5,2.5,0,0,0,4.9,0h.1a2.5,2.5,0,0,0,4.9,0h.1a2.5,2.5,0,0,0,4.9,0h.1a2.5,2.5,0,0,0,4.9,0h.1a2.5,2.5,0,0,0,4.9,0H43.5A2.555,2.555,0,0,0,46,32l-.017-2,.01-15A11.994,11.994,0,0,0,34,3Z" style="fill:#6b4f5b;stroke:#4c241d;stroke-linecap:round;stroke-linejoin:round;stroke-width:2px"/><path d="M36,17a2,2,0,0,0,0,4" style="fill:none;stroke:#4c241d;stroke-linecap:round;stroke-linejoin:round;stroke-width:2px"/><path d="M18.2,22.609A2,2,0,1,0,14.992,25" style="fill:none;stroke:#4c241d;stroke-linecap:round;stroke-linejoin:round;stroke-width:2px"/><path d="M31.222,9.751a2,2,0,1,0-3.356,2.176" style="fill:none;stroke:#4c241d;stroke-linecap:round;stroke-linejoin:round;stroke-width:2px"/><path d="M22,19a2,2,0,0,0,0-4" style="fill:none;stroke:#4c241d;stroke-linecap:round;stroke-linejoin:round;stroke-width:2px"/><circle cx="41" cy="24" r="1" style="fill:#4c241d"/><circle cx="16" cy="11" r="1" style="fill:#4c241d"/><circle cx="28" cy="23" r="1" style="fill:#4c241d"/></g></svg>