<svg
  xmlns="http://www.w3.org/2000/svg"
  xmlns:xlink="http://www.w3.org/1999/xlink"
  viewBox="0 30 280 280"
  width="280"
  height="280"
  preserveAspectRatio="xMidYMid meet"
  style="
    width: 100%;
    height: 100%;
    transform: translate3d(0px, 0px, 0px);
    content-visibility: visible;
  "
  id="Trumpet"
>
  <defs>
    <clipPath id="__lottie_element_2">
      <rect width="280" height="280" x="0" y="0" />
    </clipPath>
  </defs>
  <g clip-path="url(#__lottie_element_2)">
    <g
      transform="matrix(1.018595576286316,0.05726036801934242,-0.05726036801934242,1.018595576286316,175.08860778808594,175.045166015625)"
      opacity="1"
      style="display: block"
    >
      <g opacity="1" transform="matrix(1,0,0,1,0,0)">
        <g opacity="1" transform="matrix(1,0,0,1,0,0)">
          <path
            fill="rgb(255,212,117)"
            fill-opacity="1"
            d=" M7.171000003814697,-6.400000095367432 C4.545000076293945,-3.194000005722046 1.8079999685287476,-0.07400000095367432 -1.0859999656677246,2.8369998931884766 C-1.0859999656677246,2.8369998931884766 25.405000686645508,29.327999114990234 25.405000686645508,29.327999114990234 C25.405000686645508,29.327999114990234 34.18000030517578,20.610000610351562 34.18000030517578,20.610000610351562 C34.18000030517578,20.610000610351562 7.171000003814697,-6.400000095367432 7.171000003814697,-6.400000095367432z"
          />
        </g>
      </g>
      <g opacity="1" transform="matrix(1,0,0,1,0,0)">
        <g opacity="1" transform="matrix(1,0,0,1,0,0)">
          <g opacity="1" transform="matrix(1,0,0,1,0,0)">
            <path
              fill="rgb(255,212,117)"
              fill-opacity="1"
              d=" M-19.922000885009766,18.763999938964844 C-19.922000885009766,18.763999938964844 -12.451000213623047,26.235000610351562 -12.451000213623047,26.235000610351562 C-12.451000213623047,26.235000610351562 -7.7270002365112305,30.959999084472656 -7.7270002365112305,30.959999084472656 C-7.7270002365112305,30.959999084472656 3.130000114440918,41.816001892089844 3.130000114440918,41.816001892089844 C3.130000114440918,41.816001892089844 8.02400016784668,46.709999084472656 8.02400016784668,46.709999084472656 C8.02400016784668,46.709999084472656 16.798999786376953,37.99100112915039 16.798999786376953,37.99100112915039 C16.798999786376953,37.99100112915039 -10.267999649047852,10.92300033569336 -10.267999649047852,10.92300033569336 C-13.517999649047852,13.5 -16.812000274658203,16.016000747680664 -19.922000885009766,18.763999938964844z"
            />
          </g>
        </g>
      </g>
      <g opacity="1" transform="matrix(1,0,0,1,0,0)">
        <g opacity="1" transform="matrix(1,0,0,1,0,0)">
          <g opacity="1" transform="matrix(1,0,0,1,0,0)">
            <path
              fill="rgb(255,212,117)"
              fill-opacity="1"
              d=" M-38.020999908447266,35.426998138427734 C-38.020999908447266,35.426998138427734 -28.81999969482422,44.62900161743164 -28.81999969482422,44.62900161743164 C-28.81999969482422,44.62900161743164 -15.319000244140625,58.12900161743164 -15.319000244140625,58.12900161743164 C-15.319000244140625,58.12900161743164 -9.357000350952148,64.09100341796875 -9.357000350952148,64.09100341796875 C-9.357000350952148,64.09100341796875 -0.5830000042915344,55.37300109863281 -0.5830000042915344,55.37300109863281 C-0.5830000042915344,55.37300109863281 -28.635000228881836,27.31999969482422 -28.635000228881836,27.31999969482422 C-31.548999786376953,30.148000717163086 -34.683998107910156,32.95100021362305 -38.020999908447266,35.426998138427734z"
            />
          </g>
        </g>
      </g>
      <g opacity="1" transform="matrix(1,0,0,1,0,0)">
        <g opacity="1" transform="matrix(1,0,0,1,0,0)">
          <path
            fill="rgb(255,212,117)"
            fill-opacity="1"
            d=" M-12.241000175476074,-17.03700065612793 C-15.413999557495117,-13.86400032043457 -19.323999404907227,-12.5649995803833 -20.929000854492188,-14.170000076293945 C-22.534000396728516,-15.774999618530273 -21.81800079345703,-20.26799964904785 -18.645000457763672,-23.44099998474121 C-15.425000190734863,-26.660999298095703 -10.932000160217285,-27.378000259399414 -9.32699966430664,-25.773000717163086 C-7.7220001220703125,-24.167999267578125 -9.020999908447266,-20.256999969482422 -12.241000175476074,-17.03700065612793z"
          />
        </g>
        <g opacity="1" transform="matrix(1,0,0,1,0,0)">
          <path
            fill="rgb(255,212,117)"
            fill-opacity="1"
            d=" M-9.32699966430664,-25.773000717163086 C-9.32699966430664,-25.773000717163086 -6.414999961853027,-22.86199951171875 -6.414999961853027,-22.86199951171875 C-6.414999961853027,-22.86199951171875 -18.01799964904785,-11.258999824523926 -18.01799964904785,-11.258999824523926 C-18.01799964904785,-11.258999824523926 -20.929000854492188,-14.170000076293945 -20.929000854492188,-14.170000076293945 C-20.929000854492188,-14.170000076293945 -9.32699966430664,-25.773000717163086 -9.32699966430664,-25.773000717163086z"
          />
        </g>
        <g opacity="1" transform="matrix(1,0,0,1,0,0)">
          <path
            fill="rgb(243,162,80)"
            fill-opacity="1"
            d=" M-9.329999923706055,-14.125 C-12.503000259399414,-10.95199966430664 -16.413000106811523,-9.654000282287598 -18.01799964904785,-11.258999824523926 C-19.62299919128418,-12.86400032043457 -18.325000762939453,-16.774999618530273 -15.152000427246094,-19.947999954223633 C-11.932000160217285,-23.167999267578125 -8.020000457763672,-24.466999053955078 -6.414999961853027,-22.86199951171875 C-4.809999942779541,-21.256999969482422 -6.110000133514404,-17.344999313354492 -9.329999923706055,-14.125z"
          />
        </g>
        <g opacity="1" transform="matrix(1,0,0,1,0,0)">
          <path
            fill="rgb(255,212,117)"
            fill-opacity="1"
            d=" M-10.538999557495117,-15.36299991607666 C-11.501999855041504,-14.399999618530273 -12.529999732971191,-13.63700008392334 -13.442999839782715,-13.123000144958496 C-14.836999893188477,-12.326000213623047 -16.033000946044922,-12.126999855041504 -16.597000122070312,-12.690999984741211 C-17.17799949645996,-13.272000312805176 -16.91200065612793,-14.534000396728516 -16.082000732421875,-15.994000434875488 C-15.567000389099121,-16.874000549316406 -14.821000099182129,-17.819000244140625 -13.907999992370605,-18.73200035095215 C-11.484999656677246,-21.155000686645508 -8.779000282287598,-22.365999221801758 -7.849999904632568,-21.437000274658203 C-6.921000003814697,-20.507999420166016 -8.116000175476074,-17.785999298095703 -10.538999557495117,-15.36299991607666z"
          />
        </g>
        <g opacity="1" transform="matrix(1,0,0,1,0,0)">
          <path
            fill="rgb(255,212,117)"
            fill-opacity="1"
            d=" M1.6109999418258667,5.533999919891357 C4.7270002365112305,2.815999984741211 7.857999801635742,0.11599999666213989 11.015999794006348,-2.553999900817871 C11.015999794006348,-2.553999900817871 -7.839000225067139,-21.40999984741211 -7.839000225067139,-21.40999984741211 C-7.839000225067139,-21.40999984741211 -16.61400032043457,-12.690999984741211 -16.61400032043457,-12.690999984741211 C-16.61400032043457,-12.690999984741211 -13.069999694824219,-9.147000312805176 -13.069999694824219,-9.147000312805176 C-13.069999694824219,-9.147000312805176 1.6109999418258667,5.533999919891357 1.6109999418258667,5.533999919891357z"
          />
        </g>
      </g>
      <g
        opacity="1"
        transform="matrix(1,0,0,1,0.41747474670410156,0.41747474670410156)"
      >
        <g opacity="1" transform="matrix(1,0,0,1,0,0)">
          <path
            fill="rgb(255,212,117)"
            fill-opacity="1"
            d=" M-29.624000549316406,0.34599998593330383 C-32.797000885009766,3.5190000534057617 -36.707000732421875,4.817999839782715 -38.3120002746582,3.2130000591278076 C-39.91699981689453,1.6080000400543213 -39.20100021362305,-2.884999990463257 -36.02799987792969,-6.058000087738037 C-32.80799865722656,-9.277999877929688 -28.315000534057617,-9.994999885559082 -26.709999084472656,-8.390000343322754 C-25.104999542236328,-6.784999847412109 -26.40399932861328,-2.874000072479248 -29.624000549316406,0.34599998593330383z"
          />
        </g>
        <g opacity="1" transform="matrix(1,0,0,1,0,0)">
          <path
            fill="rgb(255,212,117)"
            fill-opacity="1"
            d=" M-26.709999084472656,-8.390000343322754 C-26.709999084472656,-8.390000343322754 -23.79800033569336,-5.479000091552734 -23.79800033569336,-5.479000091552734 C-23.79800033569336,-5.479000091552734 -35.4010009765625,6.124000072479248 -35.4010009765625,6.124000072479248 C-35.4010009765625,6.124000072479248 -38.3120002746582,3.2130000591278076 -38.3120002746582,3.2130000591278076 C-38.3120002746582,3.2130000591278076 -26.709999084472656,-8.390000343322754 -26.709999084472656,-8.390000343322754z"
          />
        </g>
        <g opacity="1" transform="matrix(1,0,0,1,0,0)">
          <path
            fill="rgb(243,162,80)"
            fill-opacity="1"
            d=" M-26.71299934387207,3.257999897003174 C-29.88599967956543,6.431000232696533 -33.79600143432617,7.729000091552734 -35.4010009765625,6.124000072479248 C-37.00600051879883,4.519000053405762 -35.70800018310547,0.6079999804496765 -32.53499984741211,-2.565000057220459 C-29.315000534057617,-5.784999847412109 -25.402999877929688,-7.084000110626221 -23.79800033569336,-5.479000091552734 C-22.19300079345703,-3.874000072479248 -23.493000030517578,0.03799999877810478 -26.71299934387207,3.257999897003174z"
          />
        </g>
        <g opacity="1" transform="matrix(1,0,0,1,0,0)">
          <g opacity="1" transform="matrix(1,0,0,1,0,0)">
            <path
              fill="rgb(255,212,117)"
              fill-opacity="1"
              d=" M-27.922000885009766,2.0199999809265137 C-28.885000228881836,2.9830000400543213 -29.913000106811523,3.746000051498413 -30.826000213623047,4.260000228881836 C-32.220001220703125,5.057000160217285 -33.41600036621094,5.25600004196167 -33.97999954223633,4.691999912261963 C-34.56100082397461,4.111000061035156 -34.29499816894531,2.8489999771118164 -33.46500015258789,1.3890000581741333 C-32.95000076293945,0.5090000033378601 -32.20399856567383,-0.4359999895095825 -31.291000366210938,-1.3489999771118164 C-28.868000030517578,-3.7720000743865967 -26.16200065612793,-4.982999801635742 -25.232999801635742,-4.053999900817871 C-24.304000854492188,-3.125 -25.499000549316406,-0.40299999713897705 -27.922000885009766,2.0199999809265137z"
            />
          </g>
          <g opacity="1" transform="matrix(1,0,0,1,0,0)">
            <path
              fill="rgb(255,212,117)"
              fill-opacity="1"
              d=" M-25.72599983215332,12.960000038146973 C-25.72599983215332,12.960000038146973 -16.902999877929688,21.783000946044922 -16.902999877929688,21.783000946044922 C-16.297000885009766,21.25 -15.692000389099121,20.71299934387207 -15.083999633789062,20.18199920654297 C-12.942999839782715,18.309999465942383 -10.807999610900879,16.43199920654297 -8.67300033569336,14.552000045776367 C-8.381999969482422,14.164999961853027 -8.097000122070312,13.77299976348877 -7.800000190734863,13.390999794006348 C-7.800000190734863,13.390999794006348 -25.219999313354492,-4.0279998779296875 -25.219999313354492,-4.0279998779296875 C-25.219999313354492,-4.0279998779296875 -33.994998931884766,4.690999984741211 -33.994998931884766,4.690999984741211 C-33.994998931884766,4.690999984741211 -30.451000213623047,8.234000205993652 -30.451000213623047,8.234000205993652 C-30.451000213623047,8.234000205993652 -25.72599983215332,12.960000038146973 -25.72599983215332,12.960000038146973z"
            />
          </g>
        </g>
      </g>
      <g opacity="1" transform="matrix(1,0,0,1,0,0)">
        <g opacity="1" transform="matrix(1,0,0,1,0,0)">
          <path
            fill="rgb(255,212,117)"
            fill-opacity="1"
            d=" M-47.00699996948242,17.729000091552734 C-50.18000030517578,20.902000427246094 -54.09000015258789,22.200000762939453 -55.69499969482422,20.594999313354492 C-57.29999923706055,18.989999771118164 -56.58399963378906,14.498000144958496 -53.4109992980957,11.324999809265137 C-50.191001892089844,8.104999542236328 -45.698001861572266,7.388000011444092 -44.09299850463867,8.993000030517578 C-42.487998962402344,10.597999572753906 -43.7869987487793,14.508999824523926 -47.00699996948242,17.729000091552734z"
          />
        </g>
        <g opacity="1" transform="matrix(1,0,0,1,0,0)">
          <path
            fill="rgb(255,212,117)"
            fill-opacity="1"
            d=" M-44.09299850463867,8.993000030517578 C-44.09299850463867,8.993000030517578 -41.18199920654297,11.904000282287598 -41.18199920654297,11.904000282287598 C-41.18199920654297,11.904000282287598 -52.784000396728516,23.506999969482422 -52.784000396728516,23.506999969482422 C-52.784000396728516,23.506999969482422 -55.69499969482422,20.594999313354492 -55.69499969482422,20.594999313354492 C-55.69499969482422,20.594999313354492 -44.09299850463867,8.993000030517578 -44.09299850463867,8.993000030517578z"
          />
        </g>
        <g opacity="1" transform="matrix(1,0,0,1,0,0)">
          <path
            fill="rgb(243,162,80)"
            fill-opacity="1"
            d=" M-44.09600067138672,20.641000747680664 C-47.26900100708008,23.81399917602539 -51.17900085449219,25.11199951171875 -52.784000396728516,23.506999969482422 C-54.388999938964844,21.902000427246094 -53.090999603271484,17.990999221801758 -49.917999267578125,14.817999839782715 C-46.698001861572266,11.597999572753906 -42.7869987487793,10.298999786376953 -41.18199920654297,11.904000282287598 C-39.57699966430664,13.508999824523926 -40.875999450683594,17.42099952697754 -44.09600067138672,20.641000747680664z"
          />
        </g>
        <g opacity="1" transform="matrix(1,0,0,1,0,0)">
          <g opacity="1" transform="matrix(1,0,0,1,0,0)">
            <path
              fill="rgb(255,212,117)"
              fill-opacity="1"
              d=" M-45.30500030517578,19.402999877929688 C-46.268001556396484,20.365999221801758 -47.29600143432617,21.128999710083008 -48.20899963378906,21.64299964904785 C-49.60300064086914,22.440000534057617 -50.79899978637695,22.638999938964844 -51.362998962402344,22.075000762939453 C-51.944000244140625,21.493999481201172 -51.678001403808594,20.23200035095215 -50.847999572753906,18.77199935913086 C-50.33300018310547,17.892000198364258 -49.58700180053711,16.94700050354004 -48.67399978637695,16.034000396728516 C-46.250999450683594,13.611000061035156 -43.54499816894531,12.399999618530273 -42.61600112915039,13.329000473022461 C-41.6870002746582,14.258000373840332 -42.88199996948242,16.979999542236328 -45.30500030517578,19.402999877929688z"
            />
          </g>
          <g opacity="1" transform="matrix(1,0,0,1,0,0)">
            <path
              fill="rgb(255,212,117)"
              fill-opacity="1"
              d=" M-28.59000015258789,32.60300064086914 C-27.716999053955078,31.729999542236328 -26.82699966430664,30.87299919128418 -25.934999465942383,30.018999099731445 C-25.934999465942383,30.018999099731445 -42.60100173950195,13.352999687194824 -42.60100173950195,13.352999687194824 C-42.60100173950195,13.352999687194824 -51.37699890136719,22.07200050354004 -51.37699890136719,22.07200050354004 C-51.37699890136719,22.07200050354004 -47.494998931884766,25.95400047302246 -47.494998931884766,25.95400047302246 C-47.494998931884766,25.95400047302246 -43.106998443603516,30.340999603271484 -43.106998443603516,30.340999603271484 C-43.106998443603516,30.340999603271484 -34.67300033569336,38.7760009765625 -34.67300033569336,38.7760009765625 C-32.68899917602539,36.57600021362305 -30.506999969482422,34.52000045776367 -28.59000015258789,32.60300064086914z"
            />
          </g>
        </g>
      </g>
      <g opacity="1" transform="matrix(1,0,0,1,0,0)">
        <g opacity="1" transform="matrix(1,0,0,1,0,0)">
          <g opacity="1" transform="matrix(1,0,0,1,0,0)">
            <g opacity="1" transform="matrix(1,0,0,1,0,0)">
              <g opacity="1" transform="matrix(1,0,0,1,0,0)">
                <g opacity="1" transform="matrix(1,0,0,1,0,0)">
                  <g opacity="1" transform="matrix(1,0,0,1,0,0)">
                    <path
                      fill="rgb(243,162,80)"
                      fill-opacity="1"
                      d=" M-16.388999938964844,39.566001892089844 C-16.388999938964844,39.566001892089844 -25.10700035095215,48.340999603271484 -25.10700035095215,48.340999603271484 C-25.10700035095215,48.340999603271484 -43.106998443603516,30.340999603271484 -43.106998443603516,30.340999603271484 C-43.106998443603516,30.340999603271484 -34.388999938964844,21.56599998474121 -34.388999938964844,21.56599998474121 C-34.388999938964844,21.56599998474121 -16.388999938964844,39.566001892089844 -16.388999938964844,39.566001892089844z"
                    />
                  </g>
                  <g opacity="1" transform="matrix(1,0,0,1,0,0)">
                    <path
                      fill="rgb(243,162,80)"
                      fill-opacity="1"
                      d=" M0.9919999837875366,22.18400001525879 C0.9919999837875366,22.18400001525879 -7.7270002365112305,30.959999084472656 -7.7270002365112305,30.959999084472656 C-7.7270002365112305,30.959999084472656 -25.72599983215332,12.960000038146973 -25.72599983215332,12.960000038146973 C-25.72599983215332,12.960000038146973 -17.006999969482422,4.184000015258789 -17.006999969482422,4.184000015258789 C-17.006999969482422,4.184000015258789 0.9919999837875366,22.18400001525879 0.9919999837875366,22.18400001525879z"
                    />
                  </g>
                  <g opacity="1" transform="matrix(1,0,0,1,0,0)">
                    <path
                      fill="rgb(243,162,80)"
                      fill-opacity="1"
                      d=" M18.374000549316406,4.803999900817871 C18.374000549316406,4.803999900817871 9.654999732971191,13.57800006866455 9.654999732971191,13.57800006866455 C9.654999732971191,13.57800006866455 -8.345000267028809,-4.421999931335449 -8.345000267028809,-4.421999931335449 C-8.345000267028809,-4.421999931335449 0.37400001287460327,-13.196999549865723 0.37400001287460327,-13.196999549865723 C0.37400001287460327,-13.196999549865723 18.374000549316406,4.803999900817871 18.374000549316406,4.803999900817871z"
                    />
                  </g>
                </g>
              </g>
              <g opacity="1" transform="matrix(1,0,0,1,0,0)">
                <path
                  fill="rgb(243,162,80)"
                  fill-opacity="1"
                  d=" M28.499000549316406,14.928000450134277 C28.048999786376953,16.391000747680664 27.204999923706055,17.740999221801758 26.023000717163086,18.92300033569336 C26.023000717163086,18.92300033569336 20.51099967956543,24.434999465942383 20.51099967956543,24.434999465942383 C20.51099967956543,24.434999465942383 25.405000686645508,29.327999114990234 25.405000686645508,29.327999114990234 C25.405000686645508,29.327999114990234 34.18000030517578,20.610000610351562 34.18000030517578,20.610000610351562 C34.18000030517578,20.610000610351562 28.499000549316406,14.928000450134277 28.499000549316406,14.928000450134277z M3.130000114440918,41.816001892089844 C3.130000114440918,41.816001892089844 8.02400016784668,46.709999084472656 8.02400016784668,46.709999084472656 C8.02400016784668,46.709999084472656 16.798999786376953,37.99100112915039 16.798999786376953,37.99100112915039 C16.798999786376953,37.99100112915039 11.904999732971191,33.09700012207031 11.904999732971191,33.09700012207031 C11.904999732971191,33.09700012207031 3.130000114440918,41.816001892089844 3.130000114440918,41.816001892089844z M-10.425999641418457,55.37300109863281 C-11.831999778747559,56.77899932861328 -13.519000053405762,57.73500061035156 -15.319000244140625,58.12900161743164 C-15.319000244140625,58.12900161743164 -9.357000350952148,64.09100341796875 -9.357000350952148,64.09100341796875 C-9.357000350952148,64.09100341796875 -0.5830000042915344,55.37300109863281 -0.5830000042915344,55.37300109863281 C-0.5830000042915344,55.37300109863281 -5.47599983215332,50.47800064086914 -5.47599983215332,50.47800064086914 C-5.47599983215332,50.47800064086914 -10.425999641418457,55.37300109863281 -10.425999641418457,55.37300109863281z"
                />
              </g>
              <g opacity="1" transform="matrix(1,0,0,1,0,0)">
                <g opacity="1" transform="matrix(1,0,0,1,0,0)">
                  <path
                    fill="rgb(255,212,117)"
                    fill-opacity="1"
                    d=" M45.051998138427734,-11.484999656677246 C37.939998626708984,-18.597000122070312 28.614999771118164,-22.136999130249023 19.291000366210938,-22.136999130249023 C9.967000007629395,-22.136999130249023 0.6430000066757202,-18.597000122070312 -6.468999862670898,-11.484999656677246 C-6.468999862670898,-11.484999656677246 -42.91400146484375,24.959999084472656 -42.91400146484375,24.959999084472656 C-52.13600158691406,34.18199920654297 -55.40299987792969,47.112998962402344 -52.577999114990234,58.92100143432617 C-51.14899826049805,65.38600158691406 -47.91699981689453,71.47799682617188 -42.91400146484375,76.48100280761719 C-37.29899978637695,82.09500122070312 -30.322999954223633,85.46399688720703 -23.041000366210938,86.62100219726562 C-11.913000106811523,88.49299621582031 -0.003000000026077032,85.08899688720703 8.605999946594238,76.4800033569336 C8.605999946594238,76.4800033569336 45.051998138427734,40.03499984741211 45.051998138427734,40.03499984741211 C59.2760009765625,25.81100082397461 59.2760009765625,2.739000082015991 45.051998138427734,-11.484999656677246z M27.083999633789062,22.06800079345703 C27.083999633789062,22.06800079345703 -9.361000061035156,58.51300048828125 -9.361000061035156,58.51300048828125 C-13.682999610900879,62.834999084472656 -20.625999450683594,62.83399963378906 -24.94700050354004,58.51300048828125 C-27.090999603271484,56.36899948120117 -28.18000030517578,53.57899856567383 -28.18000030517578,50.720001220703125 C-28.18000030517578,47.93000030517578 -27.125,45.10499954223633 -24.94700050354004,42.926998138427734 C-24.94700050354004,42.926998138427734 11.49899959564209,6.48199987411499 11.49899959564209,6.48199987411499 C15.786999702453613,2.194000005722046 22.79599952697754,2.194000005722046 27.083999633789062,6.48199987411499 C29.226999282836914,8.625 30.316999435424805,11.484000205993652 30.316999435424805,14.27400016784668 C30.283000946044922,17.099000930786133 29.22800064086914,19.923999786376953 27.083999633789062,22.06800079345703z"
                  />
                </g>
              </g>
              <g opacity="1" transform="matrix(1,0,0,1,0,0)">
                <path
                  fill="rgb(255,185,97)"
                  fill-opacity="1"
                  d=" M-24.94700050354004,42.926998138427734 C-24.94700050354004,42.926998138427734 -25.69499969482422,43.67599868774414 -25.69499969482422,43.67599868774414 C-42.53900146484375,60.52000045776367 -24.23200035095215,85.02200317382812 -23.041000366210938,86.62100219726562 C-30.322999954223633,85.46399688720703 -37.29899978637695,82.09500122070312 -42.91400146484375,76.48100280761719 C-47.91699981689453,71.47799682617188 -51.14899826049805,65.38600158691406 -52.577999114990234,58.92100143432617 C-40.19200134277344,49.9379997253418 -13.104999542236328,30.743999481201172 -24.94700050354004,42.926998138427734z"
                />
              </g>
              <g opacity="1" transform="matrix(1,0,0,1,0,0)">
                <g opacity="1" transform="matrix(1,0,0,1,0,0)">
                  <g opacity="1" transform="matrix(1,0,0,1,0,0)">
                    <g opacity="1" transform="matrix(1,0,0,1,0,0)">
                      <g opacity="1" transform="matrix(1,0,0,1,0,0)">
                        <path
                          fill="rgb(255,212,117)"
                          fill-opacity="1"
                          d=" M-70.39399719238281,70.48999786376953 C-63.88800048828125,76.99600219726562 -61.22600173950195,85.01300048828125 -64.51699829101562,88.30400085449219 C-67.80799865722656,91.59500122070312 -77.01899719238281,90.12699890136719 -83.5250015258789,83.62100219726562 C-90.12799835205078,77.01799774169922 -91.5979995727539,67.80500030517578 -88.30699920654297,64.51399993896484 C-85.01599884033203,61.222999572753906 -76.99700164794922,63.887001037597656 -70.39399719238281,70.48999786376953z"
                        />
                      </g>
                      <g opacity="1" transform="matrix(1,0,0,1,0,0)">
                        <path
                          fill="rgb(255,212,117)"
                          fill-opacity="1"
                          d=" M-88.30699920654297,64.51399993896484 C-88.30699920654297,64.51399993896484 -82.33799743652344,58.54499816894531 -82.33799743652344,58.54499816894531 C-82.33799743652344,58.54499816894531 -58.54800033569336,82.33499908447266 -58.54800033569336,82.33499908447266 C-58.54800033569336,82.33499908447266 -64.51699829101562,88.30400085449219 -64.51699829101562,88.30400085449219 C-64.51699829101562,88.30400085449219 -88.30699920654297,64.51399993896484 -88.30699920654297,64.51399993896484z"
                        />
                      </g>
                      <g opacity="1" transform="matrix(1,0,0,1,0,0)">
                        <path
                          fill="rgb(243,162,80)"
                          fill-opacity="1"
                          d=" M-64.42500305175781,64.5199966430664 C-57.91899871826172,71.0260009765625 -55.25699996948242,79.04399871826172 -58.54800033569336,82.33499908447266 C-61.8390007019043,85.6259994506836 -69.85700225830078,82.96499633789062 -76.36299896240234,76.45899963378906 C-82.96600341796875,69.85600280761719 -85.62899780273438,61.83599853515625 -82.33799743652344,58.54499816894531 C-79.0469970703125,55.25400161743164 -71.02799987792969,57.91699981689453 -64.42500305175781,64.5199966430664z"
                        />
                      </g>
                      <g opacity="1" transform="matrix(1,0,0,1,0,0)">
                        <g opacity="1" transform="matrix(1,0,0,1,0,0)">
                          <path
                            fill="rgb(255,212,117)"
                            fill-opacity="1"
                            d=" M-61.500999450683594,79.4469985961914 C-62.68299865722656,80.62899780273438 -65.27100372314453,80.06600189208984 -68.25199890136719,78.37899780273438 C-70.052001953125,77.30999755859375 -72.0199966430664,75.79100036621094 -73.87699890136719,73.93499755859375 C-75.78900146484375,72.02300262451172 -77.30699920654297,69.99700164794922 -78.3759994506836,68.1969985961914 C-78.3759994506836,68.1969985961914 -78.3759994506836,68.14099884033203 -78.3759994506836,68.14099884033203 C-80.06300354003906,65.21600341796875 -80.56999969482422,62.685001373291016 -79.38899993896484,61.50400161743164 C-78.26399993896484,60.321998596191406 -75.6760025024414,60.77199935913086 -72.69499969482422,62.459999084472656 C-70.83899688720703,63.584999084472656 -68.86900329589844,65.10399627685547 -66.95700073242188,67.01599884033203 C-64.98799896240234,68.98500061035156 -63.41299819946289,71.06600189208984 -62.345001220703125,72.97799682617188 C-60.7140007019043,75.79000091552734 -60.319000244140625,78.26599884033203 -61.500999450683594,79.4469985961914z"
                          />
                        </g>
                        <g opacity="1" transform="matrix(1,0,0,1,0,0)">
                          <path
                            fill="rgb(255,212,117)"
                            fill-opacity="1"
                            d=" M32.9370002746582,-83.4229965209961 C32.9370002746582,-83.4229965209961 83.40299987792969,-32.957000732421875 83.40299987792969,-32.957000732421875 C83.40299987792969,-32.957000732421875 78.84300231933594,-33.433998107910156 78.84300231933594,-33.433998107910156 C67.85199737548828,-34.55699920654297 56.51900100708008,-32.68600082397461 47.025001525878906,-26.934999465942383 C44.268001556396484,-25.26799964904785 41.68299865722656,-23.361000061035156 39.266998291015625,-21.14900016784668 C38.58599853515625,-20.535999298095703 37.904998779296875,-19.923999786376953 37.25899887084961,-19.277999877929688 C37.25899887084961,-19.277999877929688 -61.44599914550781,79.427001953125 -61.44599914550781,79.427001953125 C-61.44599914550781,79.427001953125 -79.41400146484375,61.45899963378906 -79.41400146484375,61.45899963378906 C-79.41400146484375,61.45899963378906 19.291000366210938,-37.24599838256836 19.291000366210938,-37.24599838256836 C21.264999389648438,-39.220001220703125 23.06800079345703,-41.362998962402344 24.634000778198242,-43.60900115966797 C25.485000610351562,-44.731998443603516 26.200000762939453,-45.85499954223633 26.913999557495117,-47.04600143432617 C29.261999130249023,-50.95899963378906 30.996999740600586,-55.14500045776367 32.08599853515625,-59.569000244140625 C33.685001373291016,-65.7969970703125 34.09400177001953,-72.39700317382812 33.41299819946289,-78.86299896240234 C33.41299819946289,-78.86299896240234 32.9370002746582,-83.4229965209961 32.9370002746582,-83.4229965209961z"
                          />
                        </g>
                      </g>
                    </g>
                  </g>
                </g>
              </g>
              <g opacity="1" transform="matrix(1,0,0,1,0,0)">
                <path
                  fill="rgb(243,162,80)"
                  fill-opacity="1"
                  d=" M36.06800079345703,-18.086999893188477 C36.06800079345703,-18.086999893188477 36.034000396728516,-18.05299949645996 36.034000396728516,-18.05299949645996 C30.79400062561035,-20.775999069213867 25.076000213623047,-22.136999130249023 19.291000366210938,-22.136999130249023 C9.967000007629395,-22.136999130249023 0.6430000066757202,-18.597000122070312 -6.468999862670898,-11.484999656677246 C-6.468999862670898,-11.484999656677246 10.682000160217285,-28.63599967956543 10.682000160217285,-28.63599967956543 C25.451000213623047,-28.02400016784668 36.06800079345703,-18.086999893188477 36.06800079345703,-18.086999893188477z"
                />
              </g>
            </g>
            <g opacity="1" transform="matrix(1,0,0,1,0,0)">
              <path
                fill="rgb(255,185,97)"
                fill-opacity="1"
                d=" M45.0369987487793,-11.508999824523926 C37.94900131225586,-18.597000122070312 28.61199951171875,-22.139999389648438 19.27400016784668,-22.139999389648438 C9.993000030517578,-22.139999389648438 0.6539999842643738,-18.597000122070312 -6.488999843597412,-11.508999824523926 C-6.488999843597412,-11.508999824523926 -79.41400146484375,61.45899963378906 -79.41400146484375,61.45899963378906 C-80.59500122070312,62.63999938964844 -80.06300354003906,65.21600341796875 -78.3759994506836,68.14099884033203 C-78.3759994506836,68.14099884033203 -72.69499969482422,62.459999084472656 -72.69499969482422,62.459999084472656 C-72.69499969482422,62.459999084472656 -8.62600040435791,-1.722000002861023 -8.62600040435791,-1.722000002861023 C-1.4819999933242798,-8.809000015258789 7.855000019073486,-12.352999687194824 17.13599967956543,-12.352999687194824 C26.474000930786133,-12.352999687194824 35.810001373291016,-8.809000015258789 42.89799880981445,-1.722000002861023 C50.71799850463867,6.0980000495910645 54.20500183105469,16.55900001525879 53.4739990234375,26.740999221801758 C58.19900131225586,13.859999656677246 55.387001037597656,-1.159000039100647 45.0369987487793,-11.508999824523926z"
              />
            </g>
          </g>
        </g>
      </g>
      <g opacity="0.5" transform="matrix(1,0,0,1,0,0)">
        <g opacity="1" transform="matrix(1,0,0,1,0,0)">
          <path
            fill="rgb(255,255,255)"
            fill-opacity="1"
            d=" M44.56700134277344,11.491999626159668 C46.55699920654297,19.55699920654297 46.38600158691406,26.1560001373291 49.90700149536133,25.57200050354004 C53.39099884033203,24.993999481201172 54.73699951171875,17.916000366210938 52.74700164794922,9.85099983215332 C50.75699996948242,1.7860000133514404 45.90800094604492,-3.183000087738037 42.42399978637695,-2.6050000190734863 C38.90299987792969,-2.0209999084472656 42.57699966430664,3.427000045776367 44.56700134277344,11.491999626159668z"
          />
        </g>
        <g opacity="1" transform="matrix(1,0,0,1,0,0)">
          <path
            fill="rgb(255,255,255)"
            fill-opacity="1"
            d=" M36.582000732421875,-12.98799991607666 C35.11000061035156,-12.067000389099121 35.04199981689453,-9.807000160217285 36.3849983215332,-7.951000213623047 C37.72800064086914,-6.09499979019165 39.981998443603516,-5.329999923706055 41.45399856567383,-6.250999927520752 C42.895999908447266,-7.1529998779296875 42.98500061035156,-9.383999824523926 41.641998291015625,-11.239999771118164 C40.29899978637695,-13.095999717712402 38.02399826049805,-13.890000343322754 36.582000732421875,-12.98799991607666z"
          />
        </g>
      </g>
      <g
        opacity="1"
        transform="matrix(1.0372933149337769,0,0,1.0372933149337769,-2.163013458251953,2.200305938720703)"
      >
        <g opacity="1" transform="matrix(1,0,0,1,0,0)">
          <path
            fill="rgb(255,212,117)"
            fill-opacity="1"
            d=" M67.35900115966797,-67.49299621582031 C82.54499816894531,-52.30699920654297 91.01100158691406,-36.31700134277344 86.41200256347656,-31.718000411987305 C81.81300354003906,-27.118999481201172 65.8219985961914,-35.58399963378906 50.63600158691406,-50.77000045776367 C35.584999084472656,-65.82099914550781 27.118000030517578,-81.81300354003906 31.716999053955078,-86.41200256347656 C36.316001892089844,-91.01100158691406 52.30799865722656,-82.54399871826172 67.35900115966797,-67.49299621582031z"
          />
        </g>
        <g opacity="1" transform="matrix(1,0,0,1,0,0)">
          <path
            fill="rgb(243,162,80)"
            fill-opacity="1"
            d=" M83.53600311279297,-34.590999603271484 C80.91300201416016,-33.91699981689453 68.9990005493164,-38.349998474121094 53.606998443603516,-53.742000579833984 C37.88800048828125,-69.46099853515625 33.68199920654297,-81.56199645996094 34.65599822998047,-83.72799682617188 C36.564998626708984,-84.44499969482422 48.6619987487793,-80.2509994506836 64.38899993896484,-64.52400207519531 C79.78900146484375,-49.125 84.21399688720703,-37.209999084472656 83.53600311279297,-34.590999603271484z"
          />
        </g>
        <g opacity="1" transform="matrix(1,0,0,1,0,0)">
          <path
            fill="rgb(255,185,97)"
            fill-opacity="1"
            d=" M64.38600158691406,-64.50800323486328 C79.78299713134766,-49.111000061035156 84.21399688720703,-37.21500015258789 83.52999877929688,-34.590999603271484 C82.4469985961914,-34.316001892089844 79.81199645996094,-34.91400146484375 75.96700286865234,-36.80799865722656 C73.32499694824219,-42.249000549316406 68.0510025024414,-50.069000244140625 58.999000549316406,-59.12099838256836 C49.946998596191406,-68.1729965209961 42.084999084472656,-73.40499877929688 36.729000091552734,-76.13200378417969 C34.75600051879883,-80.13999938964844 34.24300003051758,-82.85900115966797 34.637001037597656,-83.73799896240234 C36.55699920654297,-84.4469985961914 48.665000915527344,-80.22899627685547 64.38600158691406,-64.50800323486328z"
          />
        </g>
      </g>
    </g>
    <g
      transform="matrix(1,0,0,1,175.00001525878906,175)"
      opacity="1"
      style="display: block"
    >
      <g opacity="1" transform="matrix(1,0,0,1,0,0)">
        <path
          stroke-linecap="round"
          stroke-linejoin="round"
          fill-opacity="0"
          stroke="rgb(227,231,240)"
          stroke-opacity="1"
          stroke-width="1.914"
          d="M0 0"
        />
      </g>
      <g opacity="1" transform="matrix(1,0,0,1,0,0)">
        <path
          stroke-linecap="round"
          stroke-linejoin="round"
          fill-opacity="0"
          stroke="rgb(227,231,240)"
          stroke-opacity="1"
          stroke-width="1.914"
          d="M0 0"
        />
      </g>
    </g>
    <g
      transform="matrix(1,0,0,1,175.00001525878906,175)"
      opacity="1"
      style="display: block"
    >
      <g opacity="1" transform="matrix(1,0,0,1,0,0)">
        <path
          stroke-linecap="round"
          stroke-linejoin="round"
          fill-opacity="0"
          stroke="rgb(227,231,240)"
          stroke-opacity="1"
          stroke-width="1.914"
          d="M0 0"
        />
      </g>
      <g opacity="1" transform="matrix(1,0,0,1,0,0)">
        <path
          stroke-linecap="round"
          stroke-linejoin="round"
          fill-opacity="0"
          stroke="rgb(227,231,240)"
          stroke-opacity="1"
          stroke-width="1.914"
          d="M0 0"
        />
      </g>
    </g>
    <g
      transform="matrix(1,0,0,1,175.00001525878906,175)"
      opacity="1"
      style="display: none"
    >
      <g opacity="1" transform="matrix(1,0,0,1,0,0)">
        <path
          stroke-linecap="round"
          stroke-linejoin="round"
          fill-opacity="0"
          stroke="rgb(227,231,240)"
          stroke-opacity="1"
          stroke-width="1.914"
          d="M0 0"
        />
      </g>
      <g opacity="1" transform="matrix(1,0,0,1,0,0)">
        <path
          stroke-linecap="round"
          stroke-linejoin="round"
          fill-opacity="0"
          stroke="rgb(227,231,240)"
          stroke-opacity="1"
          stroke-width="1.914"
          d="M0 0"
        />
      </g>
    </g>
    <g
      transform="matrix(1,0,0,1,175.00001525878906,175)"
      opacity="1"
      style="display: none"
    >
      <g opacity="1" transform="matrix(1,0,0,1,0,0)">
        <path
          stroke-linecap="round"
          stroke-linejoin="round"
          fill-opacity="0"
          stroke="rgb(227,231,240)"
          stroke-opacity="1"
          stroke-width="1.914"
          d="M0 0"
        />
      </g>
      <g opacity="1" transform="matrix(1,0,0,1,0,0)">
        <path
          stroke-linecap="round"
          stroke-linejoin="round"
          fill-opacity="0"
          stroke="rgb(227,231,240)"
          stroke-opacity="1"
          stroke-width="1.914"
          d="M0 0"
        />
      </g>
    </g>
    <g
      transform="matrix(1,0,0,1,175.00001525878906,175)"
      opacity="1"
      style="display: none"
    >
      <g opacity="1" transform="matrix(1,0,0,1,0,0)">
        <path
          stroke-linecap="round"
          stroke-linejoin="round"
          fill-opacity="0"
          stroke="rgb(227,231,240)"
          stroke-opacity="1"
          stroke-width="1.914"
          d="M0 0"
        />
      </g>
      <g opacity="1" transform="matrix(1,0,0,1,0,0)">
        <path
          stroke-linecap="round"
          stroke-linejoin="round"
          fill-opacity="0"
          stroke="rgb(227,231,240)"
          stroke-opacity="1"
          stroke-width="1.914"
          d="M0 0"
        />
      </g>
    </g>
    <g
      transform="matrix(1,0,0,1,175.00001525878906,175)"
      opacity="1"
      style="display: none"
    >
      <g opacity="1" transform="matrix(1,0,0,1,0,0)">
        <path
          stroke-linecap="round"
          stroke-linejoin="round"
          fill-opacity="0"
          stroke="rgb(227,231,240)"
          stroke-opacity="1"
          stroke-width="1.914"
          d="M0 0"
        />
      </g>
      <g opacity="1" transform="matrix(1,0,0,1,0,0)">
        <path
          stroke-linecap="round"
          stroke-linejoin="round"
          fill-opacity="0"
          stroke="rgb(227,231,240)"
          stroke-opacity="1"
          stroke-width="1.914"
          d="M0 0"
        />
      </g>
    </g>
    <g
      transform="matrix(0,0,0,0,202.3459930419922,148.40199279785156)"
      opacity="1"
      style="display: block"
    >
      <g opacity="1" transform="matrix(1,0,0,1,0,0)">
        <path
          fill="rgb(255,255,255)"
          fill-opacity="1"
          d=" M32.79800033569336,-25.336000442504883 C42.70600128173828,-25.621000289916992 51.742000579833984,-26.40399932861328 52.097999572753906,-27.025999069213867 C52.0629997253418,-27.54199981689453 42.9010009765625,-27.986000061035156 32.762001037597656,-28.163000106811523 C31.677000045776367,-28.28700065612793 31.160999298095703,-29.408000946044922 31.908000946044922,-30.136999130249023 C35.12699890136719,-33.749000549316406 37.742000579833984,-36.87900161743164 37.70600128173828,-37.39500045776367 C37.38600158691406,-37.41299819946289 34.34400177001953,-34.69200134277344 30.750999450683594,-31.29400062561035 C30.003999710083008,-30.56399917602539 28.812999725341797,-31.079999923706055 28.742000579833984,-32.111000061035156 C28.26099967956543,-41.96500015258789 27.547000885009766,-51.125999450683594 27.048999786376953,-51.40999984741211 C26.28499984741211,-51.516998291015625 26.018999099731445,-42.09000015258789 25.718000411987305,-32.02199935913086 C25.788999557495117,-30.990999221801758 24.667999267578125,-30.475000381469727 23.93899917602539,-31.222000122070312 C20.43400001525879,-34.04999923706055 17.427000045776367,-36.59299850463867 16.80500030517578,-36.94900131225586 C17.01799964904785,-36.16699981689453 19.492000579833984,-33.266998291015625 22.783000946044922,-30.06599998474121 C23.31599998474121,-29.264999389648438 22.996000289916992,-28.12700080871582 21.89299964904785,-27.930999755859375 C11.984999656677246,-27.645999908447266 2.950000047683716,-26.86199951171875 2.5940001010894775,-26.23900032043457 C2.628999948501587,-25.724000930786133 11.789999961853027,-25.280000686645508 21.929000854492188,-25.10300064086914 C23.013999938964844,-24.97800064086914 23.530000686645508,-23.857999801635742 22.783000946044922,-23.128999710083008 C19.565000534057617,-19.51799964904785 16.948999404907227,-16.386999130249023 16.985000610351562,-15.871000289916992 C17.43000030517578,-15.781999588012695 20.347000122070312,-18.576000213623047 24.065000534057617,-21.902000427246094 C24.739999771118164,-22.506999969482422 25.878999710083008,-22.184999465942383 25.950000762939453,-21.15399932861328 C26.43199920654297,-11.300000190734863 27.145000457763672,-2.140000104904175 27.767000198364258,-1.784000039100647 C28.406999588012695,-1.7489999532699585 28.72599983215332,-10.980999946594238 28.974000930786133,-21.243999481201172 C28.902999877929688,-22.274999618530273 30.076000213623047,-22.59600067138672 30.947999954223633,-22.097999572753906 C34.560001373291016,-18.878999710083008 37.61899948120117,-16.139999389648438 38.1349983215332,-16.174999237060547 C38.2239990234375,-16.6200008392334 35.37799835205078,-19.732999801635742 32.10499954223633,-23.253999710083008 C31.375999450683594,-24.000999450683594 31.69499969482422,-25.139999389648438 32.79800033569336,-25.336000442504883z"
        />
      </g>
    </g>
    <g
      transform="matrix(0,0,0,0,151.88900756835938,245.45799255371094)"
      opacity="1"
      style="display: block"
    >
      <g opacity="1" transform="matrix(1,0,0,1,0,0)">
        <path
          fill="rgb(255,255,255)"
          fill-opacity="1"
          d=" M-17.658000946044922,71.72000122070312 C-7.75,71.43499755859375 1.284999966621399,70.6510009765625 1.6410000324249268,70.02899932861328 C1.6059999465942383,69.51300048828125 -7.554999828338623,69.06900024414062 -17.694000244140625,68.89199829101562 C-18.77899932861328,68.76799774169922 -19.295000076293945,67.64700317382812 -18.54800033569336,66.91799926757812 C-15.329000473022461,63.305999755859375 -12.71399974822998,60.17599868774414 -12.75,59.65999984741211 C-13.069999694824219,59.641998291015625 -16.11199951171875,62.36399841308594 -19.704999923706055,65.76200103759766 C-20.45199966430664,66.49199676513672 -21.643999099731445,65.9749984741211 -21.71500015258789,64.94400024414062 C-22.195999145507812,55.09000015258789 -22.909000396728516,45.92900085449219 -23.406999588012695,45.64500045776367 C-24.17099952697754,45.53799819946289 -24.437999725341797,54.96500015258789 -24.73900032043457,65.03299713134766 C-24.667999267578125,66.06400299072266 -25.788000106811523,66.58100128173828 -26.517000198364258,65.83399963378906 C-30.02199935913086,63.00600051879883 -33.02899932861328,60.4630012512207 -33.6510009765625,60.106998443603516 C-33.4379997253418,60.888999938964844 -30.96500015258789,63.78799819946289 -27.673999786376953,66.98899841308594 C-27.141000747680664,67.79000091552734 -27.459999084472656,68.9280014038086 -28.562999725341797,69.1240005493164 C-38.47100067138672,69.40899658203125 -47.50699996948242,70.19300079345703 -47.862998962402344,70.81600189208984 C-47.827999114990234,71.33100128173828 -38.66600036621094,71.7750015258789 -28.527000427246094,71.9520034790039 C-27.441999435424805,72.0770034790039 -26.926000595092773,73.197998046875 -27.67300033569336,73.927001953125 C-30.891000747680664,77.53800201416016 -33.50699996948242,80.66899871826172 -33.47100067138672,81.18499755859375 C-33.0260009765625,81.27400207519531 -30.108999252319336,78.4800033569336 -26.391000747680664,75.15399932861328 C-25.715999603271484,74.54900360107422 -24.577999114990234,74.87000274658203 -24.506999969482422,75.9010009765625 C-24.024999618530273,85.75499725341797 -23.312000274658203,94.91500091552734 -22.690000534057617,95.27100372314453 C-22.049999237060547,95.30599975585938 -21.731000900268555,86.0739974975586 -21.482999801635742,75.81099700927734 C-21.554000854492188,74.77999877929688 -20.3799991607666,74.45999908447266 -19.507999420166016,74.95800018310547 C-15.895999908447266,78.177001953125 -12.836999893188477,80.91600036621094 -12.321000099182129,80.88099670410156 C-12.232000350952148,80.43599700927734 -15.07800006866455,77.322998046875 -18.35099983215332,73.802001953125 C-19.079999923706055,73.05500030517578 -18.76099967956543,71.91600036621094 -17.658000946044922,71.72000122070312z"
        />
      </g>
    </g>
  </g>
  <line
    x1="80"
    y1="120"
    x2="250"
    y2="250"
    stroke="rgb(255,185,97)"
    stroke-width="15"
    stroke-linecap="round"
  />
</svg>
