<svg
  xmlns="http://www.w3.org/2000/svg"
  width="1600.003"
  height="1600.003"
  fill-rule="evenodd"
  clip-rule="evenodd"
  image-rendering="optimizeQuality"
  shape-rendering="geometricPrecision"
  text-rendering="geometricPrecision"
  viewBox="0 0 16666.66 16666.66"
  id="ancient-treasure-map"
>
  <rect width="16666.66" height="16666.66" fill="none"></rect>
  <polygon
    fill="#eac196"
    fill-rule="nonzero"
    points="3414.76 10392.6 13186.32 10392.6 13186.32 4701.74 3414.76 4701.74"
  ></polygon>
  <path
    fill="#efcbab"
    fill-rule="nonzero"
    d="M4713.87 6029.05c0,0 -461.35,112.45 -465.37,835.98 -4.08,723.7 -340.57,1884.86 499.83,2265.57 840.4,380.49 3167.94,512.35 4272.35,-6.89 539.98,-254.08 1177.76,-136.57 1735.7,-19.07 583.11,122.79 1079.09,245.58 1284.75,-55.71 402.6,-589.77 335.92,-3137.79 -756.55,-3223.88 -1092.24,-86.09 -5966.76,-194.92 -6570.71,204z"
  ></path>

  <polygon
    fill="#e7b785"
    fill-rule="nonzero"
    points="3426.07 5517.9 3426.07 5164.99 13186.26 5164.99 13186.26 5356.01"
  ></polygon>

  <path
    fill="#daab7d"
    fill-rule="nonzero"
    d="M3363.47 4172.16c0,0 -168.96,485.47 -36.64,992.82l9947.99 0c0,0 213.36,-617.8 14.76,-992.82l-9926.12 0z"
  ></path>

  <path
    fill="#d6d6d6"
    fill-rule="nonzero"
    d="M5091.31 10524.93l-356.77 -132.32 1635.26 0 -1278.49 132.32zm8094.96 -838.22l0 -551.46 0.4 551.46 -0.4 0z"
  ></path>
  <path
    fill="#e7b785"
    fill-rule="nonzero"
    d="M6369.79 10392.6l-1635.26 0 -1308.47 -485.24 -11.31 -661.73c0,0 1167.42,537.16 3891.64,537.16 1479.68,0 3418.63,-158.45 5879.87,-647.54l0 551.46 -6816.47 705.89z"
  ></path>
  <path
    fill="#daab7d"
    fill-rule="nonzero"
    d="M3276.17 9466.12c0,0 2299.4,1301.52 10174.51,0 0,0 111.02,992.54 -76.61,1257.35l-10097.9 0c0,0 -381.52,-661.73 0,-1257.35z"
  ></path>
  <path
    fill="#fff"
    fill-rule="nonzero"
    d="M11434.94 5733.27l-13.56 173.62c142.03 11.94 285.44 37.67 423.04 77.02l47.78-167.36c-149.5-42.56-301.69-70.12-457.27-83.28zM10734.73 5878.52l103.55 140.02c99.65-75.18 237.02-107.17 375.83-114.86l-10.17-173.85c-157.19 9.54-326.39 43.13-469.22 148.69zM10518.56 6571.66l169.77-39.11c-31.42-131.69-23.09-266.83 34.63-377.84l-154.37-80.46c-81.84 156.44-87.93 339.19-50.02 497.42zM10791.47 7200.55l156.39-76.79c-67.66-136.75-139.39-265.39-194.7-397.08l-160.63 67.02c60.36 143.87 134.68 276.19 198.94 406.85zM10818.64 7702.61l114.87 130.89c70.7-53.3 122.39-146.11 138.18-239.66 8.9-93.61-5.52-182.98-33.66-257.93l-165.52 54.27c24.93 64.21 29.98 125.2 26.76 179.13-11.78 50.25-31.65 96.83-80.64 133.3zM10242.19 7810.18l-5.28 174.07c153.17 3.85 307.78 1.38 467.84-34.69l-41.75-169.14c-130.48 29.75-276.76 33.83-420.8 29.75zM9594.25 7735.81l-31.82 171.2c149.15 26.99 299.05 49.28 450.61 63.63l16.02-173.44c-145.3-13.72-290.55-35.44-434.81-61.39zM8957.84 7577.99l-52.03 166.15c144.67 46 291.12 84.89 438.83 117.91l38.31-170c-143.23-31.76-285.26-69.67-425.11-114.06zM8353.72 7336.71l-79.43 155.01c136.74 70.07 277.74 128.24 420.4 181.31l59.56-163.74c-136.74-50.83-271.88-106.54-400.53-172.58zM7856.47 6962.89l-138.18 106.19c101.71 130.26 228.75 226.91 359.24 310.36l93.21-147.31c-119.92-75.93-233-164.08-314.27-269.24zM7830.97 6450.08l-145.07-96.2c-92.41 136.34-144.04 326.96-84.48 496.78l166.56-51.06c-41.12-115.9-7.7-240.93 63-349.53zM8272.05 6388.92l107.17-137.15c-66.28-51.29-142.83-95.68-233-115.5-89.76-19.47-192.45-6.49-274.12 39.28l82.07 153.57c93.79-56.11 216.8-22.06 317.89 59.78zM8581.04 6901.33l168.33-44.4c-40.49-153.4-107.97-300.48-203.02-431.37l-139.79 103.78c79.66 109.81 139.22 237.83 174.48 371.99z"
  ></path>
  <path
    fill="#fff"
    fill-rule="nonzero"
    d="M8581.61 7515.21l168.56 43.76c40.15-153.8 53.13-314.44 38.94-472.49l-173.44 15.8c12.35 138.41 1.04 278.6-34.06 412.93zM8285.03 8057.6l130.02 115.84c106.02-115.67 193.55-250 258.16-394.67l-159.03-71.1c-56.74 127.04-133.76 245.98-229.15 349.93z"
  ></path>
  <polygon
    fill="#fff"
    fill-rule="nonzero"
    points="7785.2 8448.82 7871.29 8600.16 8065.18 8473.12 8161.84 8409.31 8251.61 8334.36 8137.09 8203.07 8055.48 8271.53 7965.08 8330.51"
  ></polygon>
  <path
    fill="#fff"
    fill-rule="nonzero"
    d="M7192.16 8667.81l30.15 171.43 227.95-54.1c76.61-16.83 144.27-57.95 216.57-85.92l-69.89-159.43c-66.22 25.33-128.25 64.44-197.74 78.8l-207.04 49.22zM6561.85 8663.96l-32.62 171.03c154.2 16.6 309.15 46.98 465.37 27.74l-8.9-174.02c-141.4 18.61-282.85-10.57-423.85-24.76zM5959.9 8449.23l-79.02 155.18c66.85 38.08 137.15 69.09 209.91 95.62 72.71 25.73 141.22 63 217.78 78.22l50.08-166.72c-70.35-13.38-134.73-49.05-202.22-72.94-67.65-24.35-133.76-53.3-196.53-89.36z"
  ></path>
  <polygon
    fill="#fff"
    fill-rule="nonzero"
    points="5415.91 8097.92 5307.71 8234.26 5490.69 8371.64 5683.54 8496.03 5773.71 8346.88 5590.56 8228.97"
  ></polygon>

  <path
    fill="#fff"
    fill-rule="nonzero"
    d="M4939.97 7653.16l-128.87 117.33c103.15,112.22 211.75,218.81 325.64,319.89l115.26 -130.26c-109,-97.06 -213.53,-199.4 -312.03,-306.97z"
  ></path>
  <path
    fill="#874d33"
    fill-rule="nonzero"
    d="M12500.24 7008.66l0 0c-42.96,46.63 -116.07,49.45 -162.7,6.49l-670.63 -618.14c-46.58,-42.96 -49.39,-116.3 -6.49,-162.87 42.96,-46.64 116.13,-49.45 162.7,-6.49l670.63 618.14c46.64,43.13 49.45,116.3 6.49,162.88z"
  ></path>
  <path
    fill="#874d33"
    fill-rule="nonzero"
    d="M12503.51 6237.76l0 0c42.73 46.8 39.06 120.15-7.93 162.7l-675.68 612.68c-47.04 42.56-120.15 38.88-162.7-7.93l0-.17c-42.56-46.81-39.11-120.15 7.93-162.7l675.68-612.68c46.98-42.56 120.15-38.88 162.7 8.1zM4852.05 7108.77c0 123.37-100.11 223.7-223.47 223.7-123.59 0-223.7-100.33-223.7-223.7 0-123.36 100.1-223.46 223.7-223.46 123.36 0 223.47 100.1 223.47 223.46z"
  ></path>
</svg>
