<svg
  xmlns="http://www.w3.org/2000/svg"
  xmlns:xlink="http://www.w3.org/1999/xlink"
  viewBox="0 0 350 350"
  width="700"
  height="700"
  preserveAspectRatio="xMidYMid meet"
  style="
    width: 100%;
    height: 100%;
    transform: translate3d(0px, 0px, 0px);
    content-visibility: visible;
  "
  id="Hunting Map"
>
  <defs>
    <clipPath id="__lottie_element_2">
      <rect width="700" height="700" x="0" y="0" />
    </clipPath>
    <clipPath id="__lottie_element_5">
      <path
        fill="#ffffff"
        clip-rule="nonzero"
        d=" M-68.89900207519531,-68.05899810791016 C-68.89900207519531,-68.05899810791016 -95.89900207519531,6.414999961853027 -95.89900207519531,6.414999961853027 C-95.89900207519531,6.414999961853027 -122.89900207519531,80.88800048828125 -122.89900207519531,80.88800048828125 C-122.89900207519531,80.88800048828125 109.5,91.88800048828125 109.5,91.88800048828125 C109.5,91.88800048828125 103.5,-82.55899810791016 103.5,-82.55899810791016 C103.5,-82.55899810791016 -68.89900207519531,-68.05899810791016 -68.89900207519531,-68.05899810791016"
        fill-opacity="1"
      />
    </clipPath>
  </defs>
  <g clip-path="url(#__lottie_element_2)">
    <g
      clip-path="url(#__lottie_element_5)"
      transform="matrix(1,0,0,1,175,175)"
      opacity="1"
      style="display: block"
    >
      <g opacity="1" transform="matrix(1,0,0,1,0,0)">
        <path
          fill="rgb(255,202,108)"
          fill-opacity="1"
          d=" M100,68.38800048828125 C73.27400207519531,74.70099639892578 44.321998596191406,72.38899993896484 18.83799934387207,62.14699935913086 C18.83799934387207,62.14699935913086 16.29599952697754,55.34199905395508 16.29599952697754,55.34199905395508 C16.29599952697754,55.34199905395508 13.680999755859375,64.34300231933594 13.680999755859375,64.34300231933594 C13.680999755859375,64.34300231933594 -21.6560001373291,63.76499938964844 -21.6560001373291,63.76499938964844 C-21.6560001373291,63.76499938964844 -22.04599952697754,53.2760009765625 -22.04599952697754,53.2760009765625 C-22.04599952697754,53.2760009765625 -28.459999084472656,65.12300109863281 -28.459999084472656,65.12300109863281 C-28.459999084472656,65.12300109863281 -60.516998291015625,69.00900268554688 -60.516998291015625,69.00900268554688 C-62.1349983215332,69.15299987792969 -63.73899841308594,69.39900207519531 -65.37100219726562,69.39900207519531 C-65.37100219726562,69.39900207519531 -72.5510025024414,69.39900207519531 -72.5510025024414,69.39900207519531 C-72.5510025024414,69.39900207519531 -73.90899658203125,63.57699966430664 -73.90899658203125,63.57699966430664 C-73.90899658203125,63.57699966430664 -77.7959976196289,70.17900085449219 -77.7959976196289,70.17900085449219 C-81.3499984741211,71.6240005493164 -85.43800354003906,71.63800048828125 -89.06400299072266,70.38099670410156 C-90.39299774169922,69.93299865722656 -91.66400146484375,69.31199645996094 -92.81999969482422,68.53199768066406 C-97.16799926757812,65.61399841308594 -99.89900207519531,60.45600128173828 -99.89900207519531,55.21200180053711 C-80.94499969482422,28.138999938964844 -69.95099639892578,-11.920999526977539 -62.64099884033203,-57.992000579833984 C-62.64099884033203,-57.992000579833984 -42.069000244140625,-56.143001556396484 -42.069000244140625,-56.143001556396484 C-42.069000244140625,-56.143001556396484 -34.31100082397461,-55.44900131225586 -34.31100082397461,-55.44900131225586 C-34.31100082397461,-55.44900131225586 -33.242000579833984,-48.369998931884766 -33.242000579833984,-48.369998931884766 C-33.242000579833984,-48.369998931884766 -30.698999404907227,-55.189998626708984 -30.698999404907227,-55.189998626708984 C-30.698999404907227,-55.189998626708984 -21.756999969482422,-54.525001525878906 -21.756999969482422,-54.525001525878906 C-21.756999969482422,-54.525001525878906 -19.878999710083008,-48.904998779296875 -19.878999710083008,-48.904998779296875 C-19.878999710083008,-48.904998779296875 -16.41200065612793,-54.380001068115234 -16.41200065612793,-54.380001068115234 C-16.41200065612793,-54.380001068115234 64.69200134277344,-54.78499984741211 64.69200134277344,-54.78499984741211 C64.69200134277344,-54.78499984741211 68.30400085449219,-44.75899887084961 68.30400085449219,-44.75899887084961 C68.30400085449219,-44.75899887084961 72.58000183105469,-57.71799850463867 72.58000183105469,-57.71799850463867 C76.03299713134766,-57.71799850463867 79.47100067138672,-58.77199935913086 82.69300079345703,-60.042999267578125 C85.9000015258789,-61.31399917602539 88.8759994506836,-63.49599838256836 90.46499633789062,-66.55899810791016 C92.8489990234375,-63.625999450683594 93.7300033569336,-59.638999938964844 92.86299896240234,-55.970001220703125 C92.86299896240234,-55.970001220703125 88.21199798583984,-51.981998443603516 88.21199798583984,-51.981998443603516 C88.21199798583984,-51.981998443603516 93.96099853515625,-52.387001037597656 93.96099853515625,-52.387001037597656 C87.677001953125,-32.60900115966797 84.77300262451172,-11.92199993133545 84.81600189208984,8.809000015258789 C84.81600189208984,8.809000015258789 74.97799682617188,12.017000198364258 74.97799682617188,12.017000198364258 C74.97799682617188,12.017000198364258 85.27899932861328,12.550999641418457 85.27899932861328,12.550999641418457 C85.35099792480469,21.232999801635742 86.62300109863281,30.16200065612793 88.38500213623047,38.65599822998047 C88.38500213623047,38.65599822998047 82.73600006103516,40.750999450683594 82.73600006103516,40.750999450683594 C82.73600006103516,40.750999450683594 89.81500244140625,41.95000076293945 89.81500244140625,41.95000076293945 C90.43599700927734,51.499000549316406 93.96099853515625,60.9630012512207 100,68.38800048828125z"
        />
      </g>
      <g opacity="0.4" transform="matrix(1,0,0,1,0,0)">
        <path
          stroke-linecap="butt"
          stroke-linejoin="miter"
          fill-opacity="0"
          stroke-miterlimit="10"
          stroke="rgb(255,255,255)"
          stroke-opacity="1"
          stroke-width="1.923"
          d=" M79.6719970703125,-45.18299865722656 C78.37799835205078,-39.73899841308594 77.27799987792969,-34.249000549316406 76.375,-28.726999282836914"
        />
      </g>
      <g opacity="0.4" transform="matrix(1,0,0,1,0,0)">
        <path
          stroke-linecap="butt"
          stroke-linejoin="miter"
          fill-opacity="0"
          stroke-miterlimit="10"
          stroke="rgb(255,255,255)"
          stroke-opacity="1"
          stroke-width="1.923"
          d=" M74.8479995727539,-18.3439998626709 C74.73500061035156,-17.433000564575195 74.71099853515625,-16.51099967956543 74.7760009765625,-15.595000267028809"
        />
      </g>
    </g>
    <g transform="matrix(1,0,0,1,175,175)" opacity="1" style="display: block">
      <g opacity="1" transform="matrix(1,0,0,1,0,0)">
        <path
          fill="rgb(255,182,60)"
          fill-opacity="1"
          d=" M-42.069000244140625,-56.143001556396484 C-45.45000076293945,-55.347999572753906 -49.37900161743164,-53.19499969482422 -50.8380012512207,-50.07500076293945 C-52.513999938964844,-46.492000579833984 -53.39500045776367,-42.34600067138672 -54.060001373291016,-38.459999084472656 C-57.02199935913086,-21.094999313354492 -59.665000915527344,-3.687000036239624 -62.005001068115234,13.779000282287598 C-62.75600051879883,19.45599937438965 -63.49300003051758,25.191999435424805 -63.17499923706055,30.913000106811523 C-63.058998107910156,32.95000076293945 -62.814998626708984,35.01599884033203 -63.21900177001953,37.02399826049805 C-63.624000549316406,39.016998291015625 -64.83699798583984,40.99700164794922 -66.75800323486328,41.67599868774414 C-63.60900115966797,47.020999908447266 -61.65800094604492,53.24700164794922 -61.90399932861328,59.44499969482422 C-67.07599639892578,55.48699951171875 -74.58899688720703,54.89500045776367 -80.3239974975586,57.97200012207031 C-84.93299865722656,60.457000732421875 -88.21199798583984,65.2229995727539 -89.06400299072266,70.38099670410156 C-90.39299774169922,69.93299865722656 -91.66400146484375,69.31199645996094 -92.81999969482422,68.53199768066406 C-97.16799926757812,65.61399841308594 -99.89900207519531,60.45600128173828 -99.89900207519531,55.21200180053711 C-80.94499969482422,28.138999938964844 -69.95099639892578,-11.920999526977539 -62.64099884033203,-57.992000579833984 C-62.64099884033203,-57.992000579833984 -42.069000244140625,-56.143001556396484 -42.069000244140625,-56.143001556396484z"
        />
      </g>
      <g opacity="1" transform="matrix(1,0,0,1,0,0)">
        <path
          fill="rgb(255,222,155)"
          fill-opacity="1"
          d=" M-99.89600372314453,55.21900177001953 C-100.59600067138672,47.85599899291992 -97.62899780273438,42.10200119018555 -94.81199645996094,35.53200149536133 C-88.74800109863281,21.391000747680664 -85.39700317382812,6.264999866485596 -82.0780029296875,-8.758999824523926 C-78.7239990234375,-23.944000244140625 -75.35900115966797,-39.665000915527344 -78.43000030517578,-54.90999984741211 C-79.0719985961914,-58.095001220703125 -79.98600006103516,-61.428001403808594 -78.9990005493164,-64.52400207519531 C-76.69300079345703,-71.75499725341797 -67.74500274658203,-72.3280029296875 -61.4109992980957,-71.69599914550781 C-56.21799850463867,-71.1780014038086 -50.52299880981445,-69.89399719238281 -46.93000030517578,-65.80999755859375 C-51.702999114990234,-63.15700149536133 -54.832000732421875,-58.96500015258789 -56.249000549316406,-53.691001892089844 C-59.494998931884766,-53.49800109863281 -63.41400146484375,-53.150001525878906 -66.4540023803711,-51.99599838256836 C-62.72100067138672,-52.28900146484375 -59.922000885009766,-51.051998138427734 -56.7869987487793,-49.005001068115234 C-61.56100082397461,-36.55500030517578 -60.98400115966797,-22.566999435424805 -62.94900131225586,-9.378000259399414 C-63.22600173950195,-7.515999794006348 -63.58700180053711,-5.61299991607666 -64.5780029296875,-4.01200008392334 C-65.33799743652344,-2.7839999198913574 -66.43399810791016,-1.7960000038146973 -67.22200012207031,-0.5860000252723694 C-68.84500122070312,1.9049999713897705 -69.00199890136719,5.040999889373779 -69.10900115966797,8.01200008392334 C-69.4489974975586,17.45800018310547 -69.86699676513672,26.899999618530273 -70.02200317382812,36.347999572753906 C-70.02799987792969,36.70899963378906 -70.04199981689453,37.09600067138672 -70.26000213623047,37.38399887084961 C-70.63200378417969,37.875999450683594 -71.36900329589844,37.827999114990234 -71.98200225830078,37.76300048828125 C-74.68399810791016,37.47800064086914 -77.45099639892578,37.819000244140625 -80.00199890136719,38.75299835205078 C-75.84400177001953,40.02399826049805 -71.9000015258789,41.99800109863281 -68.38999938964844,44.56399917602539 C-68.21199798583984,47.75299835205078 -67.79499816894531,51.24599838256836 -66.86499786376953,54.30099868774414 C-76.7979965209961,43.11800003051758 -92.40299987792969,44.29600143432617 -99.89600372314453,55.21900177001953z"
        />
      </g>
      <g opacity="0.4" transform="matrix(1,0,0,1,0,0)">
        <path
          stroke-linecap="butt"
          stroke-linejoin="miter"
          fill-opacity="0"
          stroke-miterlimit="10"
          stroke="rgb(255,255,255)"
          stroke-opacity="1"
          stroke-width="1.282"
          d=" M-71.39700317382812,-41.65700149536133 C-71.68199920654297,-36.28200149536133 -71.7959976196289,-30.89900016784668 -71.73899841308594,-25.517000198364258"
        />
      </g>
      <g opacity="0.4" transform="matrix(1,0,0,1,0,0)">
        <path
          stroke-linecap="butt"
          stroke-linejoin="miter"
          fill-opacity="0"
          stroke-miterlimit="10"
          stroke="rgb(255,255,255)"
          stroke-opacity="1"
          stroke-width="1.282"
          d=" M-71.75299835205078,-17.892000198364258 C-71.79900360107422,-17.708999633789062 -71.84400177001953,-17.525999069213867 -71.88999938964844,-17.343000411987305"
        />
      </g>
    </g>
    <g transform="matrix(1,0,0,1,175,175)" opacity="1" style="display: block">
      <g opacity="1" transform="matrix(1,0,0,1,0,0)">
        <path
          stroke-linecap="round"
          stroke-linejoin="round"
          fill-opacity="0"
          stroke-dasharray=" 2.564"
          stroke-dashoffset="0"
          stroke="rgb(0,0,0)"
          stroke-opacity="1"
          stroke-width="0.641"
          d=" M-37.01100158691406,-26.986000061035156 C-42.27299880981445,-21.825000762939453 -45.80099868774414,-14.925000190734863 -46.90299987792969,-7.638000011444092 C-47.51900100708008,-3.568000078201294 -47.28300094604492,1.430999994277954 -43.999000549316406,4.376999855041504 C-40.650001525878906,7.381999969482422 -35.38399887084961,7.1579999923706055 -31.625999450683594,5.083000183105469 C-20.344999313354492,-1.1440000534057617 -18.884000778198242,-17.222999572753906 -12.218999862670898,-27.12299919128418 C-10.185999870300293,-30.14299964904785 -7.703000068664551,-33.23099899291992 -4.697999954223633,-35.32899856567383 C-2.6610000133514404,-36.75199890136719 -0.16300000250339508,-37.66999816894531 2.302000045776367,-37.35200119018555 C8.77299976348877,-36.516998291015625 10.517999649047852,-29.843000411987305 9.369999885559082,-24.277000427246094 C7.85099983215332,-16.913000106811523 1.8869999647140503,-12.559000015258789 -2.8489999771118164,-7.289000034332275 C-10.12399959564209,0.8059999942779541 -16.176000595092773,11.15999984741211 -16.13599967956543,22.347999572753906 C-16.1200008392334,26.815000534057617 -14.996000289916992,31.33799934387207 -12.508999824523926,35.04800033569336 C-7.696000099182129,42.22700119018555 1.2280000448226929,44.733001708984375 9.416000366210938,42.99599838256836 C12.812999725341797,42.275001525878906 16.02400016784668,40.92499923706055 19.02899932861328,39.176998138427734"
        />
      </g>
    </g>
    <g
      transform="matrix(0,0,0,0,211.54100036621094,193.0500030517578)"
      opacity="1"
      style="display: block"
    >
      <g opacity="1" transform="matrix(1,0,0,1,0,0)">
        <path
          fill="rgb(79,87,95)"
          fill-opacity="1"
          d=" M62.30500030517578,45.111000061035156 C61.22200012207031,47.624000549316406 57.82600021362305,47.59600067138672 55.09600067138672,46.77199935913086 C54.518001556396484,49.53099822998047 52.68299865722656,53.14400100708008 49.9379997253418,52.95600128173828 C47.20800018310547,52.75400161743164 44.404998779296875,50.48500061035156 43.39400100708008,47.61000061035156 C42.36800003051758,44.73500061035156 43.20600128173828,41.499000549316406 45.34400177001953,40.01100158691406 C45.34400177001953,40.01100158691406 41.862998962402344,34.47800064086914 41.862998962402344,34.47800064086914 C41.862998962402344,34.47800064086914 37.224998474121094,27.138999938964844 37.224998474121094,27.138999938964844 C37.224998474121094,27.138999938964844 25.8700008392334,9.138999938964844 25.8700008392334,9.138999938964844 C25.8700008392334,9.138999938964844 23.010000228881836,4.603000164031982 23.010000228881836,4.603000164031982 C23.010000228881836,4.603000164031982 20.437999725341797,0.5289999842643738 20.437999725341797,0.5289999842643738 C18.18400001525879,1.8289999961853027 14.906000137329102,1.1790000200271606 12.753000259399414,-0.9739999771118164 C10.586000442504883,-3.1410000324249268 9.732999801635742,-6.63700008392334 10.744000434875488,-9.194000244140625 C11.741000175476074,-11.75100040435791 15.656999588012695,-11.765999794006348 18.386999130249023,-11.086999893188477 C18.81999969482422,-13.904000282287598 20.409000396728516,-17.082000732421875 23.15399932861328,-16.966999053955078 C25.884000778198242,-16.865999221801758 28.731000900268555,-14.597000122070312 29.770999908447266,-11.722000122070312 C30.797000885009766,-8.833000183105469 29.93000030517578,-5.581999778747559 27.733999252319336,-4.1519999504089355 C27.733999252319336,-4.1519999504089355 28.933000564575195,-2.259999990463257 28.933000564575195,-2.259999990463257 C28.933000564575195,-2.259999990463257 32.529998779296875,3.4609999656677246 32.529998779296875,3.4609999656677246 C32.529998779296875,3.4609999656677246 47.540000915527344,27.239999771118164 47.540000915527344,27.239999771118164 C47.540000915527344,27.239999771118164 51.25299835205078,33.1349983215332 51.25299835205078,33.1349983215332 C51.25299835205078,33.1349983215332 51.25299835205078,33.1349983215332 51.25299835205078,33.14899826049805 C51.25299835205078,33.14899826049805 52.71200180053711,35.44599914550781 52.71200180053711,35.44599914550781 C54.9370002746582,34.0880012512207 58.25899887084961,34.69499969482422 60.4119987487793,36.875999450683594 C62.564998626708984,39.042999267578125 63.38800048828125,42.58300018310547 62.30500030517578,45.111000061035156z"
        />
      </g>
      <g opacity="1" transform="matrix(1,0,0,1,0,0)">
        <path
          fill="rgb(255,202,108)"
          fill-opacity="1"
          d=" M51.25299835205078,33.1349983215332 C51.25299835205078,33.1349983215332 51.25299835205078,33.1349983215332 51.25299835205078,33.14899826049805 C50.689998626708984,33.95800018310547 50.0099983215332,34.69499969482422 49.07099914550781,34.98400115966797 C47.82899856567383,35.388999938964844 46.5,34.86800003051758 45.24300003051758,34.47800064086914 C44.14500045776367,34.13100051879883 42.845001220703125,33.92900085449219 41.862998962402344,34.47800064086914 C41.862998962402344,34.47800064086914 37.224998474121094,27.138999938964844 37.224998474121094,27.138999938964844 C37.44200134277344,26.301000595092773 37.861000061035156,25.52199935913086 38.49700164794922,24.944000244140625 C39.724998474121094,23.832000732421875 41.617000579833984,23.687000274658203 43.19200134277344,24.207000732421875 C44.766998291015625,24.726999282836914 46.08100128173828,25.825000762939453 47.26599884033203,26.965999603271484 C47.35300064086914,27.05299949645996 47.452999114990234,27.138999938964844 47.540000915527344,27.239999771118164 C47.540000915527344,27.239999771118164 51.25299835205078,33.1349983215332 51.25299835205078,33.1349983215332z"
        />
      </g>
      <g opacity="1" transform="matrix(1,0,0,1,0,0)">
        <path
          fill="rgb(255,202,108)"
          fill-opacity="1"
          d=" M32.54499816894531,5.874000072479248 C32.444000244140625,7.376999855041504 32.025001525878906,9.02299976348877 30.76799964904785,9.831999778747559 C29.857999801635742,10.423999786376953 28.67300033569336,10.439000129699707 27.64699935913086,10.092000007629395 C27.01099967956543,9.875 26.41900062561035,9.529000282287598 25.8700008392334,9.138999938964844 C25.8700008392334,9.138999938964844 23.010000228881836,4.603000164031982 23.010000228881836,4.603000164031982 C24.267000198364258,1.8289999961853027 26.361000061035156,-0.6710000038146973 28.933000564575195,-2.259999990463257 C28.933000564575195,-2.259999990463257 32.529998779296875,3.4609999656677246 32.529998779296875,3.4609999656677246 C32.60200119018555,4.269999980926514 32.60300064086914,5.079999923706055 32.54499816894531,5.874000072479248z"
        />
      </g>
      <g opacity="1" transform="matrix(1,0,0,1,0,0)">
        <path
          fill="rgb(79,87,95)"
          fill-opacity="1"
          d=" M73.13999938964844,23.93199920654297 C71.60900115966797,26.200000762939453 68.27100372314453,27.472000122070312 65.29499816894531,26.908000946044922 C62.319000244140625,26.3439998626709 59.9640007019043,24.003999710083008 59.762001037597656,21.40399932861328 C59.762001037597656,21.40399932861328 57.797000885009766,21.47599983215332 57.797000885009766,21.47599983215332 C57.797000885009766,21.47599983215332 53.54999923706055,21.635000228881836 53.54999923706055,21.635000228881836 C53.54999923706055,21.635000228881836 25.277999877929688,22.660999298095703 25.277999877929688,22.660999298095703 C25.277999877929688,22.660999298095703 20.972999572753906,22.81999969482422 20.972999572753906,22.81999969482422 C20.972999572753906,22.81999969482422 13.54699993133545,23.0939998626709 13.54699993133545,23.0939998626709 C13.532999992370605,25.708999633789062 11.35099983215332,28.222999572753906 8.432999610900879,29.003000259399414 C5.5,29.768999099731445 2.0759999752044678,28.757999420166016 0.38600000739097595,26.604999542236328 C-1.3040000200271606,24.45199966430664 1.2960000038146973,20.97100067138672 3.2320001125335693,18.93400001525879 C1.0219999551773071,17.14299964904785 -1.5640000104904175,14.281999588012695 -0.10499999672174454,11.970000267028809 C1.3539999723434448,9.659000396728516 4.705999851226807,8.329999923706055 7.682000160217285,8.892999649047852 C10.67199993133545,9.442000389099121 13.027000427246094,11.826000213623047 13.156999588012695,14.440999984741211 C13.156999588012695,14.440999984741211 17.80900001525879,14.267000198364258 17.80900001525879,14.267000198364258 C17.80900001525879,14.267000198364258 21.825000762939453,14.123000144958496 21.825000762939453,14.123000144958496 C21.825000762939453,14.123000144958496 54.055999755859375,12.95199966430664 54.055999755859375,12.95199966430664 C54.055999755859375,12.95199966430664 58.90999984741211,12.765000343322754 58.90999984741211,12.765000343322754 C58.90999984741211,12.765000343322754 59.50199890136719,12.75 59.50199890136719,12.75 C59.45899963378906,10.135000228881836 61.625,7.578999996185303 64.55799865722656,6.798999786376953 C67.49099731445312,6.0329999923706055 70.93000030517578,7.1020002365112305 72.56199645996094,9.312000274658203 C74.18000030517578,11.508000373840332 72.56199645996094,15.07699966430664 70.49600219726562,17.027000427246094 C72.57599639892578,18.920000076293945 74.6709976196289,21.663999557495117 73.13999938964844,23.93199920654297z"
        />
      </g>
      <g opacity="1" transform="matrix(1,0,0,1,0,0)">
        <path
          fill="rgb(255,202,108)"
          fill-opacity="1"
          d=" M57.797000885009766,21.47599983215332 C57.797000885009766,21.47599983215332 53.54999923706055,21.635000228881836 53.54999923706055,21.635000228881836 C53.50699996948242,21.489999771118164 53.44900131225586,21.332000732421875 53.40599822998047,21.187000274658203 C52.92900085449219,19.698999404907227 52.52399826049805,18.152999877929688 52.611000061035156,16.593000411987305 C52.68299865722656,15.263999938964844 53.145999908447266,13.906000137329102 54.055999755859375,12.95199966430664 C54.055999755859375,12.95199966430664 58.90999984741211,12.765000343322754 58.90999984741211,12.765000343322754 C59.15599822998047,15.871000289916992 58.89500045776367,18.774999618530273 57.797000885009766,21.47599983215332z"
        />
      </g>
      <g opacity="1" transform="matrix(1,0,0,1,0,0)">
        <path
          fill="rgb(255,202,108)"
          fill-opacity="1"
          d=" M25.58099937438965,21.780000686645508 C25.509000778198242,22.08300018310547 25.408000946044922,22.371999740600586 25.277999877929688,22.660999298095703 C25.277999877929688,22.660999298095703 20.972999572753906,22.81999969482422 20.972999572753906,22.81999969482422 C20.68400001525879,22.343000411987305 20.30900001525879,21.895000457763672 19.933000564575195,21.5049991607666 C19.13800048828125,20.66699981689453 18.198999404907227,19.93000030517578 17.63599967956543,18.91900062561035 C16.840999603271484,17.48900032043457 16.92799949645996,15.625 17.80900001525879,14.267000198364258 C17.80900001525879,14.267000198364258 21.825000762939453,14.123000144958496 21.825000762939453,14.123000144958496 C22.677000045776367,14.484000205993652 23.457000732421875,15.034000396728516 24.093000411987305,15.72700023651123 C25.552000045776367,17.33099937438965 26.1299991607666,19.684999465942383 25.58099937438965,21.780000686645508z"
        />
      </g>
      <g opacity="1" transform="matrix(1,0,0,1,0,0)">
        <path
          fill="rgb(79,87,95)"
          fill-opacity="1"
          d=" M32.138999938964844,37.21699905395508 C33.42300033569336,37.80400085449219 34.930999755859375,37.882999420166016 36.26900100708008,37.43199920654297 C37.606998443603516,36.98099899291992 38.75899887084961,36.00600051879883 39.42599868774414,34.762001037597656 C39.75899887084961,34.13999938964844 39.972999572753906,33.45899963378906 40.32500076293945,32.84700012207031 C40.47600173950195,32.584999084472656 40.64799880981445,32.32600021362305 40.849998474121094,32.104000091552734 C41.26599884033203,31.64699935913086 41.96900177001953,31.579999923706055 42.500999450683594,31.89299964904785 C43.6870002746582,32.590999603271484 44.917999267578125,33.233001708984375 46.26300048828125,33.459999084472656 C47.86899948120117,33.73099899291992 49.540000915527344,33.051998138427734 50.4119987487793,31.676000595092773 C51.20899963378906,30.41900062561035 51.28200149536133,29.097999572753906 51.67100143432617,27.695999145507812 C52.12799835205078,26.048999786376953 53.367000579833984,24.759000778198242 54.37799835205078,23.381000518798828 C57.33000183105469,19.357999801635742 58.47600173950195,14.0600004196167 57.45100021362305,9.175999641418457 C56.42599868774414,4.291999816894531 53.24599838256836,-0.09700000286102295 48.92499923706055,-2.5940001010894775 C48.92499923706055,-2.5940001010894775 48.43199920654297,-2.8550000190734863 48.43199920654297,-2.8550000190734863 C43.93299865722656,-5.013999938964844 38.513999938964844,-5.163000106811523 33.90299987792969,-3.255000114440918 C29.29199981689453,-1.347000002861023 25.56399917602539,2.5880000591278076 23.906999588012695,7.295000076293945 C23.34000015258789,8.906999588012695 22.974000930786133,10.657999992370605 21.871999740600586,11.96399974822998 C20.933000564575195,13.076000213623047 19.884000778198242,13.881999969482422 19.29599952697754,15.24899959564209 C18.652000427246094,16.7450008392334 19.031999588012695,18.506999969482422 20.16200065612793,19.680999755859375 C21.107999801635742,20.663999557495117 22.333999633789062,21.31800079345703 23.57900047302246,21.902999877929688 C24.13800048828125,22.166000366210938 24.479000091552734,22.784000396728516 24.336000442504883,23.385000228881836 C24.267000198364258,23.677000045776367 24.14900016784668,23.965999603271484 24.01799964904785,24.238000869750977 C23.711000442504883,24.87299919128418 23.268999099731445,25.434999465942383 22.944000244140625,26.06100082397461 C22.292999267578125,27.312999725341797 22.138999938964844,28.815000534057617 22.520999908447266,30.173999786376953 C22.902999877929688,31.533000946044922 23.819000244140625,32.73400115966797 25.027999877929688,33.4630012512207 C25.027999877929688,33.4630012512207 32.138999938964844,37.21699905395508 32.138999938964844,37.21699905395508z"
        />
      </g>
      <g opacity="1" transform="matrix(1,0,0,1,0,0)">
        <path
          fill="rgb(255,202,108)"
          fill-opacity="1"
          d=" M27.503000259399414,12.019000053405762 C26.142000198364258,13.111000061035156 25.479999542236328,15.038000106811523 25.97599983215332,16.711000442504883 C26.472000122070312,18.384000778198242 28.148000717163086,19.659000396728516 29.892000198364258,19.599000930786133 C30.983999252319336,19.562000274658203 32.007999420166016,19.054000854492188 32.900001525878906,18.42300033569336 C33.78300094604492,17.79800033569336 34.5880012512207,17.020999908447266 35.05699920654297,16.047000885009766 C35.5260009765625,15.072999954223633 35.61899948120117,13.876999855041504 35.11800003051758,12.918999671936035 C34.49100112915039,11.718999862670898 32.8390007019043,11.326000213623047 31.601999282836914,11.074000358581543 C30.190000534057617,10.786999702453613 28.632999420166016,11.112000465393066 27.503000259399414,12.019000053405762z"
        />
      </g>
      <g opacity="1" transform="matrix(1,0,0,1,0,0)">
        <path
          fill="rgb(255,202,108)"
          fill-opacity="1"
          d=" M49.17599868774414,23.459999084472656 C49.04199981689453,25.200000762939453 47.82400131225586,26.833999633789062 46.16299819946289,27.368000030517578 C44.50199890136719,27.902000427246094 42.50400161743164,27.238000869750977 41.56999969482422,25.763999938964844 C40.98500061035156,24.841999053955078 40.82600021362305,23.708999633789062 40.84400177001953,22.617000579833984 C40.86199951171875,21.535999298095703 41.04899978637695,20.43199920654297 41.5890007019043,19.4950008392334 C42.12900161743164,18.558000564575195 43.06399917602539,17.808000564575195 44.13800048828125,17.680999755859375 C45.483001708984375,17.52199935913086 46.737998962402344,18.663999557495117 47.64400100708008,19.542999267578125 C48.678001403808594,20.54599952697754 49.2869987487793,22.014999389648438 49.17599868774414,23.459999084472656z"
        />
      </g>
      <g opacity="1" transform="matrix(1,0,0,1,0,0)">
        <path
          fill="rgb(255,202,108)"
          fill-opacity="1"
          d=" M35.43000030517578,29.554000854492188 C34.92499923706055,29.926000595092773 34.19300079345703,29.86199951171875 33.66899871826172,29.56599998474121 C33.04499816894531,29.214000701904297 32.797000885009766,28.485000610351562 32.28099822998047,28.01799964904785 C32.2140007019043,27.957000732421875 31.961000442504883,27.969999313354492 31.875,27.961999893188477 C31.656999588012695,27.94099998474121 31.43899917602539,27.929000854492188 31.22100067138672,27.906999588012695 C30.76099967956543,27.860000610351562 30.232999801635742,27.826000213623047 29.850000381469727,27.51799964904785 C29.51300048828125,27.246999740600586 29.225000381469727,26.722999572753906 29.23699951171875,26.284000396728516 C29.259000778198242,25.45199966430664 29.972000122070312,24.81800079345703 30.617000579833984,24.295000076293945 C31.426000595092773,23.645000457763672 32.22700119018555,22.992000579833984 33.03200149536133,22.349000930786133 C33.38800048828125,22.06100082397461 33.7599983215332,21.76099967956543 34.21099853515625,21.65999984741211 C34.65800094604492,21.56599998474121 35.19900131225586,21.736000061035156 35.374000549316406,22.158000946044922 C35.82099914550781,22.06399917602539 36.266998291015625,22.416000366210938 36.44200134277344,22.83799934387207 C36.60499954223633,23.263999938964844 36.57600021362305,23.743999481201172 36.53900146484375,24.200000762939453 C36.45500183105469,25.222999572753906 36.374000549316406,26.256999969482422 36.2859992980957,27.288000106811523 C36.224998474121094,28.1200008392334 36.09700012207031,29.062000274658203 35.43000030517578,29.554000854492188z"
        />
      </g>
    </g>
    <g
      transform="matrix(0.9993449449539185,-0.006024020723998547,0.006024020723998547,0.9993449449539185,175.13003540039062,174.74911499023438)"
      opacity="1"
      style="display: block"
    >
      <g opacity="1" transform="matrix(1,0,0,1,0,0)">
        <path
          fill="#96501b"
          fill-opacity="1"
          d=" M-41.33399963378906,-27.44300079345703 C-42.513999938964844,-30.871999740600586 -42.707000732421875,-34.652000427246094 -42.36899948120117,-38.62300109863281 C-39.88600158691406,-35.59199905395508 -38.15299987792969,-32.305999755859375 -37.400001525878906,-28.684999465942383 C-33.51100158691406,-29.812000274658203 -29.718000411987305,-30.198999404907227 -26.082000732421875,-29.375 C-28.722000122070312,-26.81599998474121 -32.00600051879883,-25.100000381469727 -36.02000045776367,-24.336999893188477 C-35.27899932861328,-21.065000534057617 -35.124000549316406,-17.236000061035156 -35.400001525878906,-12.99899959564209 C-37.69499969482422,-16.364999771118164 -39.4630012512207,-19.715999603271484 -40.28200149536133,-23.040000915527344 C-43.60300064086914,-21.93000030517578 -47.45199966430664,-21.900999069213867 -51.599998474121094,-22.486000061035156 C-48.266998291015625,-25.124000549316406 -44.86899948120117,-27.038000106811523 -41.33399963378906,-27.44300079345703z"
        />
      </g>
    </g>
    <g
      transform="matrix(0.23999999463558197,0,0,0.23999999463558197,225,145)"
      opacity="1"
      style="display: none"
    >
      <g
        opacity="1"
        transform="matrix(0.00017978389223571867,0,0,0.00017978389223571867,0,0)"
      >
        <path
          fill="rgb(255,255,255)"
          fill-opacity="1"
          d=" M1.2246467572939613e-14,-200 C1.2246467572939613e-14,-200 0.5733515024185181,-13.5687837600708 7.071067810058594,-7.071067810058594 C13.5687837600708,-0.5733515024185181 200,0 200,0 C200,0 13.5687837600708,0.5733515024185181 7.071067810058594,7.071067810058594 C0.5733515024185181,13.5687837600708 1.2246467572939613e-14,200 1.2246467572939613e-14,200 C1.2246467572939613e-14,200 -0.5733515024185181,13.5687837600708 -7.071067810058594,7.071067810058594 C-13.5687837600708,0.5733515024185181 -200,2.4492935145879226e-14 -200,2.4492935145879226e-14 C-200,2.4492935145879226e-14 -13.5687837600708,-0.5733515024185181 -7.071067810058594,-7.071067810058594 C-0.5733515024185181,-13.5687837600708 1.2246467572939613e-14,-200 1.2246467572939613e-14,-200z"
        />
      </g>
    </g>
    <g
      transform="matrix(0.23999999463558197,0,0,0.23999999463558197,125,210)"
      opacity="1"
      style="display: none"
    >
      <g opacity="1" transform="matrix(0,0,0,0,0,0)">
        <path
          fill="rgb(255,255,255)"
          fill-opacity="1"
          d=" M1.2246467572939613e-14,-200 C1.2246467572939613e-14,-200 0.5733515024185181,-13.5687837600708 7.071067810058594,-7.071067810058594 C13.5687837600708,-0.5733515024185181 200,0 200,0 C200,0 13.5687837600708,0.5733515024185181 7.071067810058594,7.071067810058594 C0.5733515024185181,13.5687837600708 1.2246467572939613e-14,200 1.2246467572939613e-14,200 C1.2246467572939613e-14,200 -0.5733515024185181,13.5687837600708 -7.071067810058594,7.071067810058594 C-13.5687837600708,0.5733515024185181 -200,2.4492935145879226e-14 -200,2.4492935145879226e-14 C-200,2.4492935145879226e-14 -13.5687837600708,-0.5733515024185181 -7.071067810058594,-7.071067810058594 C-0.5733515024185181,-13.5687837600708 1.2246467572939613e-14,-200 1.2246467572939613e-14,-200z"
        />
      </g>
    </g>
    <g
      transform="matrix(0.23999999463558197,0,0,0.23999999463558197,225,185)"
      opacity="1"
      style="display: none"
    >
      <g opacity="1" transform="matrix(0,0,0,0,0,0)">
        <path
          fill="rgb(255,255,255)"
          fill-opacity="1"
          d=" M1.2246467572939613e-14,-200 C1.2246467572939613e-14,-200 0.5733515024185181,-13.5687837600708 7.071067810058594,-7.071067810058594 C13.5687837600708,-0.5733515024185181 200,0 200,0 C200,0 13.5687837600708,0.5733515024185181 7.071067810058594,7.071067810058594 C0.5733515024185181,13.5687837600708 1.2246467572939613e-14,200 1.2246467572939613e-14,200 C1.2246467572939613e-14,200 -0.5733515024185181,13.5687837600708 -7.071067810058594,7.071067810058594 C-13.5687837600708,0.5733515024185181 -200,2.4492935145879226e-14 -200,2.4492935145879226e-14 C-200,2.4492935145879226e-14 -13.5687837600708,-0.5733515024185181 -7.071067810058594,-7.071067810058594 C-0.5733515024185181,-13.5687837600708 1.2246467572939613e-14,-200 1.2246467572939613e-14,-200z"
        />
      </g>
    </g>
    <g
      transform="matrix(0.23999999463558197,0,0,0.23999999463558197,145,160)"
      opacity="1"
      style="display: none"
    >
      <g opacity="1" transform="matrix(0,0,0,0,0,0)">
        <path
          fill="rgb(255,255,255)"
          fill-opacity="1"
          d=" M1.2246467572939613e-14,-200 C1.2246467572939613e-14,-200 0.5733515024185181,-13.5687837600708 7.071067810058594,-7.071067810058594 C13.5687837600708,-0.5733515024185181 200,0 200,0 C200,0 13.5687837600708,0.5733515024185181 7.071067810058594,7.071067810058594 C0.5733515024185181,13.5687837600708 1.2246467572939613e-14,200 1.2246467572939613e-14,200 C1.2246467572939613e-14,200 -0.5733515024185181,13.5687837600708 -7.071067810058594,7.071067810058594 C-13.5687837600708,0.5733515024185181 -200,2.4492935145879226e-14 -200,2.4492935145879226e-14 C-200,2.4492935145879226e-14 -13.5687837600708,-0.5733515024185181 -7.071067810058594,-7.071067810058594 C-0.5733515024185181,-13.5687837600708 1.2246467572939613e-14,-200 1.2246467572939613e-14,-200z"
        />
      </g>
    </g>
    <g
      transform="matrix(0.23999999463558197,0,0,0.23999999463558197,190,220)"
      opacity="1"
      style="display: none"
    >
      <g opacity="1" transform="matrix(0,0,0,0,0,0)">
        <path
          fill="rgb(255,255,255)"
          fill-opacity="1"
          d=" M1.2246467572939613e-14,-200 C1.2246467572939613e-14,-200 0.5733515024185181,-13.5687837600708 7.071067810058594,-7.071067810058594 C13.5687837600708,-0.5733515024185181 200,0 200,0 C200,0 13.5687837600708,0.5733515024185181 7.071067810058594,7.071067810058594 C0.5733515024185181,13.5687837600708 1.2246467572939613e-14,200 1.2246467572939613e-14,200 C1.2246467572939613e-14,200 -0.5733515024185181,13.5687837600708 -7.071067810058594,7.071067810058594 C-13.5687837600708,0.5733515024185181 -200,2.4492935145879226e-14 -200,2.4492935145879226e-14 C-200,2.4492935145879226e-14 -13.5687837600708,-0.5733515024185181 -7.071067810058594,-7.071067810058594 C-0.5733515024185181,-13.5687837600708 1.2246467572939613e-14,-200 1.2246467572939613e-14,-200z"
        />
      </g>
    </g>
  </g>
</svg>
