<?xml version="1.0" encoding="iso-8859-1"?>
<!-- Uploaded to: SVG Repo, www.svgrepo.com, Generator: SVG Repo Mixer Tools -->
<svg
  version="1.1"
  id="Layer_1"
  xmlns="http://www.w3.org/2000/svg"
  xmlns:xlink="http://www.w3.org/1999/xlink"
  viewBox="0 0 473.931 473.931"
  xml:space="preserve"
  style="transform: rotate(-90deg)"
>
  <path
    style="fill: #c48d59"
    d="M113.903,379.224c-5.306,5.302-13.916,5.302-19.214,0l0,0c-5.313-5.313-5.313-13.912,0-19.221
	l99.456-99.46c5.298-5.291,13.901-5.291,19.214,0.011l0,0c5.298,5.295,5.298,13.893-0.007,19.21L113.903,379.224z"
  />

  <path
    style="fill: #a07238"
    d="M191.78,245.504l-13.893,13.886c0,0,12.688,28.026,39.977,32.329l10.077-10.073v-13.029
	L191.78,245.504z"
  />
  <path
    style="fill: #c48d59"
    d="M201.909,120.545c-41.825,41.822-41.825,109.637,0,151.451
	c41.84,41.833,109.637,41.833,151.463,0.011c41.825-41.825,41.825-109.641,0-151.463C311.546,78.715,243.746,78.715,201.909,120.545
	z M334.281,252.913c-31.27,31.277-81.997,31.285-113.274,0c-31.285-31.274-31.285-82.004,0-113.274
	c31.277-31.285,82.004-31.285,113.274-0.007C365.574,170.916,365.566,221.636,334.281,252.913z"
  />
  <g style="opacity: 0.7">
    <rect
      x="267.723"
      y="161.794"
      style="fill: #ffffff"
      width="19.843"
      height="68.953"
    />
  </g>
</svg>
